  0
SECTION
  2
HEADER
  9
$ACADVER
  1
AC1027
  9
$ACADMAINTVER
 70
105
  9
$DWGCODEPAGE
  3
ANSI_1252
  9
$LASTSAVEDBY
  1
ezdxf
  9
$REQUIREDVERSIONS
160
0
  9
$INSBASE
 10
0.0
 20
0.0
 30
0.0
  9
$EXTMIN
 10
1e+20
 20
1e+20
 30
1e+20
  9
$EXTMAX
 10
-1e+20
 20
-1e+20
 30
-1e+20
  9
$LIMMIN
 10
0.0
 20
0.0
  9
$LIMMAX
 10
420.0
 20
297.0
  9
$ORTHOMODE
 70
0
  9
$REGENMODE
 70
1
  9
$FILLMODE
 70
1
  9
$QTEXTMODE
 70
0
  9
$MIRRTEXT
 70
1
  9
$LTSCALE
 40
1.0
  9
$ATTMODE
 70
1
  9
$TEXTSIZE
 40
2.5
  9
$TRACEWID
 40
1.0
  9
$TEXTSTYLE
  7
Standard
  9
$CLAYER
  8
0
  9
$CELTYPE
  6
ByLayer
  9
$CECOLOR
 62
256
  9
$CELTSCALE
 40
1.0
  9
$DISPSILH
 70
0
  9
$DIMSCALE
 40
1.0
  9
$DIMASZ
 40
2.5
  9
$DIMEXO
 40
0.625
  9
$DIMDLI
 40
3.75
  9
$DIMRND
 40
0.0
  9
$DIMDLE
 40
0.0
  9
$DIMEXE
 40
1.25
  9
$DIMTP
 40
0.0
  9
$DIMTM
 40
0.0
  9
$DIMTXT
 40
2.5
  9
$DIMCEN
 40
2.5
  9
$DIMTSZ
 40
0.0
  9
$DIMTOL
 70
0
  9
$DIMLIM
 70
0
  9
$DIMTIH
 70
0
  9
$DIMTOH
 70
0
  9
$DIMSE1
 70
0
  9
$DIMSE2
 70
0
  9
$DIMTAD
 70
1
  9
$DIMZIN
 70
8
  9
$DIMBLK
  1

  9
$DIMASO
 70
1
  9
$DIMSHO
 70
1
  9
$DIMPOST
  1

  9
$DIMAPOST
  1

  9
$DIMALT
 70
0
  9
$DIMALTD
 70
3
  9
$DIMALTF
 40
0.03937007874
  9
$DIMLFAC
 40
1.0
  9
$DIMTOFL
 70
1
  9
$DIMTVP
 40
0.0
  9
$DIMTIX
 70
0
  9
$DIMSOXD
 70
0
  9
$DIMSAH
 70
0
  9
$DIMBLK1
  1

  9
$DIMBLK2
  1

  9
$DIMSTYLE
  2
ISO-25
  9
$DIMCLRD
 70
0
  9
$DIMCLRE
 70
0
  9
$DIMCLRT
 70
0
  9
$DIMTFAC
 40
1.0
  9
$DIMGAP
 40
0.625
  9
$DIMJUST
 70
0
  9
$DIMSD1
 70
0
  9
$DIMSD2
 70
0
  9
$DIMTOLJ
 70
0
  9
$DIMTZIN
 70
8
  9
$DIMALTZ
 70
0
  9
$DIMALTTZ
 70
0
  9
$DIMUPT
 70
0
  9
$DIMDEC
 70
2
  9
$DIMTDEC
 70
2
  9
$DIMALTU
 70
2
  9
$DIMALTTD
 70
3
  9
$DIMTXSTY
  7
Standard
  9
$DIMAUNIT
 70
0
  9
$DIMADEC
 70
0
  9
$DIMALTRND
 40
0.0
  9
$DIMAZIN
 70
0
  9
$DIMDSEP
 70
44
  9
$DIMATFIT
 70
3
  9
$DIMFRAC
 70
0
  9
$DIMLDRBLK
  1

  9
$DIMLUNIT
 70
2
  9
$DIMLWD
 70
-2
  9
$DIMLWE
 70
-2
  9
$DIMTMOVE
 70
0
  9
$DIMFXL
 40
1.0
  9
$DIMFXLON
 70
0
  9
$DIMJOGANG
 40
0.785398163397
  9
$DIMTFILL
 70
0
  9
$DIMTFILLCLR
 70
0
  9
$DIMARCSYM
 70
0
  9
$DIMLTYPE
  6

  9
$DIMLTEX1
  6

  9
$DIMLTEX2
  6

  9
$DIMTXTDIRECTION
 70
0
  9
$LUNITS
 70
2
  9
$LUPREC
 70
4
  9
$SKETCHINC
 40
1.0
  9
$FILLETRAD
 40
10.0
  9
$AUNITS
 70
0
  9
$AUPREC
 70
2
  9
$MENU
  1
.
  9
$ELEVATION
 40
0.0
  9
$PELEVATION
 40
0.0
  9
$THICKNESS
 40
0.0
  9
$LIMCHECK
 70
0
  9
$CHAMFERA
 40
0.0
  9
$CHAMFERB
 40
0.0
  9
$CHAMFERC
 40
0.0
  9
$CHAMFERD
 40
0.0
  9
$SKPOLY
 70
0
  9
$TDCREATE
 40
2461090.600578704
  9
$TDUCREATE
 40
2458532.153996898
  9
$TDUPDATE
 40
2461090.600578704
  9
$TDUUPDATE
 40
2458532.1544311
  9
$TDINDWG
 40
0.0
  9
$TDUSRTIMER
 40
0.0
  9
$USRTIMER
 70
1
  9
$ANGBASE
 50
0.0
  9
$ANGDIR
 70
0
  9
$PDMODE
 70
0
  9
$PDSIZE
 40
0.0
  9
$PLINEWID
 40
0.0
  9
$SPLFRAME
 70
0
  9
$SPLINETYPE
 70
6
  9
$SPLINESEGS
 70
8
  9
$HANDSEED
  5
22C
  9
$SURFTAB1
 70
6
  9
$SURFTAB2
 70
6
  9
$SURFTYPE
 70
6
  9
$SURFU
 70
6
  9
$SURFV
 70
6
  9
$UCSBASE
  2

  9
$UCSNAME
  2

  9
$UCSORG
 10
0.0
 20
0.0
 30
0.0
  9
$UCSXDIR
 10
1.0
 20
0.0
 30
0.0
  9
$UCSYDIR
 10
0.0
 20
1.0
 30
0.0
  9
$UCSORTHOREF
  2

  9
$UCSORTHOVIEW
 70
0
  9
$UCSORGTOP
 10
0.0
 20
0.0
 30
0.0
  9
$UCSORGBOTTOM
 10
0.0
 20
0.0
 30
0.0
  9
$UCSORGLEFT
 10
0.0
 20
0.0
 30
0.0
  9
$UCSORGRIGHT
 10
0.0
 20
0.0
 30
0.0
  9
$UCSORGFRONT
 10
0.0
 20
0.0
 30
0.0
  9
$UCSORGBACK
 10
0.0
 20
0.0
 30
0.0
  9
$PUCSBASE
  2

  9
$PUCSNAME
  2

  9
$PUCSORG
 10
0.0
 20
0.0
 30
0.0
  9
$PUCSXDIR
 10
1.0
 20
0.0
 30
0.0
  9
$PUCSYDIR
 10
0.0
 20
1.0
 30
0.0
  9
$PUCSORTHOREF
  2

  9
$PUCSORTHOVIEW
 70
0
  9
$PUCSORGTOP
 10
0.0
 20
0.0
 30
0.0
  9
$PUCSORGBOTTOM
 10
0.0
 20
0.0
 30
0.0
  9
$PUCSORGLEFT
 10
0.0
 20
0.0
 30
0.0
  9
$PUCSORGRIGHT
 10
0.0
 20
0.0
 30
0.0
  9
$PUCSORGFRONT
 10
0.0
 20
0.0
 30
0.0
  9
$PUCSORGBACK
 10
0.0
 20
0.0
 30
0.0
  9
$USERI1
 70
0
  9
$USERI2
 70
0
  9
$USERI3
 70
0
  9
$USERI4
 70
0
  9
$USERI5
 70
0
  9
$USERR1
 40
0.0
  9
$USERR2
 40
0.0
  9
$USERR3
 40
0.0
  9
$USERR4
 40
0.0
  9
$USERR5
 40
0.0
  9
$WORLDVIEW
 70
1
  9
$SHADEDGE
 70
3
  9
$SHADEDIF
 70
70
  9
$TILEMODE
 70
1
  9
$MAXACTVP
 70
64
  9
$PINSBASE
 10
0.0
 20
0.0
 30
0.0
  9
$PLIMCHECK
 70
0
  9
$PEXTMIN
 10
1e+20
 20
1e+20
 30
1e+20
  9
$PEXTMAX
 10
-1e+20
 20
-1e+20
 30
-1e+20
  9
$PLIMMIN
 10
0.0
 20
0.0
  9
$PLIMMAX
 10
420.0
 20
297.0
  9
$UNITMODE
 70
0
  9
$VISRETAIN
 70
1
  9
$PLINEGEN
 70
0
  9
$PSLTSCALE
 70
1
  9
$TREEDEPTH
 70
3020
  9
$CMLSTYLE
  2
Standard
  9
$CMLJUST
 70
0
  9
$CMLSCALE
 40
20.0
  9
$PROXYGRAPHICS
 70
1
  9
$MEASUREMENT
 70
1
  9
$CELWEIGHT
370
-1
  9
$ENDCAPS
280
0
  9
$JOINSTYLE
280
0
  9
$LWDISPLAY
290
0
  9
$INSUNITS
 70
6
  9
$HYPERLINKBASE
  1

  9
$STYLESHEET
  1

  9
$XEDIT
290
1
  9
$CEPSNTYPE
380
0
  9
$PSTYLEMODE
290
1
  9
$FINGERPRINTGUID
  2
{3C546A7A-48A0-4024-B5FC-89921654231C}
  9
$VERSIONGUID
  2
{D53D3111-4357-44E0-A464-240F183044A7}
  9
$EXTNAMES
290
1
  9
$PSVPSCALE
 40
0.0
  9
$OLESTARTUP
290
0
  9
$SORTENTS
280
127
  9
$INDEXCTL
280
0
  9
$HIDETEXT
280
1
  9
$XCLIPFRAME
280
1
  9
$HALOGAP
280
0
  9
$OBSCOLOR
 70
257
  9
$OBSLTYPE
280
0
  9
$INTERSECTIONDISPLAY
280
0
  9
$INTERSECTIONCOLOR
 70
257
  9
$DIMASSOC
280
2
  9
$PROJECTNAME
  1

  9
$CAMERADISPLAY
290
0
  9
$LENSLENGTH
 40
50.0
  9
$CAMERAHEIGHT
 40
0.0
  9
$STEPSPERSEC
 40
24.0
  9
$STEPSIZE
 40
100.0
  9
$3DDWFPREC
 40
2.0
  9
$PSOLWIDTH
 40
0.005
  9
$PSOLHEIGHT
 40
0.08
  9
$LOFTANG1
 40
1.570796326795
  9
$LOFTANG2
 40
1.570796326795
  9
$LOFTMAG1
 40
0.0
  9
$LOFTMAG2
 40
0.0
  9
$LOFTPARAM
 70
7
  9
$LOFTNORMALS
280
1
  9
$LATITUDE
 40
37.795
  9
$LONGITUDE
 40
-122.394
  9
$NORTHDIRECTION
 40
0.0
  9
$TIMEZONE
 70
-8000
  9
$LIGHTGLYPHDISPLAY
280
1
  9
$TILEMODELIGHTSYNCH
280
1
  9
$CMATERIAL
347
20
  9
$SOLIDHIST
280
0
  9
$SHOWHIST
280
1
  9
$DWFFRAME
280
2
  9
$DGNFRAME
280
2
  9
$REALWORLDSCALE
290
1
  9
$INTERFERECOLOR
 62
256
  9
$CSHADOW
280
0
  9
$SHADOWPLANELOCATION
 40
0.0
  0
ENDSEC
  0
SECTION
  2
CLASSES
  0
CLASS
  1
ACDBDICTIONARYWDFLT
  2
AcDbDictionaryWithDefault
  3
ObjectDBX Classes
 90
0
 91
0
280
0
281
0
  0
CLASS
  1
SUN
  2
AcDbSun
  3
SCENEOE
 90
1153
 91
0
280
0
281
0
  0
CLASS
  1
VISUALSTYLE
  2
AcDbVisualStyle
  3
ObjectDBX Classes
 90
4095
 91
0
280
0
281
0
  0
CLASS
  1
MATERIAL
  2
AcDbMaterial
  3
ObjectDBX Classes
 90
1153
 91
0
280
0
281
0
  0
CLASS
  1
SCALE
  2
AcDbScale
  3
ObjectDBX Classes
 90
1153
 91
0
280
0
281
0
  0
CLASS
  1
TABLESTYLE
  2
AcDbTableStyle
  3
ObjectDBX Classes
 90
4095
 91
0
280
0
281
0
  0
CLASS
  1
MLEADERSTYLE
  2
AcDbMLeaderStyle
  3
ACDB_MLEADERSTYLE_CLASS
 90
4095
 91
0
280
0
281
0
  0
CLASS
  1
DICTIONARYVAR
  2
AcDbDictionaryVar
  3
ObjectDBX Classes
 90
0
 91
0
280
0
281
0
  0
CLASS
  1
CELLSTYLEMAP
  2
AcDbCellStyleMap
  3
ObjectDBX Classes
 90
1152
 91
0
280
0
281
0
  0
CLASS
  1
MENTALRAYRENDERSETTINGS
  2
AcDbMentalRayRenderSettings
  3
SCENEOE
 90
1024
 91
0
280
0
281
0
  0
CLASS
  1
ACDBDETAILVIEWSTYLE
  2
AcDbDetailViewStyle
  3
ObjectDBX Classes
 90
1025
 91
0
280
0
281
0
  0
CLASS
  1
ACDBSECTIONVIEWSTYLE
  2
AcDbSectionViewStyle
  3
ObjectDBX Classes
 90
1025
 91
0
280
0
281
0
  0
CLASS
  1
RASTERVARIABLES
  2
AcDbRasterVariables
  3
ISM
 90
0
 91
0
280
0
281
0
  0
CLASS
  1
ACDBPLACEHOLDER
  2
AcDbPlaceHolder
  3
ObjectDBX Classes
 90
0
 91
0
280
0
281
0
  0
CLASS
  1
LAYOUT
  2
AcDbLayout
  3
ObjectDBX Classes
 90
0
 91
0
280
0
281
0
  0
ENDSEC
  0
SECTION
  2
TABLES
  0
TABLE
  2
VPORT
  5
8
330
0
100
AcDbSymbolTable
 70
1
  0
VPORT
  5
23
330
8
100
AcDbSymbolTableRecord
100
AcDbViewportTableRecord
  2
*Active
 70
0
 10
0.0
 20
0.0
 11
1.0
 21
1.0
 12
0.0
 22
0.0
 13
0.0
 23
0.0
 14
0.5
 24
0.5
 15
0.5
 25
0.5
 16
0.0
 26
0.0
 36
1.0
 17
0.0
 27
0.0
 37
0.0
 40
1000.0
 41
1.34
 42
50.0
 43
0.0
 44
0.0
 50
0.0
 51
0.0
 71
0
 72
1000
 73
1
 74
3
 75
0
 76
0
 77
0
 78
0
281
0
 65
0
146
0.0
  0
ENDTAB
  0
TABLE
  2
LTYPE
  5
2
330
0
100
AcDbSymbolTable
 70
3
  0
LTYPE
  5
24
330
2
100
AcDbSymbolTableRecord
100
AcDbLinetypeTableRecord
  2
ByBlock
 70
0
  3

 72
65
 73
0
 40
0.0
  0
LTYPE
  5
25
330
2
100
AcDbSymbolTableRecord
100
AcDbLinetypeTableRecord
  2
ByLayer
 70
0
  3

 72
65
 73
0
 40
0.0
  0
LTYPE
  5
26
330
2
100
AcDbSymbolTableRecord
100
AcDbLinetypeTableRecord
  2
Continuous
 70
0
  3

 72
65
 73
0
 40
0.0
  0
ENDTAB
  0
TABLE
  2
LAYER
  5
1
330
0
100
AcDbSymbolTable
 70
2
  0
LAYER
  5
27
330
1
100
AcDbSymbolTableRecord
100
AcDbLayerTableRecord
  2
0
 70
0
 62
7
  6
Continuous
370
-3
390
13
347
21
  0
LAYER
  5
28
330
1
100
AcDbSymbolTableRecord
100
AcDbLayerTableRecord
  2
Defpoints
 70
0
 62
7
  6
Continuous
290
0
370
-3
390
13
347
21
  0
ENDTAB
  0
TABLE
  2
STYLE
  5
5
330
0
100
AcDbSymbolTable
 70
1
  0
STYLE
  5
29
330
5
100
AcDbSymbolTableRecord
100
AcDbTextStyleTableRecord
  2
Standard
 70
0
 40
0.0
 41
1.0
 50
0.0
 71
0
 42
2.5
  3
txt
  4

  0
ENDTAB
  0
TABLE
  2
VIEW
  5
7
330
0
100
AcDbSymbolTable
 70
0
  0
ENDTAB
  0
TABLE
  2
UCS
  5
6
330
0
100
AcDbSymbolTable
 70
0
  0
ENDTAB
  0
TABLE
  2
APPID
  5
3
330
0
100
AcDbSymbolTable
 70
3
  0
APPID
  5
2A
330
3
100
AcDbSymbolTableRecord
100
AcDbRegAppTableRecord
  2
ACAD
 70
0
  0
APPID
  5
229
330
3
100
AcDbSymbolTableRecord
100
AcDbRegAppTableRecord
  2
HATCHBACKGROUNDCOLOR
 70
0
  0
APPID
  5
22A
330
3
100
AcDbSymbolTableRecord
100
AcDbRegAppTableRecord
  2
EZDXF
 70
0
  0
ENDTAB
  0
TABLE
  2
DIMSTYLE
  5
4
330
0
100
AcDbSymbolTable
 70
1
100
AcDbDimStyleTable
  0
DIMSTYLE
105
2B
330
4
100
AcDbSymbolTableRecord
100
AcDbDimStyleTableRecord
  2
Standard
 70
0
 40
1.0
 41
2.5
 42
0.625
 43
3.75
 44
1.25
 45
0.0
 46
0.0
 47
0.0
 48
0.0
 49
2.5
140
2.5
141
2.5
142
0.0
143
0.03937007874
144
1.0
145
0.0
146
1.0
147
0.625
148
0.0
 69
0
 70
0
 71
0
 72
0
 73
0
 74
0
 75
0
 76
0
 77
1
 78
8
 79
3
170
0
171
3
172
1
173
0
174
0
175
0
176
0
177
0
178
0
179
2
271
2
272
2
273
2
274
3
275
0
276
0
277
2
278
44
279
0
280
0
281
0
282
0
283
0
284
8
285
0
286
0
288
0
289
3
290
0
371
-2
372
-2
  0
ENDTAB
  0
TABLE
  2
BLOCK_RECORD
  5
9
330
0
100
AcDbSymbolTable
 70
2
  0
BLOCK_RECORD
  5
17
330
9
100
AcDbSymbolTableRecord
100
AcDbBlockTableRecord
  2
*Model_Space
340
1A
 70
0
280
1
281
0
  0
BLOCK_RECORD
  5
1B
330
9
100
AcDbSymbolTableRecord
100
AcDbBlockTableRecord
  2
*Paper_Space
340
1E
 70
0
280
1
281
0
  0
ENDTAB
  0
ENDSEC
  0
SECTION
  2
BLOCKS
  0
BLOCK
  5
18
330
17
100
AcDbEntity
  8
0
100
AcDbBlockBegin
  2
*Model_Space
 70
0
 10
0.0
 20
0.0
 30
0.0
  3
*Model_Space
  1

  0
ENDBLK
  5
19
330
17
100
AcDbEntity
  8
0
100
AcDbBlockEnd
  0
BLOCK
  5
1C
330
1B
100
AcDbEntity
  8
0
100
AcDbBlockBegin
  2
*Paper_Space
 70
0
 10
0.0
 20
0.0
 30
0.0
  3
*Paper_Space
  1

  0
ENDBLK
  5
1D
330
1B
100
AcDbEntity
  8
0
100
AcDbBlockEnd
  0
ENDSEC
  0
SECTION
  2
ENTITIES
  0
LWPOLYLINE
  5
2F
330
17
100
AcDbEntity
  8
0
100
AcDbPolyline
 90
5
 70
1
 10
0.0
 20
0.0
 10
500.0
 20
0.0
 10
500.0
 20
1000.0
 10
0.0
 20
1000.0
 10
0.0
 20
0.0
  0
LWPOLYLINE
  5
30
330
17
100
AcDbEntity
  8
0
100
AcDbPolyline
 90
5
 70
1
 10
0.0
 20
0.0
 10
65.0
 20
0.0
 10
65.0
 20
108.0
 10
0.0
 20
108.0
 10
0.0
 20
0.0
  0
MTEXT
  5
31
330
17
100
AcDbEntity
  8
0
100
AcDbMText
 10
32.5
 20
54.0
 30
0.0
 40
5.0
 71
5
  1
Glass Pane\P12.0kg\PGlass
  0
LWPOLYLINE
  5
32
330
17
100
AcDbEntity
  8
0
100
AcDbPolyline
 90
5
 70
1
 10
75.0
 20
0.0
 10
108.0
 20
0.0
 10
108.0
 20
109.0
 10
75.0
 20
109.0
 10
75.0
 20
0.0
  0
MTEXT
  5
33
330
17
100
AcDbEntity
  8
0
100
AcDbMText
 10
91.5
 20
54.5
 30
0.0
 40
5.0
 71
5
  1
Concrete Pipe\P45.0kg\PConcrete
  0
LWPOLYLINE
  5
34
330
17
100
AcDbEntity
  8
0
100
AcDbPolyline
 90
5
 70
1
 10
0.0
 20
118.0
 10
19.0
 20
118.0
 10
19.0
 20
492.0
 10
0.0
 20
492.0
 10
0.0
 20
118.0
  0
MTEXT
  5
35
330
17
100
AcDbEntity
  8
0
100
AcDbMText
 10
9.5
 20
305.0
 30
0.0
 40
5.0
 71
5
  1
Wood Beam\P18.0kg\PWood
  0
LWPOLYLINE
  5
36
330
17
100
AcDbEntity
  8
0
100
AcDbPolyline
 90
5
 70
1
 10
118.0
 20
0.0
 10
132.0
 20
0.0
 10
132.0
 20
180.0
 10
118.0
 20
180.0
 10
118.0
 20
0.0
  0
MTEXT
  5
37
330
17
100
AcDbEntity
  8
0
100
AcDbMText
 10
125.0
 20
90.0
 30
0.0
 40
5.0
 71
5
  1
Plastic Pipe\P3.0kg\PPlastic
  0
LWPOLYLINE
  5
38
330
17
100
AcDbEntity
  8
0
100
AcDbPolyline
 90
5
 70
1
 10
75.0
 20
119.0
 10
93.0
 20
119.0
 10
93.0
 20
485.0
 10
75.0
 20
485.0
 10
75.0
 20
119.0
  0
MTEXT
  5
39
330
17
100
AcDbEntity
  8
0
100
AcDbMText
 10
84.0
 20
302.0
 30
0.0
 40
5.0
 71
5
  1
Wood Beam\P18.0kg\PWood
  0
LWPOLYLINE
  5
3A
330
17
100
AcDbEntity
  8
0
100
AcDbPolyline
 90
5
 70
1
 10
29.0
 20
118.0
 10
55.0
 20
118.0
 10
55.0
 20
430.0
 10
29.0
 20
430.0
 10
29.0
 20
118.0
  0
MTEXT
  5
3B
330
17
100
AcDbEntity
  8
0
100
AcDbMText
 10
42.0
 20
274.0
 30
0.0
 40
5.0
 71
5
  1
Wood Plank\P12.0kg\PWood
  0
LWPOLYLINE
  5
3C
330
17
100
AcDbEntity
  8
0
100
AcDbPolyline
 90
5
 70
1
 10
0.0
 20
502.0
 10
52.0
 20
502.0
 10
52.0
 20
554.0
 10
0.0
 20
554.0
 10
0.0
 20
502.0
  0
MTEXT
  5
3D
330
17
100
AcDbEntity
  8
0
100
AcDbMText
 10
26.0
 20
528.0
 30
0.0
 40
5.0
 71
5
  1
Concrete Tile\P15.0kg\PConcrete
  0
LWPOLYLINE
  5
3E
330
17
100
AcDbEntity
  8
0
100
AcDbPolyline
 90
5
 70
1
 10
142.0
 20
0.0
 10
183.0
 20
0.0
 10
183.0
 20
81.0
 10
142.0
 20
81.0
 10
142.0
 20
0.0
  0
MTEXT
  5
3F
330
17
100
AcDbEntity
  8
0
100
AcDbMText
 10
162.5
 20
40.5
 30
0.0
 40
5.0
 71
5
  1
Concrete Block\P30.0kg\PConcrete
  0
LWPOLYLINE
  5
40
330
17
100
AcDbEntity
  8
0
100
AcDbPolyline
 90
5
 70
1
 10
118.0
 20
190.0
 10
164.0
 20
190.0
 10
164.0
 20
236.0
 10
118.0
 20
236.0
 10
118.0
 20
190.0
  0
MTEXT
  5
41
330
17
100
AcDbEntity
  8
0
100
AcDbMText
 10
141.0
 20
213.0
 30
0.0
 40
5.0
 71
5
  1
Plastic Bin\P4.0kg\PPlastic
  0
LWPOLYLINE
  5
42
330
17
100
AcDbEntity
  8
0
100
AcDbPolyline
 90
5
 70
1
 10
75.0
 20
495.0
 10
186.0
 20
495.0
 10
186.0
 20
717.0
 10
75.0
 20
717.0
 10
75.0
 20
495.0
  0
MTEXT
  5
43
330
17
100
AcDbEntity
  8
0
100
AcDbMText
 10
130.5
 20
606.0
 30
0.0
 40
5.0
 71
5
  1
Wood Sheet\P20.0kg\PWood
  0
LWPOLYLINE
  5
44
330
17
100
AcDbEntity
  8
0
100
AcDbPolyline
 90
5
 70
1
 10
0.0
 20
564.0
 10
44.0
 20
564.0
 10
44.0
 20
651.0
 10
0.0
 20
651.0
 10
0.0
 20
564.0
  0
MTEXT
  5
45
330
17
100
AcDbEntity
  8
0
100
AcDbMText
 10
22.0
 20
607.5
 30
0.0
 40
5.0
 71
5
  1
Concrete Block\P30.0kg\PConcrete
  0
LWPOLYLINE
  5
46
330
17
100
AcDbEntity
  8
0
100
AcDbPolyline
 90
5
 70
1
 10
193.0
 20
0.0
 10
207.0
 20
0.0
 10
207.0
 20
182.0
 10
193.0
 20
182.0
 10
193.0
 20
0.0
  0
MTEXT
  5
47
330
17
100
AcDbEntity
  8
0
100
AcDbMText
 10
200.0
 20
91.0
 30
0.0
 40
5.0
 71
5
  1
Plastic Pipe\P3.0kg\PPlastic
  0
LWPOLYLINE
  5
48
330
17
100
AcDbEntity
  8
0
100
AcDbPolyline
 90
5
 70
1
 10
118.0
 20
246.0
 10
182.0
 20
246.0
 10
182.0
 20
373.0
 10
118.0
 20
373.0
 10
118.0
 20
246.0
  0
MTEXT
  5
49
330
17
100
AcDbEntity
  8
0
100
AcDbMText
 10
150.0
 20
309.5
 30
0.0
 40
5.0
 71
5
  1
Wood Frame\P8.0kg\PWood
  0
LWPOLYLINE
  5
4A
330
17
100
AcDbEntity
  8
0
100
AcDbPolyline
 90
5
 70
1
 10
196.0
 20
495.0
 10
289.0
 20
495.0
 10
289.0
 20
681.0
 10
196.0
 20
681.0
 10
196.0
 20
495.0
  0
MTEXT
  5
4B
330
17
100
AcDbEntity
  8
0
100
AcDbMText
 10
242.5
 20
588.0
 30
0.0
 40
5.0
 71
5
  1
Plastic Sheet\P8.0kg\PPlastic
  0
LWPOLYLINE
  5
4C
330
17
100
AcDbEntity
  8
0
100
AcDbPolyline
 90
5
 70
1
 10
75.0
 20
727.0
 10
126.0
 20
727.0
 10
126.0
 20
778.0
 10
75.0
 20
778.0
 10
75.0
 20
727.0
  0
MTEXT
  5
4D
330
17
100
AcDbEntity
  8
0
100
AcDbMText
 10
100.5
 20
752.5
 30
0.0
 40
5.0
 71
5
  1
Concrete Tile\P15.0kg\PConcrete
  0
LWPOLYLINE
  5
4E
330
17
100
AcDbEntity
  8
0
100
AcDbPolyline
 90
5
 70
1
 10
0.0
 20
661.0
 10
31.0
 20
661.0
 10
31.0
 20
765.0
 10
0.0
 20
765.0
 10
0.0
 20
661.0
  0
MTEXT
  5
4F
330
17
100
AcDbEntity
  8
0
100
AcDbMText
 10
15.5
 20
713.0
 30
0.0
 40
5.0
 71
5
  1
Concrete Pipe\P45.0kg\PConcrete
  0
LWPOLYLINE
  5
50
330
17
100
AcDbEntity
  8
0
100
AcDbPolyline
 90
5
 70
1
 10
217.0
 20
0.0
 10
351.0
 20
0.0
 10
351.0
 20
267.0
 10
217.0
 20
267.0
 10
217.0
 20
0.0
  0
MTEXT
  5
51
330
17
100
AcDbEntity
  8
0
100
AcDbMText
 10
284.0
 20
133.5
 30
0.0
 40
5.0
 71
5
  1
Wood Sheet\P20.0kg\PWood
  0
LWPOLYLINE
  5
52
330
17
100
AcDbEntity
  8
0
100
AcDbPolyline
 90
5
 70
1
 10
299.0
 20
495.0
 10
417.0
 20
495.0
 10
417.0
 20
731.0
 10
299.0
 20
731.0
 10
299.0
 20
495.0
  0
MTEXT
  5
53
330
17
100
AcDbEntity
  8
0
100
AcDbMText
 10
358.0
 20
613.0
 30
0.0
 40
5.0
 71
5
  1
Wood Sheet\P20.0kg\PWood
  0
LWPOLYLINE
  5
54
330
17
100
AcDbEntity
  8
0
100
AcDbPolyline
 90
5
 70
1
 10
142.0
 20
91.0
 10
181.0
 20
91.0
 10
181.0
 20
170.0
 10
142.0
 20
170.0
 10
142.0
 20
91.0
  0
MTEXT
  5
55
330
17
100
AcDbEntity
  8
0
100
AcDbMText
 10
161.5
 20
130.5
 30
0.0
 40
5.0
 71
5
  1
Concrete Block\P30.0kg\PConcrete
  0
LWPOLYLINE
  5
56
330
17
100
AcDbEntity
  8
0
100
AcDbPolyline
 90
5
 70
1
 10
136.0
 20
727.0
 10
259.0
 20
727.0
 10
259.0
 20
973.0
 10
136.0
 20
973.0
 10
136.0
 20
727.0
  0
MTEXT
  5
57
330
17
100
AcDbEntity
  8
0
100
AcDbMText
 10
197.5
 20
850.0
 30
0.0
 40
5.0
 71
5
  1
Wood Sheet\P20.0kg\PWood
  0
LWPOLYLINE
  5
58
330
17
100
AcDbEntity
  8
0
100
AcDbPolyline
 90
5
 70
1
 10
192.0
 20
246.0
 10
207.0
 20
246.0
 10
207.0
 20
445.0
 10
192.0
 20
445.0
 10
192.0
 20
246.0
  0
MTEXT
  5
59
330
17
100
AcDbEntity
  8
0
100
AcDbMText
 10
199.5
 20
345.5
 30
0.0
 40
5.0
 71
5
  1
Plastic Pipe\P3.0kg\PPlastic
  0
LWPOLYLINE
  5
5A
330
17
100
AcDbEntity
  8
0
100
AcDbPolyline
 90
5
 70
1
 10
0.0
 20
775.0
 10
63.0
 20
775.0
 10
63.0
 20
901.0
 10
0.0
 20
901.0
 10
0.0
 20
775.0
  0
MTEXT
  5
5B
330
17
100
AcDbEntity
  8
0
100
AcDbMText
 10
31.5
 20
838.0
 30
0.0
 40
5.0
 71
5
  1
Concrete Slab\P80.0kg\PConcrete
  0
LWPOLYLINE
  5
5C
330
17
100
AcDbEntity
  8
0
100
AcDbPolyline
 90
5
 70
1
 10
361.0
 20
0.0
 10
448.0
 20
0.0
 10
448.0
 20
131.0
 10
361.0
 20
131.0
 10
361.0
 20
0.0
  0
MTEXT
  5
5D
330
17
100
AcDbEntity
  8
0
100
AcDbMText
 10
404.5
 20
65.5
 30
0.0
 40
5.0
 71
5
  1
Glass Sheet\P18.0kg\PGlass
  0
LWPOLYLINE
  5
5E
330
17
100
AcDbEntity
  8
0
100
AcDbPolyline
 90
5
 70
1
 10
118.0
 20
383.0
 10
177.0
 20
383.0
 10
177.0
 20
481.0
 10
118.0
 20
481.0
 10
118.0
 20
383.0
  0
MTEXT
  5
5F
330
17
100
AcDbEntity
  8
0
100
AcDbMText
 10
147.5
 20
432.0
 30
0.0
 40
5.0
 71
5
  1
Glass Pane\P12.0kg\PGlass
  0
LWPOLYLINE
  5
60
330
17
100
AcDbEntity
  8
0
100
AcDbPolyline
 90
5
 70
1
 10
217.0
 20
277.0
 10
283.0
 20
277.0
 10
283.0
 20
408.0
 10
217.0
 20
408.0
 10
217.0
 20
277.0
  0
MTEXT
  5
61
330
17
100
AcDbEntity
  8
0
100
AcDbMText
 10
250.0
 20
342.5
 30
0.0
 40
5.0
 71
5
  1
Wood Frame\P8.0kg\PWood
  0
LWPOLYLINE
  5
62
330
17
100
AcDbEntity
  8
0
100
AcDbPolyline
 90
5
 70
1
 10
299.0
 20
741.0
 10
389.0
 20
741.0
 10
389.0
 20
921.0
 10
299.0
 20
921.0
 10
299.0
 20
741.0
  0
MTEXT
  5
63
330
17
100
AcDbEntity
  8
0
100
AcDbMText
 10
344.0
 20
831.0
 30
0.0
 40
5.0
 71
5
  1
Plastic Sheet\P8.0kg\PPlastic
  0
LWPOLYLINE
  5
64
330
17
100
AcDbEntity
  8
0
100
AcDbPolyline
 90
5
 70
1
 10
427.0
 20
495.0
 10
479.0
 20
495.0
 10
479.0
 20
547.0
 10
427.0
 20
547.0
 10
427.0
 20
495.0
  0
MTEXT
  5
65
330
17
100
AcDbEntity
  8
0
100
AcDbMText
 10
453.0
 20
521.0
 30
0.0
 40
5.0
 71
5
  1
Concrete Tile\P15.0kg\PConcrete
  0
LWPOLYLINE
  5
66
330
17
100
AcDbEntity
  8
0
100
AcDbPolyline
 90
5
 70
1
 10
75.0
 20
788.0
 10
90.0
 20
788.0
 10
90.0
 20
989.0
 10
75.0
 20
989.0
 10
75.0
 20
788.0
  0
MTEXT
  5
67
330
17
100
AcDbEntity
  8
0
100
AcDbMText
 10
82.5
 20
888.5
 30
0.0
 40
5.0
 71
5
  1
Plastic Pipe\P3.0kg\PPlastic
  0
LWPOLYLINE
  5
68
330
17
100
AcDbEntity
  8
0
100
AcDbPolyline
 90
5
 70
1
 10
361.0
 20
141.0
 10
426.0
 20
141.0
 10
426.0
 20
249.0
 10
361.0
 20
249.0
 10
361.0
 20
141.0
  0
MTEXT
  5
69
330
17
100
AcDbEntity
  8
0
100
AcDbMText
 10
393.5
 20
195.0
 30
0.0
 40
5.0
 71
5
  1
Glass Pane\P12.0kg\PGlass
  0
LWPOLYLINE
  5
6A
330
17
100
AcDbEntity
  8
0
100
AcDbPolyline
 90
5
 70
1
 10
0.0
 20
911.0
 10
47.0
 20
911.0
 10
47.0
 20
958.0
 10
0.0
 20
958.0
 10
0.0
 20
911.0
  0
MTEXT
  5
6B
330
17
100
AcDbEntity
  8
0
100
AcDbMText
 10
23.5
 20
934.5
 30
0.0
 40
5.0
 71
5
  1
Concrete Tile\P15.0kg\PConcrete
  0
LWPOLYLINE
  5
6C
330
17
100
AcDbEntity
  8
0
100
AcDbPolyline
 90
5
 70
1
 10
293.0
 20
277.0
 10
359.0
 20
277.0
 10
359.0
 20
408.0
 10
293.0
 20
408.0
 10
293.0
 20
277.0
  0
MTEXT
  5
6D
330
17
100
AcDbEntity
  8
0
100
AcDbMText
 10
326.0
 20
342.5
 30
0.0
 40
5.0
 71
5
  1
Wood Frame\P8.0kg\PWood
  0
LWPOLYLINE
  5
6E
330
17
100
AcDbEntity
  8
0
100
AcDbPolyline
 90
5
 70
1
 10
217.0
 20
418.0
 10
264.0
 20
418.0
 10
264.0
 20
465.0
 10
217.0
 20
465.0
 10
217.0
 20
418.0
  0
MTEXT
  5
6F
330
17
100
AcDbEntity
  8
0
100
AcDbMText
 10
240.5
 20
441.5
 30
0.0
 40
5.0
 71
5
  1
Concrete Tile\P15.0kg\PConcrete
  0
LWPOLYLINE
  5
70
330
17
100
AcDbEntity
  8
0
100
AcDbPolyline
 90
5
 70
1
 10
458.0
 20
0.0
 10
478.0
 20
0.0
 10
478.0
 20
407.0
 10
458.0
 20
407.0
 10
458.0
 20
0.0
  0
MTEXT
  5
71
330
17
100
AcDbEntity
  8
0
100
AcDbMText
 10
468.0
 20
203.5
 30
0.0
 40
5.0
 71
5
  1
Wood Beam\P18.0kg\PWood
  0
LWPOLYLINE
  5
72
330
17
100
AcDbEntity
  8
0
100
AcDbPolyline
 90
5
 70
1
 10
399.0
 20
741.0
 10
462.0
 20
741.0
 10
462.0
 20
867.0
 10
399.0
 20
867.0
 10
399.0
 20
741.0
  0
MTEXT
  5
73
330
17
100
AcDbEntity
  8
0
100
AcDbMText
 10
430.5
 20
804.0
 30
0.0
 40
5.0
 71
5
  1
Concrete Slab\P80.0kg\PConcrete
  0
LWPOLYLINE
  5
74
330
17
100
AcDbEntity
  8
0
100
AcDbPolyline
 90
5
 70
1
 10
299.0
 20
931.0
 10
410.0
 20
931.0
 10
410.0
 20
987.0
 10
299.0
 20
987.0
 10
299.0
 20
931.0
  0
MTEXT
  5
75
330
17
100
AcDbEntity
  8
0
100
AcDbMText
 10
354.5
 20
959.0
 30
0.0
 40
5.0
 71
5
  1
Concrete Slab\P80.0kg\PConcrete
  0
LWPOLYLINE
  5
76
330
17
100
AcDbEntity
  8
0
100
AcDbPolyline
 90
5
 70
1
 10
427.0
 20
557.0
 10
482.0
 20
557.0
 10
482.0
 20
667.0
 10
427.0
 20
667.0
 10
427.0
 20
557.0
  0
MTEXT
  5
77
330
17
100
AcDbEntity
  8
0
100
AcDbMText
 10
454.5
 20
612.0
 30
0.0
 40
5.0
 71
5
  1
Concrete Slab\P80.0kg\PConcrete
  0
LWPOLYLINE
  5
78
330
17
100
AcDbEntity
  8
0
100
AcDbPolyline
 90
5
 70
1
 10
369.0
 20
277.0
 10
407.0
 20
277.0
 10
407.0
 20
353.0
 10
369.0
 20
353.0
 10
369.0
 20
277.0
  0
MTEXT
  5
79
330
17
100
AcDbEntity
  8
0
100
AcDbMText
 10
388.0
 20
315.0
 30
0.0
 40
5.0
 71
5
  1
Concrete Block\P30.0kg\PConcrete
  0
LWPOLYLINE
  5
7A
330
17
100
AcDbEntity
  8
0
100
AcDbPolyline
 90
5
 70
1
 10
293.0
 20
418.0
 10
389.0
 20
418.0
 10
389.0
 20
476.0
 10
293.0
 20
476.0
 10
293.0
 20
418.0
  0
MTEXT
  5
7B
330
17
100
AcDbEntity
  8
0
100
AcDbMText
 10
341.0
 20
447.0
 30
0.0
 40
5.0
 71
5
  1
Glass Pane\P12.0kg\PGlass
  0
LWPOLYLINE
  5
7C
330
17
100
AcDbEntity
  8
0
100
AcDbPolyline
 90
5
 70
1
 10
420.0
 20
931.0
 10
474.0
 20
931.0
 10
474.0
 20
985.0
 10
420.0
 20
985.0
 10
420.0
 20
931.0
  0
MTEXT
  5
7D
330
17
100
AcDbEntity
  8
0
100
AcDbMText
 10
447.0
 20
958.0
 30
0.0
 40
5.0
 71
5
  1
Concrete Tile\P15.0kg\PConcrete
  0
LWPOLYLINE
  5
7E
330
17
100
AcDbEntity
  8
0
100
AcDbPolyline
 90
5
 70
1
 10
427.0
 20
677.0
 10
475.0
 20
677.0
 10
475.0
 20
725.0
 10
427.0
 20
725.0
 10
427.0
 20
677.0
  0
MTEXT
  5
7F
330
17
100
AcDbEntity
  8
0
100
AcDbMText
 10
451.0
 20
701.0
 30
0.0
 40
5.0
 71
5
  1
Plastic Bin\P4.0kg\PPlastic
  0
LWPOLYLINE
  5
80
330
17
100
AcDbEntity
  8
0
100
AcDbPolyline
 90
5
 70
1
 10
269.0
 20
727.0
 10
283.0
 20
727.0
 10
283.0
 20
919.0
 10
269.0
 20
919.0
 10
269.0
 20
727.0
  0
MTEXT
  5
81
330
17
100
AcDbEntity
  8
0
100
AcDbMText
 10
276.0
 20
823.0
 30
0.0
 40
5.0
 71
5
  1
Plastic Pipe\P3.0kg\PPlastic
  0
LWPOLYLINE
  5
82
330
17
100
AcDbEntity
  8
0
100
AcDbPolyline
 90
5
 70
1
 10
399.0
 20
877.0
 10
480.0
 20
877.0
 10
480.0
 20
918.0
 10
399.0
 20
918.0
 10
399.0
 20
877.0
  0
MTEXT
  5
83
330
17
100
AcDbEntity
  8
0
100
AcDbMText
 10
439.5
 20
897.5
 30
0.0
 40
5.0
 71
5
  1
Concrete Block\P30.0kg\PConcrete
  0
LWPOLYLINE
  5
84
330
17
100
AcDbEntity
  8
0
100
AcDbPolyline
 90
5
 70
1
 10
399.0
 20
418.0
 10
450.0
 20
418.0
 10
450.0
 20
469.0
 10
399.0
 20
469.0
 10
399.0
 20
418.0
  0
MTEXT
  5
85
330
17
100
AcDbEntity
  8
0
100
AcDbMText
 10
424.5
 20
443.5
 30
0.0
 40
5.0
 71
5
  1
Concrete Tile\P15.0kg\PConcrete
  0
LWPOLYLINE
  5
86
330
17
100
AcDbEntity
  8
0
100
AcDbPolyline
 90
5
 70
1
 10
417.0
 20
277.0
 10
446.0
 20
277.0
 10
446.0
 20
375.0
 10
417.0
 20
375.0
 10
417.0
 20
277.0
  0
MTEXT
  5
87
330
17
100
AcDbEntity
  8
0
100
AcDbMText
 10
431.5
 20
326.0
 30
0.0
 40
5.0
 71
5
  1
Concrete Pipe\P45.0kg\PConcrete
  0
LWPOLYLINE
  5
88
330
17
100
AcDbEntity
  8
0
100
AcDbPolyline
 90
5
 70
1
 10
100.0
 20
788.0
 10
114.0
 20
788.0
 10
114.0
 20
969.0
 10
100.0
 20
969.0
 10
100.0
 20
788.0
  0
MTEXT
  5
89
330
17
100
AcDbEntity
  8
0
100
AcDbMText
 10
107.0
 20
878.5
 30
0.0
 40
5.0
 71
5
  1
Plastic Pipe\P3.0kg\PPlastic
  0
LWPOLYLINE
  5
8A
330
17
100
AcDbEntity
  8
0
100
AcDbPolyline
 90
5
 70
1
 10
0.0
 20
1075.0
 10
500.0
 20
1075.0
 10
500.0
 20
2075.0
 10
0.0
 20
2075.0
 10
0.0
 20
1075.0
  0
LWPOLYLINE
  5
8B
330
17
100
AcDbEntity
  8
0
100
AcDbPolyline
 90
5
 70
1
 10
0.0
 20
1075.0
 10
31.0
 20
1075.0
 10
31.0
 20
1493.0
 10
0.0
 20
1493.0
 10
0.0
 20
1075.0
  0
MTEXT
  5
8C
330
17
100
AcDbEntity
  8
0
100
AcDbMText
 10
15.5
 20
1284.0
 30
0.0
 40
5.0
 71
5
  1
Steel Beam\P45.0kg\PSteel
  0
LWPOLYLINE
  5
8D
330
17
100
AcDbEntity
  8
0
100
AcDbPolyline
 90
5
 70
1
 10
41.0
 20
1075.0
 10
73.0
 20
1075.0
 10
73.0
 20
1495.0
 10
41.0
 20
1495.0
 10
41.0
 20
1075.0
  0
MTEXT
  5
8E
330
17
100
AcDbEntity
  8
0
100
AcDbMText
 10
57.0
 20
1285.0
 30
0.0
 40
5.0
 71
5
  1
Steel Beam\P45.0kg\PSteel
  0
LWPOLYLINE
  5
8F
330
17
100
AcDbEntity
  8
0
100
AcDbPolyline
 90
5
 70
1
 10
83.0
 20
1075.0
 10
137.0
 20
1075.0
 10
137.0
 20
1183.0
 10
83.0
 20
1183.0
 10
83.0
 20
1075.0
  0
MTEXT
  5
90
330
17
100
AcDbEntity
  8
0
100
AcDbMText
 10
110.0
 20
1129.0
 30
0.0
 40
5.0
 71
5
  1
Steel Plate\P25.0kg\PSteel
  0
LWPOLYLINE
  5
91
330
17
100
AcDbEntity
  8
0
100
AcDbPolyline
 90
5
 70
1
 10
0.0
 20
1503.0
 10
21.0
 20
1503.0
 10
21.0
 20
1822.0
 10
0.0
 20
1822.0
 10
0.0
 20
1503.0
  0
MTEXT
  5
92
330
17
100
AcDbEntity
  8
0
100
AcDbMText
 10
10.5
 20
1662.5
 30
0.0
 40
5.0
 71
5
  1
Steel Pipe\P15.0kg\PSteel
  0
LWPOLYLINE
  5
93
330
17
100
AcDbEntity
  8
0
100
AcDbPolyline
 90
5
 70
1
 10
41.0
 20
1505.0
 10
84.0
 20
1505.0
 10
84.0
 20
1592.0
 10
41.0
 20
1592.0
 10
41.0
 20
1505.0
  0
MTEXT
  5
94
330
17
100
AcDbEntity
  8
0
100
AcDbMText
 10
62.5
 20
1548.5
 30
0.0
 40
5.0
 71
5
  1
Steel Rebar Bundle\P35.0kg\PSteel
  0
LWPOLYLINE
  5
95
330
17
100
AcDbEntity
  8
0
100
AcDbPolyline
 90
5
 70
1
 10
147.0
 20
1075.0
 10
175.0
 20
1075.0
 10
175.0
 20
1445.0
 10
147.0
 20
1445.0
 10
147.0
 20
1075.0
  0
MTEXT
  5
96
330
17
100
AcDbEntity
  8
0
100
AcDbMText
 10
161.0
 20
1260.0
 30
0.0
 40
5.0
 71
5
  1
Steel Beam\P45.0kg\PSteel
  0
LWPOLYLINE
  5
97
330
17
100
AcDbEntity
  8
0
100
AcDbPolyline
 90
5
 70
1
 10
0.0
 20
1832.0
 10
93.0
 20
1832.0
 10
93.0
 20
2018.0
 10
0.0
 20
2018.0
 10
0.0
 20
1832.0
  0
MTEXT
  5
98
330
17
100
AcDbEntity
  8
0
100
AcDbMText
 10
46.5
 20
1925.0
 30
0.0
 40
5.0
 71
5
  1
Plastic Sheet\P8.0kg\PPlastic
  0
LWPOLYLINE
  5
99
330
17
100
AcDbEntity
  8
0
100
AcDbPolyline
 90
5
 70
1
 10
41.0
 20
1602.0
 10
481.0
 20
1602.0
 10
481.0
 20
1635.0
 10
41.0
 20
1635.0
 10
41.0
 20
1602.0
  0
MTEXT
  5
9A
330
17
100
AcDbEntity
  8
0
100
AcDbMText
 10
261.0
 20
1618.5
 30
0.0
 40
5.0
 71
5
  1
Steel Beam\P45.0kg\PSteel
  0
LWPOLYLINE
  5
9B
330
17
100
AcDbEntity
  8
0
100
AcDbPolyline
 90
5
 70
1
 10
185.0
 20
1075.0
 10
217.0
 20
1075.0
 10
217.0
 20
1505.0
 10
185.0
 20
1505.0
 10
185.0
 20
1075.0
  0
MTEXT
  5
9C
330
17
100
AcDbEntity
  8
0
100
AcDbMText
 10
201.0
 20
1290.0
 30
0.0
 40
5.0
 71
5
  1
Steel Beam\P45.0kg\PSteel
  0
LWPOLYLINE
  5
9D
330
17
100
AcDbEntity
  8
0
100
AcDbPolyline
 90
5
 70
1
 10
103.0
 20
1832.0
 10
158.0
 20
1832.0
 10
158.0
 20
1941.0
 10
103.0
 20
1941.0
 10
103.0
 20
1832.0
  0
MTEXT
  5
9E
330
17
100
AcDbEntity
  8
0
100
AcDbMText
 10
130.5
 20
1886.5
 30
0.0
 40
5.0
 71
5
  1
Wood Frame\P8.0kg\PWood
  0
LWPOLYLINE
  5
9F
330
17
100
AcDbEntity
  8
0
100
AcDbPolyline
 90
5
 70
1
 10
0.0
 20
2028.0
 10
388.0
 20
2028.0
 10
388.0
 20
2057.0
 10
0.0
 20
2057.0
 10
0.0
 20
2028.0
  0
MTEXT
  5
A0
330
17
100
AcDbEntity
  8
0
100
AcDbMText
 10
194.0
 20
2042.5
 30
0.0
 40
5.0
 71
5
  1
Steel Beam\P45.0kg\PSteel
  0
LWPOLYLINE
  5
A1
330
17
100
AcDbEntity
  8
0
100
AcDbPolyline
 90
5
 70
1
 10
83.0
 20
1193.0
 10
131.0
 20
1193.0
 10
131.0
 20
1290.0
 10
83.0
 20
1290.0
 10
83.0
 20
1193.0
  0
MTEXT
  5
A2
330
17
100
AcDbEntity
  8
0
100
AcDbMText
 10
107.0
 20
1241.5
 30
0.0
 40
5.0
 71
5
  1
Steel Plate\P25.0kg\PSteel
  0
LWPOLYLINE
  5
A3
330
17
100
AcDbEntity
  8
0
100
AcDbPolyline
 90
5
 70
1
 10
41.0
 20
1645.0
 10
230.0
 20
1645.0
 10
230.0
 20
1740.0
 10
41.0
 20
1740.0
 10
41.0
 20
1645.0
  0
MTEXT
  5
A4
330
17
100
AcDbEntity
  8
0
100
AcDbMText
 10
135.5
 20
1692.5
 30
0.0
 40
5.0
 71
5
  1
Plastic Sheet\P8.0kg\PPlastic
  0
LWPOLYLINE
  5
A5
330
17
100
AcDbEntity
  8
0
100
AcDbPolyline
 90
5
 70
1
 10
227.0
 20
1075.0
 10
257.0
 20
1075.0
 10
257.0
 20
1470.0
 10
227.0
 20
1470.0
 10
227.0
 20
1075.0
  0
MTEXT
  5
A6
330
17
100
AcDbEntity
  8
0
100
AcDbMText
 10
242.0
 20
1272.5
 30
0.0
 40
5.0
 71
5
  1
Steel Beam\P45.0kg\PSteel
  0
LWPOLYLINE
  5
A7
330
17
100
AcDbEntity
  8
0
100
AcDbPolyline
 90
5
 70
1
 10
94.0
 20
1505.0
 10
135.0
 20
1505.0
 10
135.0
 20
1586.0
 10
94.0
 20
1586.0
 10
94.0
 20
1505.0
  0
MTEXT
  5
A8
330
17
100
AcDbEntity
  8
0
100
AcDbMText
 10
114.5
 20
1545.5
 30
0.0
 40
5.0
 71
5
  1
Concrete Block\P30.0kg\PConcrete
  0
LWPOLYLINE
  5
A9
330
17
100
AcDbEntity
  8
0
100
AcDbPolyline
 90
5
 70
1
 10
185.0
 20
1515.0
 10
314.0
 20
1515.0
 10
314.0
 20
1580.0
 10
185.0
 20
1580.0
 10
185.0
 20
1515.0
  0
MTEXT
  5
AA
330
17
100
AcDbEntity
  8
0
100
AcDbMText
 10
249.5
 20
1547.5
 30
0.0
 40
5.0
 71
5
  1
Wood Frame\P8.0kg\PWood
  0
LWPOLYLINE
  5
AB
330
17
100
AcDbEntity
  8
0
100
AcDbPolyline
 90
5
 70
1
 10
168.0
 20
1832.0
 10
222.0
 20
1832.0
 10
222.0
 20
1886.0
 10
168.0
 20
1886.0
 10
168.0
 20
1832.0
  0
MTEXT
  5
AC
330
17
100
AcDbEntity
  8
0
100
AcDbMText
 10
195.0
 20
1859.0
 30
0.0
 40
5.0
 71
5
  1
Concrete Tile\P15.0kg\PConcrete
  0
LWPOLYLINE
  5
AD
330
17
100
AcDbEntity
  8
0
100
AcDbPolyline
 90
5
 70
1
 10
103.0
 20
1951.0
 10
200.0
 20
1951.0
 10
200.0
 20
1980.0
 10
103.0
 20
1980.0
 10
103.0
 20
1951.0
  0
MTEXT
  5
AE
330
17
100
AcDbEntity
  8
0
100
AcDbMText
 10
151.5
 20
1965.5
 30
0.0
 40
5.0
 71
5
  1
Concrete Pipe\P45.0kg\PConcrete
  0
LWPOLYLINE
  5
AF
330
17
100
AcDbEntity
  8
0
100
AcDbPolyline
 90
5
 70
1
 10
240.0
 20
1645.0
 10
302.0
 20
1645.0
 10
302.0
 20
1770.0
 10
240.0
 20
1770.0
 10
240.0
 20
1645.0
  0
MTEXT
  5
B0
330
17
100
AcDbEntity
  8
0
100
AcDbMText
 10
271.0
 20
1707.5
 30
0.0
 40
5.0
 71
5
  1
Concrete Slab\P80.0kg\PConcrete
  0
LWPOLYLINE
  5
B1
330
17
100
AcDbEntity
  8
0
100
AcDbPolyline
 90
5
 70
1
 10
267.0
 20
1075.0
 10
294.0
 20
1075.0
 10
294.0
 20
1399.0
 10
267.0
 20
1399.0
 10
267.0
 20
1075.0
  0
MTEXT
  5
B2
330
17
100
AcDbEntity
  8
0
100
AcDbMText
 10
280.5
 20
1237.0
 30
0.0
 40
5.0
 71
5
  1
Wood Plank\P12.0kg\PWood
  0
LWPOLYLINE
  5
B3
330
17
100
AcDbEntity
  8
0
100
AcDbPolyline
 90
5
 70
1
 10
83.0
 20
1300.0
 10
124.0
 20
1300.0
 10
124.0
 20
1382.0
 10
83.0
 20
1382.0
 10
83.0
 20
1300.0
  0
MTEXT
  5
B4
330
17
100
AcDbEntity
  8
0
100
AcDbMText
 10
103.5
 20
1341.0
 30
0.0
 40
5.0
 71
5
  1
Steel Rebar Bundle\P35.0kg\PSteel
  0
LWPOLYLINE
  5
B5
330
17
100
AcDbEntity
  8
0
100
AcDbPolyline
 90
5
 70
1
 10
168.0
 20
1896.0
 10
471.0
 20
1896.0
 10
471.0
 20
1916.0
 10
168.0
 20
1916.0
 10
168.0
 20
1896.0
  0
MTEXT
  5
B6
330
17
100
AcDbEntity
  8
0
100
AcDbMText
 10
319.5
 20
1906.0
 30
0.0
 40
5.0
 71
5
  1
Steel Pipe\P15.0kg\PSteel
  0
LWPOLYLINE
  5
B7
330
17
100
AcDbEntity
  8
0
100
AcDbPolyline
 90
5
 70
1
 10
41.0
 20
1750.0
 10
128.0
 20
1750.0
 10
128.0
 20
1794.0
 10
41.0
 20
1794.0
 10
41.0
 20
1750.0
  0
MTEXT
  5
B8
330
17
100
AcDbEntity
  8
0
100
AcDbMText
 10
84.5
 20
1772.0
 30
0.0
 40
5.0
 71
5
  1
Concrete Block\P30.0kg\PConcrete
  0
LWPOLYLINE
  5
B9
330
17
100
AcDbEntity
  8
0
100
AcDbPolyline
 90
5
 70
1
 10
210.0
 20
1951.0
 10
482.0
 20
1951.0
 10
482.0
 20
1974.0
 10
210.0
 20
1974.0
 10
210.0
 20
1951.0
  0
MTEXT
  5
BA
330
17
100
AcDbEntity
  8
0
100
AcDbMText
 10
346.0
 20
1962.5
 30
0.0
 40
5.0
 71
5
  1
Wood Plank\P12.0kg\PWood
  0
LWPOLYLINE
  5
BB
330
17
100
AcDbEntity
  8
0
100
AcDbPolyline
 90
5
 70
1
 10
398.0
 20
2028.0
 10
471.0
 20
2028.0
 10
471.0
 20
2065.0
 10
398.0
 20
2065.0
 10
398.0
 20
2028.0
  0
MTEXT
  5
BC
330
17
100
AcDbEntity
  8
0
100
AcDbMText
 10
434.5
 20
2046.5
 30
0.0
 40
5.0
 71
5
  1
Concrete Block\P30.0kg\PConcrete
  0
LWPOLYLINE
  5
BD
330
17
100
AcDbEntity
  8
0
100
AcDbPolyline
 90
5
 70
1
 10
324.0
 20
1515.0
 10
415.0
 20
1515.0
 10
415.0
 20
1561.0
 10
324.0
 20
1561.0
 10
324.0
 20
1515.0
  0
MTEXT
  5
BE
330
17
100
AcDbEntity
  8
0
100
AcDbMText
 10
369.5
 20
1538.0
 30
0.0
 40
5.0
 71
5
  1
Steel Plate\P25.0kg\PSteel
  0
LWPOLYLINE
  5
BF
330
17
100
AcDbEntity
  8
0
100
AcDbPolyline
 90
5
 70
1
 10
103.0
 20
1990.0
 10
415.0
 20
1990.0
 10
415.0
 20
2016.0
 10
103.0
 20
2016.0
 10
103.0
 20
1990.0
  0
MTEXT
  5
C0
330
17
100
AcDbEntity
  8
0
100
AcDbMText
 10
259.0
 20
2003.0
 30
0.0
 40
5.0
 71
5
  1
Wood Plank\P12.0kg\PWood
  0
LWPOLYLINE
  5
C1
330
17
100
AcDbEntity
  8
0
100
AcDbPolyline
 90
5
 70
1
 10
232.0
 20
1832.0
 10
305.0
 20
1832.0
 10
305.0
 20
1869.0
 10
232.0
 20
1869.0
 10
232.0
 20
1832.0
  0
MTEXT
  5
C2
330
17
100
AcDbEntity
  8
0
100
AcDbMText
 10
268.5
 20
1850.5
 30
0.0
 40
5.0
 71
5
  1
Concrete Block\P30.0kg\PConcrete
  0
LWPOLYLINE
  5
C3
330
17
100
AcDbEntity
  8
0
100
AcDbPolyline
 90
5
 70
1
 10
312.0
 20
1645.0
 10
351.0
 20
1645.0
 10
351.0
 20
1703.0
 10
312.0
 20
1703.0
 10
312.0
 20
1645.0
  0
MTEXT
  5
C4
330
17
100
AcDbEntity
  8
0
100
AcDbMText
 10
331.5
 20
1674.0
 30
0.0
 40
5.0
 71
5
  1
Plastic Container\P5.0kg\PPlastic
  0
LWPOLYLINE
  5
C5
330
17
100
AcDbEntity
  8
0
100
AcDbPolyline
 90
5
 70
1
 10
304.0
 20
1075.0
 10
322.0
 20
1075.0
 10
322.0
 20
1441.0
 10
304.0
 20
1441.0
 10
304.0
 20
1075.0
  0
MTEXT
  5
C6
330
17
100
AcDbEntity
  8
0
100
AcDbMText
 10
313.0
 20
1258.0
 30
0.0
 40
5.0
 71
5
  1
Wood Beam\P18.0kg\PWood
  0
LWPOLYLINE
  5
C7
330
17
100
AcDbEntity
  8
0
100
AcDbPolyline
 90
5
 70
1
 10
240.0
 20
1780.0
 10
297.0
 20
1780.0
 10
297.0
 20
1818.0
 10
240.0
 20
1818.0
 10
240.0
 20
1780.0
  0
MTEXT
  5
C8
330
17
100
AcDbEntity
  8
0
100
AcDbMText
 10
268.5
 20
1799.0
 30
0.0
 40
5.0
 71
5
  1
Plastic Container\P5.0kg\PPlastic
  0
LWPOLYLINE
  5
C9
330
17
100
AcDbEntity
  8
0
100
AcDbPolyline
 90
5
 70
1
 10
147.0
 20
1455.0
 10
174.0
 20
1455.0
 10
174.0
 20
1546.0
 10
147.0
 20
1546.0
 10
147.0
 20
1455.0
  0
MTEXT
  5
CA
330
17
100
AcDbEntity
  8
0
100
AcDbMText
 10
160.5
 20
1500.5
 30
0.0
 40
5.0
 71
5
  1
Concrete Pipe\P45.0kg\PConcrete
  0
LWPOLYLINE
  5
CB
330
17
100
AcDbEntity
  8
0
100
AcDbPolyline
 90
5
 70
1
 10
332.0
 20
1075.0
 10
357.0
 20
1075.0
 10
357.0
 20
1377.0
 10
332.0
 20
1377.0
 10
332.0
 20
1075.0
  0
MTEXT
  5
CC
330
17
100
AcDbEntity
  8
0
100
AcDbMText
 10
344.5
 20
1226.0
 30
0.0
 40
5.0
 71
5
  1
Wood Plank\P12.0kg\PWood
  0
LWPOLYLINE
  5
CD
330
17
100
AcDbEntity
  8
0
100
AcDbPolyline
 90
5
 70
1
 10
83.0
 20
1392.0
 10
123.0
 20
1392.0
 10
123.0
 20
1472.0
 10
83.0
 20
1472.0
 10
83.0
 20
1392.0
  0
MTEXT
  5
CE
330
17
100
AcDbEntity
  8
0
100
AcDbMText
 10
103.0
 20
1432.0
 30
0.0
 40
5.0
 71
5
  1
Steel Rebar Bundle\P35.0kg\PSteel
  0
LWPOLYLINE
  5
CF
330
17
100
AcDbEntity
  8
0
100
AcDbPolyline
 90
5
 70
1
 10
315.0
 20
1832.0
 10
424.0
 20
1832.0
 10
424.0
 20
1865.0
 10
315.0
 20
1865.0
 10
315.0
 20
1832.0
  0
MTEXT
  5
D0
330
17
100
AcDbEntity
  8
0
100
AcDbMText
 10
369.5
 20
1848.5
 30
0.0
 40
5.0
 71
5
  1
Concrete Pipe\P45.0kg\PConcrete
  0
LWPOLYLINE
  5
D1
330
17
100
AcDbEntity
  8
0
100
AcDbPolyline
 90
5
 70
1
 10
361.0
 20
1645.0
 10
413.0
 20
1645.0
 10
413.0
 20
1749.0
 10
361.0
 20
1749.0
 10
361.0
 20
1645.0
  0
MTEXT
  5
D2
330
17
100
AcDbEntity
  8
0
100
AcDbMText
 10
387.0
 20
1697.0
 30
0.0
 40
5.0
 71
5
  1
Steel Plate\P25.0kg\PSteel
  0
LWPOLYLINE
  5
D3
330
17
100
AcDbEntity
  8
0
100
AcDbPolyline
 90
5
 70
1
 10
304.0
 20
1451.0
 10
399.0
 20
1451.0
 10
399.0
 20
1499.0
 10
304.0
 20
1499.0
 10
304.0
 20
1451.0
  0
MTEXT
  5
D4
330
17
100
AcDbEntity
  8
0
100
AcDbMText
 10
351.5
 20
1475.0
 30
0.0
 40
5.0
 71
5
  1
Steel Plate\P25.0kg\PSteel
  0
LWPOLYLINE
  5
D5
330
17
100
AcDbEntity
  8
0
100
AcDbPolyline
 90
5
 70
1
 10
367.0
 20
1075.0
 10
418.0
 20
1075.0
 10
418.0
 20
1177.0
 10
367.0
 20
1177.0
 10
367.0
 20
1075.0
  0
MTEXT
  5
D6
330
17
100
AcDbEntity
  8
0
100
AcDbMText
 10
392.5
 20
1126.0
 30
0.0
 40
5.0
 71
5
  1
Steel Plate\P25.0kg\PSteel
  0
LWPOLYLINE
  5
D7
330
17
100
AcDbEntity
  8
0
100
AcDbPolyline
 90
5
 70
1
 10
312.0
 20
1713.0
 10
344.0
 20
1713.0
 10
344.0
 20
1820.0
 10
312.0
 20
1820.0
 10
312.0
 20
1713.0
  0
MTEXT
  5
D8
330
17
100
AcDbEntity
  8
0
100
AcDbMText
 10
328.0
 20
1766.5
 30
0.0
 40
5.0
 71
5
  1
Concrete Pipe\P45.0kg\PConcrete
  0
LWPOLYLINE
  5
D9
330
17
100
AcDbEntity
  8
0
100
AcDbPolyline
 90
5
 70
1
 10
138.0
 20
1750.0
 10
190.0
 20
1750.0
 10
190.0
 20
1802.0
 10
138.0
 20
1802.0
 10
138.0
 20
1750.0
  0
MTEXT
  5
DA
330
17
100
AcDbEntity
  8
0
100
AcDbMText
 10
164.0
 20
1776.0
 30
0.0
 40
5.0
 71
5
  1
Concrete Tile\P15.0kg\PConcrete
  0
LWPOLYLINE
  5
DB
330
17
100
AcDbEntity
  8
0
100
AcDbPolyline
 90
5
 70
1
 10
425.0
 20
1515.0
 10
479.0
 20
1515.0
 10
479.0
 20
1569.0
 10
425.0
 20
1569.0
 10
425.0
 20
1515.0
  0
MTEXT
  5
DC
330
17
100
AcDbEntity
  8
0
100
AcDbMText
 10
452.0
 20
1542.0
 30
0.0
 40
5.0
 71
5
  1
Concrete Tile\P15.0kg\PConcrete
  0
LWPOLYLINE
  5
DD
330
17
100
AcDbEntity
  8
0
100
AcDbPolyline
 90
5
 70
1
 10
423.0
 20
1645.0
 10
488.0
 20
1645.0
 10
488.0
 20
1775.0
 10
423.0
 20
1775.0
 10
423.0
 20
1645.0
  0
MTEXT
  5
DE
330
17
100
AcDbEntity
  8
0
100
AcDbMText
 10
455.5
 20
1710.0
 30
0.0
 40
5.0
 71
5
  1
Concrete Slab\P80.0kg\PConcrete
  0
LWPOLYLINE
  5
DF
330
17
100
AcDbEntity
  8
0
100
AcDbPolyline
 90
5
 70
1
 10
332.0
 20
1387.0
 10
432.0
 20
1387.0
 10
432.0
 20
1437.0
 10
332.0
 20
1437.0
 10
332.0
 20
1387.0
  0
MTEXT
  5
E0
330
17
100
AcDbEntity
  8
0
100
AcDbMText
 10
382.0
 20
1412.0
 30
0.0
 40
5.0
 71
5
  1
Steel Plate\P25.0kg\PSteel
  0
LWPOLYLINE
  5
E1
330
17
100
AcDbEntity
  8
0
100
AcDbPolyline
 90
5
 70
1
 10
428.0
 20
1075.0
 10
480.0
 20
1075.0
 10
480.0
 20
1179.0
 10
428.0
 20
1179.0
 10
428.0
 20
1075.0
  0
MTEXT
  5
E2
330
17
100
AcDbEntity
  8
0
100
AcDbMText
 10
454.0
 20
1127.0
 30
0.0
 40
5.0
 71
5
  1
Steel Plate\P25.0kg\PSteel
  0
LWPOLYLINE
  5
E3
330
17
100
AcDbEntity
  8
0
100
AcDbPolyline
 90
5
 70
1
 10
434.0
 20
1832.0
 10
483.0
 20
1832.0
 10
483.0
 20
1881.0
 10
434.0
 20
1881.0
 10
434.0
 20
1832.0
  0
MTEXT
  5
E4
330
17
100
AcDbEntity
  8
0
100
AcDbMText
 10
458.5
 20
1856.5
 30
0.0
 40
5.0
 71
5
  1
Concrete Tile\P15.0kg\PConcrete
  0
LWPOLYLINE
  5
E5
330
17
100
AcDbEntity
  8
0
100
AcDbPolyline
 90
5
 70
1
 10
361.0
 20
1759.0
 10
407.0
 20
1759.0
 10
407.0
 20
1805.0
 10
361.0
 20
1805.0
 10
361.0
 20
1759.0
  0
MTEXT
  5
E6
330
17
100
AcDbEntity
  8
0
100
AcDbMText
 10
384.0
 20
1782.0
 30
0.0
 40
5.0
 71
5
  1
Plastic Bin\P4.0kg\PPlastic
  0
LWPOLYLINE
  5
E7
330
17
100
AcDbEntity
  8
0
100
AcDbPolyline
 90
5
 70
1
 10
367.0
 20
1187.0
 10
400.0
 20
1187.0
 10
400.0
 20
1296.0
 10
367.0
 20
1296.0
 10
367.0
 20
1187.0
  0
MTEXT
  5
E8
330
17
100
AcDbEntity
  8
0
100
AcDbMText
 10
383.5
 20
1241.5
 30
0.0
 40
5.0
 71
5
  1
Concrete Pipe\P45.0kg\PConcrete
  0
LWPOLYLINE
  5
E9
330
17
100
AcDbEntity
  8
0
100
AcDbPolyline
 90
5
 70
1
 10
442.0
 20
1387.0
 10
474.0
 20
1387.0
 10
474.0
 20
1495.0
 10
442.0
 20
1495.0
 10
442.0
 20
1387.0
  0
MTEXT
  5
EA
330
17
100
AcDbEntity
  8
0
100
AcDbMText
 10
458.0
 20
1441.0
 30
0.0
 40
5.0
 71
5
  1
Concrete Pipe\P45.0kg\PConcrete
  0
LWPOLYLINE
  5
EB
330
17
100
AcDbEntity
  8
0
100
AcDbPolyline
 90
5
 70
1
 10
428.0
 20
1189.0
 10
482.0
 20
1189.0
 10
482.0
 20
1297.0
 10
428.0
 20
1297.0
 10
428.0
 20
1189.0
  0
MTEXT
  5
EC
330
17
100
AcDbEntity
  8
0
100
AcDbMText
 10
455.0
 20
1243.0
 30
0.0
 40
5.0
 71
5
  1
Steel Plate\P25.0kg\PSteel
  0
LWPOLYLINE
  5
ED
330
17
100
AcDbEntity
  8
0
100
AcDbPolyline
 90
5
 70
1
 10
168.0
 20
1926.0
 10
350.0
 20
1926.0
 10
350.0
 20
1940.0
 10
168.0
 20
1940.0
 10
168.0
 20
1926.0
  0
MTEXT
  5
EE
330
17
100
AcDbEntity
  8
0
100
AcDbMText
 10
259.0
 20
1933.0
 30
0.0
 40
5.0
 71
5
  1
Plastic Pipe\P3.0kg\PPlastic
  0
LWPOLYLINE
  5
EF
330
17
100
AcDbEntity
  8
0
100
AcDbPolyline
 90
5
 70
1
 10
367.0
 20
1306.0
 10
406.0
 20
1306.0
 10
406.0
 20
1365.0
 10
367.0
 20
1365.0
 10
367.0
 20
1306.0
  0
MTEXT
  5
F0
330
17
100
AcDbEntity
  8
0
100
AcDbMText
 10
386.5
 20
1335.5
 30
0.0
 40
5.0
 71
5
  1
Plastic Container\P5.0kg\PPlastic
  0
LWPOLYLINE
  5
F1
330
17
100
AcDbEntity
  8
0
100
AcDbPolyline
 90
5
 70
1
 10
428.0
 20
1307.0
 10
480.0
 20
1307.0
 10
480.0
 20
1359.0
 10
428.0
 20
1359.0
 10
428.0
 20
1307.0
  0
MTEXT
  5
F2
330
17
100
AcDbEntity
  8
0
100
AcDbMText
 10
454.0
 20
1333.0
 30
0.0
 40
5.0
 71
5
  1
Plastic Bin\P4.0kg\PPlastic
  0
LWPOLYLINE
  5
F3
330
17
100
AcDbEntity
  8
0
100
AcDbPolyline
 90
5
 70
1
 10
267.0
 20
1409.0
 10
294.0
 20
1409.0
 10
294.0
 20
1500.0
 10
267.0
 20
1500.0
 10
267.0
 20
1409.0
  0
MTEXT
  5
F4
330
17
100
AcDbEntity
  8
0
100
AcDbMText
 10
280.5
 20
1454.5
 30
0.0
 40
5.0
 71
5
  1
Concrete Pipe\P45.0kg\PConcrete
  0
LWPOLYLINE
  5
F5
330
17
100
AcDbEntity
  8
0
100
AcDbPolyline
 90
5
 70
1
 10
0.0
 20
2150.0
 10
500.0
 20
2150.0
 10
500.0
 20
3150.0
 10
0.0
 20
3150.0
 10
0.0
 20
2150.0
  0
LWPOLYLINE
  5
F6
330
17
100
AcDbEntity
  8
0
100
AcDbPolyline
 90
5
 70
1
 10
0.0
 20
2150.0
 10
61.0
 20
2150.0
 10
61.0
 20
2252.0
 10
0.0
 20
2252.0
 10
0.0
 20
2150.0
  0
MTEXT
  5
F7
330
17
100
AcDbEntity
  8
0
100
AcDbMText
 10
30.5
 20
2201.0
 30
0.0
 40
5.0
 71
5
  1
Glass Pane\P12.0kg\PGlass
  0
LWPOLYLINE
  5
F8
330
17
100
AcDbEntity
  8
0
100
AcDbPolyline
 90
5
 70
1
 10
71.0
 20
2150.0
 10
198.0
 20
2150.0
 10
198.0
 20
2403.0
 10
71.0
 20
2403.0
 10
71.0
 20
2150.0
  0
MTEXT
  5
F9
330
17
100
AcDbEntity
  8
0
100
AcDbMText
 10
134.5
 20
2276.5
 30
0.0
 40
5.0
 71
5
  1
Wood Sheet\P20.0kg\PWood
  0
LWPOLYLINE
  5
FA
330
17
100
AcDbEntity
  8
0
100
AcDbPolyline
 90
5
 70
1
 10
208.0
 20
2150.0
 10
340.0
 20
2150.0
 10
340.0
 20
2413.0
 10
208.0
 20
2413.0
 10
208.0
 20
2150.0
  0
MTEXT
  5
FB
330
17
100
AcDbEntity
  8
0
100
AcDbMText
 10
274.0
 20
2281.5
 30
0.0
 40
5.0
 71
5
  1
Wood Sheet\P20.0kg\PWood
  0
LWPOLYLINE
  5
FC
330
17
100
AcDbEntity
  8
0
100
AcDbPolyline
 90
5
 70
1
 10
71.0
 20
2413.0
 10
175.0
 20
2413.0
 10
175.0
 20
2620.0
 10
71.0
 20
2620.0
 10
71.0
 20
2413.0
  0
MTEXT
  5
FD
330
17
100
AcDbEntity
  8
0
100
AcDbMText
 10
123.0
 20
2516.5
 30
0.0
 40
5.0
 71
5
  1
Plastic Sheet\P8.0kg\PPlastic
  0
LWPOLYLINE
  5
FE
330
17
100
AcDbEntity
  8
0
100
AcDbPolyline
 90
5
 70
1
 10
0.0
 20
2262.0
 10
39.0
 20
2262.0
 10
39.0
 20
2340.0
 10
0.0
 20
2340.0
 10
0.0
 20
2262.0
  0
MTEXT
  5
FF
330
17
100
AcDbEntity
  8
0
100
AcDbMText
 10
19.5
 20
2301.0
 30
0.0
 40
5.0
 71
5
  1
Concrete Block\P30.0kg\PConcrete
  0
LWPOLYLINE
  5
100
330
17
100
AcDbEntity
  8
0
100
AcDbPolyline
 90
5
 70
1
 10
350.0
 20
2150.0
 10
458.0
 20
2150.0
 10
458.0
 20
2366.0
 10
350.0
 20
2366.0
 10
350.0
 20
2150.0
  0
MTEXT
  5
101
330
17
100
AcDbEntity
  8
0
100
AcDbMText
 10
404.0
 20
2258.0
 30
0.0
 40
5.0
 71
5
  1
Plastic Sheet\P8.0kg\PPlastic
  0
LWPOLYLINE
  5
102
330
17
100
AcDbEntity
  8
0
100
AcDbPolyline
 90
5
 70
1
 10
208.0
 20
2423.0
 10
229.0
 20
2423.0
 10
229.0
 20
2851.0
 10
208.0
 20
2851.0
 10
208.0
 20
2423.0
  0
MTEXT
  5
103
330
17
100
AcDbEntity
  8
0
100
AcDbMText
 10
218.5
 20
2637.0
 30
0.0
 40
5.0
 71
5
  1
Wood Beam\P18.0kg\PWood
  0
LWPOLYLINE
  5
104
330
17
100
AcDbEntity
  8
0
100
AcDbPolyline
 90
5
 70
1
 10
71.0
 20
2630.0
 10
128.0
 20
2630.0
 10
128.0
 20
2725.0
 10
71.0
 20
2725.0
 10
71.0
 20
2630.0
  0
MTEXT
  5
105
330
17
100
AcDbEntity
  8
0
100
AcDbMText
 10
99.5
 20
2677.5
 30
0.0
 40
5.0
 71
5
  1
Glass Pane\P12.0kg\PGlass
  0
LWPOLYLINE
  5
106
330
17
100
AcDbEntity
  8
0
100
AcDbPolyline
 90
5
 70
1
 10
0.0
 20
2350.0
 10
31.0
 20
2350.0
 10
31.0
 20
2453.0
 10
0.0
 20
2453.0
 10
0.0
 20
2350.0
  0
MTEXT
  5
107
330
17
100
AcDbEntity
  8
0
100
AcDbMText
 10
15.5
 20
2401.5
 30
0.0
 40
5.0
 71
5
  1
Concrete Pipe\P45.0kg\PConcrete
  0
LWPOLYLINE
  5
108
330
17
100
AcDbEntity
  8
0
100
AcDbPolyline
 90
5
 70
1
 10
350.0
 20
2376.0
 10
480.0
 20
2376.0
 10
480.0
 20
2636.0
 10
350.0
 20
2636.0
 10
350.0
 20
2376.0
  0
MTEXT
  5
109
330
17
100
AcDbEntity
  8
0
100
AcDbMText
 10
415.0
 20
2506.0
 30
0.0
 40
5.0
 71
5
  1
Wood Sheet\P20.0kg\PWood
  0
LWPOLYLINE
  5
10A
330
17
100
AcDbEntity
  8
0
100
AcDbPolyline
 90
5
 70
1
 10
239.0
 20
2423.0
 10
290.0
 20
2423.0
 10
290.0
 20
2474.0
 10
239.0
 20
2474.0
 10
239.0
 20
2423.0
  0
MTEXT
  5
10B
330
17
100
AcDbEntity
  8
0
100
AcDbMText
 10
264.5
 20
2448.5
 30
0.0
 40
5.0
 71
5
  1
Concrete Tile\P15.0kg\PConcrete
  0
LWPOLYLINE
  5
10C
330
17
100
AcDbEntity
  8
0
100
AcDbPolyline
 90
5
 70
1
 10
208.0
 20
2861.0
 10
273.0
 20
2861.0
 10
273.0
 20
2992.0
 10
208.0
 20
2992.0
 10
208.0
 20
2861.0
  0
MTEXT
  5
10D
330
17
100
AcDbEntity
  8
0
100
AcDbMText
 10
240.5
 20
2926.5
 30
0.0
 40
5.0
 71
5
  1
Wood Frame\P8.0kg\PWood
  0
LWPOLYLINE
  5
10E
330
17
100
AcDbEntity
  8
0
100
AcDbPolyline
 90
5
 70
1
 10
71.0
 20
2735.0
 10
134.0
 20
2735.0
 10
134.0
 20
2861.0
 10
71.0
 20
2861.0
 10
71.0
 20
2735.0
  0
MTEXT
  5
10F
330
17
100
AcDbEntity
  8
0
100
AcDbMText
 10
102.5
 20
2798.0
 30
0.0
 40
5.0
 71
5
  1
Concrete Slab\P80.0kg\PConcrete
  0
LWPOLYLINE
  5
110
330
17
100
AcDbEntity
  8
0
100
AcDbPolyline
 90
5
 70
1
 10
350.0
 20
2646.0
 10
467.0
 20
2646.0
 10
467.0
 20
2879.0
 10
350.0
 20
2879.0
 10
350.0
 20
2646.0
  0
MTEXT
  5
111
330
17
100
AcDbEntity
  8
0
100
AcDbMText
 10
408.5
 20
2762.5
 30
0.0
 40
5.0
 71
5
  1
Wood Sheet\P20.0kg\PWood
  0
LWPOLYLINE
  5
112
330
17
100
AcDbEntity
  8
0
100
AcDbPolyline
 90
5
 70
1
 10
0.0
 20
2463.0
 10
57.0
 20
2463.0
 10
57.0
 20
2577.0
 10
0.0
 20
2577.0
 10
0.0
 20
2463.0
  0
MTEXT
  5
113
330
17
100
AcDbEntity
  8
0
100
AcDbMText
 10
28.5
 20
2520.0
 30
0.0
 40
5.0
 71
5
  1
Concrete Slab\P80.0kg\PConcrete
  0
LWPOLYLINE
  5
114
330
17
100
AcDbEntity
  8
0
100
AcDbPolyline
 90
5
 70
1
 10
300.0
 20
2423.0
 10
330.0
 20
2423.0
 10
330.0
 20
2523.0
 10
300.0
 20
2523.0
 10
300.0
 20
2423.0
  0
MTEXT
  5
115
330
17
100
AcDbEntity
  8
0
100
AcDbMText
 10
315.0
 20
2473.0
 30
0.0
 40
5.0
 71
5
  1
Concrete Pipe\P45.0kg\PConcrete
  0
LWPOLYLINE
  5
116
330
17
100
AcDbEntity
  8
0
100
AcDbPolyline
 90
5
 70
1
 10
138.0
 20
2630.0
 10
185.0
 20
2630.0
 10
185.0
 20
2677.0
 10
138.0
 20
2677.0
 10
138.0
 20
2630.0
  0
MTEXT
  5
117
330
17
100
AcDbEntity
  8
0
100
AcDbMText
 10
161.5
 20
2653.5
 30
0.0
 40
5.0
 71
5
  1
Concrete Tile\P15.0kg\PConcrete
  0
LWPOLYLINE
  5
118
330
17
100
AcDbEntity
  8
0
100
AcDbPolyline
 90
5
 70
1
 10
239.0
 20
2484.0
 10
278.0
 20
2484.0
 10
278.0
 20
2543.0
 10
239.0
 20
2543.0
 10
239.0
 20
2484.0
  0
MTEXT
  5
119
330
17
100
AcDbEntity
  8
0
100
AcDbMText
 10
258.5
 20
2513.5
 30
0.0
 40
5.0
 71
5
  1
Plastic Container\P5.0kg\PPlastic
  0
LWPOLYLINE
  5
11A
330
17
100
AcDbEntity
  8
0
100
AcDbPolyline
 90
5
 70
1
 10
283.0
 20
2861.0
 10
306.0
 20
2861.0
 10
306.0
 20
3132.0
 10
283.0
 20
3132.0
 10
283.0
 20
2861.0
  0
MTEXT
  5
11B
330
17
100
AcDbEntity
  8
0
100
AcDbMText
 10
294.5
 20
2996.5
 30
0.0
 40
5.0
 71
5
  1
Wood Plank\P12.0kg\PWood
  0
LWPOLYLINE
  5
11C
330
17
100
AcDbEntity
  8
0
100
AcDbPolyline
 90
5
 70
1
 10
208.0
 20
3002.0
 10
263.0
 20
3002.0
 10
263.0
 20
3113.0
 10
208.0
 20
3113.0
 10
208.0
 20
3002.0
  0
MTEXT
  5
11D
330
17
100
AcDbEntity
  8
0
100
AcDbMText
 10
235.5
 20
3057.5
 30
0.0
 40
5.0
 71
5
  1
Concrete Slab\P80.0kg\PConcrete
  0
LWPOLYLINE
  5
11E
330
17
100
AcDbEntity
  8
0
100
AcDbPolyline
 90
5
 70
1
 10
144.0
 20
2735.0
 10
168.0
 20
2735.0
 10
168.0
 20
3025.0
 10
144.0
 20
3025.0
 10
144.0
 20
2735.0
  0
MTEXT
  5
11F
330
17
100
AcDbEntity
  8
0
100
AcDbMText
 10
156.0
 20
2880.0
 30
0.0
 40
5.0
 71
5
  1
Wood Plank\P12.0kg\PWood
  0
LWPOLYLINE
  5
120
330
17
100
AcDbEntity
  8
0
100
AcDbPolyline
 90
5
 70
1
 10
71.0
 20
2871.0
 10
114.0
 20
2871.0
 10
114.0
 20
2936.0
 10
71.0
 20
2936.0
 10
71.0
 20
2871.0
  0
MTEXT
  5
121
330
17
100
AcDbEntity
  8
0
100
AcDbMText
 10
92.5
 20
2903.5
 30
0.0
 40
5.0
 71
5
  1
Plastic Container\P5.0kg\PPlastic
  0
LWPOLYLINE
  5
122
330
17
100
AcDbEntity
  8
0
100
AcDbPolyline
 90
5
 70
1
 10
0.0
 20
2587.0
 10
19.0
 20
2587.0
 10
19.0
 20
2971.0
 10
0.0
 20
2971.0
 10
0.0
 20
2587.0
  0
MTEXT
  5
123
330
17
100
AcDbEntity
  8
0
100
AcDbMText
 10
9.5
 20
2779.0
 30
0.0
 40
5.0
 71
5
  1
Wood Beam\P18.0kg\PWood
  0
LWPOLYLINE
  5
124
330
17
100
AcDbEntity
  8
0
100
AcDbPolyline
 90
5
 70
1
 10
350.0
 20
2889.0
 10
387.0
 20
2889.0
 10
387.0
 20
2962.0
 10
350.0
 20
2962.0
 10
350.0
 20
2889.0
  0
MTEXT
  5
125
330
17
100
AcDbEntity
  8
0
100
AcDbMText
 10
368.5
 20
2925.5
 30
0.0
 40
5.0
 71
5
  1
Concrete Block\P30.0kg\PConcrete
  0
LWPOLYLINE
  5
126
330
17
100
AcDbEntity
  8
0
100
AcDbPolyline
 90
5
 70
1
 10
239.0
 20
2553.0
 10
287.0
 20
2553.0
 10
287.0
 20
2601.0
 10
239.0
 20
2601.0
 10
239.0
 20
2553.0
  0
MTEXT
  5
127
330
17
100
AcDbEntity
  8
0
100
AcDbMText
 10
263.0
 20
2577.0
 30
0.0
 40
5.0
 71
5
  1
Plastic Bin\P4.0kg\PPlastic
  0
LWPOLYLINE
  5
128
330
17
100
AcDbEntity
  8
0
100
AcDbPolyline
 90
5
 70
1
 10
300.0
 20
2533.0
 10
323.0
 20
2533.0
 10
323.0
 20
2815.0
 10
300.0
 20
2815.0
 10
300.0
 20
2533.0
  0
MTEXT
  5
129
330
17
100
AcDbEntity
  8
0
100
AcDbMText
 10
311.5
 20
2674.0
 30
0.0
 40
5.0
 71
5
  1
Wood Plank\P12.0kg\PWood
  0
LWPOLYLINE
  5
12A
330
17
100
AcDbEntity
  8
0
100
AcDbPolyline
 90
5
 70
1
 10
144.0
 20
3035.0
 10
183.0
 20
3035.0
 10
183.0
 20
3093.0
 10
144.0
 20
3093.0
 10
144.0
 20
3035.0
  0
MTEXT
  5
12B
330
17
100
AcDbEntity
  8
0
100
AcDbMText
 10
163.5
 20
3064.0
 30
0.0
 40
5.0
 71
5
  1
Plastic Container\P5.0kg\PPlastic
  0
LWPOLYLINE
  5
12C
330
17
100
AcDbEntity
  8
0
100
AcDbPolyline
 90
5
 70
1
 10
71.0
 20
2946.0
 10
125.0
 20
2946.0
 10
125.0
 20
3000.0
 10
71.0
 20
3000.0
 10
71.0
 20
2946.0
  0
MTEXT
  5
12D
330
17
100
AcDbEntity
  8
0
100
AcDbMText
 10
98.0
 20
2973.0
 30
0.0
 40
5.0
 71
5
  1
Concrete Tile\P15.0kg\PConcrete
  0
LWPOLYLINE
  5
12E
330
17
100
AcDbEntity
  8
0
100
AcDbPolyline
 90
5
 70
1
 10
0.0
 20
2981.0
 10
37.0
 20
2981.0
 10
37.0
 20
3055.0
 10
0.0
 20
3055.0
 10
0.0
 20
2981.0
  0
MTEXT
  5
12F
330
17
100
AcDbEntity
  8
0
100
AcDbMText
 10
18.5
 20
3018.0
 30
0.0
 40
5.0
 71
5
  1
Concrete Block\P30.0kg\PConcrete
  0
LWPOLYLINE
  5
130
330
17
100
AcDbEntity
  8
0
100
AcDbPolyline
 90
5
 70
1
 10
397.0
 20
2889.0
 10
447.0
 20
2889.0
 10
447.0
 20
3039.0
 10
397.0
 20
3039.0
 10
397.0
 20
2889.0
  0
MTEXT
  5
131
330
17
100
AcDbEntity
  8
0
100
AcDbMText
 10
422.0
 20
2964.0
 30
0.0
 40
5.0
 71
5
  1
Glass Panel\P15.0kg\PGlass
  0
LWPOLYLINE
  5
132
330
17
100
AcDbEntity
  8
0
100
AcDbPolyline
 90
5
 70
1
 10
239.0
 20
2611.0
 10
281.0
 20
2611.0
 10
281.0
 20
2674.0
 10
239.0
 20
2674.0
 10
239.0
 20
2611.0
  0
MTEXT
  5
133
330
17
100
AcDbEntity
  8
0
100
AcDbMText
 10
260.0
 20
2642.5
 30
0.0
 40
5.0
 71
5
  1
Plastic Container\P5.0kg\PPlastic
  0
LWPOLYLINE
  5
134
330
17
100
AcDbEntity
  8
0
100
AcDbPolyline
 90
5
 70
1
 10
71.0
 20
3010.0
 10
112.0
 20
3010.0
 10
112.0
 20
3093.0
 10
71.0
 20
3093.0
 10
71.0
 20
3010.0
  0
MTEXT
  5
135
330
17
100
AcDbEntity
  8
0
100
AcDbMText
 10
91.5
 20
3051.5
 30
0.0
 40
5.0
 71
5
  1
Concrete Block\P30.0kg\PConcrete
  0
LWPOLYLINE
  5
136
330
17
100
AcDbEntity
  8
0
100
AcDbPolyline
 90
5
 70
1
 10
29.0
 20
2587.0
 10
47.0
 20
2587.0
 10
47.0
 20
2955.0
 10
29.0
 20
2955.0
 10
29.0
 20
2587.0
  0
MTEXT
  5
137
330
17
100
AcDbEntity
  8
0
100
AcDbMText
 10
38.0
 20
2771.0
 30
0.0
 40
5.0
 71
5
  1
Wood Beam\P18.0kg\PWood
  0
LWPOLYLINE
  5
138
330
17
100
AcDbEntity
  8
0
100
AcDbPolyline
 90
5
 70
1
 10
0.0
 20
3065.0
 10
45.0
 20
3065.0
 10
45.0
 20
3110.0
 10
0.0
 20
3110.0
 10
0.0
 20
3065.0
  0
MTEXT
  5
139
330
17
100
AcDbEntity
  8
0
100
AcDbMText
 10
22.5
 20
3087.5
 30
0.0
 40
5.0
 71
5
  1
Concrete Tile\P15.0kg\PConcrete
  0
LWPOLYLINE
  5
13A
330
17
100
AcDbEntity
  8
0
100
AcDbPolyline
 90
5
 70
1
 10
397.0
 20
3049.0
 10
436.0
 20
3049.0
 10
436.0
 20
3126.0
 10
397.0
 20
3126.0
 10
397.0
 20
3049.0
  0
MTEXT
  5
13B
330
17
100
AcDbEntity
  8
0
100
AcDbMText
 10
416.5
 20
3087.5
 30
0.0
 40
5.0
 71
5
  1
Concrete Block\P30.0kg\PConcrete
  0
LWPOLYLINE
  5
13C
330
17
100
AcDbEntity
  8
0
100
AcDbPolyline
 90
5
 70
1
 10
239.0
 20
2684.0
 10
286.0
 20
2684.0
 10
286.0
 20
2731.0
 10
239.0
 20
2731.0
 10
239.0
 20
2684.0
  0
MTEXT
  5
13D
330
17
100
AcDbEntity
  8
0
100
AcDbMText
 10
262.5
 20
2707.5
 30
0.0
 40
5.0
 71
5
  1
Concrete Tile\P15.0kg\PConcrete
  0
LWPOLYLINE
  5
13E
330
17
100
AcDbEntity
  8
0
100
AcDbPolyline
 90
5
 70
1
 10
468.0
 20
2150.0
 10
482.0
 20
2150.0
 10
482.0
 20
2333.0
 10
468.0
 20
2333.0
 10
468.0
 20
2150.0
  0
MTEXT
  5
13F
330
17
100
AcDbEntity
  8
0
100
AcDbMText
 10
475.0
 20
2241.5
 30
0.0
 40
5.0
 71
5
  1
Plastic Pipe\P3.0kg\PPlastic
  0
LWPOLYLINE
  5
140
330
17
100
AcDbEntity
  8
0
100
AcDbPolyline
 90
5
 70
1
 10
446.0
 20
3049.0
 10
485.0
 20
3049.0
 10
485.0
 20
3126.0
 10
446.0
 20
3126.0
 10
446.0
 20
3049.0
  0
MTEXT
  5
141
330
17
100
AcDbEntity
  8
0
100
AcDbMText
 10
465.5
 20
3087.5
 30
0.0
 40
5.0
 71
5
  1
Concrete Block\P30.0kg\PConcrete
  0
LWPOLYLINE
  5
142
330
17
100
AcDbEntity
  8
0
100
AcDbPolyline
 90
5
 70
1
 10
316.0
 20
2861.0
 10
339.0
 20
2861.0
 10
339.0
 20
3133.0
 10
316.0
 20
3133.0
 10
316.0
 20
2861.0
  0
MTEXT
  5
143
330
17
100
AcDbEntity
  8
0
100
AcDbMText
 10
327.5
 20
2997.0
 30
0.0
 40
5.0
 71
5
  1
Wood Plank\P12.0kg\PWood
  0
LWPOLYLINE
  5
144
330
17
100
AcDbEntity
  8
0
100
AcDbPolyline
 90
5
 70
1
 10
239.0
 20
2741.0
 10
284.0
 20
2741.0
 10
284.0
 20
2786.0
 10
239.0
 20
2786.0
 10
239.0
 20
2741.0
  0
MTEXT
  5
145
330
17
100
AcDbEntity
  8
0
100
AcDbMText
 10
261.5
 20
2763.5
 30
0.0
 40
5.0
 71
5
  1
Concrete Tile\P15.0kg\PConcrete
  0
LWPOLYLINE
  5
146
330
17
100
AcDbEntity
  8
0
100
AcDbPolyline
 90
5
 70
1
 10
239.0
 20
2796.0
 10
286.0
 20
2796.0
 10
286.0
 20
2843.0
 10
239.0
 20
2843.0
 10
239.0
 20
2796.0
  0
MTEXT
  5
147
330
17
100
AcDbEntity
  8
0
100
AcDbMText
 10
262.5
 20
2819.5
 30
0.0
 40
5.0
 71
5
  1
Concrete Tile\P15.0kg\PConcrete
  0
LWPOLYLINE
  5
148
330
17
100
AcDbEntity
  8
0
100
AcDbPolyline
 90
5
 70
1
 10
178.0
 20
2735.0
 10
192.0
 20
2735.0
 10
192.0
 20
2927.0
 10
178.0
 20
2927.0
 10
178.0
 20
2735.0
  0
MTEXT
  5
149
330
17
100
AcDbEntity
  8
0
100
AcDbMText
 10
185.0
 20
2831.0
 30
0.0
 40
5.0
 71
5
  1
Plastic Pipe\P3.0kg\PPlastic
  0
LWPOLYLINE
  5
14A
330
17
100
AcDbEntity
  8
0
100
AcDbPolyline
 90
5
 70
1
 10
350.0
 20
2972.0
 10
381.0
 20
2972.0
 10
381.0
 20
3075.0
 10
350.0
 20
3075.0
 10
350.0
 20
2972.0
  0
MTEXT
  5
14B
330
17
100
AcDbEntity
  8
0
100
AcDbMText
 10
365.5
 20
3023.5
 30
0.0
 40
5.0
 71
5
  1
Concrete Pipe\P45.0kg\PConcrete
  0
LWPOLYLINE
  5
14C
330
17
100
AcDbEntity
  8
0
100
AcDbPolyline
 90
5
 70
1
 10
457.0
 20
2889.0
 10
488.0
 20
2889.0
 10
488.0
 20
2992.0
 10
457.0
 20
2992.0
 10
457.0
 20
2889.0
  0
MTEXT
  5
14D
330
17
100
AcDbEntity
  8
0
100
AcDbMText
 10
472.5
 20
2940.5
 30
0.0
 40
5.0
 71
5
  1
Concrete Pipe\P45.0kg\PConcrete
  0
LWPOLYLINE
  5
14E
330
17
100
AcDbEntity
  8
0
100
AcDbPolyline
 90
5
 70
1
 10
71.0
 20
3103.0
 10
163.0
 20
3103.0
 10
163.0
 20
3131.0
 10
71.0
 20
3131.0
 10
71.0
 20
3103.0
  0
MTEXT
  5
14F
330
17
100
AcDbEntity
  8
0
100
AcDbMText
 10
117.0
 20
3117.0
 30
0.0
 40
5.0
 71
5
  1
Concrete Pipe\P45.0kg\PConcrete
  0
LWPOLYLINE
  5
150
330
17
100
AcDbEntity
  8
0
100
AcDbPolyline
 90
5
 70
1
 10
0.0
 20
3225.0
 10
500.0
 20
3225.0
 10
500.0
 20
4225.0
 10
0.0
 20
4225.0
 10
0.0
 20
3225.0
  0
LWPOLYLINE
  5
151
330
17
100
AcDbEntity
  8
0
100
AcDbPolyline
 90
5
 70
1
 10
0.0
 20
3225.0
 10
29.0
 20
3225.0
 10
29.0
 20
3610.0
 10
0.0
 20
3610.0
 10
0.0
 20
3225.0
  0
MTEXT
  5
152
330
17
100
AcDbEntity
  8
0
100
AcDbMText
 10
14.5
 20
3417.5
 30
0.0
 40
5.0
 71
5
  1
Steel Beam\P45.0kg\PSteel
  0
LWPOLYLINE
  5
153
330
17
100
AcDbEntity
  8
0
100
AcDbPolyline
 90
5
 70
1
 10
39.0
 20
3225.0
 10
69.0
 20
3225.0
 10
69.0
 20
3630.0
 10
39.0
 20
3630.0
 10
39.0
 20
3225.0
  0
MTEXT
  5
154
330
17
100
AcDbEntity
  8
0
100
AcDbMText
 10
54.0
 20
3427.5
 30
0.0
 40
5.0
 71
5
  1
Steel Beam\P45.0kg\PSteel
  0
LWPOLYLINE
  5
155
330
17
100
AcDbEntity
  8
0
100
AcDbPolyline
 90
5
 70
1
 10
79.0
 20
3225.0
 10
120.0
 20
3225.0
 10
120.0
 20
3307.0
 10
79.0
 20
3307.0
 10
79.0
 20
3225.0
  0
MTEXT
  5
156
330
17
100
AcDbEntity
  8
0
100
AcDbMText
 10
99.5
 20
3266.0
 30
0.0
 40
5.0
 71
5
  1
Steel Rebar Bundle\P35.0kg\PSteel
  0
LWPOLYLINE
  5
157
330
17
100
AcDbEntity
  8
0
100
AcDbPolyline
 90
5
 70
1
 10
39.0
 20
3640.0
 10
85.0
 20
3640.0
 10
85.0
 20
3732.0
 10
39.0
 20
3732.0
 10
39.0
 20
3640.0
  0
MTEXT
  5
158
330
17
100
AcDbEntity
  8
0
100
AcDbMText
 10
62.0
 20
3686.0
 30
0.0
 40
5.0
 71
5
  1
Steel Plate\P25.0kg\PSteel
  0
LWPOLYLINE
  5
159
330
17
100
AcDbEntity
  8
0
100
AcDbPolyline
 90
5
 70
1
 10
130.0
 20
3225.0
 10
175.0
 20
3225.0
 10
175.0
 20
3315.0
 10
130.0
 20
3315.0
 10
130.0
 20
3225.0
  0
MTEXT
  5
15A
330
17
100
AcDbEntity
  8
0
100
AcDbMText
 10
152.5
 20
3270.0
 30
0.0
 40
5.0
 71
5
  1
Steel Plate\P25.0kg\PSteel
  0
LWPOLYLINE
  5
15B
330
17
100
AcDbEntity
  8
0
100
AcDbPolyline
 90
5
 70
1
 10
0.0
 20
3620.0
 10
20.0
 20
3620.0
 10
20.0
 20
3925.0
 10
0.0
 20
3925.0
 10
0.0
 20
3620.0
  0
MTEXT
  5
15C
330
17
100
AcDbEntity
  8
0
100
AcDbMText
 10
10.0
 20
3772.5
 30
0.0
 40
5.0
 71
5
  1
Steel Pipe\P15.0kg\PSteel
  0
LWPOLYLINE
  5
15D
330
17
100
AcDbEntity
  8
0
100
AcDbPolyline
 90
5
 70
1
 10
95.0
 20
3640.0
 10
138.0
 20
3640.0
 10
138.0
 20
3725.0
 10
95.0
 20
3725.0
 10
95.0
 20
3640.0
  0
MTEXT
  5
15E
330
17
100
AcDbEntity
  8
0
100
AcDbMText
 10
116.5
 20
3682.5
 30
0.0
 40
5.0
 71
5
  1
Steel Rebar Bundle\P35.0kg\PSteel
  0
LWPOLYLINE
  5
15F
330
17
100
AcDbEntity
  8
0
100
AcDbPolyline
 90
5
 70
1
 10
39.0
 20
3742.0
 10
71.0
 20
3742.0
 10
71.0
 20
4168.0
 10
39.0
 20
4168.0
 10
39.0
 20
3742.0
  0
MTEXT
  5
160
330
17
100
AcDbEntity
  8
0
100
AcDbMText
 10
55.0
 20
3955.0
 30
0.0
 40
5.0
 71
5
  1
Steel Beam\P45.0kg\PSteel
  0
LWPOLYLINE
  5
161
330
17
100
AcDbEntity
  8
0
100
AcDbPolyline
 90
5
 70
1
 10
185.0
 20
3225.0
 10
289.0
 20
3225.0
 10
289.0
 20
3434.0
 10
185.0
 20
3434.0
 10
185.0
 20
3225.0
  0
MTEXT
  5
162
330
17
100
AcDbEntity
  8
0
100
AcDbMText
 10
237.0
 20
3329.5
 30
0.0
 40
5.0
 71
5
  1
Plastic Sheet\P8.0kg\PPlastic
  0
LWPOLYLINE
  5
163
330
17
100
AcDbEntity
  8
0
100
AcDbPolyline
 90
5
 70
1
 10
148.0
 20
3640.0
 10
257.0
 20
3640.0
 10
257.0
 20
3857.0
 10
148.0
 20
3857.0
 10
148.0
 20
3640.0
  0
MTEXT
  5
164
330
17
100
AcDbEntity
  8
0
100
AcDbMText
 10
202.5
 20
3748.5
 30
0.0
 40
5.0
 71
5
  1
Plastic Sheet\P8.0kg\PPlastic
  0
LWPOLYLINE
  5
165
330
17
100
AcDbEntity
  8
0
100
AcDbPolyline
 90
5
 70
1
 10
79.0
 20
3317.0
 10
99.0
 20
3317.0
 10
99.0
 20
3617.0
 10
79.0
 20
3617.0
 10
79.0
 20
3317.0
  0
MTEXT
  5
166
330
17
100
AcDbEntity
  8
0
100
AcDbMText
 10
89.0
 20
3467.0
 30
0.0
 40
5.0
 71
5
  1
Steel Pipe\P15.0kg\PSteel
  0
LWPOLYLINE
  5
167
330
17
100
AcDbEntity
  8
0
100
AcDbPolyline
 90
5
 70
1
 10
299.0
 20
3225.0
 10
413.0
 20
3225.0
 10
413.0
 20
3453.0
 10
299.0
 20
3453.0
 10
299.0
 20
3225.0
  0
MTEXT
  5
168
330
17
100
AcDbEntity
  8
0
100
AcDbMText
 10
356.0
 20
3339.0
 30
0.0
 40
5.0
 71
5
  1
Wood Sheet\P20.0kg\PWood
  0
LWPOLYLINE
  5
169
330
17
100
AcDbEntity
  8
0
100
AcDbPolyline
 90
5
 70
1
 10
81.0
 20
3742.0
 10
134.0
 20
3742.0
 10
134.0
 20
3848.0
 10
81.0
 20
3848.0
 10
81.0
 20
3742.0
  0
MTEXT
  5
16A
330
17
100
AcDbEntity
  8
0
100
AcDbMText
 10
107.5
 20
3795.0
 30
0.0
 40
5.0
 71
5
  1
Steel Plate\P25.0kg\PSteel
  0
LWPOLYLINE
  5
16B
330
17
100
AcDbEntity
  8
0
100
AcDbPolyline
 90
5
 70
1
 10
267.0
 20
3640.0
 10
363.0
 20
3640.0
 10
363.0
 20
3832.0
 10
267.0
 20
3832.0
 10
267.0
 20
3640.0
  0
MTEXT
  5
16C
330
17
100
AcDbEntity
  8
0
100
AcDbMText
 10
315.0
 20
3736.0
 30
0.0
 40
5.0
 71
5
  1
Plastic Sheet\P8.0kg\PPlastic
  0
LWPOLYLINE
  5
16D
330
17
100
AcDbEntity
  8
0
100
AcDbPolyline
 90
5
 70
1
 10
39.0
 20
4178.0
 10
368.0
 20
4178.0
 10
368.0
 20
4205.0
 10
39.0
 20
4205.0
 10
39.0
 20
4178.0
  0
MTEXT
  5
16E
330
17
100
AcDbEntity
  8
0
100
AcDbMText
 10
203.5
 20
4191.5
 30
0.0
 40
5.0
 71
5
  1
Wood Plank\P12.0kg\PWood
  0
LWPOLYLINE
  5
16F
330
17
100
AcDbEntity
  8
0
100
AcDbPolyline
 90
5
 70
1
 10
130.0
 20
3325.0
 10
150.0
 20
3325.0
 10
150.0
 20
3624.0
 10
130.0
 20
3624.0
 10
130.0
 20
3325.0
  0
MTEXT
  5
170
330
17
100
AcDbEntity
  8
0
100
AcDbMText
 10
140.0
 20
3474.5
 30
0.0
 40
5.0
 71
5
  1
Steel Pipe\P15.0kg\PSteel
  0
LWPOLYLINE
  5
171
330
17
100
AcDbEntity
  8
0
100
AcDbPolyline
 90
5
 70
1
 10
148.0
 20
3867.0
 10
250.0
 20
3867.0
 10
250.0
 20
4070.0
 10
148.0
 20
4070.0
 10
148.0
 20
3867.0
  0
MTEXT
  5
172
330
17
100
AcDbEntity
  8
0
100
AcDbMText
 10
199.0
 20
3968.5
 30
0.0
 40
5.0
 71
5
  1
Plastic Sheet\P8.0kg\PPlastic
  0
LWPOLYLINE
  5
173
330
17
100
AcDbEntity
  8
0
100
AcDbPolyline
 90
5
 70
1
 10
185.0
 20
3444.0
 10
238.0
 20
3444.0
 10
238.0
 20
3497.0
 10
185.0
 20
3497.0
 10
185.0
 20
3444.0
  0
MTEXT
  5
174
330
17
100
AcDbEntity
  8
0
100
AcDbMText
 10
211.5
 20
3470.5
 30
0.0
 40
5.0
 71
5
  1
Plastic Bin\P4.0kg\PPlastic
  0
LWPOLYLINE
  5
175
330
17
100
AcDbEntity
  8
0
100
AcDbPolyline
 90
5
 70
1
 10
423.0
 20
3225.0
 10
486.0
 20
3225.0
 10
486.0
 20
3352.0
 10
423.0
 20
3352.0
 10
423.0
 20
3225.0
  0
MTEXT
  5
176
330
17
100
AcDbEntity
  8
0
100
AcDbMText
 10
454.5
 20
3288.5
 30
0.0
 40
5.0
 71
5
  1
Concrete Slab\P80.0kg\PConcrete
  0
LWPOLYLINE
  5
177
330
17
100
AcDbEntity
  8
0
100
AcDbPolyline
 90
5
 70
1
 10
373.0
 20
3640.0
 10
482.0
 20
3640.0
 10
482.0
 20
3857.0
 10
373.0
 20
3857.0
 10
373.0
 20
3640.0
  0
MTEXT
  5
178
330
17
100
AcDbEntity
  8
0
100
AcDbMText
 10
427.5
 20
3748.5
 30
0.0
 40
5.0
 71
5
  1
Plastic Sheet\P8.0kg\PPlastic
  0
LWPOLYLINE
  5
179
330
17
100
AcDbEntity
  8
0
100
AcDbPolyline
 90
5
 70
1
 10
148.0
 20
4080.0
 10
477.0
 20
4080.0
 10
477.0
 20
4102.0
 10
148.0
 20
4102.0
 10
148.0
 20
4080.0
  0
MTEXT
  5
17A
330
17
100
AcDbEntity
  8
0
100
AcDbMText
 10
312.5
 20
4091.0
 30
0.0
 40
5.0
 71
5
  1
Steel Pipe\P15.0kg\PSteel
  0
LWPOLYLINE
  5
17B
330
17
100
AcDbEntity
  8
0
100
AcDbPolyline
 90
5
 70
1
 10
148.0
 20
4112.0
 10
470.0
 20
4112.0
 10
470.0
 20
4133.0
 10
148.0
 20
4133.0
 10
148.0
 20
4112.0
  0
MTEXT
  5
17C
330
17
100
AcDbEntity
  8
0
100
AcDbMText
 10
309.0
 20
4122.5
 30
0.0
 40
5.0
 71
5
  1
Steel Pipe\P15.0kg\PSteel
  0
LWPOLYLINE
  5
17D
330
17
100
AcDbEntity
  8
0
100
AcDbPolyline
 90
5
 70
1
 10
299.0
 20
3463.0
 10
365.0
 20
3463.0
 10
365.0
 20
3594.0
 10
299.0
 20
3594.0
 10
299.0
 20
3463.0
  0
MTEXT
  5
17E
330
17
100
AcDbEntity
  8
0
100
AcDbMText
 10
332.0
 20
3528.5
 30
0.0
 40
5.0
 71
5
  1
Wood Frame\P8.0kg\PWood
  0
LWPOLYLINE
  5
17F
330
17
100
AcDbEntity
  8
0
100
AcDbPolyline
 90
5
 70
1
 10
267.0
 20
3842.0
 10
325.0
 20
3842.0
 10
325.0
 20
3959.0
 10
267.0
 20
3959.0
 10
267.0
 20
3842.0
  0
MTEXT
  5
180
330
17
100
AcDbEntity
  8
0
100
AcDbMText
 10
296.0
 20
3900.5
 30
0.0
 40
5.0
 71
5
  1
Wood Frame\P8.0kg\PWood
  0
LWPOLYLINE
  5
181
330
17
100
AcDbEntity
  8
0
100
AcDbPolyline
 90
5
 70
1
 10
423.0
 20
3362.0
 10
487.0
 20
3362.0
 10
487.0
 20
3490.0
 10
423.0
 20
3490.0
 10
423.0
 20
3362.0
  0
MTEXT
  5
182
330
17
100
AcDbEntity
  8
0
100
AcDbMText
 10
455.0
 20
3426.0
 30
0.0
 40
5.0
 71
5
  1
Wood Frame\P8.0kg\PWood
  0
LWPOLYLINE
  5
183
330
17
100
AcDbEntity
  8
0
100
AcDbPolyline
 90
5
 70
1
 10
81.0
 20
3858.0
 10
134.0
 20
3858.0
 10
134.0
 20
3964.0
 10
81.0
 20
3964.0
 10
81.0
 20
3858.0
  0
MTEXT
  5
184
330
17
100
AcDbEntity
  8
0
100
AcDbMText
 10
107.5
 20
3911.0
 30
0.0
 40
5.0
 71
5
  1
Steel Plate\P25.0kg\PSteel
  0
LWPOLYLINE
  5
185
330
17
100
AcDbEntity
  8
0
100
AcDbPolyline
 90
5
 70
1
 10
373.0
 20
3867.0
 10
474.0
 20
3867.0
 10
474.0
 20
4069.0
 10
373.0
 20
4069.0
 10
373.0
 20
3867.0
  0
MTEXT
  5
186
330
17
100
AcDbEntity
  8
0
100
AcDbMText
 10
423.5
 20
3968.0
 30
0.0
 40
5.0
 71
5
  1
Plastic Sheet\P8.0kg\PPlastic
  0
LWPOLYLINE
  5
187
330
17
100
AcDbEntity
  8
0
100
AcDbPolyline
 90
5
 70
1
 10
185.0
 20
3507.0
 10
228.0
 20
3507.0
 10
228.0
 20
3592.0
 10
185.0
 20
3592.0
 10
185.0
 20
3507.0
  0
MTEXT
  5
188
330
17
100
AcDbEntity
  8
0
100
AcDbMText
 10
206.5
 20
3549.5
 30
0.0
 40
5.0
 71
5
  1
Concrete Block\P30.0kg\PConcrete
  0
LWPOLYLINE
  5
189
330
17
100
AcDbEntity
  8
0
100
AcDbPolyline
 90
5
 70
1
 10
0.0
 20
3935.0
 10
19.0
 20
3935.0
 10
19.0
 20
4213.0
 10
0.0
 20
4213.0
 10
0.0
 20
3935.0
  0
MTEXT
  5
18A
330
17
100
AcDbEntity
  8
0
100
AcDbMText
 10
9.5
 20
4074.0
 30
0.0
 40
5.0
 71
5
  1
Steel Pipe\P15.0kg\PSteel
  0
LWPOLYLINE
  5
18B
330
17
100
AcDbEntity
  8
0
100
AcDbPolyline
 90
5
 70
1
 10
148.0
 20
4143.0
 10
367.0
 20
4143.0
 10
367.0
 20
4159.0
 10
148.0
 20
4159.0
 10
148.0
 20
4143.0
  0
MTEXT
  5
18C
330
17
100
AcDbEntity
  8
0
100
AcDbMText
 10
257.5
 20
4151.0
 30
0.0
 40
5.0
 71
5
  1
Plastic Pipe\P3.0kg\PPlastic
  0
LWPOLYLINE
  5
18D
330
17
100
AcDbEntity
  8
0
100
AcDbPolyline
 90
5
 70
1
 10
267.0
 20
3969.0
 10
309.0
 20
3969.0
 10
309.0
 20
4054.0
 10
267.0
 20
4054.0
 10
267.0
 20
3969.0
  0
MTEXT
  5
18E
330
17
100
AcDbEntity
  8
0
100
AcDbMText
 10
288.0
 20
4011.5
 30
0.0
 40
5.0
 71
5
  1
Steel Rebar Bundle\P35.0kg\PSteel
  0
LWPOLYLINE
  5
18F
330
17
100
AcDbEntity
  8
0
100
AcDbPolyline
 90
5
 70
1
 10
160.0
 20
3325.0
 10
175.0
 20
3325.0
 10
175.0
 20
3524.0
 10
160.0
 20
3524.0
 10
160.0
 20
3325.0
  0
MTEXT
  5
190
330
17
100
AcDbEntity
  8
0
100
AcDbMText
 10
167.5
 20
3424.5
 30
0.0
 40
5.0
 71
5
  1
Plastic Pipe\P3.0kg\PPlastic
  0
LWPOLYLINE
  5
191
330
17
100
AcDbEntity
  8
0
100
AcDbPolyline
 90
5
 70
1
 10
378.0
 20
4178.0
 10
475.0
 20
4178.0
 10
475.0
 20
4207.0
 10
378.0
 20
4207.0
 10
378.0
 20
4178.0
  0
MTEXT
  5
192
330
17
100
AcDbEntity
  8
0
100
AcDbMText
 10
426.5
 20
4192.5
 30
0.0
 40
5.0
 71
5
  1
Concrete Pipe\P45.0kg\PConcrete
  0
LWPOLYLINE
  5
193
330
17
100
AcDbEntity
  8
0
100
AcDbPolyline
 90
5
 70
1
 10
423.0
 20
3500.0
 10
477.0
 20
3500.0
 10
477.0
 20
3608.0
 10
423.0
 20
3608.0
 10
423.0
 20
3500.0
  0
MTEXT
  5
194
330
17
100
AcDbEntity
  8
0
100
AcDbMText
 10
450.0
 20
3554.0
 30
0.0
 40
5.0
 71
5
  1
Steel Plate\P25.0kg\PSteel
  0
LWPOLYLINE
  5
195
330
17
100
AcDbEntity
  8
0
100
AcDbPolyline
 90
5
 70
1
 10
81.0
 20
3974.0
 10
132.0
 20
3974.0
 10
132.0
 20
4025.0
 10
81.0
 20
4025.0
 10
81.0
 20
3974.0
  0
MTEXT
  5
196
330
17
100
AcDbEntity
  8
0
100
AcDbMText
 10
106.5
 20
3999.5
 30
0.0
 40
5.0
 71
5
  1
Concrete Tile\P15.0kg\PConcrete
  0
LWPOLYLINE
  5
197
330
17
100
AcDbEntity
  8
0
100
AcDbPolyline
 90
5
 70
1
 10
238.0
 20
3507.0
 10
286.0
 20
3507.0
 10
286.0
 20
3604.0
 10
238.0
 20
3604.0
 10
238.0
 20
3507.0
  0
MTEXT
  5
198
330
17
100
AcDbEntity
  8
0
100
AcDbMText
 10
262.0
 20
3555.5
 30
0.0
 40
5.0
 71
5
  1
Steel Plate\P25.0kg\PSteel
  0
LWPOLYLINE
  5
199
330
17
100
AcDbEntity
  8
0
100
AcDbPolyline
 90
5
 70
1
 10
375.0
 20
3463.0
 10
405.0
 20
3463.0
 10
405.0
 20
3563.0
 10
375.0
 20
3563.0
 10
375.0
 20
3463.0
  0
MTEXT
  5
19A
330
17
100
AcDbEntity
  8
0
100
AcDbMText
 10
390.0
 20
3513.0
 30
0.0
 40
5.0
 71
5
  1
Concrete Pipe\P45.0kg\PConcrete
  0
LWPOLYLINE
  5
19B
330
17
100
AcDbEntity
  8
0
100
AcDbPolyline
 90
5
 70
1
 10
319.0
 20
3969.0
 10
362.0
 20
3969.0
 10
362.0
 20
4034.0
 10
319.0
 20
4034.0
 10
319.0
 20
3969.0
  0
MTEXT
  5
19C
330
17
100
AcDbEntity
  8
0
100
AcDbMText
 10
340.5
 20
4001.5
 30
0.0
 40
5.0
 71
5
  1
Plastic Container\P5.0kg\PPlastic
  0
LWPOLYLINE
  5
19D
330
17
100
AcDbEntity
  8
0
100
AcDbPolyline
 90
5
 70
1
 10
81.0
 20
4035.0
 10
128.0
 20
4035.0
 10
128.0
 20
4082.0
 10
81.0
 20
4082.0
 10
81.0
 20
4035.0
  0
MTEXT
  5
19E
330
17
100
AcDbEntity
  8
0
100
AcDbMText
 10
104.5
 20
4058.5
 30
0.0
 40
5.0
 71
5
  1
Concrete Tile\P15.0kg\PConcrete
  0
LWPOLYLINE
  5
19F
330
17
100
AcDbEntity
  8
0
100
AcDbPolyline
 90
5
 70
1
 10
81.0
 20
4092.0
 10
129.0
 20
4092.0
 10
129.0
 20
4140.0
 10
81.0
 20
4140.0
 10
81.0
 20
4092.0
  0
MTEXT
  5
1A0
330
17
100
AcDbEntity
  8
0
100
AcDbMText
 10
105.0
 20
4116.0
 30
0.0
 40
5.0
 71
5
  1
Concrete Tile\P15.0kg\PConcrete
  0
LWPOLYLINE
  5
1A1
330
17
100
AcDbEntity
  8
0
100
AcDbPolyline
 90
5
 70
1
 10
0.0
 20
4300.0
 10
500.0
 20
4300.0
 10
500.0
 20
5300.0
 10
0.0
 20
5300.0
 10
0.0
 20
4300.0
  0
LWPOLYLINE
  5
1A2
330
17
100
AcDbEntity
  8
0
100
AcDbPolyline
 90
5
 70
1
 10
0.0
 20
4300.0
 10
20.0
 20
4300.0
 10
20.0
 20
4704.0
 10
0.0
 20
4704.0
 10
0.0
 20
4300.0
  0
MTEXT
  5
1A3
330
17
100
AcDbEntity
  8
0
100
AcDbMText
 10
10.0
 20
4502.0
 30
0.0
 40
5.0
 71
5
  1
Wood Beam\P18.0kg\PWood
  0
LWPOLYLINE
  5
1A4
330
17
100
AcDbEntity
  8
0
100
AcDbPolyline
 90
5
 70
1
 10
30.0
 20
4300.0
 10
91.0
 20
4300.0
 10
91.0
 20
4402.0
 10
30.0
 20
4402.0
 10
30.0
 20
4300.0
  0
MTEXT
  5
1A5
330
17
100
AcDbEntity
  8
0
100
AcDbMText
 10
60.5
 20
4351.0
 30
0.0
 40
5.0
 71
5
  1
Glass Pane\P12.0kg\PGlass
  0
LWPOLYLINE
  5
1A6
330
17
100
AcDbEntity
  8
0
100
AcDbPolyline
 90
5
 70
1
 10
0.0
 20
4714.0
 10
51.0
 20
4714.0
 10
51.0
 20
4868.0
 10
0.0
 20
4868.0
 10
0.0
 20
4714.0
  0
MTEXT
  5
1A7
330
17
100
AcDbEntity
  8
0
100
AcDbMText
 10
25.5
 20
4791.0
 30
0.0
 40
5.0
 71
5
  1
Glass Panel\P15.0kg\PGlass
  0
LWPOLYLINE
  5
1A8
330
17
100
AcDbEntity
  8
0
100
AcDbPolyline
 90
5
 70
1
 10
101.0
 20
4300.0
 10
147.0
 20
4300.0
 10
147.0
 20
4437.0
 10
101.0
 20
4437.0
 10
101.0
 20
4300.0
  0
MTEXT
  5
1A9
330
17
100
AcDbEntity
  8
0
100
AcDbMText
 10
124.0
 20
4368.5
 30
0.0
 40
5.0
 71
5
  1
Glass Panel\P15.0kg\PGlass
  0
LWPOLYLINE
  5
1AA
330
17
100
AcDbEntity
  8
0
100
AcDbPolyline
 90
5
 70
1
 10
30.0
 20
4412.0
 10
78.0
 20
4412.0
 10
78.0
 20
4556.0
 10
30.0
 20
4556.0
 10
30.0
 20
4412.0
  0
MTEXT
  5
1AB
330
17
100
AcDbEntity
  8
0
100
AcDbMText
 10
54.0
 20
4484.0
 30
0.0
 40
5.0
 71
5
  1
Glass Panel\P15.0kg\PGlass
  0
LWPOLYLINE
  5
1AC
330
17
100
AcDbEntity
  8
0
100
AcDbPolyline
 90
5
 70
1
 10
61.0
 20
4714.0
 10
108.0
 20
4714.0
 10
108.0
 20
4856.0
 10
61.0
 20
4856.0
 10
61.0
 20
4714.0
  0
MTEXT
  5
1AD
330
17
100
AcDbEntity
  8
0
100
AcDbMText
 10
84.5
 20
4785.0
 30
0.0
 40
5.0
 71
5
  1
Glass Panel\P15.0kg\PGlass
  0
LWPOLYLINE
  5
1AE
330
17
100
AcDbEntity
  8
0
100
AcDbPolyline
 90
5
 70
1
 10
0.0
 20
4878.0
 10
126.0
 20
4878.0
 10
126.0
 20
5130.0
 10
0.0
 20
5130.0
 10
0.0
 20
4878.0
  0
MTEXT
  5
1AF
330
17
100
AcDbEntity
  8
0
100
AcDbMText
 10
63.0
 20
5004.0
 30
0.0
 40
5.0
 71
5
  1
Wood Sheet\P20.0kg\PWood
  0
LWPOLYLINE
  5
1B0
330
17
100
AcDbEntity
  8
0
100
AcDbPolyline
 90
5
 70
1
 10
157.0
 20
4300.0
 10
215.0
 20
4300.0
 10
215.0
 20
4396.0
 10
157.0
 20
4396.0
 10
157.0
 20
4300.0
  0
MTEXT
  5
1B1
330
17
100
AcDbEntity
  8
0
100
AcDbMText
 10
186.0
 20
4348.0
 30
0.0
 40
5.0
 71
5
  1
Glass Pane\P12.0kg\PGlass
  0
LWPOLYLINE
  5
1B2
330
17
100
AcDbEntity
  8
0
100
AcDbPolyline
 90
5
 70
1
 10
101.0
 20
4447.0
 10
160.0
 20
4447.0
 10
160.0
 20
4545.0
 10
101.0
 20
4545.0
 10
101.0
 20
4447.0
  0
MTEXT
  5
1B3
330
17
100
AcDbEntity
  8
0
100
AcDbMText
 10
130.5
 20
4496.0
 30
0.0
 40
5.0
 71
5
  1
Glass Pane\P12.0kg\PGlass
  0
LWPOLYLINE
  5
1B4
330
17
100
AcDbEntity
  8
0
100
AcDbPolyline
 90
5
 70
1
 10
30.0
 20
4566.0
 10
250.0
 20
4566.0
 10
250.0
 20
4676.0
 10
30.0
 20
4676.0
 10
30.0
 20
4566.0
  0
MTEXT
  5
1B5
330
17
100
AcDbEntity
  8
0
100
AcDbMText
 10
140.0
 20
4621.0
 30
0.0
 40
5.0
 71
5
  1
Plastic Sheet\P8.0kg\PPlastic
  0
LWPOLYLINE
  5
1B6
330
17
100
AcDbEntity
  8
0
100
AcDbPolyline
 90
5
 70
1
 10
118.0
 20
4714.0
 10
385.0
 20
4714.0
 10
385.0
 20
4848.0
 10
118.0
 20
4848.0
 10
118.0
 20
4714.0
  0
MTEXT
  5
1B7
330
17
100
AcDbEntity
  8
0
100
AcDbMText
 10
251.5
 20
4781.0
 30
0.0
 40
5.0
 71
5
  1
Wood Sheet\P20.0kg\PWood
  0
LWPOLYLINE
  5
1B8
330
17
100
AcDbEntity
  8
0
100
AcDbPolyline
 90
5
 70
1
 10
136.0
 20
4878.0
 10
210.0
 20
4878.0
 10
210.0
 20
4989.0
 10
136.0
 20
4989.0
 10
136.0
 20
4878.0
  0
MTEXT
  5
1B9
330
17
100
AcDbEntity
  8
0
100
AcDbMText
 10
173.0
 20
4933.5
 30
0.0
 40
5.0
 71
5
  1
Glass Sheet\P18.0kg\PGlass
  0
LWPOLYLINE
  5
1BA
330
17
100
AcDbEntity
  8
0
100
AcDbPolyline
 90
5
 70
1
 10
0.0
 20
5140.0
 10
389.0
 20
5140.0
 10
389.0
 20
5159.0
 10
0.0
 20
5159.0
 10
0.0
 20
5140.0
  0
MTEXT
  5
1BB
330
17
100
AcDbEntity
  8
0
100
AcDbMText
 10
194.5
 20
5149.5
 30
0.0
 40
5.0
 71
5
  1
Wood Beam\P18.0kg\PWood
  0
LWPOLYLINE
  5
1BC
330
17
100
AcDbEntity
  8
0
100
AcDbPolyline
 90
5
 70
1
 10
395.0
 20
4714.0
 10
415.0
 20
4714.0
 10
415.0
 20
5121.0
 10
395.0
 20
5121.0
 10
395.0
 20
4714.0
  0
MTEXT
  5
1BD
330
17
100
AcDbEntity
  8
0
100
AcDbMText
 10
405.0
 20
4917.5
 30
0.0
 40
5.0
 71
5
  1
Wood Beam\P18.0kg\PWood
  0
LWPOLYLINE
  5
1BE
330
17
100
AcDbEntity
  8
0
100
AcDbPolyline
 90
5
 70
1
 10
225.0
 20
4300.0
 10
276.0
 20
4300.0
 10
276.0
 20
4454.0
 10
225.0
 20
4454.0
 10
225.0
 20
4300.0
  0
MTEXT
  5
1BF
330
17
100
AcDbEntity
  8
0
100
AcDbMText
 10
250.5
 20
4377.0
 30
0.0
 40
5.0
 71
5
  1
Glass Panel\P15.0kg\PGlass
  0
LWPOLYLINE
  5
1C0
330
17
100
AcDbEntity
  8
0
100
AcDbPolyline
 90
5
 70
1
 10
220.0
 20
4878.0
 10
343.0
 20
4878.0
 10
343.0
 20
5123.0
 10
220.0
 20
5123.0
 10
220.0
 20
4878.0
  0
MTEXT
  5
1C1
330
17
100
AcDbEntity
  8
0
100
AcDbMText
 10
281.5
 20
5000.5
 30
0.0
 40
5.0
 71
5
  1
Wood Sheet\P20.0kg\PWood
  0
LWPOLYLINE
  5
1C2
330
17
100
AcDbEntity
  8
0
100
AcDbPolyline
 90
5
 70
1
 10
260.0
 20
4566.0
 10
463.0
 20
4566.0
 10
463.0
 20
4668.0
 10
260.0
 20
4668.0
 10
260.0
 20
4566.0
  0
MTEXT
  5
1C3
330
17
100
AcDbEntity
  8
0
100
AcDbMText
 10
361.5
 20
4617.0
 30
0.0
 40
5.0
 71
5
  1
Plastic Sheet\P8.0kg\PPlastic
  0
LWPOLYLINE
  5
1C4
330
17
100
AcDbEntity
  8
0
100
AcDbPolyline
 90
5
 70
1
 10
0.0
 20
5169.0
 10
428.0
 20
5169.0
 10
428.0
 20
5190.0
 10
0.0
 20
5190.0
 10
0.0
 20
5169.0
  0
MTEXT
  5
1C5
330
17
100
AcDbEntity
  8
0
100
AcDbMText
 10
214.0
 20
5179.5
 30
0.0
 40
5.0
 71
5
  1
Wood Beam\P18.0kg\PWood
  0
LWPOLYLINE
  5
1C6
330
17
100
AcDbEntity
  8
0
100
AcDbPolyline
 90
5
 70
1
 10
425.0
 20
4714.0
 10
444.0
 20
4714.0
 10
444.0
 20
5087.0
 10
425.0
 20
5087.0
 10
425.0
 20
4714.0
  0
MTEXT
  5
1C7
330
17
100
AcDbEntity
  8
0
100
AcDbMText
 10
434.5
 20
4900.5
 30
0.0
 40
5.0
 71
5
  1
Wood Beam\P18.0kg\PWood
  0
LWPOLYLINE
  5
1C8
330
17
100
AcDbEntity
  8
0
100
AcDbPolyline
 90
5
 70
1
 10
170.0
 20
4447.0
 10
210.0
 20
4447.0
 10
210.0
 20
4527.0
 10
170.0
 20
4527.0
 10
170.0
 20
4447.0
  0
MTEXT
  5
1C9
330
17
100
AcDbEntity
  8
0
100
AcDbMText
 10
190.0
 20
4487.0
 30
0.0
 40
5.0
 71
5
  1
Concrete Block\P30.0kg\PConcrete
  0
LWPOLYLINE
  5
1CA
330
17
100
AcDbEntity
  8
0
100
AcDbPolyline
 90
5
 70
1
 10
136.0
 20
4999.0
 10
167.0
 20
4999.0
 10
167.0
 20
5103.0
 10
136.0
 20
5103.0
 10
136.0
 20
4999.0
  0
MTEXT
  5
1CB
330
17
100
AcDbEntity
  8
0
100
AcDbMText
 10
151.5
 20
5051.0
 30
0.0
 40
5.0
 71
5
  1
Concrete Pipe\P45.0kg\PConcrete
  0
LWPOLYLINE
  5
1CC
330
17
100
AcDbEntity
  8
0
100
AcDbPolyline
 90
5
 70
1
 10
286.0
 20
4300.0
 10
387.0
 20
4300.0
 10
387.0
 20
4502.0
 10
286.0
 20
4502.0
 10
286.0
 20
4300.0
  0
MTEXT
  5
1CD
330
17
100
AcDbEntity
  8
0
100
AcDbMText
 10
336.5
 20
4401.0
 30
0.0
 40
5.0
 71
5
  1
Plastic Sheet\P8.0kg\PPlastic
  0
LWPOLYLINE
  5
1CE
330
17
100
AcDbEntity
  8
0
100
AcDbPolyline
 90
5
 70
1
 10
0.0
 20
5200.0
 10
117.0
 20
5200.0
 10
117.0
 20
5278.0
 10
0.0
 20
5278.0
 10
0.0
 20
5200.0
  0
MTEXT
  5
1CF
330
17
100
AcDbEntity
  8
0
100
AcDbMText
 10
58.5
 20
5239.0
 30
0.0
 40
5.0
 71
5
  1
Glass Sheet\P18.0kg\PGlass
  0
LWPOLYLINE
  5
1D0
330
17
100
AcDbEntity
  8
0
100
AcDbPolyline
 90
5
 70
1
 10
397.0
 20
4300.0
 10
455.0
 20
4300.0
 10
455.0
 20
4417.0
 10
397.0
 20
4417.0
 10
397.0
 20
4300.0
  0
MTEXT
  5
1D1
330
17
100
AcDbEntity
  8
0
100
AcDbMText
 10
426.0
 20
4358.5
 30
0.0
 40
5.0
 71
5
  1
Wood Frame\P8.0kg\PWood
  0
LWPOLYLINE
  5
1D2
330
17
100
AcDbEntity
  8
0
100
AcDbPolyline
 90
5
 70
1
 10
225.0
 20
4464.0
 10
276.0
 20
4464.0
 10
276.0
 20
4515.0
 10
225.0
 20
4515.0
 10
225.0
 20
4464.0
  0
MTEXT
  5
1D3
330
17
100
AcDbEntity
  8
0
100
AcDbMText
 10
250.5
 20
4489.5
 30
0.0
 40
5.0
 71
5
  1
Concrete Tile\P15.0kg\PConcrete
  0
LWPOLYLINE
  5
1D4
330
17
100
AcDbEntity
  8
0
100
AcDbPolyline
 90
5
 70
1
 10
30.0
 20
4686.0
 10
231.0
 20
4686.0
 10
231.0
 20
4701.0
 10
30.0
 20
4701.0
 10
30.0
 20
4686.0
  0
MTEXT
  5
1D5
330
17
100
AcDbEntity
  8
0
100
AcDbMText
 10
130.5
 20
4693.5
 30
0.0
 40
5.0
 71
5
  1
Plastic Pipe\P3.0kg\PPlastic
  0
LWPOLYLINE
  5
1D6
330
17
100
AcDbEntity
  8
0
100
AcDbPolyline
 90
5
 70
1
 10
425.0
 20
5097.0
 10
478.0
 20
5097.0
 10
478.0
 20
5150.0
 10
425.0
 20
5150.0
 10
425.0
 20
5097.0
  0
MTEXT
  5
1D7
330
17
100
AcDbEntity
  8
0
100
AcDbMText
 10
451.5
 20
5123.5
 30
0.0
 40
5.0
 71
5
  1
Concrete Tile\P15.0kg\PConcrete
  0
LWPOLYLINE
  5
1D8
330
17
100
AcDbEntity
  8
0
100
AcDbPolyline
 90
5
 70
1
 10
454.0
 20
4714.0
 10
472.0
 20
4714.0
 10
472.0
 20
5082.0
 10
454.0
 20
5082.0
 10
454.0
 20
4714.0
  0
MTEXT
  5
1D9
330
17
100
AcDbEntity
  8
0
100
AcDbMText
 10
463.0
 20
4898.0
 30
0.0
 40
5.0
 71
5
  1
Wood Beam\P18.0kg\PWood
  0
LWPOLYLINE
  5
1DA
330
17
100
AcDbEntity
  8
0
100
AcDbPolyline
 90
5
 70
1
 10
127.0
 20
5200.0
 10
253.0
 20
5200.0
 10
253.0
 20
5263.0
 10
127.0
 20
5263.0
 10
127.0
 20
5200.0
  0
MTEXT
  5
1DB
330
17
100
AcDbEntity
  8
0
100
AcDbMText
 10
190.0
 20
5231.5
 30
0.0
 40
5.0
 71
5
  1
Concrete Slab\P80.0kg\PConcrete
  0
LWPOLYLINE
  5
1DC
330
17
100
AcDbEntity
  8
0
100
AcDbPolyline
 90
5
 70
1
 10
397.0
 20
4427.0
 10
457.0
 20
4427.0
 10
457.0
 20
4527.0
 10
397.0
 20
4527.0
 10
397.0
 20
4427.0
  0
MTEXT
  5
1DD
330
17
100
AcDbEntity
  8
0
100
AcDbMText
 10
427.0
 20
4477.0
 30
0.0
 40
5.0
 71
5
  1
Glass Pane\P12.0kg\PGlass
  0
LWPOLYLINE
  5
1DE
330
17
100
AcDbEntity
  8
0
100
AcDbPolyline
 90
5
 70
1
 10
438.0
 20
5169.0
 10
489.0
 20
5169.0
 10
489.0
 20
5220.0
 10
438.0
 20
5220.0
 10
438.0
 20
5169.0
  0
MTEXT
  5
1DF
330
17
100
AcDbEntity
  8
0
100
AcDbMText
 10
463.5
 20
5194.5
 30
0.0
 40
5.0
 71
5
  1
Concrete Tile\P15.0kg\PConcrete
  0
LWPOLYLINE
  5
1E0
330
17
100
AcDbEntity
  8
0
100
AcDbPolyline
 90
5
 70
1
 10
286.0
 20
4512.0
 10
359.0
 20
4512.0
 10
359.0
 20
4549.0
 10
286.0
 20
4549.0
 10
286.0
 20
4512.0
  0
MTEXT
  5
1E1
330
17
100
AcDbEntity
  8
0
100
AcDbMText
 10
322.5
 20
4530.5
 30
0.0
 40
5.0
 71
5
  1
Concrete Block\P30.0kg\PConcrete
  0
LWPOLYLINE
  5
1E2
330
17
100
AcDbEntity
  8
0
100
AcDbPolyline
 90
5
 70
1
 10
263.0
 20
5200.0
 10
382.0
 20
5200.0
 10
382.0
 20
5259.0
 10
263.0
 20
5259.0
 10
263.0
 20
5200.0
  0
MTEXT
  5
1E3
330
17
100
AcDbEntity
  8
0
100
AcDbMText
 10
322.5
 20
5229.5
 30
0.0
 40
5.0
 71
5
  1
Wood Frame\P8.0kg\PWood
  0
LWPOLYLINE
  5
1E4
330
17
100
AcDbEntity
  8
0
100
AcDbPolyline
 90
5
 70
1
 10
353.0
 20
4878.0
 10
382.0
 20
4878.0
 10
382.0
 20
4976.0
 10
353.0
 20
4976.0
 10
353.0
 20
4878.0
  0
MTEXT
  5
1E5
330
17
100
AcDbEntity
  8
0
100
AcDbMText
 10
367.5
 20
4927.0
 30
0.0
 40
5.0
 71
5
  1
Concrete Pipe\P45.0kg\PConcrete
  0
LWPOLYLINE
  5
1E6
330
17
100
AcDbEntity
  8
0
100
AcDbPolyline
 90
5
 70
1
 10
438.0
 20
5230.0
 10
487.0
 20
5230.0
 10
487.0
 20
5279.0
 10
438.0
 20
5279.0
 10
438.0
 20
5230.0
  0
MTEXT
  5
1E7
330
17
100
AcDbEntity
  8
0
100
AcDbMText
 10
462.5
 20
5254.5
 30
0.0
 40
5.0
 71
5
  1
Plastic Bin\P4.0kg\PPlastic
  0
LWPOLYLINE
  5
1E8
330
17
100
AcDbEntity
  8
0
100
AcDbPolyline
 90
5
 70
1
 10
0.0
 20
5375.0
 10
500.0
 20
5375.0
 10
500.0
 20
6375.0
 10
0.0
 20
6375.0
 10
0.0
 20
5375.0
  0
LWPOLYLINE
  5
1E9
330
17
100
AcDbEntity
  8
0
100
AcDbPolyline
 90
5
 70
1
 10
0.0
 20
5375.0
 10
28.0
 20
5375.0
 10
28.0
 20
5745.0
 10
0.0
 20
5745.0
 10
0.0
 20
5375.0
  0
MTEXT
  5
1EA
330
17
100
AcDbEntity
  8
0
100
AcDbMText
 10
14.0
 20
5560.0
 30
0.0
 40
5.0
 71
5
  1
Steel Beam\P45.0kg\PSteel
  0
LWPOLYLINE
  5
1EB
330
17
100
AcDbEntity
  8
0
100
AcDbPolyline
 90
5
 70
1
 10
38.0
 20
5375.0
 10
68.0
 20
5375.0
 10
68.0
 20
5770.0
 10
38.0
 20
5770.0
 10
38.0
 20
5375.0
  0
MTEXT
  5
1EC
330
17
100
AcDbEntity
  8
0
100
AcDbMText
 10
53.0
 20
5572.5
 30
0.0
 40
5.0
 71
5
  1
Steel Beam\P45.0kg\PSteel
  0
LWPOLYLINE
  5
1ED
330
17
100
AcDbEntity
  8
0
100
AcDbPolyline
 90
5
 70
1
 10
78.0
 20
5375.0
 10
110.0
 20
5375.0
 10
110.0
 20
5801.0
 10
78.0
 20
5801.0
 10
78.0
 20
5375.0
  0
MTEXT
  5
1EE
330
17
100
AcDbEntity
  8
0
100
AcDbMText
 10
94.0
 20
5588.0
 30
0.0
 40
5.0
 71
5
  1
Steel Beam\P45.0kg\PSteel
  0
LWPOLYLINE
  5
1EF
330
17
100
AcDbEntity
  8
0
100
AcDbPolyline
 90
5
 70
1
 10
120.0
 20
5375.0
 10
237.0
 20
5375.0
 10
237.0
 20
5608.0
 10
120.0
 20
5608.0
 10
120.0
 20
5375.0
  0
MTEXT
  5
1F0
330
17
100
AcDbEntity
  8
0
100
AcDbMText
 10
178.5
 20
5491.5
 30
0.0
 40
5.0
 71
5
  1
Wood Sheet\P20.0kg\PWood
  0
LWPOLYLINE
  5
1F1
330
17
100
AcDbEntity
  8
0
100
AcDbPolyline
 90
5
 70
1
 10
78.0
 20
5811.0
 10
132.0
 20
5811.0
 10
132.0
 20
5918.0
 10
78.0
 20
5918.0
 10
78.0
 20
5811.0
  0
MTEXT
  5
1F2
330
17
100
AcDbEntity
  8
0
100
AcDbMText
 10
105.0
 20
5864.5
 30
0.0
 40
5.0
 71
5
  1
Steel Plate\P25.0kg\PSteel
  0
LWPOLYLINE
  5
1F3
330
17
100
AcDbEntity
  8
0
100
AcDbPolyline
 90
5
 70
1
 10
247.0
 20
5375.0
 10
351.0
 20
5375.0
 10
351.0
 20
5582.0
 10
247.0
 20
5582.0
 10
247.0
 20
5375.0
  0
MTEXT
  5
1F4
330
17
100
AcDbEntity
  8
0
100
AcDbMText
 10
299.0
 20
5478.5
 30
0.0
 40
5.0
 71
5
  1
Plastic Sheet\P8.0kg\PPlastic
  0
LWPOLYLINE
  5
1F5
330
17
100
AcDbEntity
  8
0
100
AcDbPolyline
 90
5
 70
1
 10
120.0
 20
5618.0
 10
160.0
 20
5618.0
 10
160.0
 20
5698.0
 10
120.0
 20
5698.0
 10
120.0
 20
5618.0
  0
MTEXT
  5
1F6
330
17
100
AcDbEntity
  8
0
100
AcDbMText
 10
140.0
 20
5658.0
 30
0.0
 40
5.0
 71
5
  1
Steel Rebar Bundle\P35.0kg\PSteel
  0
LWPOLYLINE
  5
1F7
330
17
100
AcDbEntity
  8
0
100
AcDbPolyline
 90
5
 70
1
 10
142.0
 20
5811.0
 10
246.0
 20
5811.0
 10
246.0
 20
6020.0
 10
142.0
 20
6020.0
 10
142.0
 20
5811.0
  0
MTEXT
  5
1F8
330
17
100
AcDbEntity
  8
0
100
AcDbMText
 10
194.0
 20
5915.5
 30
0.0
 40
5.0
 71
5
  1
Plastic Sheet\P8.0kg\PPlastic
  0
LWPOLYLINE
  5
1F9
330
17
100
AcDbEntity
  8
0
100
AcDbPolyline
 90
5
 70
1
 10
78.0
 20
5928.0
 10
115.0
 20
5928.0
 10
115.0
 20
6001.0
 10
78.0
 20
6001.0
 10
78.0
 20
5928.0
  0
MTEXT
  5
1FA
330
17
100
AcDbEntity
  8
0
100
AcDbMText
 10
96.5
 20
5964.5
 30
0.0
 40
5.0
 71
5
  1
Concrete Block\P30.0kg\PConcrete
  0
LWPOLYLINE
  5
1FB
330
17
100
AcDbEntity
  8
0
100
AcDbPolyline
 90
5
 70
1
 10
0.0
 20
5755.0
 10
24.0
 20
5755.0
 10
24.0
 20
6045.0
 10
0.0
 20
6045.0
 10
0.0
 20
5755.0
  0
MTEXT
  5
1FC
330
17
100
AcDbEntity
  8
0
100
AcDbMText
 10
12.0
 20
5900.0
 30
0.0
 40
5.0
 71
5
  1
Wood Plank\P12.0kg\PWood
  0
LWPOLYLINE
  5
1FD
330
17
100
AcDbEntity
  8
0
100
AcDbPolyline
 90
5
 70
1
 10
361.0
 20
5375.0
 10
489.0
 20
5375.0
 10
489.0
 20
5630.0
 10
361.0
 20
5630.0
 10
361.0
 20
5375.0
  0
MTEXT
  5
1FE
330
17
100
AcDbEntity
  8
0
100
AcDbMText
 10
425.0
 20
5502.5
 30
0.0
 40
5.0
 71
5
  1
Wood Sheet\P20.0kg\PWood
  0
LWPOLYLINE
  5
1FF
330
17
100
AcDbEntity
  8
0
100
AcDbPolyline
 90
5
 70
1
 10
247.0
 20
5592.0
 10
284.0
 20
5592.0
 10
284.0
 20
5667.0
 10
247.0
 20
5667.0
 10
247.0
 20
5592.0
  0
MTEXT
  5
200
330
17
100
AcDbEntity
  8
0
100
AcDbMText
 10
265.5
 20
5629.5
 30
0.0
 40
5.0
 71
5
  1
Concrete Block\P30.0kg\PConcrete
  0
LWPOLYLINE
  5
201
330
17
100
AcDbEntity
  8
0
100
AcDbPolyline
 90
5
 70
1
 10
170.0
 20
5618.0
 10
213.0
 20
5618.0
 10
213.0
 20
5705.0
 10
170.0
 20
5705.0
 10
170.0
 20
5618.0
  0
MTEXT
  5
202
330
17
100
AcDbEntity
  8
0
100
AcDbMText
 10
191.5
 20
5661.5
 30
0.0
 40
5.0
 71
5
  1
Steel Rebar Bundle\P35.0kg\PSteel
  0
LWPOLYLINE
  5
203
330
17
100
AcDbEntity
  8
0
100
AcDbPolyline
 90
5
 70
1
 10
256.0
 20
5811.0
 10
312.0
 20
5811.0
 10
312.0
 20
5922.0
 10
256.0
 20
5922.0
 10
256.0
 20
5811.0
  0
MTEXT
  5
204
330
17
100
AcDbEntity
  8
0
100
AcDbMText
 10
284.0
 20
5866.5
 30
0.0
 40
5.0
 71
5
  1
Concrete Slab\P80.0kg\PConcrete
  0
LWPOLYLINE
  5
205
330
17
100
AcDbEntity
  8
0
100
AcDbPolyline
 90
5
 70
1
 10
0.0
 20
6055.0
 10
440.0
 20
6055.0
 10
440.0
 20
6088.0
 10
0.0
 20
6088.0
 10
0.0
 20
6055.0
  0
MTEXT
  5
206
330
17
100
AcDbEntity
  8
0
100
AcDbMText
 10
220.0
 20
6071.5
 30
0.0
 40
5.0
 71
5
  1
Steel Beam\P45.0kg\PSteel
  0
LWPOLYLINE
  5
207
330
17
100
AcDbEntity
  8
0
100
AcDbPolyline
 90
5
 70
1
 10
361.0
 20
5640.0
 10
415.0
 20
5640.0
 10
415.0
 20
5748.0
 10
361.0
 20
5748.0
 10
361.0
 20
5640.0
  0
MTEXT
  5
208
330
17
100
AcDbEntity
  8
0
100
AcDbMText
 10
388.0
 20
5694.0
 30
0.0
 40
5.0
 71
5
  1
Steel Plate\P25.0kg\PSteel
  0
LWPOLYLINE
  5
209
330
17
100
AcDbEntity
  8
0
100
AcDbPolyline
 90
5
 70
1
 10
0.0
 20
6098.0
 10
426.0
 20
6098.0
 10
426.0
 20
6130.0
 10
0.0
 20
6130.0
 10
0.0
 20
6098.0
  0
MTEXT
  5
20A
330
17
100
AcDbEntity
  8
0
100
AcDbMText
 10
213.0
 20
6114.0
 30
0.0
 40
5.0
 71
5
  1
Steel Beam\P45.0kg\PSteel
  0
LWPOLYLINE
  5
20B
330
17
100
AcDbEntity
  8
0
100
AcDbPolyline
 90
5
 70
1
 10
294.0
 20
5592.0
 10
349.0
 20
5592.0
 10
349.0
 20
5702.0
 10
294.0
 20
5702.0
 10
294.0
 20
5592.0
  0
MTEXT
  5
20C
330
17
100
AcDbEntity
  8
0
100
AcDbMText
 10
321.5
 20
5647.0
 30
0.0
 40
5.0
 71
5
  1
Wood Frame\P8.0kg\PWood
  0
LWPOLYLINE
  5
20D
330
17
100
AcDbEntity
  8
0
100
AcDbPolyline
 90
5
 70
1
 10
0.0
 20
6140.0
 10
431.0
 20
6140.0
 10
431.0
 20
6172.0
 10
0.0
 20
6172.0
 10
0.0
 20
6140.0
  0
MTEXT
  5
20E
330
17
100
AcDbEntity
  8
0
100
AcDbMText
 10
215.5
 20
6156.0
 30
0.0
 40
5.0
 71
5
  1
Steel Beam\P45.0kg\PSteel
  0
LWPOLYLINE
  5
20F
330
17
100
AcDbEntity
  8
0
100
AcDbPolyline
 90
5
 70
1
 10
450.0
 20
6055.0
 10
473.0
 20
6055.0
 10
473.0
 20
6326.0
 10
450.0
 20
6326.0
 10
450.0
 20
6055.0
  0
MTEXT
  5
210
330
17
100
AcDbEntity
  8
0
100
AcDbMText
 10
461.5
 20
6190.5
 30
0.0
 40
5.0
 71
5
  1
Wood Plank\P12.0kg\PWood
  0
LWPOLYLINE
  5
211
330
17
100
AcDbEntity
  8
0
100
AcDbPolyline
 90
5
 70
1
 10
425.0
 20
5640.0
 10
455.0
 20
5640.0
 10
455.0
 20
6043.0
 10
425.0
 20
6043.0
 10
425.0
 20
5640.0
  0
MTEXT
  5
212
330
17
100
AcDbEntity
  8
0
100
AcDbMText
 10
440.0
 20
5841.5
 30
0.0
 40
5.0
 71
5
  1
Steel Beam\P45.0kg\PSteel
  0
LWPOLYLINE
  5
213
330
17
100
AcDbEntity
  8
0
100
AcDbPolyline
 90
5
 70
1
 10
170.0
 20
5715.0
 10
301.0
 20
5715.0
 10
301.0
 20
5780.0
 10
170.0
 20
5780.0
 10
170.0
 20
5715.0
  0
MTEXT
  5
214
330
17
100
AcDbEntity
  8
0
100
AcDbMText
 10
235.5
 20
5747.5
 30
0.0
 40
5.0
 71
5
  1
Concrete Slab\P80.0kg\PConcrete
  0
LWPOLYLINE
  5
215
330
17
100
AcDbEntity
  8
0
100
AcDbPolyline
 90
5
 70
1
 10
0.0
 20
6182.0
 10
430.0
 20
6182.0
 10
430.0
 20
6214.0
 10
0.0
 20
6214.0
 10
0.0
 20
6182.0
  0
MTEXT
  5
216
330
17
100
AcDbEntity
  8
0
100
AcDbMText
 10
215.0
 20
6198.0
 30
0.0
 40
5.0
 71
5
  1
Steel Beam\P45.0kg\PSteel
  0
LWPOLYLINE
  5
217
330
17
100
AcDbEntity
  8
0
100
AcDbPolyline
 90
5
 70
1
 10
322.0
 20
5811.0
 10
370.0
 20
5811.0
 10
370.0
 20
5859.0
 10
322.0
 20
5859.0
 10
322.0
 20
5811.0
  0
MTEXT
  5
218
330
17
100
AcDbEntity
  8
0
100
AcDbMText
 10
346.0
 20
5835.0
 30
0.0
 40
5.0
 71
5
  1
Plastic Bin\P4.0kg\PPlastic
  0
LWPOLYLINE
  5
219
330
17
100
AcDbEntity
  8
0
100
AcDbPolyline
 90
5
 70
1
 10
0.0
 20
6224.0
 10
207.0
 20
6224.0
 10
207.0
 20
6328.0
 10
0.0
 20
6328.0
 10
0.0
 20
6224.0
  0
MTEXT
  5
21A
330
17
100
AcDbEntity
  8
0
100
AcDbMText
 10
103.5
 20
6276.0
 30
0.0
 40
5.0
 71
5
  1
Plastic Sheet\P8.0kg\PPlastic
  0
LWPOLYLINE
  5
21B
330
17
100
AcDbEntity
  8
0
100
AcDbPolyline
 90
5
 70
1
 10
256.0
 20
5932.0
 10
298.0
 20
5932.0
 10
298.0
 20
6017.0
 10
256.0
 20
6017.0
 10
256.0
 20
5932.0
  0
MTEXT
  5
21C
330
17
100
AcDbEntity
  8
0
100
AcDbMText
 10
277.0
 20
5974.5
 30
0.0
 40
5.0
 71
5
  1
Steel Rebar Bundle\P35.0kg\PSteel
  0
LWPOLYLINE
  5
21D
330
17
100
AcDbEntity
  8
0
100
AcDbPolyline
 90
5
 70
1
 10
322.0
 20
5869.0
 10
376.0
 20
5869.0
 10
376.0
 20
5923.0
 10
322.0
 20
5923.0
 10
322.0
 20
5869.0
  0
MTEXT
  5
21E
330
17
100
AcDbEntity
  8
0
100
AcDbMText
 10
349.0
 20
5896.0
 30
0.0
 40
5.0
 71
5
  1
Concrete Tile\P15.0kg\PConcrete
  0
LWPOLYLINE
  5
21F
330
17
100
AcDbEntity
  8
0
100
AcDbPolyline
 90
5
 70
1
 10
217.0
 20
6224.0
 10
270.0
 20
6224.0
 10
270.0
 20
6277.0
 10
217.0
 20
6277.0
 10
217.0
 20
6224.0
  0
MTEXT
  5
220
330
17
100
AcDbEntity
  8
0
100
AcDbMText
 10
243.5
 20
6250.5
 30
0.0
 40
5.0
 71
5
  1
Concrete Tile\P15.0kg\PConcrete
  0
LWPOLYLINE
  5
221
330
17
100
AcDbEntity
  8
0
100
AcDbPolyline
 90
5
 70
1
 10
322.0
 20
5933.0
 10
371.0
 20
5933.0
 10
371.0
 20
5982.0
 10
322.0
 20
5982.0
 10
322.0
 20
5933.0
  0
MTEXT
  5
222
330
17
100
AcDbEntity
  8
0
100
AcDbMText
 10
346.5
 20
5957.5
 30
0.0
 40
5.0
 71
5
  1
Concrete Tile\P15.0kg\PConcrete
  0
LWPOLYLINE
  5
223
330
17
100
AcDbEntity
  8
0
100
AcDbPolyline
 90
5
 70
1
 10
0.0
 20
6338.0
 10
363.0
 20
6338.0
 10
363.0
 20
6365.0
 10
0.0
 20
6365.0
 10
0.0
 20
6338.0
  0
MTEXT
  5
224
330
17
100
AcDbEntity
  8
0
100
AcDbMText
 10
181.5
 20
6351.5
 30
0.0
 40
5.0
 71
5
  1
Steel Beam\P45.0kg\PSteel
  0
LWPOLYLINE
  5
225
330
17
100
AcDbEntity
  8
0
100
AcDbPolyline
 90
5
 70
1
 10
280.0
 20
6224.0
 10
406.0
 20
6224.0
 10
406.0
 20
6287.0
 10
280.0
 20
6287.0
 10
280.0
 20
6224.0
  0
MTEXT
  5
226
330
17
100
AcDbEntity
  8
0
100
AcDbMText
 10
343.0
 20
6255.5
 30
0.0
 40
5.0
 71
5
  1
Concrete Slab\P80.0kg\PConcrete
  0
LWPOLYLINE
  5
227
330
17
100
AcDbEntity
  8
0
100
AcDbPolyline
 90
5
 70
1
 10
465.0
 20
5640.0
 10
484.0
 20
5640.0
 10
484.0
 20
6024.0
 10
465.0
 20
6024.0
 10
465.0
 20
5640.0
  0
MTEXT
  5
228
330
17
100
AcDbEntity
  8
0
100
AcDbMText
 10
474.5
 20
5832.0
 30
0.0
 40
5.0
 71
5
  1
Wood Beam\P18.0kg\PWood
  0
ENDSEC
  0
SECTION
  2
OBJECTS
  0
DICTIONARY
  5
A
330
0
100
AcDbDictionary
281
1
  3
ACAD_COLOR
350
B
  3
ACAD_GROUP
350
C
  3
ACAD_LAYOUT
350
D
  3
ACAD_MATERIAL
350
E
  3
ACAD_MLEADERSTYLE
350
F
  3
ACAD_MLINESTYLE
350
10
  3
ACAD_PLOTSETTINGS
350
11
  3
ACAD_PLOTSTYLENAME
350
12
  3
ACAD_SCALELIST
350
14
  3
ACAD_TABLESTYLE
350
15
  3
ACAD_VISUALSTYLE
350
16
  3
EZDXF_META
350
2D
  0
DICTIONARY
  5
B
330
A
100
AcDbDictionary
281
1
  0
DICTIONARY
  5
C
330
A
100
AcDbDictionary
281
1
  0
DICTIONARY
  5
D
330
A
100
AcDbDictionary
281
1
  3
Model
350
1A
  3
Layout1
350
1E
  0
DICTIONARY
  5
E
330
A
100
AcDbDictionary
281
1
  3
ByBlock
350
1F
  3
ByLayer
350
20
  3
Global
350
21
  0
DICTIONARY
  5
F
330
A
100
AcDbDictionary
281
1
  3
Standard
350
2C
  0
DICTIONARY
  5
10
330
A
100
AcDbDictionary
281
1
  3
Standard
350
22
  0
DICTIONARY
  5
11
330
A
100
AcDbDictionary
281
1
  0
ACDBDICTIONARYWDFLT
  5
12
330
A
100
AcDbDictionary
281
1
  3
Normal
350
13
100
AcDbDictionaryWithDefault
340
13
  0
ACDBPLACEHOLDER
  5
13
330
12
  0
DICTIONARY
  5
14
330
A
100
AcDbDictionary
281
1
  0
DICTIONARY
  5
15
330
A
100
AcDbDictionary
281
1
  0
DICTIONARY
  5
16
330
A
100
AcDbDictionary
281
1
  0
LAYOUT
  5
1A
330
D
100
AcDbPlotSettings
  1

  4
A3
  6

 40
7.5
 41
20.0
 42
7.5
 43
20.0
 44
420.0
 45
297.0
 46
0.0
 47
0.0
 48
0.0
 49
0.0
140
0.0
141
0.0
142
1.0
143
1.0
 70
1024
 72
1
 73
0
 74
5
  7

 75
16
 76
0
 77
2
 78
300
147
1.0
148
0.0
149
0.0
100
AcDbLayout
  1
Model
 70
1
 71
0
 10
0.0
 20
0.0
 11
420.0
 21
297.0
 12
0.0
 22
0.0
 32
0.0
 14
1e+20
 24
1e+20
 34
1e+20
 15
-1e+20
 25
-1e+20
 35
-1e+20
146
0.0
 13
0.0
 23
0.0
 33
0.0
 16
1.0
 26
0.0
 36
0.0
 17
0.0
 27
1.0
 37
0.0
 76
1
330
17
  0
LAYOUT
  5
1E
330
D
100
AcDbPlotSettings
  1

  4
A3
  6

 40
7.5
 41
20.0
 42
7.5
 43
20.0
 44
420.0
 45
297.0
 46
0.0
 47
0.0
 48
0.0
 49
0.0
140
0.0
141
0.0
142
1.0
143
1.0
 70
0
 72
1
 73
0
 74
5
  7

 75
16
 76
0
 77
2
 78
300
147
1.0
148
0.0
149
0.0
100
AcDbLayout
  1
Layout1
 70
1
 71
1
 10
0.0
 20
0.0
 11
420.0
 21
297.0
 12
0.0
 22
0.0
 32
0.0
 14
1e+20
 24
1e+20
 34
1e+20
 15
-1e+20
 25
-1e+20
 35
-1e+20
146
0.0
 13
0.0
 23
0.0
 33
0.0
 16
1.0
 26
0.0
 36
0.0
 17
0.0
 27
1.0
 37
0.0
 76
1
330
1B
  0
MATERIAL
  5
1F
102
{ACAD_REACTORS
330
E
102
}
330
E
100
AcDbMaterial
  1
ByBlock
  2

 70
0
 40
1.0
 71
1
 41
1.0
 91
-1023410177
 42
1.0
 72
1
  3

 73
1
 74
1
 75
1
 44
0.5
 73
0
 45
1.0
 46
1.0
 77
1
  4

 78
1
 79
1
170
1
 48
1.0
171
1
  6

172
1
173
1
174
1
140
1.0
141
1.0
175
1
  7

176
1
177
1
178
1
143
1.0
179
1
  8

270
1
271
1
272
1
145
1.0
146
1.0
273
1
  9

274
1
275
1
276
1
 42
1.0
 72
1
  3

 73
1
 74
1
 75
1
 94
63
  0
MATERIAL
  5
20
102
{ACAD_REACTORS
330
E
102
}
330
E
100
AcDbMaterial
  1
ByLayer
  2

 70
0
 40
1.0
 71
1
 41
1.0
 91
-1023410177
 42
1.0
 72
1
  3

 73
1
 74
1
 75
1
 44
0.5
 73
0
 45
1.0
 46
1.0
 77
1
  4

 78
1
 79
1
170
1
 48
1.0
171
1
  6

172
1
173
1
174
1
140
1.0
141
1.0
175
1
  7

176
1
177
1
178
1
143
1.0
179
1
  8

270
1
271
1
272
1
145
1.0
146
1.0
273
1
  9

274
1
275
1
276
1
 42
1.0
 72
1
  3

 73
1
 74
1
 75
1
 94
63
  0
MATERIAL
  5
21
102
{ACAD_REACTORS
330
E
102
}
330
E
100
AcDbMaterial
  1
Global
  2

 70
0
 40
1.0
 71
1
 41
1.0
 91
-1023410177
 42
1.0
 72
1
  3

 73
1
 74
1
 75
1
 44
0.5
 73
0
 45
1.0
 46
1.0
 77
1
  4

 78
1
 79
1
170
1
 48
1.0
171
1
  6

172
1
173
1
174
1
140
1.0
141
1.0
175
1
  7

176
1
177
1
178
1
143
1.0
179
1
  8

270
1
271
1
272
1
145
1.0
146
1.0
273
1
  9

274
1
275
1
276
1
 42
1.0
 72
1
  3

 73
1
 74
1
 75
1
 94
63
  0
MLINESTYLE
  5
22
102
{ACAD_REACTORS
330
10
102
}
330
10
100
AcDbMlineStyle
  2
Standard
 70
0
  3

 62
256
 51
90.0
 52
90.0
 71
2
 49
0.5
 62
256
  6
BYLAYER
 49
-0.5
 62
256
  6
BYLAYER
  0
MLEADERSTYLE
  5
2C
102
{ACAD_REACTORS
330
F
102
}
330
F
100
AcDbMLeaderStyle
179
2
170
2
171
1
172
0
 90
2
 40
0.0
 41
0.0
173
1
 91
-1056964608
 92
-2
290
1
 42
2.0
291
1
 43
8.0
  3
Standard
 44
4.0
300

342
29
174
1
175
1
176
0
178
1
 93
-1056964608
 45
4.0
292
0
297
0
 46
4.0
 94
-1056964608
 47
1.0
 49
1.0
140
1.0
294
1
141
0.0
177
0
142
1.0
295
0
296
0
143
3.75
271
0
272
9
273
9
  0
DICTIONARY
  5
2D
330
A
100
AcDbDictionary
280
1
281
1
  3
CREATED_BY_EZDXF
350
2E
  3
WRITTEN_BY_EZDXF
350
22B
  0
DICTIONARYVAR
  5
2E
330
2D
100
DictionaryVariables
280
0
  1
1.4.3 @ 2026-02-18T18:24:50.684434+00:00
  0
DICTIONARYVAR
  5
22B
330
2D
100
DictionaryVariables
280
0
  1
1.4.3 @ 2026-02-18T18:24:50.694792+00:00
  0
ENDSEC
  0
EOF
