  0
SECTION
  2
HEADER
  9
$ACADVER
  1
AC1027
  9
$ACADMAINTVER
 70
105
  9
$DWGCODEPAGE
  3
ANSI_1252
  9
$LASTSAVEDBY
  1
ezdxf
  9
$REQUIREDVERSIONS
160
0
  9
$INSBASE
 10
0.0
 20
0.0
 30
0.0
  9
$EXTMIN
 10
1e+20
 20
1e+20
 30
1e+20
  9
$EXTMAX
 10
-1e+20
 20
-1e+20
 30
-1e+20
  9
$LIMMIN
 10
0.0
 20
0.0
  9
$LIMMAX
 10
420.0
 20
297.0
  9
$ORTHOMODE
 70
0
  9
$REGENMODE
 70
1
  9
$FILLMODE
 70
1
  9
$QTEXTMODE
 70
0
  9
$MIRRTEXT
 70
1
  9
$LTSCALE
 40
1.0
  9
$ATTMODE
 70
1
  9
$TEXTSIZE
 40
2.5
  9
$TRACEWID
 40
1.0
  9
$TEXTSTYLE
  7
Standard
  9
$CLAYER
  8
0
  9
$CELTYPE
  6
ByLayer
  9
$CECOLOR
 62
256
  9
$CELTSCALE
 40
1.0
  9
$DISPSILH
 70
0
  9
$DIMSCALE
 40
1.0
  9
$DIMASZ
 40
2.5
  9
$DIMEXO
 40
0.625
  9
$DIMDLI
 40
3.75
  9
$DIMRND
 40
0.0
  9
$DIMDLE
 40
0.0
  9
$DIMEXE
 40
1.25
  9
$DIMTP
 40
0.0
  9
$DIMTM
 40
0.0
  9
$DIMTXT
 40
2.5
  9
$DIMCEN
 40
2.5
  9
$DIMTSZ
 40
0.0
  9
$DIMTOL
 70
0
  9
$DIMLIM
 70
0
  9
$DIMTIH
 70
0
  9
$DIMTOH
 70
0
  9
$DIMSE1
 70
0
  9
$DIMSE2
 70
0
  9
$DIMTAD
 70
1
  9
$DIMZIN
 70
8
  9
$DIMBLK
  1

  9
$DIMASO
 70
1
  9
$DIMSHO
 70
1
  9
$DIMPOST
  1

  9
$DIMAPOST
  1

  9
$DIMALT
 70
0
  9
$DIMALTD
 70
3
  9
$DIMALTF
 40
0.03937007874
  9
$DIMLFAC
 40
1.0
  9
$DIMTOFL
 70
1
  9
$DIMTVP
 40
0.0
  9
$DIMTIX
 70
0
  9
$DIMSOXD
 70
0
  9
$DIMSAH
 70
0
  9
$DIMBLK1
  1

  9
$DIMBLK2
  1

  9
$DIMSTYLE
  2
ISO-25
  9
$DIMCLRD
 70
0
  9
$DIMCLRE
 70
0
  9
$DIMCLRT
 70
0
  9
$DIMTFAC
 40
1.0
  9
$DIMGAP
 40
0.625
  9
$DIMJUST
 70
0
  9
$DIMSD1
 70
0
  9
$DIMSD2
 70
0
  9
$DIMTOLJ
 70
0
  9
$DIMTZIN
 70
8
  9
$DIMALTZ
 70
0
  9
$DIMALTTZ
 70
0
  9
$DIMUPT
 70
0
  9
$DIMDEC
 70
2
  9
$DIMTDEC
 70
2
  9
$DIMALTU
 70
2
  9
$DIMALTTD
 70
3
  9
$DIMTXSTY
  7
Standard
  9
$DIMAUNIT
 70
0
  9
$DIMADEC
 70
0
  9
$DIMALTRND
 40
0.0
  9
$DIMAZIN
 70
0
  9
$DIMDSEP
 70
44
  9
$DIMATFIT
 70
3
  9
$DIMFRAC
 70
0
  9
$DIMLDRBLK
  1

  9
$DIMLUNIT
 70
2
  9
$DIMLWD
 70
-2
  9
$DIMLWE
 70
-2
  9
$DIMTMOVE
 70
0
  9
$DIMFXL
 40
1.0
  9
$DIMFXLON
 70
0
  9
$DIMJOGANG
 40
0.785398163397
  9
$DIMTFILL
 70
0
  9
$DIMTFILLCLR
 70
0
  9
$DIMARCSYM
 70
0
  9
$DIMLTYPE
  6

  9
$DIMLTEX1
  6

  9
$DIMLTEX2
  6

  9
$DIMTXTDIRECTION
 70
0
  9
$LUNITS
 70
2
  9
$LUPREC
 70
4
  9
$SKETCHINC
 40
1.0
  9
$FILLETRAD
 40
10.0
  9
$AUNITS
 70
0
  9
$AUPREC
 70
2
  9
$MENU
  1
.
  9
$ELEVATION
 40
0.0
  9
$PELEVATION
 40
0.0
  9
$THICKNESS
 40
0.0
  9
$LIMCHECK
 70
0
  9
$CHAMFERA
 40
0.0
  9
$CHAMFERB
 40
0.0
  9
$CHAMFERC
 40
0.0
  9
$CHAMFERD
 40
0.0
  9
$SKPOLY
 70
0
  9
$TDCREATE
 40
2461092.7649421296
  9
$TDUCREATE
 40
2458532.153996898
  9
$TDUPDATE
 40
2461092.7649421296
  9
$TDUUPDATE
 40
2458532.1544311
  9
$TDINDWG
 40
0.0
  9
$TDUSRTIMER
 40
0.0
  9
$USRTIMER
 70
1
  9
$ANGBASE
 50
0.0
  9
$ANGDIR
 70
0
  9
$PDMODE
 70
0
  9
$PDSIZE
 40
0.0
  9
$PLINEWID
 40
0.0
  9
$SPLFRAME
 70
0
  9
$SPLINETYPE
 70
6
  9
$SPLINESEGS
 70
8
  9
$HANDSEED
  5
229
  9
$SURFTAB1
 70
6
  9
$SURFTAB2
 70
6
  9
$SURFTYPE
 70
6
  9
$SURFU
 70
6
  9
$SURFV
 70
6
  9
$UCSBASE
  2

  9
$UCSNAME
  2

  9
$UCSORG
 10
0.0
 20
0.0
 30
0.0
  9
$UCSXDIR
 10
1.0
 20
0.0
 30
0.0
  9
$UCSYDIR
 10
0.0
 20
1.0
 30
0.0
  9
$UCSORTHOREF
  2

  9
$UCSORTHOVIEW
 70
0
  9
$UCSORGTOP
 10
0.0
 20
0.0
 30
0.0
  9
$UCSORGBOTTOM
 10
0.0
 20
0.0
 30
0.0
  9
$UCSORGLEFT
 10
0.0
 20
0.0
 30
0.0
  9
$UCSORGRIGHT
 10
0.0
 20
0.0
 30
0.0
  9
$UCSORGFRONT
 10
0.0
 20
0.0
 30
0.0
  9
$UCSORGBACK
 10
0.0
 20
0.0
 30
0.0
  9
$PUCSBASE
  2

  9
$PUCSNAME
  2

  9
$PUCSORG
 10
0.0
 20
0.0
 30
0.0
  9
$PUCSXDIR
 10
1.0
 20
0.0
 30
0.0
  9
$PUCSYDIR
 10
0.0
 20
1.0
 30
0.0
  9
$PUCSORTHOREF
  2

  9
$PUCSORTHOVIEW
 70
0
  9
$PUCSORGTOP
 10
0.0
 20
0.0
 30
0.0
  9
$PUCSORGBOTTOM
 10
0.0
 20
0.0
 30
0.0
  9
$PUCSORGLEFT
 10
0.0
 20
0.0
 30
0.0
  9
$PUCSORGRIGHT
 10
0.0
 20
0.0
 30
0.0
  9
$PUCSORGFRONT
 10
0.0
 20
0.0
 30
0.0
  9
$PUCSORGBACK
 10
0.0
 20
0.0
 30
0.0
  9
$USERI1
 70
0
  9
$USERI2
 70
0
  9
$USERI3
 70
0
  9
$USERI4
 70
0
  9
$USERI5
 70
0
  9
$USERR1
 40
0.0
  9
$USERR2
 40
0.0
  9
$USERR3
 40
0.0
  9
$USERR4
 40
0.0
  9
$USERR5
 40
0.0
  9
$WORLDVIEW
 70
1
  9
$SHADEDGE
 70
3
  9
$SHADEDIF
 70
70
  9
$TILEMODE
 70
1
  9
$MAXACTVP
 70
64
  9
$PINSBASE
 10
0.0
 20
0.0
 30
0.0
  9
$PLIMCHECK
 70
0
  9
$PEXTMIN
 10
1e+20
 20
1e+20
 30
1e+20
  9
$PEXTMAX
 10
-1e+20
 20
-1e+20
 30
-1e+20
  9
$PLIMMIN
 10
0.0
 20
0.0
  9
$PLIMMAX
 10
420.0
 20
297.0
  9
$UNITMODE
 70
0
  9
$VISRETAIN
 70
1
  9
$PLINEGEN
 70
0
  9
$PSLTSCALE
 70
1
  9
$TREEDEPTH
 70
3020
  9
$CMLSTYLE
  2
Standard
  9
$CMLJUST
 70
0
  9
$CMLSCALE
 40
20.0
  9
$PROXYGRAPHICS
 70
1
  9
$MEASUREMENT
 70
1
  9
$CELWEIGHT
370
-1
  9
$ENDCAPS
280
0
  9
$JOINSTYLE
280
0
  9
$LWDISPLAY
290
0
  9
$INSUNITS
 70
6
  9
$HYPERLINKBASE
  1

  9
$STYLESHEET
  1

  9
$XEDIT
290
1
  9
$CEPSNTYPE
380
0
  9
$PSTYLEMODE
290
1
  9
$FINGERPRINTGUID
  2
{350E767A-63BF-440F-9460-42944A181082}
  9
$VERSIONGUID
  2
{A8E819C1-6A34-440D-B4BF-2DE79589E692}
  9
$EXTNAMES
290
1
  9
$PSVPSCALE
 40
0.0
  9
$OLESTARTUP
290
0
  9
$SORTENTS
280
127
  9
$INDEXCTL
280
0
  9
$HIDETEXT
280
1
  9
$XCLIPFRAME
280
1
  9
$HALOGAP
280
0
  9
$OBSCOLOR
 70
257
  9
$OBSLTYPE
280
0
  9
$INTERSECTIONDISPLAY
280
0
  9
$INTERSECTIONCOLOR
 70
257
  9
$DIMASSOC
280
2
  9
$PROJECTNAME
  1

  9
$CAMERADISPLAY
290
0
  9
$LENSLENGTH
 40
50.0
  9
$CAMERAHEIGHT
 40
0.0
  9
$STEPSPERSEC
 40
24.0
  9
$STEPSIZE
 40
100.0
  9
$3DDWFPREC
 40
2.0
  9
$PSOLWIDTH
 40
0.005
  9
$PSOLHEIGHT
 40
0.08
  9
$LOFTANG1
 40
1.570796326795
  9
$LOFTANG2
 40
1.570796326795
  9
$LOFTMAG1
 40
0.0
  9
$LOFTMAG2
 40
0.0
  9
$LOFTPARAM
 70
7
  9
$LOFTNORMALS
280
1
  9
$LATITUDE
 40
37.795
  9
$LONGITUDE
 40
-122.394
  9
$NORTHDIRECTION
 40
0.0
  9
$TIMEZONE
 70
-8000
  9
$LIGHTGLYPHDISPLAY
280
1
  9
$TILEMODELIGHTSYNCH
280
1
  9
$CMATERIAL
347
20
  9
$SOLIDHIST
280
0
  9
$SHOWHIST
280
1
  9
$DWFFRAME
280
2
  9
$DGNFRAME
280
2
  9
$REALWORLDSCALE
290
1
  9
$INTERFERECOLOR
 62
256
  9
$CSHADOW
280
0
  9
$SHADOWPLANELOCATION
 40
0.0
  0
ENDSEC
  0
SECTION
  2
CLASSES
  0
CLASS
  1
ACDBDICTIONARYWDFLT
  2
AcDbDictionaryWithDefault
  3
ObjectDBX Classes
 90
0
 91
0
280
0
281
0
  0
CLASS
  1
SUN
  2
AcDbSun
  3
SCENEOE
 90
1153
 91
0
280
0
281
0
  0
CLASS
  1
VISUALSTYLE
  2
AcDbVisualStyle
  3
ObjectDBX Classes
 90
4095
 91
0
280
0
281
0
  0
CLASS
  1
MATERIAL
  2
AcDbMaterial
  3
ObjectDBX Classes
 90
1153
 91
0
280
0
281
0
  0
CLASS
  1
SCALE
  2
AcDbScale
  3
ObjectDBX Classes
 90
1153
 91
0
280
0
281
0
  0
CLASS
  1
TABLESTYLE
  2
AcDbTableStyle
  3
ObjectDBX Classes
 90
4095
 91
0
280
0
281
0
  0
CLASS
  1
MLEADERSTYLE
  2
AcDbMLeaderStyle
  3
ACDB_MLEADERSTYLE_CLASS
 90
4095
 91
0
280
0
281
0
  0
CLASS
  1
DICTIONARYVAR
  2
AcDbDictionaryVar
  3
ObjectDBX Classes
 90
0
 91
0
280
0
281
0
  0
CLASS
  1
CELLSTYLEMAP
  2
AcDbCellStyleMap
  3
ObjectDBX Classes
 90
1152
 91
0
280
0
281
0
  0
CLASS
  1
MENTALRAYRENDERSETTINGS
  2
AcDbMentalRayRenderSettings
  3
SCENEOE
 90
1024
 91
0
280
0
281
0
  0
CLASS
  1
ACDBDETAILVIEWSTYLE
  2
AcDbDetailViewStyle
  3
ObjectDBX Classes
 90
1025
 91
0
280
0
281
0
  0
CLASS
  1
ACDBSECTIONVIEWSTYLE
  2
AcDbSectionViewStyle
  3
ObjectDBX Classes
 90
1025
 91
0
280
0
281
0
  0
CLASS
  1
RASTERVARIABLES
  2
AcDbRasterVariables
  3
ISM
 90
0
 91
0
280
0
281
0
  0
CLASS
  1
LAYOUT
  2
AcDbLayout
  3
ObjectDBX Classes
 90
0
 91
0
280
0
281
0
  0
CLASS
  1
ACDBPLACEHOLDER
  2
AcDbPlaceHolder
  3
ObjectDBX Classes
 90
0
 91
0
280
0
281
0
  0
ENDSEC
  0
SECTION
  2
TABLES
  0
TABLE
  2
VPORT
  5
8
330
0
100
AcDbSymbolTable
 70
1
  0
VPORT
  5
23
330
8
100
AcDbSymbolTableRecord
100
AcDbViewportTableRecord
  2
*Active
 70
0
 10
0.0
 20
0.0
 11
1.0
 21
1.0
 12
0.0
 22
0.0
 13
0.0
 23
0.0
 14
0.5
 24
0.5
 15
0.5
 25
0.5
 16
0.0
 26
0.0
 36
1.0
 17
0.0
 27
0.0
 37
0.0
 40
1000.0
 41
1.34
 42
50.0
 43
0.0
 44
0.0
 50
0.0
 51
0.0
 71
0
 72
1000
 73
1
 74
3
 75
0
 76
0
 77
0
 78
0
281
0
 65
0
146
0.0
  0
ENDTAB
  0
TABLE
  2
LTYPE
  5
2
330
0
100
AcDbSymbolTable
 70
3
  0
LTYPE
  5
24
330
2
100
AcDbSymbolTableRecord
100
AcDbLinetypeTableRecord
  2
ByBlock
 70
0
  3

 72
65
 73
0
 40
0.0
  0
LTYPE
  5
25
330
2
100
AcDbSymbolTableRecord
100
AcDbLinetypeTableRecord
  2
ByLayer
 70
0
  3

 72
65
 73
0
 40
0.0
  0
LTYPE
  5
26
330
2
100
AcDbSymbolTableRecord
100
AcDbLinetypeTableRecord
  2
Continuous
 70
0
  3

 72
65
 73
0
 40
0.0
  0
ENDTAB
  0
TABLE
  2
LAYER
  5
1
330
0
100
AcDbSymbolTable
 70
2
  0
LAYER
  5
27
330
1
100
AcDbSymbolTableRecord
100
AcDbLayerTableRecord
  2
0
 70
0
 62
7
  6
Continuous
370
-3
390
13
347
21
  0
LAYER
  5
28
330
1
100
AcDbSymbolTableRecord
100
AcDbLayerTableRecord
  2
Defpoints
 70
0
 62
7
  6
Continuous
290
0
370
-3
390
13
347
21
  0
ENDTAB
  0
TABLE
  2
STYLE
  5
5
330
0
100
AcDbSymbolTable
 70
1
  0
STYLE
  5
29
330
5
100
AcDbSymbolTableRecord
100
AcDbTextStyleTableRecord
  2
Standard
 70
0
 40
0.0
 41
1.0
 50
0.0
 71
0
 42
2.5
  3
txt
  4

  0
ENDTAB
  0
TABLE
  2
VIEW
  5
7
330
0
100
AcDbSymbolTable
 70
0
  0
ENDTAB
  0
TABLE
  2
UCS
  5
6
330
0
100
AcDbSymbolTable
 70
0
  0
ENDTAB
  0
TABLE
  2
APPID
  5
3
330
0
100
AcDbSymbolTable
 70
3
  0
APPID
  5
2A
330
3
100
AcDbSymbolTableRecord
100
AcDbRegAppTableRecord
  2
ACAD
 70
0
  0
APPID
  5
226
330
3
100
AcDbSymbolTableRecord
100
AcDbRegAppTableRecord
  2
HATCHBACKGROUNDCOLOR
 70
0
  0
APPID
  5
227
330
3
100
AcDbSymbolTableRecord
100
AcDbRegAppTableRecord
  2
EZDXF
 70
0
  0
ENDTAB
  0
TABLE
  2
DIMSTYLE
  5
4
330
0
100
AcDbSymbolTable
 70
1
100
AcDbDimStyleTable
  0
DIMSTYLE
105
2B
330
4
100
AcDbSymbolTableRecord
100
AcDbDimStyleTableRecord
  2
Standard
 70
0
 40
1.0
 41
2.5
 42
0.625
 43
3.75
 44
1.25
 45
0.0
 46
0.0
 47
0.0
 48
0.0
 49
2.5
140
2.5
141
2.5
142
0.0
143
0.03937007874
144
1.0
145
0.0
146
1.0
147
0.625
148
0.0
 69
0
 70
0
 71
0
 72
0
 73
0
 74
0
 75
0
 76
0
 77
1
 78
8
 79
3
170
0
171
3
172
1
173
0
174
0
175
0
176
0
177
0
178
0
179
2
271
2
272
2
273
2
274
3
275
0
276
0
277
2
278
44
279
0
280
0
281
0
282
0
283
0
284
8
285
0
286
0
288
0
289
3
290
0
371
-2
372
-2
  0
ENDTAB
  0
TABLE
  2
BLOCK_RECORD
  5
9
330
0
100
AcDbSymbolTable
 70
2
  0
BLOCK_RECORD
  5
17
330
9
100
AcDbSymbolTableRecord
100
AcDbBlockTableRecord
  2
*Model_Space
340
1A
 70
0
280
1
281
0
  0
BLOCK_RECORD
  5
1B
330
9
100
AcDbSymbolTableRecord
100
AcDbBlockTableRecord
  2
*Paper_Space
340
1E
 70
0
280
1
281
0
  0
ENDTAB
  0
ENDSEC
  0
SECTION
  2
BLOCKS
  0
BLOCK
  5
18
330
17
100
AcDbEntity
  8
0
100
AcDbBlockBegin
  2
*Model_Space
 70
0
 10
0.0
 20
0.0
 30
0.0
  3
*Model_Space
  1

  0
ENDBLK
  5
19
330
17
100
AcDbEntity
  8
0
100
AcDbBlockEnd
  0
BLOCK
  5
1C
330
1B
100
AcDbEntity
  8
0
100
AcDbBlockBegin
  2
*Paper_Space
 70
0
 10
0.0
 20
0.0
 30
0.0
  3
*Paper_Space
  1

  0
ENDBLK
  5
1D
330
1B
100
AcDbEntity
  8
0
100
AcDbBlockEnd
  0
ENDSEC
  0
SECTION
  2
ENTITIES
  0
LWPOLYLINE
  5
2F
330
17
100
AcDbEntity
  8
0
100
AcDbPolyline
 90
5
 70
1
 10
0.0
 20
0.0
 10
650.0
 20
0.0
 10
650.0
 20
1250.0
 10
0.0
 20
1250.0
 10
0.0
 20
0.0
  0
LWPOLYLINE
  5
30
330
17
100
AcDbEntity
  8
0
100
AcDbPolyline
 90
5
 70
1
 10
0.0
 20
0.0
 10
47.0
 20
0.0
 10
47.0
 20
47.0
 10
0.0
 20
47.0
 10
0.0
 20
0.0
  0
MTEXT
  5
31
330
17
100
AcDbEntity
  8
0
100
AcDbMText
 10
23.5
 20
23.5
 30
0.0
 40
5.0
 71
5
  1
Concrete Tile\P15.0kg\PConcrete\P(Stack: 12x)
  0
LWPOLYLINE
  5
32
330
17
100
AcDbEntity
  8
0
100
AcDbPolyline
 90
5
 70
1
 10
62.0
 20
0.0
 10
99.0
 20
0.0
 10
99.0
 20
73.0
 10
62.0
 20
73.0
 10
62.0
 20
0.0
  0
MTEXT
  5
33
330
17
100
AcDbEntity
  8
0
100
AcDbMText
 10
80.5
 20
36.5
 30
0.0
 40
5.0
 71
5
  1
Concrete Block\P30.0kg\PConcrete\P(Stack: 8x)
  0
LWPOLYLINE
  5
34
330
17
100
AcDbEntity
  8
0
100
AcDbPolyline
 90
5
 70
1
 10
114.0
 20
0.0
 10
168.0
 20
0.0
 10
168.0
 20
54.0
 10
114.0
 20
54.0
 10
114.0
 20
0.0
  0
MTEXT
  5
35
330
17
100
AcDbEntity
  8
0
100
AcDbMText
 10
141.0
 20
27.0
 30
0.0
 40
5.0
 71
5
  1
Concrete Tile\P15.0kg\PConcrete\P(Stack: 12x)
  0
LWPOLYLINE
  5
36
330
17
100
AcDbEntity
  8
0
100
AcDbPolyline
 90
5
 70
1
 10
0.0
 20
62.0
 10
47.0
 20
62.0
 10
47.0
 20
109.0
 10
0.0
 20
109.0
 10
0.0
 20
62.0
  0
MTEXT
  5
37
330
17
100
AcDbEntity
  8
0
100
AcDbMText
 10
23.5
 20
85.5
 30
0.0
 40
5.0
 71
5
  1
Concrete Tile\P15.0kg\PConcrete\P(Stack: 12x)
  0
LWPOLYLINE
  5
38
330
17
100
AcDbEntity
  8
0
100
AcDbPolyline
 90
5
 70
1
 10
62.0
 20
88.0
 10
120.0
 20
88.0
 10
120.0
 20
205.0
 10
62.0
 20
205.0
 10
62.0
 20
88.0
  0
MTEXT
  5
39
330
17
100
AcDbEntity
  8
0
100
AcDbMText
 10
91.0
 20
146.5
 30
0.0
 40
5.0
 71
5
  1
Wood Frame\P8.0kg\PWood\P(Stack: 20x)
  0
LWPOLYLINE
  5
3A
330
17
100
AcDbEntity
  8
0
100
AcDbPolyline
 90
5
 70
1
 10
183.0
 20
0.0
 10
206.0
 20
0.0
 10
206.0
 20
271.0
 10
183.0
 20
271.0
 10
183.0
 20
0.0
  0
MTEXT
  5
3B
330
17
100
AcDbEntity
  8
0
100
AcDbMText
 10
194.5
 20
135.5
 30
0.0
 40
5.0
 71
5
  1
Wood Plank\P12.0kg\PWood
  0
LWPOLYLINE
  5
3C
330
17
100
AcDbEntity
  8
0
100
AcDbPolyline
 90
5
 70
1
 10
62.0
 20
220.0
 10
125.0
 20
220.0
 10
125.0
 20
346.0
 10
62.0
 20
346.0
 10
62.0
 20
220.0
  0
MTEXT
  5
3D
330
17
100
AcDbEntity
  8
0
100
AcDbMText
 10
93.5
 20
283.0
 30
0.0
 40
5.0
 71
5
  1
Concrete Slab\P80.0kg\PConcrete\P(Stack: 3x)
  0
LWPOLYLINE
  5
3E
330
17
100
AcDbEntity
  8
0
100
AcDbPolyline
 90
5
 70
1
 10
0.0
 20
124.0
 10
28.0
 20
124.0
 10
28.0
 20
494.0
 10
0.0
 20
494.0
 10
0.0
 20
124.0
  0
MTEXT
  5
3F
330
17
100
AcDbEntity
  8
0
100
AcDbMText
 10
14.0
 20
309.0
 30
0.0
 40
5.0
 71
5
  1
Steel Beam\P45.0kg\PSteel\P(Stack: 3x)
  0
LWPOLYLINE
  5
40
330
17
100
AcDbEntity
  8
0
100
AcDbPolyline
 90
5
 70
1
 10
221.0
 20
0.0
 10
267.0
 20
0.0
 10
267.0
 20
46.0
 10
221.0
 20
46.0
 10
221.0
 20
0.0
  0
MTEXT
  5
41
330
17
100
AcDbEntity
  8
0
100
AcDbMText
 10
244.0
 20
23.0
 30
0.0
 40
5.0
 71
5
  1
Concrete Tile\P15.0kg\PConcrete\P(Stack: 3x)
  0
LWPOLYLINE
  5
42
330
17
100
AcDbEntity
  8
0
100
AcDbPolyline
 90
5
 70
1
 10
183.0
 20
286.0
 10
278.0
 20
286.0
 10
278.0
 20
475.0
 10
183.0
 20
475.0
 10
183.0
 20
286.0
  0
MTEXT
  5
43
330
17
100
AcDbEntity
  8
0
100
AcDbMText
 10
230.5
 20
380.5
 30
0.0
 40
5.0
 71
5
  1
Plastic Sheet\P8.0kg\PPlastic\P(Stack: 4x)
  0
LWPOLYLINE
  5
44
330
17
100
AcDbEntity
  8
0
100
AcDbPolyline
 90
5
 70
1
 10
62.0
 20
361.0
 10
91.0
 20
361.0
 10
91.0
 20
746.0
 10
62.0
 20
746.0
 10
62.0
 20
361.0
  0
MTEXT
  5
45
330
17
100
AcDbEntity
  8
0
100
AcDbMText
 10
76.5
 20
553.5
 30
0.0
 40
5.0
 71
5
  1
Steel Beam\P45.0kg\PSteel
  0
LWPOLYLINE
  5
46
330
17
100
AcDbEntity
  8
0
100
AcDbPolyline
 90
5
 70
1
 10
0.0
 20
509.0
 10
41.0
 20
509.0
 10
41.0
 20
591.0
 10
0.0
 20
591.0
 10
0.0
 20
509.0
  0
MTEXT
  5
47
330
17
100
AcDbEntity
  8
0
100
AcDbMText
 10
20.5
 20
550.0
 30
0.0
 40
5.0
 71
5
  1
Steel Rebar Bundle\P35.0kg\PSteel\P(Stack: 6x)
  0
LWPOLYLINE
  5
48
330
17
100
AcDbEntity
  8
0
100
AcDbPolyline
 90
5
 70
1
 10
282.0
 20
0.0
 10
320.0
 20
0.0
 10
320.0
 20
75.0
 10
282.0
 20
75.0
 10
282.0
 20
0.0
  0
MTEXT
  5
49
330
17
100
AcDbEntity
  8
0
100
AcDbMText
 10
301.0
 20
37.5
 30
0.0
 40
5.0
 71
5
  1
Steel Rebar Bundle\P35.0kg\PSteel\P(Stack: 3x)
  0
LWPOLYLINE
  5
4A
330
17
100
AcDbEntity
  8
0
100
AcDbPolyline
 90
5
 70
1
 10
293.0
 20
286.0
 10
349.0
 20
286.0
 10
349.0
 20
397.0
 10
293.0
 20
397.0
 10
293.0
 20
286.0
  0
MTEXT
  5
4B
330
17
100
AcDbEntity
  8
0
100
AcDbMText
 10
321.0
 20
341.5
 30
0.0
 40
5.0
 71
5
  1
Concrete Slab\P80.0kg\PConcrete\P(Stack: 3x)
  0
LWPOLYLINE
  5
4C
330
17
100
AcDbEntity
  8
0
100
AcDbPolyline
 90
5
 70
1
 10
183.0
 20
490.0
 10
215.0
 20
490.0
 10
215.0
 20
910.0
 10
183.0
 20
910.0
 10
183.0
 20
490.0
  0
MTEXT
  5
4D
330
17
100
AcDbEntity
  8
0
100
AcDbMText
 10
199.0
 20
700.0
 30
0.0
 40
5.0
 71
5
  1
Steel Beam\P45.0kg\PSteel
  0
LWPOLYLINE
  5
4E
330
17
100
AcDbEntity
  8
0
100
AcDbPolyline
 90
5
 70
1
 10
140.0
 20
220.0
 10
161.0
 20
220.0
 10
161.0
 20
542.0
 10
140.0
 20
542.0
 10
140.0
 20
220.0
  0
MTEXT
  5
4F
330
17
100
AcDbEntity
  8
0
100
AcDbMText
 10
150.5
 20
381.0
 30
0.0
 40
5.0
 71
5
  1
Steel Pipe\P15.0kg\PSteel\P(Stack: 2x)
  0
LWPOLYLINE
  5
50
330
17
100
AcDbEntity
  8
0
100
AcDbPolyline
 90
5
 70
1
 10
62.0
 20
761.0
 10
125.0
 20
761.0
 10
125.0
 20
888.0
 10
62.0
 20
888.0
 10
62.0
 20
761.0
  0
MTEXT
  5
51
330
17
100
AcDbEntity
  8
0
100
AcDbMText
 10
93.5
 20
824.5
 30
0.0
 40
5.0
 71
5
  1
Concrete Slab\P80.0kg\PConcrete\P(Stack: 2x)
  0
LWPOLYLINE
  5
52
330
17
100
AcDbEntity
  8
0
100
AcDbPolyline
 90
5
 70
1
 10
335.0
 20
0.0
 10
384.0
 20
0.0
 10
384.0
 20
49.0
 10
335.0
 20
49.0
 10
335.0
 20
0.0
  0
MTEXT
  5
53
330
17
100
AcDbEntity
  8
0
100
AcDbMText
 10
359.5
 20
24.5
 30
0.0
 40
5.0
 71
5
  1
Plastic Bin\P4.0kg\PPlastic\P(Stack: 30x)
  0
LWPOLYLINE
  5
54
330
17
100
AcDbEntity
  8
0
100
AcDbPolyline
 90
5
 70
1
 10
221.0
 20
61.0
 10
235.0
 20
61.0
 10
235.0
 20
243.0
 10
221.0
 20
243.0
 10
221.0
 20
61.0
  0
MTEXT
  5
55
330
17
100
AcDbEntity
  8
0
100
AcDbMText
 10
228.0
 20
152.0
 30
0.0
 40
5.0
 71
5
  1
Plastic Pipe\P3.0kg\PPlastic
  0
LWPOLYLINE
  5
56
330
17
100
AcDbEntity
  8
0
100
AcDbPolyline
 90
5
 70
1
 10
0.0
 20
606.0
 10
47.0
 20
606.0
 10
47.0
 20
701.0
 10
0.0
 20
701.0
 10
0.0
 20
606.0
  0
MTEXT
  5
57
330
17
100
AcDbEntity
  8
0
100
AcDbMText
 10
23.5
 20
653.5
 30
0.0
 40
5.0
 71
5
  1
Steel Plate\P25.0kg\PSteel\P(Stack: 10x)
  0
LWPOLYLINE
  5
58
330
17
100
AcDbEntity
  8
0
100
AcDbPolyline
 90
5
 70
1
 10
282.0
 20
90.0
 10
322.0
 20
90.0
 10
322.0
 20
169.0
 10
282.0
 20
169.0
 10
282.0
 20
90.0
  0
MTEXT
  5
59
330
17
100
AcDbEntity
  8
0
100
AcDbMText
 10
302.0
 20
129.5
 30
0.0
 40
5.0
 71
5
  1
Concrete Block\P30.0kg\PConcrete
  0
LWPOLYLINE
  5
5A
330
17
100
AcDbEntity
  8
0
100
AcDbPolyline
 90
5
 70
1
 10
364.0
 20
286.0
 10
383.0
 20
286.0
 10
383.0
 20
675.0
 10
364.0
 20
675.0
 10
364.0
 20
286.0
  0
MTEXT
  5
5B
330
17
100
AcDbEntity
  8
0
100
AcDbMText
 10
373.5
 20
480.5
 30
0.0
 40
5.0
 71
5
  1
Wood Beam\P18.0kg\PWood\P(Stack: 8x)
  0
LWPOLYLINE
  5
5C
330
17
100
AcDbEntity
  8
0
100
AcDbPolyline
 90
5
 70
1
 10
293.0
 20
412.0
 10
331.0
 20
412.0
 10
331.0
 20
488.0
 10
293.0
 20
488.0
 10
293.0
 20
412.0
  0
MTEXT
  5
5D
330
17
100
AcDbEntity
  8
0
100
AcDbMText
 10
312.0
 20
450.0
 30
0.0
 40
5.0
 71
5
  1
Concrete Block\P30.0kg\PConcrete\P(Stack: 8x)
  0
LWPOLYLINE
  5
5E
330
17
100
AcDbEntity
  8
0
100
AcDbPolyline
 90
5
 70
1
 10
230.0
 20
490.0
 10
252.0
 20
490.0
 10
252.0
 20
819.0
 10
230.0
 20
819.0
 10
230.0
 20
490.0
  0
MTEXT
  5
5F
330
17
100
AcDbEntity
  8
0
100
AcDbMText
 10
241.0
 20
654.5
 30
0.0
 40
5.0
 71
5
  1
Steel Pipe\P15.0kg\PSteel\P(Stack: 8x)
  0
LWPOLYLINE
  5
60
330
17
100
AcDbEntity
  8
0
100
AcDbPolyline
 90
5
 70
1
 10
183.0
 20
925.0
 10
249.0
 20
925.0
 10
249.0
 20
1056.0
 10
183.0
 20
1056.0
 10
183.0
 20
925.0
  0
MTEXT
  5
61
330
17
100
AcDbEntity
  8
0
100
AcDbMText
 10
216.0
 20
990.5
 30
0.0
 40
5.0
 71
5
  1
Wood Frame\P8.0kg\PWood\P(Stack: 20x)
  0
LWPOLYLINE
  5
62
330
17
100
AcDbEntity
  8
0
100
AcDbPolyline
 90
5
 70
1
 10
62.0
 20
903.0
 10
113.0
 20
903.0
 10
113.0
 20
954.0
 10
62.0
 20
954.0
 10
62.0
 20
903.0
  0
MTEXT
  5
63
330
17
100
AcDbEntity
  8
0
100
AcDbMText
 10
87.5
 20
928.5
 30
0.0
 40
5.0
 71
5
  1
Concrete Tile\P15.0kg\PConcrete\P(Stack: 12x)
  0
LWPOLYLINE
  5
64
330
17
100
AcDbEntity
  8
0
100
AcDbPolyline
 90
5
 70
1
 10
0.5
 20
62.5
 10
47.5
 20
62.5
 10
47.5
 20
109.5
 10
0.5
 20
109.5
 10
0.5
 20
62.5
  0
MTEXT
  5
65
330
17
100
AcDbEntity
  8
0
100
AcDbMText
 10
24.0
 20
86.0
 30
0.0
 40
5.0
 71
5
  1
Concrete Tile\P15.0kg\PConcrete\P(Stack: 12x)
  0
LWPOLYLINE
  5
66
330
17
100
AcDbEntity
  8
0
100
AcDbPolyline
 90
5
 70
1
 10
399.0
 20
0.0
 10
442.0
 20
0.0
 10
442.0
 20
85.0
 10
399.0
 20
85.0
 10
399.0
 20
0.0
  0
MTEXT
  5
67
330
17
100
AcDbEntity
  8
0
100
AcDbMText
 10
420.5
 20
42.5
 30
0.0
 40
5.0
 71
5
  1
Steel Rebar Bundle\P35.0kg\PSteel\P(Stack: 6x)
  0
LWPOLYLINE
  5
68
330
17
100
AcDbEntity
  8
0
100
AcDbPolyline
 90
5
 70
1
 10
0.0
 20
716.0
 10
38.0
 20
716.0
 10
38.0
 20
773.0
 10
0.0
 20
773.0
 10
0.0
 20
716.0
  0
MTEXT
  5
69
330
17
100
AcDbEntity
  8
0
100
AcDbMText
 10
19.0
 20
744.5
 30
0.0
 40
5.0
 71
5
  1
Plastic Container\P5.0kg\PPlastic\P(Stack: 19x)
  0
LWPOLYLINE
  5
6A
330
17
100
AcDbEntity
  8
0
100
AcDbPolyline
 90
5
 70
1
 10
282.0
 20
184.0
 10
336.0
 20
184.0
 10
336.0
 20
238.0
 10
282.0
 20
238.0
 10
282.0
 20
184.0
  0
MTEXT
  5
6B
330
17
100
AcDbEntity
  8
0
100
AcDbMText
 10
309.0
 20
211.0
 30
0.0
 40
5.0
 71
5
  1
Concrete Tile\P15.0kg\PConcrete\P(Stack: 12x)
  0
LWPOLYLINE
  5
6C
330
17
100
AcDbEntity
  8
0
100
AcDbPolyline
 90
5
 70
1
 10
398.0
 20
286.0
 10
438.0
 20
286.0
 10
438.0
 20
366.0
 10
398.0
 20
366.0
 10
398.0
 20
286.0
  0
MTEXT
  5
6D
330
17
100
AcDbEntity
  8
0
100
AcDbMText
 10
418.0
 20
326.0
 30
0.0
 40
5.0
 71
5
  1
Concrete Block\P30.0kg\PConcrete\P(Stack: 2x)
  0
LWPOLYLINE
  5
6E
330
17
100
AcDbEntity
  8
0
100
AcDbPolyline
 90
5
 70
1
 10
364.0
 20
690.0
 10
429.0
 20
690.0
 10
429.0
 20
821.0
 10
364.0
 20
821.0
 10
364.0
 20
690.0
  0
MTEXT
  5
6F
330
17
100
AcDbEntity
  8
0
100
AcDbMText
 10
396.5
 20
755.5
 30
0.0
 40
5.0
 71
5
  1
Concrete Slab\P80.0kg\PConcrete
  0
LWPOLYLINE
  5
70
330
17
100
AcDbEntity
  8
0
100
AcDbPolyline
 90
5
 70
1
 10
106.0
 20
361.0
 10
125.0
 20
361.0
 10
125.0
 20
734.0
 10
106.0
 20
734.0
 10
106.0
 20
361.0
  0
MTEXT
  5
71
330
17
100
AcDbEntity
  8
0
100
AcDbMText
 10
115.5
 20
547.5
 30
0.0
 40
5.0
 71
5
  1
Wood Beam\P18.0kg\PWood
  0
LWPOLYLINE
  5
72
330
17
100
AcDbEntity
  8
0
100
AcDbPolyline
 90
5
 70
1
 10
264.0
 20
925.0
 10
357.0
 20
925.0
 10
357.0
 20
1111.0
 10
264.0
 20
1111.0
 10
264.0
 20
925.0
  0
MTEXT
  5
73
330
17
100
AcDbEntity
  8
0
100
AcDbMText
 10
310.5
 20
1018.0
 30
0.0
 40
5.0
 71
5
  1
Plastic Sheet\P8.0kg\PPlastic
  0
LWPOLYLINE
  5
74
330
17
100
AcDbEntity
  8
0
100
AcDbPolyline
 90
5
 70
1
 10
140.0
 20
557.0
 10
158.0
 20
557.0
 10
158.0
 20
925.0
 10
140.0
 20
925.0
 10
140.0
 20
557.0
  0
MTEXT
  5
75
330
17
100
AcDbEntity
  8
0
100
AcDbMText
 10
149.0
 20
741.0
 30
0.0
 40
5.0
 71
5
  1
Wood Beam\P18.0kg\PWood\P(Stack: 2x)
  0
LWPOLYLINE
  5
76
330
17
100
AcDbEntity
  8
0
100
AcDbPolyline
 90
5
 70
1
 10
293.0
 20
503.0
 10
345.0
 20
503.0
 10
345.0
 20
607.0
 10
293.0
 20
607.0
 10
293.0
 20
503.0
  0
MTEXT
  5
77
330
17
100
AcDbEntity
  8
0
100
AcDbMText
 10
319.0
 20
555.0
 30
0.0
 40
5.0
 71
5
  1
Steel Plate\P25.0kg\PSteel\P(Stack: 10x)
  0
LWPOLYLINE
  5
78
330
17
100
AcDbEntity
  8
0
100
AcDbPolyline
 90
5
 70
1
 10
457.0
 20
0.0
 10
477.0
 20
0.0
 10
477.0
 20
303.0
 10
457.0
 20
303.0
 10
457.0
 20
0.0
  0
MTEXT
  5
79
330
17
100
AcDbEntity
  8
0
100
AcDbMText
 10
467.0
 20
151.5
 30
0.0
 40
5.0
 71
5
  1
Steel Pipe\P15.0kg\PSteel\P(Stack: 3x)
  0
LWPOLYLINE
  5
7A
330
17
100
AcDbEntity
  8
0
100
AcDbPolyline
 90
5
 70
1
 10
230.0
 20
834.0
 10
321.0
 20
834.0
 10
321.0
 20
880.0
 10
230.0
 20
880.0
 10
230.0
 20
834.0
  0
MTEXT
  5
7B
330
17
100
AcDbEntity
  8
0
100
AcDbMText
 10
275.5
 20
857.0
 30
0.0
 40
5.0
 71
5
  1
Steel Plate\P25.0kg\PSteel\P(Stack: 2x)
  0
LWPOLYLINE
  5
7C
330
17
100
AcDbEntity
  8
0
100
AcDbPolyline
 90
5
 70
1
 10
183.0
 20
1071.0
 10
238.0
 20
1071.0
 10
238.0
 20
1182.0
 10
183.0
 20
1182.0
 10
183.0
 20
1071.0
  0
MTEXT
  5
7D
330
17
100
AcDbEntity
  8
0
100
AcDbMText
 10
210.5
 20
1126.5
 30
0.0
 40
5.0
 71
5
  1
Concrete Slab\P80.0kg\PConcrete
  0
LWPOLYLINE
  5
7E
330
17
100
AcDbEntity
  8
0
100
AcDbPolyline
 90
5
 70
1
 10
337.0
 20
90.0
 10
376.0
 20
90.0
 10
376.0
 20
149.0
 10
337.0
 20
149.0
 10
337.0
 20
90.0
  0
MTEXT
  5
7F
330
17
100
AcDbEntity
  8
0
100
AcDbMText
 10
356.5
 20
119.5
 30
0.0
 40
5.0
 71
5
  1
Plastic Container\P5.0kg\PPlastic\P(Stack: 20x)
  0
LWPOLYLINE
  5
80
330
17
100
AcDbEntity
  8
0
100
AcDbPolyline
 90
5
 70
1
 10
135.0
 20
88.0
 10
164.0
 20
88.0
 10
164.0
 20
185.0
 10
135.0
 20
185.0
 10
135.0
 20
88.0
  0
MTEXT
  5
81
330
17
100
AcDbEntity
  8
0
100
AcDbMText
 10
149.5
 20
136.5
 30
0.0
 40
5.0
 71
5
  1
Concrete Pipe\P45.0kg\PConcrete\P(Stack: 5x)
  0
LWPOLYLINE
  5
82
330
17
100
AcDbEntity
  8
0
100
AcDbPolyline
 90
5
 70
1
 10
62.0
 20
969.0
 10
114.0
 20
969.0
 10
114.0
 20
1021.0
 10
62.0
 20
1021.0
 10
62.0
 20
969.0
  0
MTEXT
  5
83
330
17
100
AcDbEntity
  8
0
100
AcDbMText
 10
88.0
 20
995.0
 30
0.0
 40
5.0
 71
5
  1
Concrete Tile\P15.0kg\PConcrete\P(Stack: 12x)
  0
LWPOLYLINE
  5
84
330
17
100
AcDbEntity
  8
0
100
AcDbPolyline
 90
5
 70
1
 10
399.0
 20
100.0
 10
435.0
 20
100.0
 10
435.0
 20
173.0
 10
399.0
 20
173.0
 10
399.0
 20
100.0
  0
MTEXT
  5
85
330
17
100
AcDbEntity
  8
0
100
AcDbMText
 10
417.0
 20
136.5
 30
0.0
 40
5.0
 71
5
  1
Concrete Block\P30.0kg\PConcrete
  0
LWPOLYLINE
  5
86
330
17
100
AcDbEntity
  8
0
100
AcDbPolyline
 90
5
 70
1
 10
0.0
 20
788.0
 10
30.0
 20
788.0
 10
30.0
 20
1183.0
 10
0.0
 20
1183.0
 10
0.0
 20
788.0
  0
MTEXT
  5
87
330
17
100
AcDbEntity
  8
0
100
AcDbMText
 10
15.0
 20
985.5
 30
0.0
 40
5.0
 71
5
  1
Steel Beam\P45.0kg\PSteel
  0
LWPOLYLINE
  5
88
330
17
100
AcDbEntity
  8
0
100
AcDbPolyline
 90
5
 70
1
 10
398.0
 20
381.0
 10
435.0
 20
381.0
 10
435.0
 20
454.0
 10
398.0
 20
454.0
 10
398.0
 20
381.0
  0
MTEXT
  5
89
330
17
100
AcDbEntity
  8
0
100
AcDbMText
 10
416.5
 20
417.5
 30
0.0
 40
5.0
 71
5
  1
Concrete Block\P30.0kg\PConcrete\P(Stack: 8x)
  0
LWPOLYLINE
  5
8A
330
17
100
AcDbEntity
  8
0
100
AcDbPolyline
 90
5
 70
1
 10
444.0
 20
690.0
 10
493.0
 20
690.0
 10
493.0
 20
739.0
 10
444.0
 20
739.0
 10
444.0
 20
690.0
  0
MTEXT
  5
8B
330
17
100
AcDbEntity
  8
0
100
AcDbMText
 10
468.5
 20
714.5
 30
0.0
 40
5.0
 71
5
  1
Concrete Tile\P15.0kg\PConcrete\P(Stack: 12x)
  0
LWPOLYLINE
  5
8C
330
17
100
AcDbEntity
  8
0
100
AcDbPolyline
 90
5
 70
1
 10
364.0
 20
836.0
 10
449.0
 20
836.0
 10
449.0
 20
878.0
 10
364.0
 20
878.0
 10
364.0
 20
836.0
  0
MTEXT
  5
8D
330
17
100
AcDbEntity
  8
0
100
AcDbMText
 10
406.5
 20
857.0
 30
0.0
 40
5.0
 71
5
  1
Steel Rebar Bundle\P35.0kg\PSteel\P(Stack: 6x)
  0
LWPOLYLINE
  5
8E
330
17
100
AcDbEntity
  8
0
100
AcDbPolyline
 90
5
 70
1
 10
372.0
 20
925.0
 10
422.0
 20
925.0
 10
422.0
 20
1025.0
 10
372.0
 20
1025.0
 10
372.0
 20
925.0
  0
MTEXT
  5
8F
330
17
100
AcDbEntity
  8
0
100
AcDbMText
 10
397.0
 20
975.0
 30
0.0
 40
5.0
 71
5
  1
Steel Plate\P25.0kg\PSteel
  0
LWPOLYLINE
  5
90
330
17
100
AcDbEntity
  8
0
100
AcDbPolyline
 90
5
 70
1
 10
264.0
 20
1126.0
 10
312.0
 20
1126.0
 10
312.0
 20
1221.0
 10
264.0
 20
1221.0
 10
264.0
 20
1126.0
  0
MTEXT
  5
91
330
17
100
AcDbEntity
  8
0
100
AcDbMText
 10
288.0
 20
1173.5
 30
0.0
 40
5.0
 71
5
  1
Steel Plate\P25.0kg\PSteel\P(Stack: 2x)
  0
LWPOLYLINE
  5
92
330
17
100
AcDbEntity
  8
0
100
AcDbPolyline
 90
5
 70
1
 10
492.0
 20
0.0
 10
519.0
 20
0.0
 10
519.0
 20
324.0
 10
492.0
 20
324.0
 10
492.0
 20
0.0
  0
MTEXT
  5
93
330
17
100
AcDbEntity
  8
0
100
AcDbMText
 10
505.5
 20
162.0
 30
0.0
 40
5.0
 71
5
  1
Wood Plank\P12.0kg\PWood
  0
LWPOLYLINE
  5
94
330
17
100
AcDbEntity
  8
0
100
AcDbPolyline
 90
5
 70
1
 10
293.0
 20
622.0
 10
344.0
 20
622.0
 10
344.0
 20
673.0
 10
293.0
 20
673.0
 10
293.0
 20
622.0
  0
MTEXT
  5
95
330
17
100
AcDbEntity
  8
0
100
AcDbMText
 10
318.5
 20
647.5
 30
0.0
 40
5.0
 71
5
  1
Plastic Bin\P4.0kg\PPlastic\P(Stack: 2x)
  0
LWPOLYLINE
  5
96
330
17
100
AcDbEntity
  8
0
100
AcDbPolyline
 90
5
 70
1
 10
282.5
 20
184.5
 10
336.5
 20
184.5
 10
336.5
 20
238.5
 10
282.5
 20
238.5
 10
282.5
 20
184.5
  0
MTEXT
  5
97
330
17
100
AcDbEntity
  8
0
100
AcDbMText
 10
309.5
 20
211.5
 30
0.0
 40
5.0
 71
5
  1
Concrete Tile\P15.0kg\PConcrete\P(Stack: 12x)
  0
LWPOLYLINE
  5
98
330
17
100
AcDbEntity
  8
0
100
AcDbPolyline
 90
5
 70
1
 10
129.0
 20
969.0
 10
160.0
 20
969.0
 10
160.0
 20
1072.0
 10
129.0
 20
1072.0
 10
129.0
 20
969.0
  0
MTEXT
  5
99
330
17
100
AcDbEntity
  8
0
100
AcDbMText
 10
144.5
 20
1020.5
 30
0.0
 40
5.0
 71
5
  1
Concrete Pipe\P45.0kg\PConcrete
  0
LWPOLYLINE
  5
9A
330
17
100
AcDbEntity
  8
0
100
AcDbPolyline
 90
5
 70
1
 10
399.5
 20
0.5
 10
442.5
 20
0.5
 10
442.5
 20
85.5
 10
399.5
 20
85.5
 10
399.5
 20
0.5
  0
MTEXT
  5
9B
330
17
100
AcDbEntity
  8
0
100
AcDbMText
 10
421.0
 20
43.0
 30
0.0
 40
5.0
 71
5
  1
Steel Rebar Bundle\P35.0kg\PSteel\P(Stack: 6x)
  0
LWPOLYLINE
  5
9C
330
17
100
AcDbEntity
  8
0
100
AcDbPolyline
 90
5
 70
1
 10
457.0
 20
318.0
 10
473.0
 20
318.0
 10
473.0
 20
537.0
 10
457.0
 20
537.0
 10
457.0
 20
318.0
  0
MTEXT
  5
9D
330
17
100
AcDbEntity
  8
0
100
AcDbMText
 10
465.0
 20
427.5
 30
0.0
 40
5.0
 71
5
  1
Plastic Pipe\P3.0kg\PPlastic\P(Stack: 2x)
  0
LWPOLYLINE
  5
9E
330
17
100
AcDbEntity
  8
0
100
AcDbPolyline
 90
5
 70
1
 10
62.5
 20
88.5
 10
120.5
 20
88.5
 10
120.5
 20
205.5
 10
62.5
 20
205.5
 10
62.5
 20
88.5
  0
MTEXT
  5
9F
330
17
100
AcDbEntity
  8
0
100
AcDbMText
 10
91.5
 20
147.0
 30
0.0
 40
5.0
 71
5
  1
Wood Frame\P8.0kg\PWood\P(Stack: 20x)
  0
LWPOLYLINE
  5
A0
330
17
100
AcDbEntity
  8
0
100
AcDbPolyline
 90
5
 70
1
 10
508.0
 20
690.0
 10
570.0
 20
690.0
 10
570.0
 20
815.0
 10
508.0
 20
815.0
 10
508.0
 20
690.0
  0
MTEXT
  5
A1
330
17
100
AcDbEntity
  8
0
100
AcDbMText
 10
539.0
 20
752.5
 30
0.0
 40
5.0
 71
5
  1
Concrete Slab\P80.0kg\PConcrete\P(Stack: 2x)
  0
LWPOLYLINE
  5
A2
330
17
100
AcDbEntity
  8
0
100
AcDbPolyline
 90
5
 70
1
 10
464.0
 20
836.0
 10
587.0
 20
836.0
 10
587.0
 20
1082.0
 10
464.0
 20
1082.0
 10
464.0
 20
836.0
  0
MTEXT
  5
A3
330
17
100
AcDbEntity
  8
0
100
AcDbMText
 10
525.5
 20
959.0
 30
0.0
 40
5.0
 71
5
  1
Wood Sheet\P20.0kg\PWood
  0
LWPOLYLINE
  5
A4
330
17
100
AcDbEntity
  8
0
100
AcDbPolyline
 90
5
 70
1
 10
62.0
 20
1036.0
 10
91.0
 20
1036.0
 10
91.0
 20
1134.0
 10
62.0
 20
1134.0
 10
62.0
 20
1036.0
  0
MTEXT
  5
A5
330
17
100
AcDbEntity
  8
0
100
AcDbMText
 10
76.5
 20
1085.0
 30
0.0
 40
5.0
 71
5
  1
Concrete Pipe\P45.0kg\PConcrete\P(Stack: 5x)
  0
LWPOLYLINE
  5
A6
330
17
100
AcDbEntity
  8
0
100
AcDbPolyline
 90
5
 70
1
 10
492.0
 20
339.0
 10
626.0
 20
339.0
 10
626.0
 20
606.0
 10
492.0
 20
606.0
 10
492.0
 20
339.0
  0
MTEXT
  5
A7
330
17
100
AcDbEntity
  8
0
100
AcDbMText
 10
559.0
 20
472.5
 30
0.0
 40
5.0
 71
5
  1
Wood Sheet\P20.0kg\PWood
  0
LWPOLYLINE
  5
A8
330
17
100
AcDbEntity
  8
0
100
AcDbPolyline
 90
5
 70
1
 10
0.0
 20
1198.0
 10
97.0
 20
1198.0
 10
97.0
 20
1227.0
 10
0.0
 20
1227.0
 10
0.0
 20
1198.0
  0
MTEXT
  5
A9
330
17
100
AcDbEntity
  8
0
100
AcDbMText
 10
48.5
 20
1212.5
 30
0.0
 40
5.0
 71
5
  1
Concrete Pipe\P45.0kg\PConcrete\P(Stack: 5x)
  0
LWPOLYLINE
  5
AA
330
17
100
AcDbEntity
  8
0
100
AcDbPolyline
 90
5
 70
1
 10
335.5
 20
0.5
 10
384.5
 20
0.5
 10
384.5
 20
49.5
 10
335.5
 20
49.5
 10
335.5
 20
0.5
  0
MTEXT
  5
AB
330
17
100
AcDbEntity
  8
0
100
AcDbMText
 10
360.0
 20
25.0
 30
0.0
 40
5.0
 71
5
  1
Plastic Bin\P4.0kg\PPlastic\P(Stack: 30x)
  0
LWPOLYLINE
  5
AC
330
17
100
AcDbEntity
  8
0
100
AcDbPolyline
 90
5
 70
1
 10
444.0
 20
754.0
 10
491.0
 20
754.0
 10
491.0
 20
801.0
 10
444.0
 20
801.0
 10
444.0
 20
754.0
  0
MTEXT
  5
AD
330
17
100
AcDbEntity
  8
0
100
AcDbMText
 10
467.5
 20
777.5
 30
0.0
 40
5.0
 71
5
  1
Plastic Bin\P4.0kg\PPlastic
  0
LWPOLYLINE
  5
AE
330
17
100
AcDbEntity
  8
0
100
AcDbPolyline
 90
5
 70
1
 10
534.0
 20
0.0
 10
555.0
 20
0.0
 10
555.0
 20
315.0
 10
534.0
 20
315.0
 10
534.0
 20
0.0
  0
MTEXT
  5
AF
330
17
100
AcDbEntity
  8
0
100
AcDbMText
 10
544.5
 20
157.5
 30
0.0
 40
5.0
 71
5
  1
Steel Pipe\P15.0kg\PSteel
  0
LWPOLYLINE
  5
B0
330
17
100
AcDbEntity
  8
0
100
AcDbPolyline
 90
5
 70
1
 10
372.0
 20
1040.0
 10
438.0
 20
1040.0
 10
438.0
 20
1171.0
 10
372.0
 20
1171.0
 10
372.0
 20
1040.0
  0
MTEXT
  5
B1
330
17
100
AcDbEntity
  8
0
100
AcDbMText
 10
405.0
 20
1105.5
 30
0.0
 40
5.0
 71
5
  1
Wood Frame\P8.0kg\PWood\P(Stack: 20x)
  0
LWPOLYLINE
  5
B2
330
17
100
AcDbEntity
  8
0
100
AcDbPolyline
 90
5
 70
1
 10
293.0
 20
688.0
 10
341.0
 20
688.0
 10
341.0
 20
784.0
 10
293.0
 20
784.0
 10
293.0
 20
688.0
  0
MTEXT
  5
B3
330
17
100
AcDbEntity
  8
0
100
AcDbMText
 10
317.0
 20
736.0
 30
0.0
 40
5.0
 71
5
  1
Steel Plate\P25.0kg\PSteel
  0
LWPOLYLINE
  5
B4
330
17
100
AcDbEntity
  8
0
100
AcDbPolyline
 90
5
 70
1
 10
444.5
 20
690.5
 10
493.5
 20
690.5
 10
493.5
 20
739.5
 10
444.5
 20
739.5
 10
444.5
 20
690.5
  0
MTEXT
  5
B5
330
17
100
AcDbEntity
  8
0
100
AcDbMText
 10
469.0
 20
715.0
 30
0.0
 40
5.0
 71
5
  1
Concrete Tile\P15.0kg\PConcrete\P(Stack: 12x)
  0
LWPOLYLINE
  5
B6
330
17
100
AcDbEntity
  8
0
100
AcDbPolyline
 90
5
 70
1
 10
399.0
 20
188.0
 10
438.0
 20
188.0
 10
438.0
 20
246.0
 10
399.0
 20
246.0
 10
399.0
 20
188.0
  0
MTEXT
  5
B7
330
17
100
AcDbEntity
  8
0
100
AcDbMText
 10
418.5
 20
217.0
 30
0.0
 40
5.0
 71
5
  1
Plastic Container\P5.0kg\PPlastic\P(Stack: 20x)
  0
LWPOLYLINE
  5
B8
330
17
100
AcDbEntity
  8
0
100
AcDbPolyline
 90
5
 70
1
 10
398.0
 20
469.0
 10
438.0
 20
469.0
 10
438.0
 20
549.0
 10
398.0
 20
549.0
 10
398.0
 20
469.0
  0
MTEXT
  5
B9
330
17
100
AcDbEntity
  8
0
100
AcDbMText
 10
418.0
 20
509.0
 30
0.0
 40
5.0
 71
5
  1
Steel Rebar Bundle\P35.0kg\PSteel\P(Stack: 6x)
  0
LWPOLYLINE
  5
BA
330
17
100
AcDbEntity
  8
0
100
AcDbPolyline
 90
5
 70
1
 10
585.0
 20
690.0
 10
625.0
 20
690.0
 10
625.0
 20
770.0
 10
585.0
 20
770.0
 10
585.0
 20
690.0
  0
MTEXT
  5
BB
330
17
100
AcDbEntity
  8
0
100
AcDbMText
 10
605.0
 20
730.0
 30
0.0
 40
5.0
 71
5
  1
Steel Rebar Bundle\P35.0kg\PSteel\P(Stack: 6x)
  0
LWPOLYLINE
  5
BC
330
17
100
AcDbEntity
  8
0
100
AcDbPolyline
 90
5
 70
1
 10
183.5
 20
286.5
 10
278.5
 20
286.5
 10
278.5
 20
475.5
 10
183.5
 20
475.5
 10
183.5
 20
286.5
  0
MTEXT
  5
BD
330
17
100
AcDbEntity
  8
0
100
AcDbMText
 10
231.0
 20
381.0
 30
0.0
 40
5.0
 71
5
  1
Plastic Sheet\P8.0kg\PPlastic\P(Stack: 2x)
  0
LWPOLYLINE
  5
BE
330
17
100
AcDbEntity
  8
0
100
AcDbPolyline
 90
5
 70
1
 10
464.0
 20
1097.0
 10
507.0
 20
1097.0
 10
507.0
 20
1182.0
 10
464.0
 20
1182.0
 10
464.0
 20
1097.0
  0
MTEXT
  5
BF
330
17
100
AcDbEntity
  8
0
100
AcDbMText
 10
485.5
 20
1139.5
 30
0.0
 40
5.0
 71
5
  1
Steel Rebar Bundle\P35.0kg\PSteel\P(Stack: 6x)
  0
LWPOLYLINE
  5
C0
330
17
100
AcDbEntity
  8
0
100
AcDbPolyline
 90
5
 70
1
 10
522.0
 20
1097.0
 10
588.0
 20
1097.0
 10
588.0
 20
1228.0
 10
522.0
 20
1228.0
 10
522.0
 20
1097.0
  0
MTEXT
  5
C1
330
17
100
AcDbEntity
  8
0
100
AcDbMText
 10
555.0
 20
1162.5
 30
0.0
 40
5.0
 71
5
  1
Wood Frame\P8.0kg\PWood\P(Stack: 20x)
  0
LWPOLYLINE
  5
C2
330
17
100
AcDbEntity
  8
0
100
AcDbPolyline
 90
5
 70
1
 10
129.0
 20
1087.0
 10
168.0
 20
1087.0
 10
168.0
 20
1166.0
 10
129.0
 20
1166.0
 10
129.0
 20
1087.0
  0
MTEXT
  5
C3
330
17
100
AcDbEntity
  8
0
100
AcDbMText
 10
148.5
 20
1126.5
 30
0.0
 40
5.0
 71
5
  1
Concrete Block\P30.0kg\PConcrete\P(Stack: 8x)
  0
LWPOLYLINE
  5
C4
330
17
100
AcDbEntity
  8
0
100
AcDbPolyline
 90
5
 70
1
 10
570.0
 20
0.0
 10
590.0
 20
0.0
 10
590.0
 20
299.0
 10
570.0
 20
299.0
 10
570.0
 20
0.0
  0
MTEXT
  5
C5
330
17
100
AcDbEntity
  8
0
100
AcDbMText
 10
580.0
 20
149.5
 30
0.0
 40
5.0
 71
5
  1
Steel Pipe\P15.0kg\PSteel
  0
LWPOLYLINE
  5
C6
330
17
100
AcDbEntity
  8
0
100
AcDbPolyline
 90
5
 70
1
 10
492.0
 20
621.0
 10
540.0
 20
621.0
 10
540.0
 20
669.0
 10
492.0
 20
669.0
 10
492.0
 20
621.0
  0
MTEXT
  5
C7
330
17
100
AcDbEntity
  8
0
100
AcDbMText
 10
516.0
 20
645.0
 30
0.0
 40
5.0
 71
5
  1
Plastic Bin\P4.0kg\PPlastic\P(Stack: 27x)
  0
LWPOLYLINE
  5
C8
330
17
100
AcDbEntity
  8
0
100
AcDbPolyline
 90
5
 70
1
 10
398.5
 20
286.5
 10
438.5
 20
286.5
 10
438.5
 20
366.5
 10
398.5
 20
366.5
 10
398.5
 20
286.5
  0
MTEXT
  5
C9
330
17
100
AcDbEntity
  8
0
100
AcDbMText
 10
418.5
 20
326.5
 30
0.0
 40
5.0
 71
5
  1
Concrete Block\P30.0kg\PConcrete\P(Stack: 2x)
  0
LWPOLYLINE
  5
CA
330
17
100
AcDbEntity
  8
0
100
AcDbPolyline
 90
5
 70
1
 10
372.0
 20
1186.0
 10
421.0
 20
1186.0
 10
421.0
 20
1235.0
 10
372.0
 20
1235.0
 10
372.0
 20
1186.0
  0
MTEXT
  5
CB
330
17
100
AcDbEntity
  8
0
100
AcDbMText
 10
396.5
 20
1210.5
 30
0.0
 40
5.0
 71
5
  1
Concrete Tile\P15.0kg\PConcrete\P(Stack: 12x)
  0
LWPOLYLINE
  5
CC
330
17
100
AcDbEntity
  8
0
100
AcDbPolyline
 90
5
 70
1
 10
282.5
 20
0.5
 10
320.5
 20
0.5
 10
320.5
 20
75.5
 10
282.5
 20
75.5
 10
282.5
 20
0.5
  0
MTEXT
  5
CD
330
17
100
AcDbEntity
  8
0
100
AcDbMText
 10
301.5
 20
38.0
 30
0.0
 40
5.0
 71
5
  1
Steel Rebar Bundle\P35.0kg\PSteel\P(Stack: 2x)
  0
LWPOLYLINE
  5
CE
330
17
100
AcDbEntity
  8
0
100
AcDbPolyline
 90
5
 70
1
 10
398.0
 20
564.0
 10
452.0
 20
564.0
 10
452.0
 20
618.0
 10
398.0
 20
618.0
 10
398.0
 20
564.0
  0
MTEXT
  5
CF
330
17
100
AcDbEntity
  8
0
100
AcDbMText
 10
425.0
 20
591.0
 30
0.0
 40
5.0
 71
5
  1
Concrete Tile\P15.0kg\PConcrete\P(Stack: 12x)
  0
LWPOLYLINE
  5
D0
330
17
100
AcDbEntity
  8
0
100
AcDbPolyline
 90
5
 70
1
 10
337.5
 20
90.5
 10
376.5
 20
90.5
 10
376.5
 20
149.5
 10
337.5
 20
149.5
 10
337.5
 20
90.5
  0
MTEXT
  5
D1
330
17
100
AcDbEntity
  8
0
100
AcDbMText
 10
357.0
 20
120.0
 30
0.0
 40
5.0
 71
5
  1
Plastic Container\P5.0kg\PPlastic\P(Stack: 20x)
  0
LWPOLYLINE
  5
D2
330
17
100
AcDbEntity
  8
0
100
AcDbPolyline
 90
5
 70
1
 10
555.0
 20
621.0
 10
607.0
 20
621.0
 10
607.0
 20
673.0
 10
555.0
 20
673.0
 10
555.0
 20
621.0
  0
MTEXT
  5
D3
330
17
100
AcDbEntity
  8
0
100
AcDbMText
 10
581.0
 20
647.0
 30
0.0
 40
5.0
 71
5
  1
Concrete Tile\P15.0kg\PConcrete\P(Stack: 12x)
  0
LWPOLYLINE
  5
D4
330
17
100
AcDbEntity
  8
0
100
AcDbPolyline
 90
5
 70
1
 10
399.5
 20
188.5
 10
438.5
 20
188.5
 10
438.5
 20
246.5
 10
399.5
 20
246.5
 10
399.5
 20
188.5
  0
MTEXT
  5
D5
330
17
100
AcDbEntity
  8
0
100
AcDbMText
 10
419.0
 20
217.5
 30
0.0
 40
5.0
 71
5
  1
Plastic Container\P5.0kg\PPlastic\P(Stack: 20x)
  0
LWPOLYLINE
  5
D6
330
17
100
AcDbEntity
  8
0
100
AcDbPolyline
 90
5
 70
1
 10
140.5
 20
557.5
 10
158.5
 20
557.5
 10
158.5
 20
925.5
 10
140.5
 20
925.5
 10
140.5
 20
557.5
  0
MTEXT
  5
D7
330
17
100
AcDbEntity
  8
0
100
AcDbMText
 10
149.5
 20
741.5
 30
0.0
 40
5.0
 71
5
  1
Wood Beam\P18.0kg\PWood\P(Stack: 2x)
  0
LWPOLYLINE
  5
D8
330
17
100
AcDbEntity
  8
0
100
AcDbPolyline
 90
5
 70
1
 10
112.0
 20
1198.0
 10
184.0
 20
1198.0
 10
184.0
 20
1234.0
 10
112.0
 20
1234.0
 10
112.0
 20
1198.0
  0
MTEXT
  5
D9
330
17
100
AcDbEntity
  8
0
100
AcDbMText
 10
148.0
 20
1216.0
 30
0.0
 40
5.0
 71
5
  1
Steel Rebar Bundle\P35.0kg\PSteel
  0
LWPOLYLINE
  5
DA
330
17
100
AcDbEntity
  8
0
100
AcDbPolyline
 90
5
 70
1
 10
605.0
 20
0.0
 10
628.0
 20
0.0
 10
628.0
 20
282.0
 10
605.0
 20
282.0
 10
605.0
 20
0.0
  0
MTEXT
  5
DB
330
17
100
AcDbEntity
  8
0
100
AcDbMText
 10
616.5
 20
141.0
 30
0.0
 40
5.0
 71
5
  1
Wood Plank\P12.0kg\PWood\P(Stack: 2x)
  0
LWPOLYLINE
  5
DC
330
17
100
AcDbEntity
  8
0
100
AcDbPolyline
 90
5
 70
1
 10
184.0
 20
287.0
 10
279.0
 20
287.0
 10
279.0
 20
476.0
 10
184.0
 20
476.0
 10
184.0
 20
287.0
  0
MTEXT
  5
DD
330
17
100
AcDbEntity
  8
0
100
AcDbMText
 10
231.5
 20
381.5
 30
0.0
 40
5.0
 71
5
  1
Plastic Sheet\P8.0kg\PPlastic\P(Stack: 3x)
  0
LWPOLYLINE
  5
DE
330
17
100
AcDbEntity
  8
0
100
AcDbPolyline
 90
5
 70
1
 10
250.0
 20
61.0
 10
264.0
 20
61.0
 10
264.0
 20
253.0
 10
250.0
 20
253.0
 10
250.0
 20
61.0
  0
MTEXT
  5
DF
330
17
100
AcDbEntity
  8
0
100
AcDbMText
 10
257.0
 20
157.0
 30
0.0
 40
5.0
 71
5
  1
Plastic Pipe\P3.0kg\PPlastic
  0
LWPOLYLINE
  5
E0
330
17
100
AcDbEntity
  8
0
100
AcDbPolyline
 90
5
 70
1
 10
221.5
 20
0.5
 10
267.5
 20
0.5
 10
267.5
 20
46.5
 10
221.5
 20
46.5
 10
221.5
 20
0.5
  0
MTEXT
  5
E1
330
17
100
AcDbEntity
  8
0
100
AcDbMText
 10
244.5
 20
23.5
 30
0.0
 40
5.0
 71
5
  1
Concrete Tile\P15.0kg\PConcrete\P(Stack: 2x)
  0
LWPOLYLINE
  5
E2
330
17
100
AcDbEntity
  8
0
100
AcDbPolyline
 90
5
 70
1
 10
293.5
 20
503.5
 10
345.5
 20
503.5
 10
345.5
 20
607.5
 10
293.5
 20
607.5
 10
293.5
 20
503.5
  0
MTEXT
  5
E3
330
17
100
AcDbEntity
  8
0
100
AcDbMText
 10
319.5
 20
555.5
 30
0.0
 40
5.0
 71
5
  1
Steel Plate\P25.0kg\PSteel\P(Stack: 10x)
  0
LWPOLYLINE
  5
E4
330
17
100
AcDbEntity
  8
0
100
AcDbPolyline
 90
5
 70
1
 10
140.5
 20
220.5
 10
161.5
 20
220.5
 10
161.5
 20
542.5
 10
140.5
 20
542.5
 10
140.5
 20
220.5
  0
MTEXT
  5
E5
330
17
100
AcDbEntity
  8
0
100
AcDbMText
 10
151.0
 20
381.5
 30
0.0
 40
5.0
 71
5
  1
Steel Pipe\P15.0kg\PSteel\P(Stack: 2x)
  0
LWPOLYLINE
  5
E6
330
17
100
AcDbEntity
  8
0
100
AcDbPolyline
 90
5
 70
1
 10
230.5
 20
490.5
 10
252.5
 20
490.5
 10
252.5
 20
819.5
 10
230.5
 20
819.5
 10
230.5
 20
490.5
  0
MTEXT
  5
E7
330
17
100
AcDbEntity
  8
0
100
AcDbMText
 10
241.5
 20
655.0
 30
0.0
 40
5.0
 71
5
  1
Steel Pipe\P15.0kg\PSteel\P(Stack: 8x)
  0
LWPOLYLINE
  5
E8
330
17
100
AcDbEntity
  8
0
100
AcDbPolyline
 90
5
 70
1
 10
0.5
 20
124.5
 10
28.5
 20
124.5
 10
28.5
 20
494.5
 10
0.5
 20
494.5
 10
0.5
 20
124.5
  0
MTEXT
  5
E9
330
17
100
AcDbEntity
  8
0
100
AcDbMText
 10
14.5
 20
309.5
 30
0.0
 40
5.0
 71
5
  1
Steel Beam\P45.0kg\PSteel\P(Stack: 2x)
  0
LWPOLYLINE
  5
EA
330
17
100
AcDbEntity
  8
0
100
AcDbPolyline
 90
5
 70
1
 10
508.5
 20
690.5
 10
570.5
 20
690.5
 10
570.5
 20
815.5
 10
508.5
 20
815.5
 10
508.5
 20
690.5
  0
MTEXT
  5
EB
330
17
100
AcDbEntity
  8
0
100
AcDbMText
 10
539.5
 20
753.0
 30
0.0
 40
5.0
 71
5
  1
Concrete Slab\P80.0kg\PConcrete\P(Stack: 2x)
  0
LWPOLYLINE
  5
EC
330
17
100
AcDbEntity
  8
0
100
AcDbPolyline
 90
5
 70
1
 10
364.5
 20
836.5
 10
449.5
 20
836.5
 10
449.5
 20
878.5
 10
364.5
 20
878.5
 10
364.5
 20
836.5
  0
MTEXT
  5
ED
330
17
100
AcDbEntity
  8
0
100
AcDbMText
 10
407.0
 20
857.5
 30
0.0
 40
5.0
 71
5
  1
Steel Rebar Bundle\P35.0kg\PSteel\P(Stack: 6x)
  0
LWPOLYLINE
  5
EE
330
17
100
AcDbEntity
  8
0
100
AcDbPolyline
 90
5
 70
1
 10
0.5
 20
1198.5
 10
97.5
 20
1198.5
 10
97.5
 20
1227.5
 10
0.5
 20
1227.5
 10
0.5
 20
1198.5
  0
MTEXT
  5
EF
330
17
100
AcDbEntity
  8
0
100
AcDbMText
 10
49.0
 20
1213.0
 30
0.0
 40
5.0
 71
5
  1
Concrete Pipe\P45.0kg\PConcrete\P(Stack: 5x)
  0
LWPOLYLINE
  5
F0
330
17
100
AcDbEntity
  8
0
100
AcDbPolyline
 90
5
 70
1
 10
457.5
 20
0.5
 10
477.5
 20
0.5
 10
477.5
 20
303.5
 10
457.5
 20
303.5
 10
457.5
 20
0.5
  0
MTEXT
  5
F1
330
17
100
AcDbEntity
  8
0
100
AcDbMText
 10
467.5
 20
152.0
 30
0.0
 40
5.0
 71
5
  1
Steel Pipe\P15.0kg\PSteel\P(Stack: 2x)
  0
LWPOLYLINE
  5
F2
330
17
100
AcDbEntity
  8
0
100
AcDbPolyline
 90
5
 70
1
 10
398.5
 20
381.5
 10
435.5
 20
381.5
 10
435.5
 20
454.5
 10
398.5
 20
454.5
 10
398.5
 20
381.5
  0
MTEXT
  5
F3
330
17
100
AcDbEntity
  8
0
100
AcDbMText
 10
417.0
 20
418.0
 30
0.0
 40
5.0
 71
5
  1
Concrete Block\P30.0kg\PConcrete\P(Stack: 8x)
  0
LWPOLYLINE
  5
F4
330
17
100
AcDbEntity
  8
0
100
AcDbPolyline
 90
5
 70
1
 10
364.5
 20
286.5
 10
383.5
 20
286.5
 10
383.5
 20
675.5
 10
364.5
 20
675.5
 10
364.5
 20
286.5
  0
MTEXT
  5
F5
330
17
100
AcDbEntity
  8
0
100
AcDbMText
 10
374.0
 20
481.0
 30
0.0
 40
5.0
 71
5
  1
Wood Beam\P18.0kg\PWood\P(Stack: 8x)
  0
LWPOLYLINE
  5
F6
330
17
100
AcDbEntity
  8
0
100
AcDbPolyline
 90
5
 70
1
 10
398.0
 20
633.0
 10
472.0
 20
633.0
 10
472.0
 20
670.0
 10
398.0
 20
670.0
 10
398.0
 20
633.0
  0
MTEXT
  5
F7
330
17
100
AcDbEntity
  8
0
100
AcDbMText
 10
435.0
 20
651.5
 30
0.0
 40
5.0
 71
5
  1
Concrete Block\P30.0kg\PConcrete\P(Stack: 8x)
  0
LWPOLYLINE
  5
F8
330
17
100
AcDbEntity
  8
0
100
AcDbPolyline
 90
5
 70
1
 10
230.5
 20
834.5
 10
321.5
 20
834.5
 10
321.5
 20
880.5
 10
230.5
 20
880.5
 10
230.5
 20
834.5
  0
MTEXT
  5
F9
330
17
100
AcDbEntity
  8
0
100
AcDbMText
 10
276.0
 20
857.5
 30
0.0
 40
5.0
 71
5
  1
Steel Plate\P25.0kg\PSteel\P(Stack: 2x)
  0
LWPOLYLINE
  5
FA
330
17
100
AcDbEntity
  8
0
100
AcDbPolyline
 90
5
 70
1
 10
230.0
 20
895.0
 10
411.0
 20
895.0
 10
411.0
 20
909.0
 10
230.0
 20
909.0
 10
230.0
 20
895.0
  0
MTEXT
  5
FB
330
17
100
AcDbEntity
  8
0
100
AcDbMText
 10
320.5
 20
902.0
 30
0.0
 40
5.0
 71
5
  1
Plastic Pipe\P3.0kg\PPlastic
  0
LWPOLYLINE
  5
FC
330
17
100
AcDbEntity
  8
0
100
AcDbPolyline
 90
5
 70
1
 10
283.0
 20
1.0
 10
321.0
 20
1.0
 10
321.0
 20
76.0
 10
283.0
 20
76.0
 10
283.0
 20
1.0
  0
MTEXT
  5
FD
330
17
100
AcDbEntity
  8
0
100
AcDbMText
 10
302.0
 20
38.5
 30
0.0
 40
5.0
 71
5
  1
Steel Rebar Bundle\P35.0kg\PSteel\P(Stack: 3x)
  0
LWPOLYLINE
  5
FE
330
17
100
AcDbEntity
  8
0
100
AcDbPolyline
 90
5
 70
1
 10
1.0
 20
125.0
 10
29.0
 20
125.0
 10
29.0
 20
495.0
 10
1.0
 20
495.0
 10
1.0
 20
125.0
  0
MTEXT
  5
FF
330
17
100
AcDbEntity
  8
0
100
AcDbMText
 10
15.0
 20
310.0
 30
0.0
 40
5.0
 71
5
  1
Steel Beam\P45.0kg\PSteel\P(Stack: 3x)
  0
LWPOLYLINE
  5
100
330
17
100
AcDbEntity
  8
0
100
AcDbPolyline
 90
5
 70
1
 10
293.5
 20
622.5
 10
344.5
 20
622.5
 10
344.5
 20
673.5
 10
293.5
 20
673.5
 10
293.5
 20
622.5
  0
MTEXT
  5
101
330
17
100
AcDbEntity
  8
0
100
AcDbMText
 10
319.0
 20
648.0
 30
0.0
 40
5.0
 71
5
  1
Plastic Bin\P4.0kg\PPlastic\P(Stack: 2x)
  0
LWPOLYLINE
  5
102
330
17
100
AcDbEntity
  8
0
100
AcDbPolyline
 90
5
 70
1
 10
62.5
 20
761.5
 10
125.5
 20
761.5
 10
125.5
 20
888.5
 10
62.5
 20
888.5
 10
62.5
 20
761.5
  0
MTEXT
  5
103
330
17
100
AcDbEntity
  8
0
100
AcDbMText
 10
94.0
 20
825.0
 30
0.0
 40
5.0
 71
5
  1
Concrete Slab\P80.0kg\PConcrete\P(Stack: 2x)
  0
LWPOLYLINE
  5
104
330
17
100
AcDbEntity
  8
0
100
AcDbPolyline
 90
5
 70
1
 10
458.0
 20
1.0
 10
478.0
 20
1.0
 10
478.0
 20
304.0
 10
458.0
 20
304.0
 10
458.0
 20
1.0
  0
MTEXT
  5
105
330
17
100
AcDbEntity
  8
0
100
AcDbMText
 10
468.0
 20
152.5
 30
0.0
 40
5.0
 71
5
  1
Steel Pipe\P15.0kg\PSteel\P(Stack: 3x)
  0
LWPOLYLINE
  5
106
330
17
100
AcDbEntity
  8
0
100
AcDbPolyline
 90
5
 70
1
 10
457.5
 20
318.5
 10
473.5
 20
318.5
 10
473.5
 20
537.5
 10
457.5
 20
537.5
 10
457.5
 20
318.5
  0
MTEXT
  5
107
330
17
100
AcDbEntity
  8
0
100
AcDbMText
 10
465.5
 20
428.0
 30
0.0
 40
5.0
 71
5
  1
Plastic Pipe\P3.0kg\PPlastic\P(Stack: 2x)
  0
LWPOLYLINE
  5
108
330
17
100
AcDbEntity
  8
0
100
AcDbPolyline
 90
5
 70
1
 10
605.5
 20
0.5
 10
628.5
 20
0.5
 10
628.5
 20
282.5
 10
605.5
 20
282.5
 10
605.5
 20
0.5
  0
MTEXT
  5
109
330
17
100
AcDbEntity
  8
0
100
AcDbMText
 10
617.0
 20
141.5
 30
0.0
 40
5.0
 71
5
  1
Wood Plank\P12.0kg\PWood\P(Stack: 2x)
  0
LWPOLYLINE
  5
10A
330
17
100
AcDbEntity
  8
0
100
AcDbPolyline
 90
5
 70
1
 10
464.5
 20
1097.5
 10
507.5
 20
1097.5
 10
507.5
 20
1182.5
 10
464.5
 20
1182.5
 10
464.5
 20
1097.5
  0
MTEXT
  5
10B
330
17
100
AcDbEntity
  8
0
100
AcDbMText
 10
486.0
 20
1140.0
 30
0.0
 40
5.0
 71
5
  1
Steel Rebar Bundle\P35.0kg\PSteel\P(Stack: 6x)
  0
LWPOLYLINE
  5
10C
330
17
100
AcDbEntity
  8
0
100
AcDbPolyline
 90
5
 70
1
 10
327.0
 20
1126.0
 10
356.0
 20
1126.0
 10
356.0
 20
1223.0
 10
327.0
 20
1223.0
 10
327.0
 20
1126.0
  0
MTEXT
  5
10D
330
17
100
AcDbEntity
  8
0
100
AcDbMText
 10
341.5
 20
1174.5
 30
0.0
 40
5.0
 71
5
  1
Concrete Pipe\P45.0kg\PConcrete\P(Stack: 5x)
  0
LWPOLYLINE
  5
10E
330
17
100
AcDbEntity
  8
0
100
AcDbPolyline
 90
5
 70
1
 10
184.5
 20
287.5
 10
279.5
 20
287.5
 10
279.5
 20
476.5
 10
184.5
 20
476.5
 10
184.5
 20
287.5
  0
MTEXT
  5
10F
330
17
100
AcDbEntity
  8
0
100
AcDbMText
 10
232.0
 20
382.0
 30
0.0
 40
5.0
 71
5
  1
Plastic Sheet\P8.0kg\PPlastic\P(Stack: 4x)
  0
LWPOLYLINE
  5
110
330
17
100
AcDbEntity
  8
0
100
AcDbPolyline
 90
5
 70
1
 10
0.5
 20
606.5
 10
47.5
 20
606.5
 10
47.5
 20
701.5
 10
0.5
 20
701.5
 10
0.5
 20
606.5
  0
MTEXT
  5
111
330
17
100
AcDbEntity
  8
0
100
AcDbMText
 10
24.0
 20
654.0
 30
0.0
 40
5.0
 71
5
  1
Steel Plate\P25.0kg\PSteel\P(Stack: 10x)
  0
LWPOLYLINE
  5
112
330
17
100
AcDbEntity
  8
0
100
AcDbPolyline
 90
5
 70
1
 10
602.0
 20
836.0
 10
633.0
 20
836.0
 10
633.0
 20
940.0
 10
602.0
 20
940.0
 10
602.0
 20
836.0
  0
MTEXT
  5
113
330
17
100
AcDbEntity
  8
0
100
AcDbMText
 10
617.5
 20
888.0
 30
0.0
 40
5.0
 71
5
  1
Concrete Pipe\P45.0kg\PConcrete\P(Stack: 5x)
  0
LWPOLYLINE
  5
114
330
17
100
AcDbEntity
  8
0
100
AcDbPolyline
 90
5
 70
1
 10
264.5
 20
1126.5
 10
312.5
 20
1126.5
 10
312.5
 20
1221.5
 10
264.5
 20
1221.5
 10
264.5
 20
1126.5
  0
MTEXT
  5
115
330
17
100
AcDbEntity
  8
0
100
AcDbMText
 10
288.5
 20
1174.0
 30
0.0
 40
5.0
 71
5
  1
Steel Plate\P25.0kg\PSteel\P(Stack: 2x)
  0
LWPOLYLINE
  5
116
330
17
100
AcDbEntity
  8
0
100
AcDbPolyline
 90
5
 70
1
 10
603.0
 20
1097.0
 10
632.0
 20
1097.0
 10
632.0
 20
1194.0
 10
603.0
 20
1194.0
 10
603.0
 20
1097.0
  0
MTEXT
  5
117
330
17
100
AcDbEntity
  8
0
100
AcDbMText
 10
617.5
 20
1145.5
 30
0.0
 40
5.0
 71
5
  1
Concrete Pipe\P45.0kg\PConcrete\P(Stack: 5x)
  0
LWPOLYLINE
  5
118
330
17
100
AcDbEntity
  8
0
100
AcDbPolyline
 90
5
 70
1
 10
602.0
 20
955.0
 10
635.0
 20
955.0
 10
635.0
 20
1064.0
 10
602.0
 20
1064.0
 10
602.0
 20
955.0
  0
MTEXT
  5
119
330
17
100
AcDbEntity
  8
0
100
AcDbMText
 10
618.5
 20
1009.5
 30
0.0
 40
5.0
 71
5
  1
Concrete Pipe\P45.0kg\PConcrete\P(Stack: 5x)
  0
LWPOLYLINE
  5
11A
330
17
100
AcDbEntity
  8
0
100
AcDbPolyline
 90
5
 70
1
 10
222.0
 20
1.0
 10
268.0
 20
1.0
 10
268.0
 20
47.0
 10
222.0
 20
47.0
 10
222.0
 20
1.0
  0
MTEXT
  5
11B
330
17
100
AcDbEntity
  8
0
100
AcDbMText
 10
245.0
 20
24.0
 30
0.0
 40
5.0
 71
5
  1
Concrete Tile\P15.0kg\PConcrete\P(Stack: 3x)
  0
LWPOLYLINE
  5
11C
330
17
100
AcDbEntity
  8
0
100
AcDbPolyline
 90
5
 70
1
 10
293.5
 20
412.5
 10
331.5
 20
412.5
 10
331.5
 20
488.5
 10
293.5
 20
488.5
 10
293.5
 20
412.5
  0
MTEXT
  5
11D
330
17
100
AcDbEntity
  8
0
100
AcDbMText
 10
312.5
 20
450.5
 30
0.0
 40
5.0
 71
5
  1
Concrete Block\P30.0kg\PConcrete\P(Stack: 8x)
  0
LWPOLYLINE
  5
11E
330
17
100
AcDbEntity
  8
0
100
AcDbPolyline
 90
5
 70
1
 10
0.5
 20
509.5
 10
41.5
 20
509.5
 10
41.5
 20
591.5
 10
0.5
 20
591.5
 10
0.5
 20
509.5
  0
MTEXT
  5
11F
330
17
100
AcDbEntity
  8
0
100
AcDbMText
 10
21.0
 20
550.5
 30
0.0
 40
5.0
 71
5
  1
Steel Rebar Bundle\P35.0kg\PSteel\P(Stack: 6x)
  0
LWPOLYLINE
  5
120
330
17
100
AcDbEntity
  8
0
100
AcDbPolyline
 90
5
 70
1
 10
602.5
 20
836.5
 10
633.5
 20
836.5
 10
633.5
 20
940.5
 10
602.5
 20
940.5
 10
602.5
 20
836.5
  0
MTEXT
  5
121
330
17
100
AcDbEntity
  8
0
100
AcDbMText
 10
618.0
 20
888.5
 30
0.0
 40
5.0
 71
5
  1
Concrete Pipe\P45.0kg\PConcrete\P(Stack: 5x)
  0
LWPOLYLINE
  5
122
330
17
100
AcDbEntity
  8
0
100
AcDbPolyline
 90
5
 70
1
 10
0.0
 20
1400.0
 10
650.0
 20
1400.0
 10
650.0
 20
2650.0
 10
0.0
 20
2650.0
 10
0.0
 20
1400.0
  0
LWPOLYLINE
  5
123
330
17
100
AcDbEntity
  8
0
100
AcDbPolyline
 90
5
 70
1
 10
0.0
 20
1400.0
 10
48.0
 20
1400.0
 10
48.0
 20
1544.0
 10
0.0
 20
1544.0
 10
0.0
 20
1400.0
  0
MTEXT
  5
124
330
17
100
AcDbEntity
  8
0
100
AcDbMText
 10
24.0
 20
1472.0
 30
0.0
 40
5.0
 71
5
  1
Glass Panel\P15.0kg\PGlass
  0
LWPOLYLINE
  5
125
330
17
100
AcDbEntity
  8
0
100
AcDbPolyline
 90
5
 70
1
 10
63.0
 20
1400.0
 10
139.0
 20
1400.0
 10
139.0
 20
1514.0
 10
63.0
 20
1514.0
 10
63.0
 20
1400.0
  0
MTEXT
  5
126
330
17
100
AcDbEntity
  8
0
100
AcDbMText
 10
101.0
 20
1457.0
 30
0.0
 40
5.0
 71
5
  1
Glass Sheet\P18.0kg\PGlass
  0
LWPOLYLINE
  5
127
330
17
100
AcDbEntity
  8
0
100
AcDbPolyline
 90
5
 70
1
 10
0.0
 20
1559.0
 10
58.0
 20
1559.0
 10
58.0
 20
1655.0
 10
0.0
 20
1655.0
 10
0.0
 20
1559.0
  0
MTEXT
  5
128
330
17
100
AcDbEntity
  8
0
100
AcDbMText
 10
29.0
 20
1607.0
 30
0.0
 40
5.0
 71
5
  1
Glass Pane\P12.0kg\PGlass
  0
LWPOLYLINE
  5
129
330
17
100
AcDbEntity
  8
0
100
AcDbPolyline
 90
5
 70
1
 10
154.0
 20
1400.0
 10
214.0
 20
1400.0
 10
214.0
 20
1500.0
 10
154.0
 20
1500.0
 10
154.0
 20
1400.0
  0
MTEXT
  5
12A
330
17
100
AcDbEntity
  8
0
100
AcDbMText
 10
184.0
 20
1450.0
 30
0.0
 40
5.0
 71
5
  1
Glass Pane\P12.0kg\PGlass
  0
LWPOLYLINE
  5
12B
330
17
100
AcDbEntity
  8
0
100
AcDbPolyline
 90
5
 70
1
 10
73.0
 20
1559.0
 10
138.0
 20
1559.0
 10
138.0
 20
1667.0
 10
73.0
 20
1667.0
 10
73.0
 20
1559.0
  0
MTEXT
  5
12C
330
17
100
AcDbEntity
  8
0
100
AcDbMText
 10
105.5
 20
1613.0
 30
0.0
 40
5.0
 71
5
  1
Glass Pane\P12.0kg\PGlass
  0
LWPOLYLINE
  5
12D
330
17
100
AcDbEntity
  8
0
100
AcDbPolyline
 90
5
 70
1
 10
0.0
 20
1670.0
 10
47.0
 20
1670.0
 10
47.0
 20
1812.0
 10
0.0
 20
1812.0
 10
0.0
 20
1670.0
  0
MTEXT
  5
12E
330
17
100
AcDbEntity
  8
0
100
AcDbMText
 10
23.5
 20
1741.0
 30
0.0
 40
5.0
 71
5
  1
Glass Panel\P15.0kg\PGlass
  0
LWPOLYLINE
  5
12F
330
17
100
AcDbEntity
  8
0
100
AcDbPolyline
 90
5
 70
1
 10
229.0
 20
1400.0
 10
361.0
 20
1400.0
 10
361.0
 20
1663.0
 10
229.0
 20
1663.0
 10
229.0
 20
1400.0
  0
MTEXT
  5
130
330
17
100
AcDbEntity
  8
0
100
AcDbMText
 10
295.0
 20
1531.5
 30
0.0
 40
5.0
 71
5
  1
Wood Sheet\P20.0kg\PWood\P(Stack: 3x)
  0
LWPOLYLINE
  5
131
330
17
100
AcDbEntity
  8
0
100
AcDbPolyline
 90
5
 70
1
 10
73.0
 20
1682.0
 10
187.0
 20
1682.0
 10
187.0
 20
1910.0
 10
73.0
 20
1910.0
 10
73.0
 20
1682.0
  0
MTEXT
  5
132
330
17
100
AcDbEntity
  8
0
100
AcDbMText
 10
130.0
 20
1796.0
 30
0.0
 40
5.0
 71
5
  1
Wood Sheet\P20.0kg\PWood
  0
LWPOLYLINE
  5
133
330
17
100
AcDbEntity
  8
0
100
AcDbPolyline
 90
5
 70
1
 10
376.0
 20
1400.0
 10
502.0
 20
1400.0
 10
502.0
 20
1652.0
 10
376.0
 20
1652.0
 10
376.0
 20
1400.0
  0
MTEXT
  5
134
330
17
100
AcDbEntity
  8
0
100
AcDbMText
 10
439.0
 20
1526.0
 30
0.0
 40
5.0
 71
5
  1
Wood Sheet\P20.0kg\PWood
  0
LWPOLYLINE
  5
135
330
17
100
AcDbEntity
  8
0
100
AcDbPolyline
 90
5
 70
1
 10
154.0
 20
1515.0
 10
212.0
 20
1515.0
 10
212.0
 20
1611.0
 10
154.0
 20
1611.0
 10
154.0
 20
1515.0
  0
MTEXT
  5
136
330
17
100
AcDbEntity
  8
0
100
AcDbMText
 10
183.0
 20
1563.0
 30
0.0
 40
5.0
 71
5
  1
Glass Pane\P12.0kg\PGlass
  0
LWPOLYLINE
  5
137
330
17
100
AcDbEntity
  8
0
100
AcDbPolyline
 90
5
 70
1
 10
229.0
 20
1678.0
 10
289.0
 20
1678.0
 10
289.0
 20
1778.0
 10
229.0
 20
1778.0
 10
229.0
 20
1678.0
  0
MTEXT
  5
138
330
17
100
AcDbEntity
  8
0
100
AcDbMText
 10
259.0
 20
1728.0
 30
0.0
 40
5.0
 71
5
  1
Glass Pane\P12.0kg\PGlass
  0
LWPOLYLINE
  5
139
330
17
100
AcDbEntity
  8
0
100
AcDbPolyline
 90
5
 70
1
 10
0.0
 20
1827.0
 10
45.0
 20
1827.0
 10
45.0
 20
1872.0
 10
0.0
 20
1872.0
 10
0.0
 20
1827.0
  0
MTEXT
  5
13A
330
17
100
AcDbEntity
  8
0
100
AcDbMText
 10
22.5
 20
1849.5
 30
0.0
 40
5.0
 71
5
  1
Concrete Tile\P15.0kg\PConcrete
  0
LWPOLYLINE
  5
13B
330
17
100
AcDbEntity
  8
0
100
AcDbPolyline
 90
5
 70
1
 10
73.0
 20
1925.0
 10
129.0
 20
1925.0
 10
129.0
 20
2036.0
 10
73.0
 20
2036.0
 10
73.0
 20
1925.0
  0
MTEXT
  5
13C
330
17
100
AcDbEntity
  8
0
100
AcDbMText
 10
101.0
 20
1980.5
 30
0.0
 40
5.0
 71
5
  1
Concrete Slab\P80.0kg\PConcrete\P(Stack: 3x)
  0
LWPOLYLINE
  5
13D
330
17
100
AcDbEntity
  8
0
100
AcDbPolyline
 90
5
 70
1
 10
517.0
 20
1400.0
 10
560.0
 20
1400.0
 10
560.0
 20
1487.0
 10
517.0
 20
1487.0
 10
517.0
 20
1400.0
  0
MTEXT
  5
13E
330
17
100
AcDbEntity
  8
0
100
AcDbMText
 10
538.5
 20
1443.5
 30
0.0
 40
5.0
 71
5
  1
Concrete Block\P30.0kg\PConcrete\P(Stack: 2x)
  0
LWPOLYLINE
  5
13F
330
17
100
AcDbEntity
  8
0
100
AcDbPolyline
 90
5
 70
1
 10
376.0
 20
1667.0
 10
452.0
 20
1667.0
 10
452.0
 20
1781.0
 10
376.0
 20
1781.0
 10
376.0
 20
1667.0
  0
MTEXT
  5
140
330
17
100
AcDbEntity
  8
0
100
AcDbMText
 10
414.0
 20
1724.0
 30
0.0
 40
5.0
 71
5
  1
Glass Sheet\P18.0kg\PGlass
  0
LWPOLYLINE
  5
141
330
17
100
AcDbEntity
  8
0
100
AcDbPolyline
 90
5
 70
1
 10
304.0
 20
1678.0
 10
355.0
 20
1678.0
 10
355.0
 20
1729.0
 10
304.0
 20
1729.0
 10
304.0
 20
1678.0
  0
MTEXT
  5
142
330
17
100
AcDbEntity
  8
0
100
AcDbMText
 10
329.5
 20
1703.5
 30
0.0
 40
5.0
 71
5
  1
Concrete Tile\P15.0kg\PConcrete\P(Stack: 12x)
  0
LWPOLYLINE
  5
143
330
17
100
AcDbEntity
  8
0
100
AcDbPolyline
 90
5
 70
1
 10
229.0
 20
1793.0
 10
248.0
 20
1793.0
 10
248.0
 20
2177.0
 10
229.0
 20
2177.0
 10
229.0
 20
1793.0
  0
MTEXT
  5
144
330
17
100
AcDbEntity
  8
0
100
AcDbMText
 10
238.5
 20
1985.0
 30
0.0
 40
5.0
 71
5
  1
Wood Beam\P18.0kg\PWood\P(Stack: 2x)
  0
LWPOLYLINE
  5
145
330
17
100
AcDbEntity
  8
0
100
AcDbPolyline
 90
5
 70
1
 10
0.0
 20
1887.0
 10
54.0
 20
1887.0
 10
54.0
 20
1941.0
 10
0.0
 20
1941.0
 10
0.0
 20
1887.0
  0
MTEXT
  5
146
330
17
100
AcDbEntity
  8
0
100
AcDbMText
 10
27.0
 20
1914.0
 30
0.0
 40
5.0
 71
5
  1
Concrete Tile\P15.0kg\PConcrete\P(Stack: 12x)
  0
LWPOLYLINE
  5
147
330
17
100
AcDbEntity
  8
0
100
AcDbPolyline
 90
5
 70
1
 10
144.0
 20
1925.0
 10
197.0
 20
1925.0
 10
197.0
 20
1978.0
 10
144.0
 20
1978.0
 10
144.0
 20
1925.0
  0
MTEXT
  5
148
330
17
100
AcDbEntity
  8
0
100
AcDbMText
 10
170.5
 20
1951.5
 30
0.0
 40
5.0
 71
5
  1
Plastic Bin\P4.0kg\PPlastic
  0
LWPOLYLINE
  5
149
330
17
100
AcDbEntity
  8
0
100
AcDbPolyline
 90
5
 70
1
 10
73.0
 20
2051.0
 10
122.0
 20
2051.0
 10
122.0
 20
2100.0
 10
73.0
 20
2100.0
 10
73.0
 20
2051.0
  0
MTEXT
  5
14A
330
17
100
AcDbEntity
  8
0
100
AcDbMText
 10
97.5
 20
2075.5
 30
0.0
 40
5.0
 71
5
  1
Plastic Bin\P4.0kg\PPlastic\P(Stack: 30x)
  0
LWPOLYLINE
  5
14B
330
17
100
AcDbEntity
  8
0
100
AcDbPolyline
 90
5
 70
1
 10
517.0
 20
1502.0
 10
613.0
 20
1502.0
 10
613.0
 20
1694.0
 10
517.0
 20
1694.0
 10
517.0
 20
1502.0
  0
MTEXT
  5
14C
330
17
100
AcDbEntity
  8
0
100
AcDbMText
 10
565.0
 20
1598.0
 30
0.0
 40
5.0
 71
5
  1
Plastic Sheet\P8.0kg\PPlastic\P(Stack: 4x)
  0
LWPOLYLINE
  5
14D
330
17
100
AcDbEntity
  8
0
100
AcDbPolyline
 90
5
 70
1
 10
575.0
 20
1400.0
 10
629.0
 20
1400.0
 10
629.0
 20
1454.0
 10
575.0
 20
1454.0
 10
575.0
 20
1400.0
  0
MTEXT
  5
14E
330
17
100
AcDbEntity
  8
0
100
AcDbMText
 10
602.0
 20
1427.0
 30
0.0
 40
5.0
 71
5
  1
Concrete Tile\P15.0kg\PConcrete\P(Stack: 12x)
  0
LWPOLYLINE
  5
14F
330
17
100
AcDbEntity
  8
0
100
AcDbPolyline
 90
5
 70
1
 10
376.0
 20
1796.0
 10
423.0
 20
1796.0
 10
423.0
 20
1843.0
 10
376.0
 20
1843.0
 10
376.0
 20
1796.0
  0
MTEXT
  5
150
330
17
100
AcDbEntity
  8
0
100
AcDbMText
 10
399.5
 20
1819.5
 30
0.0
 40
5.0
 71
5
  1
Concrete Tile\P15.0kg\PConcrete\P(Stack: 12x)
  0
LWPOLYLINE
  5
151
330
17
100
AcDbEntity
  8
0
100
AcDbPolyline
 90
5
 70
1
 10
229.0
 20
2192.0
 10
338.0
 20
2192.0
 10
338.0
 20
2409.0
 10
229.0
 20
2409.0
 10
229.0
 20
2192.0
  0
MTEXT
  5
152
330
17
100
AcDbEntity
  8
0
100
AcDbMText
 10
283.5
 20
2300.5
 30
0.0
 40
5.0
 71
5
  1
Plastic Sheet\P8.0kg\PPlastic
  0
LWPOLYLINE
  5
153
330
17
100
AcDbEntity
  8
0
100
AcDbPolyline
 90
5
 70
1
 10
229.5
 20
1400.5
 10
361.5
 20
1400.5
 10
361.5
 20
1663.5
 10
229.5
 20
1663.5
 10
229.5
 20
1400.5
  0
MTEXT
  5
154
330
17
100
AcDbEntity
  8
0
100
AcDbMText
 10
295.5
 20
1532.0
 30
0.0
 40
5.0
 71
5
  1
Wood Sheet\P20.0kg\PWood\P(Stack: 2x)
  0
LWPOLYLINE
  5
155
330
17
100
AcDbEntity
  8
0
100
AcDbPolyline
 90
5
 70
1
 10
304.0
 20
1744.0
 10
359.0
 20
1744.0
 10
359.0
 20
1853.0
 10
304.0
 20
1853.0
 10
304.0
 20
1744.0
  0
MTEXT
  5
156
330
17
100
AcDbEntity
  8
0
100
AcDbMText
 10
331.5
 20
1798.5
 30
0.0
 40
5.0
 71
5
  1
Wood Frame\P8.0kg\PWood\P(Stack: 2x)
  0
LWPOLYLINE
  5
157
330
17
100
AcDbEntity
  8
0
100
AcDbPolyline
 90
5
 70
1
 10
137.0
 20
2051.0
 10
211.0
 20
2051.0
 10
211.0
 20
2162.0
 10
137.0
 20
2162.0
 10
137.0
 20
2051.0
  0
MTEXT
  5
158
330
17
100
AcDbEntity
  8
0
100
AcDbMText
 10
174.0
 20
2106.5
 30
0.0
 40
5.0
 71
5
  1
Glass Sheet\P18.0kg\PGlass
  0
LWPOLYLINE
  5
159
330
17
100
AcDbEntity
  8
0
100
AcDbPolyline
 90
5
 70
1
 10
517.0
 20
1709.0
 10
583.0
 20
1709.0
 10
583.0
 20
1840.0
 10
517.0
 20
1840.0
 10
517.0
 20
1709.0
  0
MTEXT
  5
15A
330
17
100
AcDbEntity
  8
0
100
AcDbMText
 10
550.0
 20
1774.5
 30
0.0
 40
5.0
 71
5
  1
Wood Frame\P8.0kg\PWood\P(Stack: 20x)
  0
LWPOLYLINE
  5
15B
330
17
100
AcDbEntity
  8
0
100
AcDbPolyline
 90
5
 70
1
 10
0.0
 20
1956.0
 10
53.0
 20
1956.0
 10
53.0
 20
2009.0
 10
0.0
 20
2009.0
 10
0.0
 20
1956.0
  0
MTEXT
  5
15C
330
17
100
AcDbEntity
  8
0
100
AcDbMText
 10
26.5
 20
1982.5
 30
0.0
 40
5.0
 71
5
  1
Concrete Tile\P15.0kg\PConcrete\P(Stack: 12x)
  0
LWPOLYLINE
  5
15D
330
17
100
AcDbEntity
  8
0
100
AcDbPolyline
 90
5
 70
1
 10
73.0
 20
2115.0
 10
112.0
 20
2115.0
 10
112.0
 20
2194.0
 10
73.0
 20
2194.0
 10
73.0
 20
2115.0
  0
MTEXT
  5
15E
330
17
100
AcDbEntity
  8
0
100
AcDbMText
 10
92.5
 20
2154.5
 30
0.0
 40
5.0
 71
5
  1
Concrete Block\P30.0kg\PConcrete\P(Stack: 8x)
  0
LWPOLYLINE
  5
15F
330
17
100
AcDbEntity
  8
0
100
AcDbPolyline
 90
5
 70
1
 10
438.0
 20
1796.0
 10
492.0
 20
1796.0
 10
492.0
 20
1850.0
 10
438.0
 20
1850.0
 10
438.0
 20
1796.0
  0
MTEXT
  5
160
330
17
100
AcDbEntity
  8
0
100
AcDbMText
 10
465.0
 20
1823.0
 30
0.0
 40
5.0
 71
5
  1
Concrete Tile\P15.0kg\PConcrete\P(Stack: 12x)
  0
LWPOLYLINE
  5
161
330
17
100
AcDbEntity
  8
0
100
AcDbPolyline
 90
5
 70
1
 10
376.0
 20
1858.0
 10
423.0
 20
1858.0
 10
423.0
 20
1905.0
 10
376.0
 20
1905.0
 10
376.0
 20
1858.0
  0
MTEXT
  5
162
330
17
100
AcDbEntity
  8
0
100
AcDbMText
 10
399.5
 20
1881.5
 30
0.0
 40
5.0
 71
5
  1
Concrete Tile\P15.0kg\PConcrete\P(Stack: 12x)
  0
LWPOLYLINE
  5
163
330
17
100
AcDbEntity
  8
0
100
AcDbPolyline
 90
5
 70
1
 10
353.0
 20
2192.0
 10
409.0
 20
2192.0
 10
409.0
 20
2303.0
 10
353.0
 20
2303.0
 10
353.0
 20
2192.0
  0
MTEXT
  5
164
330
17
100
AcDbEntity
  8
0
100
AcDbMText
 10
381.0
 20
2247.5
 30
0.0
 40
5.0
 71
5
  1
Concrete Slab\P80.0kg\PConcrete\P(Stack: 2x)
  0
LWPOLYLINE
  5
165
330
17
100
AcDbEntity
  8
0
100
AcDbPolyline
 90
5
 70
1
 10
229.0
 20
2424.0
 10
442.0
 20
2424.0
 10
442.0
 20
2530.0
 10
229.0
 20
2530.0
 10
229.0
 20
2424.0
  0
MTEXT
  5
166
330
17
100
AcDbEntity
  8
0
100
AcDbMText
 10
335.5
 20
2477.0
 30
0.0
 40
5.0
 71
5
  1
Plastic Sheet\P8.0kg\PPlastic\P(Stack: 2x)
  0
LWPOLYLINE
  5
167
330
17
100
AcDbEntity
  8
0
100
AcDbPolyline
 90
5
 70
1
 10
304.0
 20
1868.0
 10
357.0
 20
1868.0
 10
357.0
 20
1921.0
 10
304.0
 20
1921.0
 10
304.0
 20
1868.0
  0
MTEXT
  5
168
330
17
100
AcDbEntity
  8
0
100
AcDbMText
 10
330.5
 20
1894.5
 30
0.0
 40
5.0
 71
5
  1
Concrete Tile\P15.0kg\PConcrete\P(Stack: 12x)
  0
LWPOLYLINE
  5
169
330
17
100
AcDbEntity
  8
0
100
AcDbPolyline
 90
5
 70
1
 10
137.0
 20
2177.0
 10
174.0
 20
2177.0
 10
174.0
 20
2251.0
 10
137.0
 20
2251.0
 10
137.0
 20
2177.0
  0
MTEXT
  5
16A
330
17
100
AcDbEntity
  8
0
100
AcDbMText
 10
155.5
 20
2214.0
 30
0.0
 40
5.0
 71
5
  1
Concrete Block\P30.0kg\PConcrete\P(Stack: 8x)
  0
LWPOLYLINE
  5
16B
330
17
100
AcDbEntity
  8
0
100
AcDbPolyline
 90
5
 70
1
 10
517.0
 20
1855.0
 10
571.0
 20
1855.0
 10
571.0
 20
1909.0
 10
517.0
 20
1909.0
 10
517.0
 20
1855.0
  0
MTEXT
  5
16C
330
17
100
AcDbEntity
  8
0
100
AcDbMText
 10
544.0
 20
1882.0
 30
0.0
 40
5.0
 71
5
  1
Concrete Tile\P15.0kg\PConcrete\P(Stack: 12x)
  0
LWPOLYLINE
  5
16D
330
17
100
AcDbEntity
  8
0
100
AcDbPolyline
 90
5
 70
1
 10
598.0
 20
1709.0
 10
635.0
 20
1709.0
 10
635.0
 20
1784.0
 10
598.0
 20
1784.0
 10
598.0
 20
1709.0
  0
MTEXT
  5
16E
330
17
100
AcDbEntity
  8
0
100
AcDbMText
 10
616.5
 20
1746.5
 30
0.0
 40
5.0
 71
5
  1
Concrete Block\P30.0kg\PConcrete
  0
LWPOLYLINE
  5
16F
330
17
100
AcDbEntity
  8
0
100
AcDbPolyline
 90
5
 70
1
 10
0.0
 20
2024.0
 10
41.0
 20
2024.0
 10
41.0
 20
2105.0
 10
0.0
 20
2105.0
 10
0.0
 20
2024.0
  0
MTEXT
  5
170
330
17
100
AcDbEntity
  8
0
100
AcDbMText
 10
20.5
 20
2064.5
 30
0.0
 40
5.0
 71
5
  1
Concrete Block\P30.0kg\PConcrete\P(Stack: 8x)
  0
LWPOLYLINE
  5
171
330
17
100
AcDbEntity
  8
0
100
AcDbPolyline
 90
5
 70
1
 10
73.0
 20
2209.0
 10
93.0
 20
2209.0
 10
93.0
 20
2601.0
 10
73.0
 20
2601.0
 10
73.0
 20
2209.0
  0
MTEXT
  5
172
330
17
100
AcDbEntity
  8
0
100
AcDbMText
 10
83.0
 20
2405.0
 30
0.0
 40
5.0
 71
5
  1
Wood Beam\P18.0kg\PWood
  0
LWPOLYLINE
  5
173
330
17
100
AcDbEntity
  8
0
100
AcDbPolyline
 90
5
 70
1
 10
438.0
 20
1865.0
 10
485.0
 20
1865.0
 10
485.0
 20
1912.0
 10
438.0
 20
1912.0
 10
438.0
 20
1865.0
  0
MTEXT
  5
174
330
17
100
AcDbEntity
  8
0
100
AcDbMText
 10
461.5
 20
1888.5
 30
0.0
 40
5.0
 71
5
  1
Concrete Tile\P15.0kg\PConcrete\P(Stack: 12x)
  0
LWPOLYLINE
  5
175
330
17
100
AcDbEntity
  8
0
100
AcDbPolyline
 90
5
 70
1
 10
376.0
 20
1920.0
 10
417.0
 20
1920.0
 10
417.0
 20
2003.0
 10
376.0
 20
2003.0
 10
376.0
 20
1920.0
  0
MTEXT
  5
176
330
17
100
AcDbEntity
  8
0
100
AcDbMText
 10
396.5
 20
1961.5
 30
0.0
 40
5.0
 71
5
  1
Concrete Block\P30.0kg\PConcrete\P(Stack: 2x)
  0
LWPOLYLINE
  5
177
330
17
100
AcDbEntity
  8
0
100
AcDbPolyline
 90
5
 70
1
 10
424.0
 20
2192.0
 10
472.0
 20
2192.0
 10
472.0
 20
2336.0
 10
424.0
 20
2336.0
 10
424.0
 20
2192.0
  0
MTEXT
  5
178
330
17
100
AcDbEntity
  8
0
100
AcDbMText
 10
448.0
 20
2264.0
 30
0.0
 40
5.0
 71
5
  1
Glass Panel\P15.0kg\PGlass
  0
LWPOLYLINE
  5
179
330
17
100
AcDbEntity
  8
0
100
AcDbPolyline
 90
5
 70
1
 10
438.0
 20
1927.0
 10
558.0
 20
1927.0
 10
558.0
 20
2168.0
 10
438.0
 20
2168.0
 10
438.0
 20
1927.0
  0
MTEXT
  5
17A
330
17
100
AcDbEntity
  8
0
100
AcDbMText
 10
498.0
 20
2047.5
 30
0.0
 40
5.0
 71
5
  1
Wood Sheet\P20.0kg\PWood
  0
LWPOLYLINE
  5
17B
330
17
100
AcDbEntity
  8
0
100
AcDbPolyline
 90
5
 70
1
 10
353.0
 20
2318.0
 10
407.0
 20
2318.0
 10
407.0
 20
2372.0
 10
353.0
 20
2372.0
 10
353.0
 20
2318.0
  0
MTEXT
  5
17C
330
17
100
AcDbEntity
  8
0
100
AcDbMText
 10
380.0
 20
2345.0
 30
0.0
 40
5.0
 71
5
  1
Concrete Tile\P15.0kg\PConcrete\P(Stack: 12x)
  0
LWPOLYLINE
  5
17D
330
17
100
AcDbEntity
  8
0
100
AcDbPolyline
 90
5
 70
1
 10
0.5
 20
2024.5
 10
41.5
 20
2024.5
 10
41.5
 20
2105.5
 10
0.5
 20
2105.5
 10
0.5
 20
2024.5
  0
MTEXT
  5
17E
330
17
100
AcDbEntity
  8
0
100
AcDbMText
 10
21.0
 20
2065.0
 30
0.0
 40
5.0
 71
5
  1
Concrete Block\P30.0kg\PConcrete\P(Stack: 8x)
  0
LWPOLYLINE
  5
17F
330
17
100
AcDbEntity
  8
0
100
AcDbPolyline
 90
5
 70
1
 10
230.0
 20
1401.0
 10
362.0
 20
1401.0
 10
362.0
 20
1664.0
 10
230.0
 20
1664.0
 10
230.0
 20
1401.0
  0
MTEXT
  5
180
330
17
100
AcDbEntity
  8
0
100
AcDbMText
 10
296.0
 20
1532.5
 30
0.0
 40
5.0
 71
5
  1
Wood Sheet\P20.0kg\PWood\P(Stack: 3x)
  0
LWPOLYLINE
  5
181
330
17
100
AcDbEntity
  8
0
100
AcDbPolyline
 90
5
 70
1
 10
457.0
 20
2424.0
 10
511.0
 20
2424.0
 10
511.0
 20
2478.0
 10
457.0
 20
2478.0
 10
457.0
 20
2424.0
  0
MTEXT
  5
182
330
17
100
AcDbEntity
  8
0
100
AcDbMText
 10
484.0
 20
2451.0
 30
0.0
 40
5.0
 71
5
  1
Concrete Tile\P15.0kg\PConcrete\P(Stack: 12x)
  0
LWPOLYLINE
  5
183
330
17
100
AcDbEntity
  8
0
100
AcDbPolyline
 90
5
 70
1
 10
154.0
 20
1626.0
 10
212.0
 20
1626.0
 10
212.0
 20
1665.0
 10
154.0
 20
1665.0
 10
154.0
 20
1626.0
  0
MTEXT
  5
184
330
17
100
AcDbEntity
  8
0
100
AcDbMText
 10
183.0
 20
1645.5
 30
0.0
 40
5.0
 71
5
  1
Plastic Container\P5.0kg\PPlastic\P(Stack: 20x)
  0
LWPOLYLINE
  5
185
330
17
100
AcDbEntity
  8
0
100
AcDbPolyline
 90
5
 70
1
 10
229.0
 20
2545.0
 10
283.0
 20
2545.0
 10
283.0
 20
2599.0
 10
229.0
 20
2599.0
 10
229.0
 20
2545.0
  0
MTEXT
  5
186
330
17
100
AcDbEntity
  8
0
100
AcDbMText
 10
256.0
 20
2572.0
 30
0.0
 40
5.0
 71
5
  1
Concrete Tile\P15.0kg\PConcrete\P(Stack: 12x)
  0
LWPOLYLINE
  5
187
330
17
100
AcDbEntity
  8
0
100
AcDbPolyline
 90
5
 70
1
 10
517.5
 20
1502.5
 10
613.5
 20
1502.5
 10
613.5
 20
1694.5
 10
517.5
 20
1694.5
 10
517.5
 20
1502.5
  0
MTEXT
  5
188
330
17
100
AcDbEntity
  8
0
100
AcDbMText
 10
565.5
 20
1598.5
 30
0.0
 40
5.0
 71
5
  1
Plastic Sheet\P8.0kg\PPlastic\P(Stack: 2x)
  0
LWPOLYLINE
  5
189
330
17
100
AcDbEntity
  8
0
100
AcDbPolyline
 90
5
 70
1
 10
304.0
 20
1936.0
 10
343.0
 20
1936.0
 10
343.0
 20
2014.0
 10
304.0
 20
2014.0
 10
304.0
 20
1936.0
  0
MTEXT
  5
18A
330
17
100
AcDbEntity
  8
0
100
AcDbMText
 10
323.5
 20
1975.0
 30
0.0
 40
5.0
 71
5
  1
Concrete Block\P30.0kg\PConcrete\P(Stack: 2x)
  0
LWPOLYLINE
  5
18B
330
17
100
AcDbEntity
  8
0
100
AcDbPolyline
 90
5
 70
1
 10
137.0
 20
2266.0
 10
185.0
 20
2266.0
 10
185.0
 20
2314.0
 10
137.0
 20
2314.0
 10
137.0
 20
2266.0
  0
MTEXT
  5
18C
330
17
100
AcDbEntity
  8
0
100
AcDbMText
 10
161.0
 20
2290.0
 30
0.0
 40
5.0
 71
5
  1
Concrete Tile\P15.0kg\PConcrete\P(Stack: 12x)
  0
LWPOLYLINE
  5
18D
330
17
100
AcDbEntity
  8
0
100
AcDbPolyline
 90
5
 70
1
 10
467.0
 20
1667.0
 10
497.0
 20
1667.0
 10
497.0
 20
1767.0
 10
467.0
 20
1767.0
 10
467.0
 20
1667.0
  0
MTEXT
  5
18E
330
17
100
AcDbEntity
  8
0
100
AcDbMText
 10
482.0
 20
1717.0
 30
0.0
 40
5.0
 71
5
  1
Concrete Pipe\P45.0kg\PConcrete
  0
LWPOLYLINE
  5
18F
330
17
100
AcDbEntity
  8
0
100
AcDbPolyline
 90
5
 70
1
 10
487.0
 20
2192.0
 10
553.0
 20
2192.0
 10
553.0
 20
2323.0
 10
487.0
 20
2323.0
 10
487.0
 20
2192.0
  0
MTEXT
  5
190
330
17
100
AcDbEntity
  8
0
100
AcDbMText
 10
520.0
 20
2257.5
 30
0.0
 40
5.0
 71
5
  1
Wood Frame\P8.0kg\PWood\P(Stack: 19x)
  0
LWPOLYLINE
  5
191
330
17
100
AcDbEntity
  8
0
100
AcDbPolyline
 90
5
 70
1
 10
0.0
 20
2120.0
 10
51.0
 20
2120.0
 10
51.0
 20
2171.0
 10
0.0
 20
2171.0
 10
0.0
 20
2120.0
  0
MTEXT
  5
192
330
17
100
AcDbEntity
  8
0
100
AcDbMText
 10
25.5
 20
2145.5
 30
0.0
 40
5.0
 71
5
  1
Concrete Tile\P15.0kg\PConcrete\P(Stack: 11x)
  0
LWPOLYLINE
  5
193
330
17
100
AcDbEntity
  8
0
100
AcDbPolyline
 90
5
 70
1
 10
263.0
 20
1793.0
 10
281.0
 20
1793.0
 10
281.0
 20
2159.0
 10
263.0
 20
2159.0
 10
263.0
 20
1793.0
  0
MTEXT
  5
194
330
17
100
AcDbEntity
  8
0
100
AcDbMText
 10
272.0
 20
1976.0
 30
0.0
 40
5.0
 71
5
  1
Wood Beam\P18.0kg\PWood
  0
LWPOLYLINE
  5
195
330
17
100
AcDbEntity
  8
0
100
AcDbPolyline
 90
5
 70
1
 10
424.0
 20
2351.0
 10
476.0
 20
2351.0
 10
476.0
 20
2403.0
 10
424.0
 20
2403.0
 10
424.0
 20
2351.0
  0
MTEXT
  5
196
330
17
100
AcDbEntity
  8
0
100
AcDbMText
 10
450.0
 20
2377.0
 30
0.0
 40
5.0
 71
5
  1
Plastic Bin\P4.0kg\PPlastic\P(Stack: 2x)
  0
LWPOLYLINE
  5
197
330
17
100
AcDbEntity
  8
0
100
AcDbPolyline
 90
5
 70
1
 10
144.0
 20
1993.0
 10
209.0
 20
1993.0
 10
209.0
 20
2036.0
 10
144.0
 20
2036.0
 10
144.0
 20
1993.0
  0
MTEXT
  5
198
330
17
100
AcDbEntity
  8
0
100
AcDbMText
 10
176.5
 20
2014.5
 30
0.0
 40
5.0
 71
5
  1
Plastic Container\P5.0kg\PPlastic
  0
LWPOLYLINE
  5
199
330
17
100
AcDbEntity
  8
0
100
AcDbPolyline
 90
5
 70
1
 10
586.0
 20
1855.0
 10
618.0
 20
1855.0
 10
618.0
 20
1963.0
 10
586.0
 20
1963.0
 10
586.0
 20
1855.0
  0
MTEXT
  5
19A
330
17
100
AcDbEntity
  8
0
100
AcDbMText
 10
602.0
 20
1909.0
 30
0.0
 40
5.0
 71
5
  1
Concrete Pipe\P45.0kg\PConcrete\P(Stack: 2x)
  0
LWPOLYLINE
  5
19B
330
17
100
AcDbEntity
  8
0
100
AcDbPolyline
 90
5
 70
1
 10
376.0
 20
2018.0
 10
408.0
 20
2018.0
 10
408.0
 20
2124.0
 10
376.0
 20
2124.0
 10
376.0
 20
2018.0
  0
MTEXT
  5
19C
330
17
100
AcDbEntity
  8
0
100
AcDbMText
 10
392.0
 20
2071.0
 30
0.0
 40
5.0
 71
5
  1
Concrete Pipe\P45.0kg\PConcrete
  0
LWPOLYLINE
  5
19D
330
17
100
AcDbEntity
  8
0
100
AcDbPolyline
 90
5
 70
1
 10
526.0
 20
2424.0
 10
600.0
 20
2424.0
 10
600.0
 20
2535.0
 10
526.0
 20
2535.0
 10
526.0
 20
2424.0
  0
MTEXT
  5
19E
330
17
100
AcDbEntity
  8
0
100
AcDbMText
 10
563.0
 20
2479.5
 30
0.0
 40
5.0
 71
5
  1
Glass Sheet\P18.0kg\PGlass
  0
LWPOLYLINE
  5
19F
330
17
100
AcDbEntity
  8
0
100
AcDbPolyline
 90
5
 70
1
 10
518.0
 20
1503.0
 10
614.0
 20
1503.0
 10
614.0
 20
1695.0
 10
518.0
 20
1695.0
 10
518.0
 20
1503.0
  0
MTEXT
  5
1A0
330
17
100
AcDbEntity
  8
0
100
AcDbMText
 10
566.0
 20
1599.0
 30
0.0
 40
5.0
 71
5
  1
Plastic Sheet\P8.0kg\PPlastic\P(Stack: 3x)
  0
LWPOLYLINE
  5
1A1
330
17
100
AcDbEntity
  8
0
100
AcDbPolyline
 90
5
 70
1
 10
457.0
 20
2493.0
 10
503.0
 20
2493.0
 10
503.0
 20
2630.0
 10
457.0
 20
2630.0
 10
457.0
 20
2493.0
  0
MTEXT
  5
1A2
330
17
100
AcDbEntity
  8
0
100
AcDbMText
 10
480.0
 20
2561.5
 30
0.0
 40
5.0
 71
5
  1
Glass Panel\P15.0kg\PGlass
  0
LWPOLYLINE
  5
1A3
330
17
100
AcDbEntity
  8
0
100
AcDbPolyline
 90
5
 70
1
 10
137.0
 20
2329.0
 10
161.0
 20
2329.0
 10
161.0
 20
2619.0
 10
137.0
 20
2619.0
 10
137.0
 20
2329.0
  0
MTEXT
  5
1A4
330
17
100
AcDbEntity
  8
0
100
AcDbMText
 10
149.0
 20
2474.0
 30
0.0
 40
5.0
 71
5
  1
Wood Plank\P12.0kg\PWood
  0
LWPOLYLINE
  5
1A5
330
17
100
AcDbEntity
  8
0
100
AcDbPolyline
 90
5
 70
1
 10
298.0
 20
2545.0
 10
425.0
 20
2545.0
 10
425.0
 20
2609.0
 10
298.0
 20
2609.0
 10
298.0
 20
2545.0
  0
MTEXT
  5
1A6
330
17
100
AcDbEntity
  8
0
100
AcDbMText
 10
361.5
 20
2577.0
 30
0.0
 40
5.0
 71
5
  1
Wood Frame\P8.0kg\PWood\P(Stack: 20x)
  0
LWPOLYLINE
  5
1A7
330
17
100
AcDbEntity
  8
0
100
AcDbPolyline
 90
5
 70
1
 10
304.0
 20
2029.0
 10
345.0
 20
2029.0
 10
345.0
 20
2110.0
 10
304.0
 20
2110.0
 10
304.0
 20
2029.0
  0
MTEXT
  5
1A8
330
17
100
AcDbEntity
  8
0
100
AcDbMText
 10
324.5
 20
2069.5
 30
0.0
 40
5.0
 71
5
  1
Concrete Block\P30.0kg\PConcrete\P(Stack: 8x)
  0
LWPOLYLINE
  5
1A9
330
17
100
AcDbEntity
  8
0
100
AcDbPolyline
 90
5
 70
1
 10
304.5
 20
1744.5
 10
359.5
 20
1744.5
 10
359.5
 20
1853.5
 10
304.5
 20
1853.5
 10
304.5
 20
1744.5
  0
MTEXT
  5
1AA
330
17
100
AcDbEntity
  8
0
100
AcDbMText
 10
332.0
 20
1799.0
 30
0.0
 40
5.0
 71
5
  1
Wood Frame\P8.0kg\PWood\P(Stack: 2x)
  0
LWPOLYLINE
  5
1AB
330
17
100
AcDbEntity
  8
0
100
AcDbPolyline
 90
5
 70
1
 10
518.5
 20
1503.5
 10
614.5
 20
1503.5
 10
614.5
 20
1695.5
 10
518.5
 20
1695.5
 10
518.5
 20
1503.5
  0
MTEXT
  5
1AC
330
17
100
AcDbEntity
  8
0
100
AcDbMText
 10
566.5
 20
1599.5
 30
0.0
 40
5.0
 71
5
  1
Plastic Sheet\P8.0kg\PPlastic\P(Stack: 4x)
  0
LWPOLYLINE
  5
1AD
330
17
100
AcDbEntity
  8
0
100
AcDbPolyline
 90
5
 70
1
 10
568.0
 20
2192.0
 10
615.0
 20
2192.0
 10
615.0
 20
2239.0
 10
568.0
 20
2239.0
 10
568.0
 20
2192.0
  0
MTEXT
  5
1AE
330
17
100
AcDbEntity
  8
0
100
AcDbMText
 10
591.5
 20
2215.5
 30
0.0
 40
5.0
 71
5
  1
Concrete Tile\P15.0kg\PConcrete\P(Stack: 12x)
  0
LWPOLYLINE
  5
1AF
330
17
100
AcDbEntity
  8
0
100
AcDbPolyline
 90
5
 70
1
 10
229.5
 20
1793.5
 10
248.5
 20
1793.5
 10
248.5
 20
2177.5
 10
229.5
 20
2177.5
 10
229.5
 20
1793.5
  0
MTEXT
  5
1B0
330
17
100
AcDbEntity
  8
0
100
AcDbMText
 10
239.0
 20
1985.5
 30
0.0
 40
5.0
 71
5
  1
Wood Beam\P18.0kg\PWood\P(Stack: 2x)
  0
LWPOLYLINE
  5
1B1
330
17
100
AcDbEntity
  8
0
100
AcDbPolyline
 90
5
 70
1
 10
568.0
 20
2254.0
 10
631.0
 20
2254.0
 10
631.0
 20
2380.0
 10
568.0
 20
2380.0
 10
568.0
 20
2254.0
  0
MTEXT
  5
1B2
330
17
100
AcDbEntity
  8
0
100
AcDbMText
 10
599.5
 20
2317.0
 30
0.0
 40
5.0
 71
5
  1
Concrete Slab\P80.0kg\PConcrete\P(Stack: 3x)
  0
LWPOLYLINE
  5
1B3
330
17
100
AcDbEntity
  8
0
100
AcDbPolyline
 90
5
 70
1
 10
304.5
 20
1936.5
 10
343.5
 20
1936.5
 10
343.5
 20
2014.5
 10
304.5
 20
2014.5
 10
304.5
 20
1936.5
  0
MTEXT
  5
1B4
330
17
100
AcDbEntity
  8
0
100
AcDbMText
 10
324.0
 20
1975.5
 30
0.0
 40
5.0
 71
5
  1
Concrete Block\P30.0kg\PConcrete\P(Stack: 2x)
  0
LWPOLYLINE
  5
1B5
330
17
100
AcDbEntity
  8
0
100
AcDbPolyline
 90
5
 70
1
 10
0.0
 20
2186.0
 10
54.0
 20
2186.0
 10
54.0
 20
2294.0
 10
0.0
 20
2294.0
 10
0.0
 20
2186.0
  0
MTEXT
  5
1B6
330
17
100
AcDbEntity
  8
0
100
AcDbMText
 10
27.0
 20
2240.0
 30
0.0
 40
5.0
 71
5
  1
Concrete Slab\P80.0kg\PConcrete\P(Stack: 2x)
  0
LWPOLYLINE
  5
1B7
330
17
100
AcDbEntity
  8
0
100
AcDbPolyline
 90
5
 70
1
 10
491.0
 20
2351.0
 10
540.0
 20
2351.0
 10
540.0
 20
2400.0
 10
491.0
 20
2400.0
 10
491.0
 20
2351.0
  0
MTEXT
  5
1B8
330
17
100
AcDbEntity
  8
0
100
AcDbMText
 10
515.5
 20
2375.5
 30
0.0
 40
5.0
 71
5
  1
Concrete Tile\P15.0kg\PConcrete\P(Stack: 11x)
  0
LWPOLYLINE
  5
1B9
330
17
100
AcDbEntity
  8
0
100
AcDbPolyline
 90
5
 70
1
 10
586.0
 20
1978.0
 10
623.0
 20
1978.0
 10
623.0
 20
2052.0
 10
586.0
 20
2052.0
 10
586.0
 20
1978.0
  0
MTEXT
  5
1BA
330
17
100
AcDbEntity
  8
0
100
AcDbMText
 10
604.5
 20
2015.0
 30
0.0
 40
5.0
 71
5
  1
Concrete Block\P30.0kg\PConcrete\P(Stack: 8x)
  0
LWPOLYLINE
  5
1BB
330
17
100
AcDbEntity
  8
0
100
AcDbPolyline
 90
5
 70
1
 10
526.0
 20
2550.0
 10
563.0
 20
2550.0
 10
563.0
 20
2623.0
 10
526.0
 20
2623.0
 10
526.0
 20
2550.0
  0
MTEXT
  5
1BC
330
17
100
AcDbEntity
  8
0
100
AcDbMText
 10
544.5
 20
2586.5
 30
0.0
 40
5.0
 71
5
  1
Concrete Block\P30.0kg\PConcrete\P(Stack: 8x)
  0
LWPOLYLINE
  5
1BD
330
17
100
AcDbEntity
  8
0
100
AcDbPolyline
 90
5
 70
1
 10
229.5
 20
2424.5
 10
442.5
 20
2424.5
 10
442.5
 20
2530.5
 10
229.5
 20
2530.5
 10
229.5
 20
2424.5
  0
MTEXT
  5
1BE
330
17
100
AcDbEntity
  8
0
100
AcDbMText
 10
336.0
 20
2477.5
 30
0.0
 40
5.0
 71
5
  1
Plastic Sheet\P8.0kg\PPlastic\P(Stack: 2x)
  0
LWPOLYLINE
  5
1BF
330
17
100
AcDbEntity
  8
0
100
AcDbPolyline
 90
5
 70
1
 10
176.0
 20
2329.0
 10
208.0
 20
2329.0
 10
208.0
 20
2436.0
 10
176.0
 20
2436.0
 10
176.0
 20
2329.0
  0
MTEXT
  5
1C0
330
17
100
AcDbEntity
  8
0
100
AcDbMText
 10
192.0
 20
2382.5
 30
0.0
 40
5.0
 71
5
  1
Concrete Pipe\P45.0kg\PConcrete
  0
LWPOLYLINE
  5
1C1
330
17
100
AcDbEntity
  8
0
100
AcDbPolyline
 90
5
 70
1
 10
0.0
 20
2309.0
 10
39.0
 20
2309.0
 10
39.0
 20
2368.0
 10
0.0
 20
2368.0
 10
0.0
 20
2309.0
  0
MTEXT
  5
1C2
330
17
100
AcDbEntity
  8
0
100
AcDbMText
 10
19.5
 20
2338.5
 30
0.0
 40
5.0
 71
5
  1
Plastic Container\P5.0kg\PPlastic\P(Stack: 20x)
  0
LWPOLYLINE
  5
1C3
330
17
100
AcDbEntity
  8
0
100
AcDbPolyline
 90
5
 70
1
 10
304.0
 20
2125.0
 10
351.0
 20
2125.0
 10
351.0
 20
2172.0
 10
304.0
 20
2172.0
 10
304.0
 20
2125.0
  0
MTEXT
  5
1C4
330
17
100
AcDbEntity
  8
0
100
AcDbMText
 10
327.5
 20
2148.5
 30
0.0
 40
5.0
 71
5
  1
Concrete Tile\P15.0kg\PConcrete\P(Stack: 12x)
  0
LWPOLYLINE
  5
1C5
330
17
100
AcDbEntity
  8
0
100
AcDbPolyline
 90
5
 70
1
 10
298.5
 20
2545.5
 10
425.5
 20
2545.5
 10
425.5
 20
2609.5
 10
298.5
 20
2609.5
 10
298.5
 20
2545.5
  0
MTEXT
  5
1C6
330
17
100
AcDbEntity
  8
0
100
AcDbMText
 10
362.0
 20
2577.5
 30
0.0
 40
5.0
 71
5
  1
Wood Frame\P8.0kg\PWood\P(Stack: 20x)
  0
LWPOLYLINE
  5
1C7
330
17
100
AcDbEntity
  8
0
100
AcDbPolyline
 90
5
 70
1
 10
137.5
 20
2266.5
 10
185.5
 20
2266.5
 10
185.5
 20
2314.5
 10
137.5
 20
2314.5
 10
137.5
 20
2266.5
  0
MTEXT
  5
1C8
330
17
100
AcDbEntity
  8
0
100
AcDbMText
 10
161.5
 20
2290.5
 30
0.0
 40
5.0
 71
5
  1
Concrete Tile\P15.0kg\PConcrete\P(Stack: 12x)
  0
LWPOLYLINE
  5
1C9
330
17
100
AcDbEntity
  8
0
100
AcDbPolyline
 90
5
 70
1
 10
586.0
 20
2067.0
 10
635.0
 20
2067.0
 10
635.0
 20
2116.0
 10
586.0
 20
2116.0
 10
586.0
 20
2067.0
  0
MTEXT
  5
1CA
330
17
100
AcDbEntity
  8
0
100
AcDbMText
 10
610.5
 20
2091.5
 30
0.0
 40
5.0
 71
5
  1
Plastic Bin\P4.0kg\PPlastic\P(Stack: 30x)
  0
LWPOLYLINE
  5
1CB
330
17
100
AcDbEntity
  8
0
100
AcDbPolyline
 90
5
 70
1
 10
578.0
 20
2550.0
 10
615.0
 20
2550.0
 10
615.0
 20
2624.0
 10
578.0
 20
2624.0
 10
578.0
 20
2550.0
  0
MTEXT
  5
1CC
330
17
100
AcDbEntity
  8
0
100
AcDbMText
 10
596.5
 20
2587.0
 30
0.0
 40
5.0
 71
5
  1
Concrete Block\P30.0kg\PConcrete\P(Stack: 8x)
  0
LWPOLYLINE
  5
1CD
330
17
100
AcDbEntity
  8
0
100
AcDbPolyline
 90
5
 70
1
 10
73.5
 20
2115.5
 10
112.5
 20
2115.5
 10
112.5
 20
2194.5
 10
73.5
 20
2194.5
 10
73.5
 20
2115.5
  0
MTEXT
  5
1CE
330
17
100
AcDbEntity
  8
0
100
AcDbMText
 10
93.0
 20
2155.0
 30
0.0
 40
5.0
 71
5
  1
Concrete Block\P30.0kg\PConcrete\P(Stack: 8x)
  0
LWPOLYLINE
  5
1CF
330
17
100
AcDbEntity
  8
0
100
AcDbPolyline
 90
5
 70
1
 10
0.0
 20
2383.0
 10
51.0
 20
2383.0
 10
51.0
 20
2535.0
 10
0.0
 20
2535.0
 10
0.0
 20
2383.0
  0
MTEXT
  5
1D0
330
17
100
AcDbEntity
  8
0
100
AcDbMText
 10
25.5
 20
2459.0
 30
0.0
 40
5.0
 71
5
  1
Glass Panel\P15.0kg\PGlass
  0
LWPOLYLINE
  5
1D1
330
17
100
AcDbEntity
  8
0
100
AcDbPolyline
 90
5
 70
1
 10
578.5
 20
2550.5
 10
615.5
 20
2550.5
 10
615.5
 20
2624.5
 10
578.5
 20
2624.5
 10
578.5
 20
2550.5
  0
MTEXT
  5
1D2
330
17
100
AcDbEntity
  8
0
100
AcDbMText
 10
597.0
 20
2587.5
 30
0.0
 40
5.0
 71
5
  1
Concrete Block\P30.0kg\PConcrete\P(Stack: 8x)
  0
LWPOLYLINE
  5
1D3
330
17
100
AcDbEntity
  8
0
100
AcDbPolyline
 90
5
 70
1
 10
176.0
 20
2451.0
 10
205.0
 20
2451.0
 10
205.0
 20
2549.0
 10
176.0
 20
2549.0
 10
176.0
 20
2451.0
  0
MTEXT
  5
1D4
330
17
100
AcDbEntity
  8
0
100
AcDbMText
 10
190.5
 20
2500.0
 30
0.0
 40
5.0
 71
5
  1
Concrete Pipe\P45.0kg\PConcrete\P(Stack: 5x)
  0
LWPOLYLINE
  5
1D5
330
17
100
AcDbEntity
  8
0
100
AcDbPolyline
 90
5
 70
1
 10
108.0
 20
2209.0
 10
122.0
 20
2209.0
 10
122.0
 20
2392.0
 10
108.0
 20
2392.0
 10
108.0
 20
2209.0
  0
MTEXT
  5
1D6
330
17
100
AcDbEntity
  8
0
100
AcDbMText
 10
115.0
 20
2300.5
 30
0.0
 40
5.0
 71
5
  1
Plastic Pipe\P3.0kg\PPlastic\P(Stack: 2x)
  0
LWPOLYLINE
  5
1D7
330
17
100
AcDbEntity
  8
0
100
AcDbPolyline
 90
5
 70
1
 10
304.5
 20
1868.5
 10
357.5
 20
1868.5
 10
357.5
 20
1921.5
 10
304.5
 20
1921.5
 10
304.5
 20
1868.5
  0
MTEXT
  5
1D8
330
17
100
AcDbEntity
  8
0
100
AcDbMText
 10
331.0
 20
1895.0
 30
0.0
 40
5.0
 71
5
  1
Concrete Tile\P15.0kg\PConcrete\P(Stack: 12x)
  0
LWPOLYLINE
  5
1D9
330
17
100
AcDbEntity
  8
0
100
AcDbPolyline
 90
5
 70
1
 10
0.0
 20
2800.0
 10
650.0
 20
2800.0
 10
650.0
 20
4050.0
 10
0.0
 20
4050.0
 10
0.0
 20
2800.0
  0
LWPOLYLINE
  5
1DA
330
17
100
AcDbEntity
  8
0
100
AcDbPolyline
 90
5
 70
1
 10
0.0
 20
2800.0
 10
32.0
 20
2800.0
 10
32.0
 20
3226.0
 10
0.0
 20
3226.0
 10
0.0
 20
2800.0
  0
MTEXT
  5
1DB
330
17
100
AcDbEntity
  8
0
100
AcDbMText
 10
16.0
 20
3013.0
 30
0.0
 40
5.0
 71
5
  1
Steel Beam\P45.0kg\PSteel
  0
LWPOLYLINE
  5
1DC
330
17
100
AcDbEntity
  8
0
100
AcDbPolyline
 90
5
 70
1
 10
47.0
 20
2800.0
 10
78.0
 20
2800.0
 10
78.0
 20
3218.0
 10
47.0
 20
3218.0
 10
47.0
 20
2800.0
  0
MTEXT
  5
1DD
330
17
100
AcDbEntity
  8
0
100
AcDbMText
 10
62.5
 20
3009.0
 30
0.0
 40
5.0
 71
5
  1
Steel Beam\P45.0kg\PSteel
  0
LWPOLYLINE
  5
1DE
330
17
100
AcDbEntity
  8
0
100
AcDbPolyline
 90
5
 70
1
 10
0.0
 20
3241.0
 10
43.0
 20
3241.0
 10
43.0
 20
3328.0
 10
0.0
 20
3328.0
 10
0.0
 20
3241.0
  0
MTEXT
  5
1DF
330
17
100
AcDbEntity
  8
0
100
AcDbMText
 10
21.5
 20
3284.5
 30
0.0
 40
5.0
 71
5
  1
Steel Rebar Bundle\P35.0kg\PSteel\P(Stack: 5x)
  0
LWPOLYLINE
  5
1E0
330
17
100
AcDbEntity
  8
0
100
AcDbPolyline
 90
5
 70
1
 10
93.0
 20
2800.0
 10
120.0
 20
2800.0
 10
120.0
 20
3163.0
 10
93.0
 20
3163.0
 10
93.0
 20
2800.0
  0
MTEXT
  5
1E1
330
17
100
AcDbEntity
  8
0
100
AcDbMText
 10
106.5
 20
2981.5
 30
0.0
 40
5.0
 71
5
  1
Steel Beam\P45.0kg\PSteel\P(Stack: 2x)
  0
LWPOLYLINE
  5
1E2
330
17
100
AcDbEntity
  8
0
100
AcDbPolyline
 90
5
 70
1
 10
58.0
 20
3241.0
 10
77.0
 20
3241.0
 10
77.0
 20
3519.0
 10
58.0
 20
3519.0
 10
58.0
 20
3241.0
  0
MTEXT
  5
1E3
330
17
100
AcDbEntity
  8
0
100
AcDbMText
 10
67.5
 20
3380.0
 30
0.0
 40
5.0
 71
5
  1
Steel Pipe\P15.0kg\PSteel\P(Stack: 2x)
  0
LWPOLYLINE
  5
1E4
330
17
100
AcDbEntity
  8
0
100
AcDbPolyline
 90
5
 70
1
 10
135.0
 20
2800.0
 10
181.0
 20
2800.0
 10
181.0
 20
2892.0
 10
135.0
 20
2892.0
 10
135.0
 20
2800.0
  0
MTEXT
  5
1E5
330
17
100
AcDbEntity
  8
0
100
AcDbMText
 10
158.0
 20
2846.0
 30
0.0
 40
5.0
 71
5
  1
Steel Plate\P25.0kg\PSteel\P(Stack: 10x)
  0
LWPOLYLINE
  5
1E6
330
17
100
AcDbEntity
  8
0
100
AcDbPolyline
 90
5
 70
1
 10
0.0
 20
3343.0
 10
22.0
 20
3343.0
 10
22.0
 20
3672.0
 10
0.0
 20
3672.0
 10
0.0
 20
3343.0
  0
MTEXT
  5
1E7
330
17
100
AcDbEntity
  8
0
100
AcDbMText
 10
11.0
 20
3507.5
 30
0.0
 40
5.0
 71
5
  1
Steel Pipe\P15.0kg\PSteel\P(Stack: 8x)
  0
LWPOLYLINE
  5
1E8
330
17
100
AcDbEntity
  8
0
100
AcDbPolyline
 90
5
 70
1
 10
93.0
 20
3178.0
 10
135.0
 20
3178.0
 10
135.0
 20
3263.0
 10
93.0
 20
3263.0
 10
93.0
 20
3178.0
  0
MTEXT
  5
1E9
330
17
100
AcDbEntity
  8
0
100
AcDbMText
 10
114.0
 20
3220.5
 30
0.0
 40
5.0
 71
5
  1
Steel Rebar Bundle\P35.0kg\PSteel\P(Stack: 6x)
  0
LWPOLYLINE
  5
1EA
330
17
100
AcDbEntity
  8
0
100
AcDbPolyline
 90
5
 70
1
 10
58.0
 20
3534.0
 10
91.0
 20
3534.0
 10
91.0
 20
3974.0
 10
58.0
 20
3974.0
 10
58.0
 20
3534.0
  0
MTEXT
  5
1EB
330
17
100
AcDbEntity
  8
0
100
AcDbMText
 10
74.5
 20
3754.0
 30
0.0
 40
5.0
 71
5
  1
Steel Beam\P45.0kg\PSteel
  0
LWPOLYLINE
  5
1EC
330
17
100
AcDbEntity
  8
0
100
AcDbPolyline
 90
5
 70
1
 10
196.0
 20
2800.0
 10
241.0
 20
2800.0
 10
241.0
 20
2890.0
 10
196.0
 20
2890.0
 10
196.0
 20
2800.0
  0
MTEXT
  5
1ED
330
17
100
AcDbEntity
  8
0
100
AcDbMText
 10
218.5
 20
2845.0
 30
0.0
 40
5.0
 71
5
  1
Steel Plate\P25.0kg\PSteel\P(Stack: 2x)
  0
LWPOLYLINE
  5
1EE
330
17
100
AcDbEntity
  8
0
100
AcDbPolyline
 90
5
 70
1
 10
93.5
 20
2800.5
 10
120.5
 20
2800.5
 10
120.5
 20
3163.5
 10
93.5
 20
3163.5
 10
93.5
 20
2800.5
  0
MTEXT
  5
1EF
330
17
100
AcDbEntity
  8
0
100
AcDbMText
 10
107.0
 20
2982.0
 30
0.0
 40
5.0
 71
5
  1
Steel Beam\P45.0kg\PSteel\P(Stack: 2x)
  0
LWPOLYLINE
  5
1F0
330
17
100
AcDbEntity
  8
0
100
AcDbPolyline
 90
5
 70
1
 10
135.0
 20
2907.0
 10
181.0
 20
2907.0
 10
181.0
 20
2999.0
 10
135.0
 20
2999.0
 10
135.0
 20
2907.0
  0
MTEXT
  5
1F1
330
17
100
AcDbEntity
  8
0
100
AcDbMText
 10
158.0
 20
2953.0
 30
0.0
 40
5.0
 71
5
  1
Steel Plate\P25.0kg\PSteel\P(Stack: 9x)
  0
LWPOLYLINE
  5
1F2
330
17
100
AcDbEntity
  8
0
100
AcDbPolyline
 90
5
 70
1
 10
150.0
 20
3178.0
 10
203.0
 20
3178.0
 10
203.0
 20
3284.0
 10
150.0
 20
3284.0
 10
150.0
 20
3178.0
  0
MTEXT
  5
1F3
330
17
100
AcDbEntity
  8
0
100
AcDbMText
 10
176.5
 20
3231.0
 30
0.0
 40
5.0
 71
5
  1
Steel Plate\P25.0kg\PSteel
  0
LWPOLYLINE
  5
1F4
330
17
100
AcDbEntity
  8
0
100
AcDbPolyline
 90
5
 70
1
 10
106.0
 20
3534.0
 10
160.0
 20
3534.0
 10
160.0
 20
3642.0
 10
106.0
 20
3642.0
 10
106.0
 20
3534.0
  0
MTEXT
  5
1F5
330
17
100
AcDbEntity
  8
0
100
AcDbMText
 10
133.0
 20
3588.0
 30
0.0
 40
5.0
 71
5
  1
Steel Plate\P25.0kg\PSteel\P(Stack: 10x)
  0
LWPOLYLINE
  5
1F6
330
17
100
AcDbEntity
  8
0
100
AcDbPolyline
 90
5
 70
1
 10
0.0
 20
3687.0
 10
19.0
 20
3687.0
 10
19.0
 20
3978.0
 10
0.0
 20
3978.0
 10
0.0
 20
3687.0
  0
MTEXT
  5
1F7
330
17
100
AcDbEntity
  8
0
100
AcDbMText
 10
9.5
 20
3832.5
 30
0.0
 40
5.0
 71
5
  1
Steel Pipe\P15.0kg\PSteel
  0
LWPOLYLINE
  5
1F8
330
17
100
AcDbEntity
  8
0
100
AcDbPolyline
 90
5
 70
1
 10
58.5
 20
3241.5
 10
77.5
 20
3241.5
 10
77.5
 20
3519.5
 10
58.5
 20
3519.5
 10
58.5
 20
3241.5
  0
MTEXT
  5
1F9
330
17
100
AcDbEntity
  8
0
100
AcDbMText
 10
68.0
 20
3380.5
 30
0.0
 40
5.0
 71
5
  1
Steel Pipe\P15.0kg\PSteel\P(Stack: 2x)
  0
LWPOLYLINE
  5
1FA
330
17
100
AcDbEntity
  8
0
100
AcDbPolyline
 90
5
 70
1
 10
93.0
 20
3278.0
 10
135.0
 20
3278.0
 10
135.0
 20
3363.0
 10
93.0
 20
3363.0
 10
93.0
 20
3278.0
  0
MTEXT
  5
1FB
330
17
100
AcDbEntity
  8
0
100
AcDbMText
 10
114.0
 20
3320.5
 30
0.0
 40
5.0
 71
5
  1
Steel Rebar Bundle\P35.0kg\PSteel\P(Stack: 6x)
  0
LWPOLYLINE
  5
1FC
330
17
100
AcDbEntity
  8
0
100
AcDbPolyline
 90
5
 70
1
 10
256.0
 20
2800.0
 10
384.0
 20
2800.0
 10
384.0
 20
3055.0
 10
256.0
 20
3055.0
 10
256.0
 20
2800.0
  0
MTEXT
  5
1FD
330
17
100
AcDbEntity
  8
0
100
AcDbMText
 10
320.0
 20
2927.5
 30
0.0
 40
5.0
 71
5
  1
Wood Sheet\P20.0kg\PWood\P(Stack: 2x)
  0
LWPOLYLINE
  5
1FE
330
17
100
AcDbEntity
  8
0
100
AcDbPolyline
 90
5
 70
1
 10
58.0
 20
3989.0
 10
358.0
 20
3989.0
 10
358.0
 20
4009.0
 10
58.0
 20
4009.0
 10
58.0
 20
3989.0
  0
MTEXT
  5
1FF
330
17
100
AcDbEntity
  8
0
100
AcDbMText
 10
208.0
 20
3999.0
 30
0.0
 40
5.0
 71
5
  1
Steel Pipe\P15.0kg\PSteel
  0
LWPOLYLINE
  5
200
330
17
100
AcDbEntity
  8
0
100
AcDbPolyline
 90
5
 70
1
 10
196.0
 20
2905.0
 10
236.0
 20
2905.0
 10
236.0
 20
2985.0
 10
196.0
 20
2985.0
 10
196.0
 20
2905.0
  0
MTEXT
  5
201
330
17
100
AcDbEntity
  8
0
100
AcDbMText
 10
216.0
 20
2945.0
 30
0.0
 40
5.0
 71
5
  1
Steel Rebar Bundle\P35.0kg\PSteel\P(Stack: 6x)
  0
LWPOLYLINE
  5
202
330
17
100
AcDbEntity
  8
0
100
AcDbPolyline
 90
5
 70
1
 10
135.0
 20
3014.0
 10
182.0
 20
3014.0
 10
182.0
 20
3109.0
 10
135.0
 20
3109.0
 10
135.0
 20
3014.0
  0
MTEXT
  5
203
330
17
100
AcDbEntity
  8
0
100
AcDbMText
 10
158.5
 20
3061.5
 30
0.0
 40
5.0
 71
5
  1
Steel Plate\P25.0kg\PSteel\P(Stack: 9x)
  0
LWPOLYLINE
  5
204
330
17
100
AcDbEntity
  8
0
100
AcDbPolyline
 90
5
 70
1
 10
218.0
 20
3178.0
 10
258.0
 20
3178.0
 10
258.0
 20
3258.0
 10
218.0
 20
3258.0
 10
218.0
 20
3178.0
  0
MTEXT
  5
205
330
17
100
AcDbEntity
  8
0
100
AcDbMText
 10
238.0
 20
3218.0
 30
0.0
 40
5.0
 71
5
  1
Steel Rebar Bundle\P35.0kg\PSteel\P(Stack: 6x)
  0
LWPOLYLINE
  5
206
330
17
100
AcDbEntity
  8
0
100
AcDbPolyline
 90
5
 70
1
 10
150.0
 20
3299.0
 10
190.0
 20
3299.0
 10
190.0
 20
3379.0
 10
150.0
 20
3379.0
 10
150.0
 20
3299.0
  0
MTEXT
  5
207
330
17
100
AcDbEntity
  8
0
100
AcDbMText
 10
170.0
 20
3339.0
 30
0.0
 40
5.0
 71
5
  1
Steel Rebar Bundle\P35.0kg\PSteel\P(Stack: 6x)
  0
LWPOLYLINE
  5
208
330
17
100
AcDbEntity
  8
0
100
AcDbPolyline
 90
5
 70
1
 10
175.0
 20
3534.0
 10
217.0
 20
3534.0
 10
217.0
 20
3619.0
 10
175.0
 20
3619.0
 10
175.0
 20
3534.0
  0
MTEXT
  5
209
330
17
100
AcDbEntity
  8
0
100
AcDbMText
 10
196.0
 20
3576.5
 30
0.0
 40
5.0
 71
5
  1
Steel Rebar Bundle\P35.0kg\PSteel\P(Stack: 6x)
  0
LWPOLYLINE
  5
20A
330
17
100
AcDbEntity
  8
0
100
AcDbPolyline
 90
5
 70
1
 10
106.0
 20
3657.0
 10
158.0
 20
3657.0
 10
158.0
 20
3761.0
 10
106.0
 20
3761.0
 10
106.0
 20
3657.0
  0
MTEXT
  5
20B
330
17
100
AcDbEntity
  8
0
100
AcDbMText
 10
132.0
 20
3709.0
 30
0.0
 40
5.0
 71
5
  1
Steel Plate\P25.0kg\PSteel\P(Stack: 10x)
  0
LWPOLYLINE
  5
20C
330
17
100
AcDbEntity
  8
0
100
AcDbPolyline
 90
5
 70
1
 10
399.0
 20
2800.0
 10
489.0
 20
2800.0
 10
489.0
 20
2980.0
 10
399.0
 20
2980.0
 10
399.0
 20
2800.0
  0
MTEXT
  5
20D
330
17
100
AcDbEntity
  8
0
100
AcDbMText
 10
444.0
 20
2890.0
 30
0.0
 40
5.0
 71
5
  1
Plastic Sheet\P8.0kg\PPlastic
  0
LWPOLYLINE
  5
20E
330
17
100
AcDbEntity
  8
0
100
AcDbPolyline
 90
5
 70
1
 10
273.0
 20
3178.0
 10
384.0
 20
3178.0
 10
384.0
 20
3400.0
 10
273.0
 20
3400.0
 10
273.0
 20
3178.0
  0
MTEXT
  5
20F
330
17
100
AcDbEntity
  8
0
100
AcDbMText
 10
328.5
 20
3289.0
 30
0.0
 40
5.0
 71
5
  1
Wood Sheet\P20.0kg\PWood\P(Stack: 2x)
  0
LWPOLYLINE
  5
210
330
17
100
AcDbEntity
  8
0
100
AcDbPolyline
 90
5
 70
1
 10
256.0
 20
3070.0
 10
358.0
 20
3070.0
 10
358.0
 20
3121.0
 10
256.0
 20
3121.0
 10
256.0
 20
3070.0
  0
MTEXT
  5
211
330
17
100
AcDbEntity
  8
0
100
AcDbMText
 10
307.0
 20
3095.5
 30
0.0
 40
5.0
 71
5
  1
Steel Plate\P25.0kg\PSteel\P(Stack: 4x)
  0
LWPOLYLINE
  5
212
330
17
100
AcDbEntity
  8
0
100
AcDbPolyline
 90
5
 70
1
 10
232.0
 20
3534.0
 10
362.0
 20
3534.0
 10
362.0
 20
3794.0
 10
232.0
 20
3794.0
 10
232.0
 20
3534.0
  0
MTEXT
  5
213
330
17
100
AcDbEntity
  8
0
100
AcDbMText
 10
297.0
 20
3664.0
 30
0.0
 40
5.0
 71
5
  1
Wood Sheet\P20.0kg\PWood
  0
LWPOLYLINE
  5
214
330
17
100
AcDbEntity
  8
0
100
AcDbPolyline
 90
5
 70
1
 10
504.0
 20
2800.0
 10
524.0
 20
2800.0
 10
524.0
 20
3207.0
 10
504.0
 20
3207.0
 10
504.0
 20
2800.0
  0
MTEXT
  5
215
330
17
100
AcDbEntity
  8
0
100
AcDbMText
 10
514.0
 20
3003.5
 30
0.0
 40
5.0
 71
5
  1
Wood Beam\P18.0kg\PWood
  0
LWPOLYLINE
  5
216
330
17
100
AcDbEntity
  8
0
100
AcDbPolyline
 90
5
 70
1
 10
106.0
 20
3776.0
 10
171.0
 20
3776.0
 10
171.0
 20
3905.0
 10
106.0
 20
3905.0
 10
106.0
 20
3776.0
  0
MTEXT
  5
217
330
17
100
AcDbEntity
  8
0
100
AcDbMText
 10
138.5
 20
3840.5
 30
0.0
 40
5.0
 71
5
  1
Wood Frame\P8.0kg\PWood\P(Stack: 3x)
  0
LWPOLYLINE
  5
218
330
17
100
AcDbEntity
  8
0
100
AcDbPolyline
 90
5
 70
1
 10
399.0
 20
2995.0
 10
462.0
 20
2995.0
 10
462.0
 20
3121.0
 10
399.0
 20
3121.0
 10
399.0
 20
2995.0
  0
MTEXT
  5
219
330
17
100
AcDbEntity
  8
0
100
AcDbMText
 10
430.5
 20
3058.0
 30
0.0
 40
5.0
 71
5
  1
Concrete Slab\P80.0kg\PConcrete\P(Stack: 3x)
  0
LWPOLYLINE
  5
21A
330
17
100
AcDbEntity
  8
0
100
AcDbPolyline
 90
5
 70
1
 10
150.0
 20
3394.0
 10
207.0
 20
3394.0
 10
207.0
 20
3508.0
 10
150.0
 20
3508.0
 10
150.0
 20
3394.0
  0
MTEXT
  5
21B
330
17
100
AcDbEntity
  8
0
100
AcDbMText
 10
178.5
 20
3451.0
 30
0.0
 40
5.0
 71
5
  1
Concrete Slab\P80.0kg\PConcrete\P(Stack: 2x)
  0
LWPOLYLINE
  5
21C
330
17
100
AcDbEntity
  8
0
100
AcDbPolyline
 90
5
 70
1
 10
399.0
 20
3178.0
 10
453.0
 20
3178.0
 10
453.0
 20
3285.0
 10
399.0
 20
3285.0
 10
399.0
 20
3178.0
  0
MTEXT
  5
21D
330
17
100
AcDbEntity
  8
0
100
AcDbMText
 10
426.0
 20
3231.5
 30
0.0
 40
5.0
 71
5
  1
Steel Plate\P25.0kg\PSteel\P(Stack: 3x)
  0
LWPOLYLINE
  5
21E
330
17
100
AcDbEntity
  8
0
100
AcDbPolyline
 90
5
 70
1
 10
273.0
 20
3415.0
 10
325.0
 20
3415.0
 10
325.0
 20
3519.0
 10
273.0
 20
3519.0
 10
273.0
 20
3415.0
  0
MTEXT
  5
21F
330
17
100
AcDbEntity
  8
0
100
AcDbMText
 10
299.0
 20
3467.0
 30
0.0
 40
5.0
 71
5
  1
Steel Plate\P25.0kg\PSteel\P(Stack: 10x)
  0
LWPOLYLINE
  5
220
330
17
100
AcDbEntity
  8
0
100
AcDbPolyline
 90
5
 70
1
 10
377.0
 20
3534.0
 10
440.0
 20
3534.0
 10
440.0
 20
3660.0
 10
377.0
 20
3660.0
 10
377.0
 20
3534.0
  0
MTEXT
  5
221
330
17
100
AcDbEntity
  8
0
100
AcDbMText
 10
408.5
 20
3597.0
 30
0.0
 40
5.0
 71
5
  1
Concrete Slab\P80.0kg\PConcrete\P(Stack: 3x)
  0
LWPOLYLINE
  5
222
330
17
100
AcDbEntity
  8
0
100
AcDbPolyline
 90
5
 70
1
 10
232.0
 20
3809.0
 10
544.0
 20
3809.0
 10
544.0
 20
3835.0
 10
232.0
 20
3835.0
 10
232.0
 20
3809.0
  0
MTEXT
  5
223
330
17
100
AcDbEntity
  8
0
100
AcDbMText
 10
388.0
 20
3822.0
 30
0.0
 40
5.0
 71
5
  1
Wood Plank\P12.0kg\PWood\P(Stack: 12x)
  0
LWPOLYLINE
  5
224
330
17
100
AcDbEntity
  8
0
100
AcDbPolyline
 90
5
 70
1
 10
539.0
 20
2800.0
 10
559.0
 20
2800.0
 10
559.0
 20
3105.0
 10
539.0
 20
3105.0
 10
539.0
 20
2800.0
  0
MTEXT
  5
225
330
17
100
AcDbEntity
  8
0
100
AcDbMText
 10
549.0
 20
2952.5
 30
0.0
 40
5.0
 71
5
  1
Steel Pipe\P15.0kg\PSteel
  0
ENDSEC
  0
SECTION
  2
OBJECTS
  0
DICTIONARY
  5
A
330
0
100
AcDbDictionary
281
1
  3
ACAD_COLOR
350
B
  3
ACAD_GROUP
350
C
  3
ACAD_LAYOUT
350
D
  3
ACAD_MATERIAL
350
E
  3
ACAD_MLEADERSTYLE
350
F
  3
ACAD_MLINESTYLE
350
10
  3
ACAD_PLOTSETTINGS
350
11
  3
ACAD_PLOTSTYLENAME
350
12
  3
ACAD_SCALELIST
350
14
  3
ACAD_TABLESTYLE
350
15
  3
ACAD_VISUALSTYLE
350
16
  3
EZDXF_META
350
2D
  0
DICTIONARY
  5
B
330
A
100
AcDbDictionary
281
1
  0
DICTIONARY
  5
C
330
A
100
AcDbDictionary
281
1
  0
DICTIONARY
  5
D
330
A
100
AcDbDictionary
281
1
  3
Model
350
1A
  3
Layout1
350
1E
  0
DICTIONARY
  5
E
330
A
100
AcDbDictionary
281
1
  3
ByBlock
350
1F
  3
ByLayer
350
20
  3
Global
350
21
  0
DICTIONARY
  5
F
330
A
100
AcDbDictionary
281
1
  3
Standard
350
2C
  0
DICTIONARY
  5
10
330
A
100
AcDbDictionary
281
1
  3
Standard
350
22
  0
DICTIONARY
  5
11
330
A
100
AcDbDictionary
281
1
  0
ACDBDICTIONARYWDFLT
  5
12
330
A
100
AcDbDictionary
281
1
  3
Normal
350
13
100
AcDbDictionaryWithDefault
340
13
  0
ACDBPLACEHOLDER
  5
13
330
12
  0
DICTIONARY
  5
14
330
A
100
AcDbDictionary
281
1
  0
DICTIONARY
  5
15
330
A
100
AcDbDictionary
281
1
  0
DICTIONARY
  5
16
330
A
100
AcDbDictionary
281
1
  0
LAYOUT
  5
1A
330
D
100
AcDbPlotSettings
  1

  4
A3
  6

 40
7.5
 41
20.0
 42
7.5
 43
20.0
 44
420.0
 45
297.0
 46
0.0
 47
0.0
 48
0.0
 49
0.0
140
0.0
141
0.0
142
1.0
143
1.0
 70
1024
 72
1
 73
0
 74
5
  7

 75
16
 76
0
 77
2
 78
300
147
1.0
148
0.0
149
0.0
100
AcDbLayout
  1
Model
 70
1
 71
0
 10
0.0
 20
0.0
 11
420.0
 21
297.0
 12
0.0
 22
0.0
 32
0.0
 14
1e+20
 24
1e+20
 34
1e+20
 15
-1e+20
 25
-1e+20
 35
-1e+20
146
0.0
 13
0.0
 23
0.0
 33
0.0
 16
1.0
 26
0.0
 36
0.0
 17
0.0
 27
1.0
 37
0.0
 76
1
330
17
  0
LAYOUT
  5
1E
330
D
100
AcDbPlotSettings
  1

  4
A3
  6

 40
7.5
 41
20.0
 42
7.5
 43
20.0
 44
420.0
 45
297.0
 46
0.0
 47
0.0
 48
0.0
 49
0.0
140
0.0
141
0.0
142
1.0
143
1.0
 70
0
 72
1
 73
0
 74
5
  7

 75
16
 76
0
 77
2
 78
300
147
1.0
148
0.0
149
0.0
100
AcDbLayout
  1
Layout1
 70
1
 71
1
 10
0.0
 20
0.0
 11
420.0
 21
297.0
 12
0.0
 22
0.0
 32
0.0
 14
1e+20
 24
1e+20
 34
1e+20
 15
-1e+20
 25
-1e+20
 35
-1e+20
146
0.0
 13
0.0
 23
0.0
 33
0.0
 16
1.0
 26
0.0
 36
0.0
 17
0.0
 27
1.0
 37
0.0
 76
1
330
1B
  0
MATERIAL
  5
1F
102
{ACAD_REACTORS
330
E
102
}
330
E
100
AcDbMaterial
  1
ByBlock
  2

 70
0
 40
1.0
 71
1
 41
1.0
 91
-1023410177
 42
1.0
 72
1
  3

 73
1
 74
1
 75
1
 44
0.5
 73
0
 45
1.0
 46
1.0
 77
1
  4

 78
1
 79
1
170
1
 48
1.0
171
1
  6

172
1
173
1
174
1
140
1.0
141
1.0
175
1
  7

176
1
177
1
178
1
143
1.0
179
1
  8

270
1
271
1
272
1
145
1.0
146
1.0
273
1
  9

274
1
275
1
276
1
 42
1.0
 72
1
  3

 73
1
 74
1
 75
1
 94
63
  0
MATERIAL
  5
20
102
{ACAD_REACTORS
330
E
102
}
330
E
100
AcDbMaterial
  1
ByLayer
  2

 70
0
 40
1.0
 71
1
 41
1.0
 91
-1023410177
 42
1.0
 72
1
  3

 73
1
 74
1
 75
1
 44
0.5
 73
0
 45
1.0
 46
1.0
 77
1
  4

 78
1
 79
1
170
1
 48
1.0
171
1
  6

172
1
173
1
174
1
140
1.0
141
1.0
175
1
  7

176
1
177
1
178
1
143
1.0
179
1
  8

270
1
271
1
272
1
145
1.0
146
1.0
273
1
  9

274
1
275
1
276
1
 42
1.0
 72
1
  3

 73
1
 74
1
 75
1
 94
63
  0
MATERIAL
  5
21
102
{ACAD_REACTORS
330
E
102
}
330
E
100
AcDbMaterial
  1
Global
  2

 70
0
 40
1.0
 71
1
 41
1.0
 91
-1023410177
 42
1.0
 72
1
  3

 73
1
 74
1
 75
1
 44
0.5
 73
0
 45
1.0
 46
1.0
 77
1
  4

 78
1
 79
1
170
1
 48
1.0
171
1
  6

172
1
173
1
174
1
140
1.0
141
1.0
175
1
  7

176
1
177
1
178
1
143
1.0
179
1
  8

270
1
271
1
272
1
145
1.0
146
1.0
273
1
  9

274
1
275
1
276
1
 42
1.0
 72
1
  3

 73
1
 74
1
 75
1
 94
63
  0
MLINESTYLE
  5
22
102
{ACAD_REACTORS
330
10
102
}
330
10
100
AcDbMlineStyle
  2
Standard
 70
0
  3

 62
256
 51
90.0
 52
90.0
 71
2
 49
0.5
 62
256
  6
BYLAYER
 49
-0.5
 62
256
  6
BYLAYER
  0
MLEADERSTYLE
  5
2C
102
{ACAD_REACTORS
330
F
102
}
330
F
100
AcDbMLeaderStyle
179
2
170
2
171
1
172
0
 90
2
 40
0.0
 41
0.0
173
1
 91
-1056964608
 92
-2
290
1
 42
2.0
291
1
 43
8.0
  3
Standard
 44
4.0
300

342
29
174
1
175
1
176
0
178
1
 93
-1056964608
 45
4.0
292
0
297
0
 46
4.0
 94
-1056964608
 47
1.0
 49
1.0
140
1.0
294
1
141
0.0
177
0
142
1.0
295
0
296
0
143
3.75
271
0
272
9
273
9
  0
DICTIONARY
  5
2D
330
A
100
AcDbDictionary
280
1
281
1
  3
CREATED_BY_EZDXF
350
2E
  3
WRITTEN_BY_EZDXF
350
228
  0
DICTIONARYVAR
  5
2E
330
2D
100
DictionaryVariables
280
0
  1
1.4.3 @ 2026-02-20T22:21:31.632965+00:00
  0
DICTIONARYVAR
  5
228
330
2D
100
DictionaryVariables
280
0
  1
1.4.3 @ 2026-02-20T22:21:31.643881+00:00
  0
ENDSEC
  0
EOF
