  0
SECTION
  2
HEADER
  9
$ACADVER
  1
AC1027
  9
$ACADMAINTVER
 70
105
  9
$DWGCODEPAGE
  3
ANSI_1252
  9
$LASTSAVEDBY
  1
ezdxf
  9
$REQUIREDVERSIONS
160
0
  9
$INSBASE
 10
0.0
 20
0.0
 30
0.0
  9
$EXTMIN
 10
1e+20
 20
1e+20
 30
1e+20
  9
$EXTMAX
 10
-1e+20
 20
-1e+20
 30
-1e+20
  9
$LIMMIN
 10
0.0
 20
0.0
  9
$LIMMAX
 10
420.0
 20
297.0
  9
$ORTHOMODE
 70
0
  9
$REGENMODE
 70
1
  9
$FILLMODE
 70
1
  9
$QTEXTMODE
 70
0
  9
$MIRRTEXT
 70
1
  9
$LTSCALE
 40
1.0
  9
$ATTMODE
 70
1
  9
$TEXTSIZE
 40
2.5
  9
$TRACEWID
 40
1.0
  9
$TEXTSTYLE
  7
Standard
  9
$CLAYER
  8
0
  9
$CELTYPE
  6
ByLayer
  9
$CECOLOR
 62
256
  9
$CELTSCALE
 40
1.0
  9
$DISPSILH
 70
0
  9
$DIMSCALE
 40
1.0
  9
$DIMASZ
 40
2.5
  9
$DIMEXO
 40
0.625
  9
$DIMDLI
 40
3.75
  9
$DIMRND
 40
0.0
  9
$DIMDLE
 40
0.0
  9
$DIMEXE
 40
1.25
  9
$DIMTP
 40
0.0
  9
$DIMTM
 40
0.0
  9
$DIMTXT
 40
2.5
  9
$DIMCEN
 40
2.5
  9
$DIMTSZ
 40
0.0
  9
$DIMTOL
 70
0
  9
$DIMLIM
 70
0
  9
$DIMTIH
 70
0
  9
$DIMTOH
 70
0
  9
$DIMSE1
 70
0
  9
$DIMSE2
 70
0
  9
$DIMTAD
 70
1
  9
$DIMZIN
 70
8
  9
$DIMBLK
  1

  9
$DIMASO
 70
1
  9
$DIMSHO
 70
1
  9
$DIMPOST
  1

  9
$DIMAPOST
  1

  9
$DIMALT
 70
0
  9
$DIMALTD
 70
3
  9
$DIMALTF
 40
0.03937007874
  9
$DIMLFAC
 40
1.0
  9
$DIMTOFL
 70
1
  9
$DIMTVP
 40
0.0
  9
$DIMTIX
 70
0
  9
$DIMSOXD
 70
0
  9
$DIMSAH
 70
0
  9
$DIMBLK1
  1

  9
$DIMBLK2
  1

  9
$DIMSTYLE
  2
ISO-25
  9
$DIMCLRD
 70
0
  9
$DIMCLRE
 70
0
  9
$DIMCLRT
 70
0
  9
$DIMTFAC
 40
1.0
  9
$DIMGAP
 40
0.625
  9
$DIMJUST
 70
0
  9
$DIMSD1
 70
0
  9
$DIMSD2
 70
0
  9
$DIMTOLJ
 70
0
  9
$DIMTZIN
 70
8
  9
$DIMALTZ
 70
0
  9
$DIMALTTZ
 70
0
  9
$DIMUPT
 70
0
  9
$DIMDEC
 70
2
  9
$DIMTDEC
 70
2
  9
$DIMALTU
 70
2
  9
$DIMALTTD
 70
3
  9
$DIMTXSTY
  7
Standard
  9
$DIMAUNIT
 70
0
  9
$DIMADEC
 70
0
  9
$DIMALTRND
 40
0.0
  9
$DIMAZIN
 70
0
  9
$DIMDSEP
 70
44
  9
$DIMATFIT
 70
3
  9
$DIMFRAC
 70
0
  9
$DIMLDRBLK
  1

  9
$DIMLUNIT
 70
2
  9
$DIMLWD
 70
-2
  9
$DIMLWE
 70
-2
  9
$DIMTMOVE
 70
0
  9
$DIMFXL
 40
1.0
  9
$DIMFXLON
 70
0
  9
$DIMJOGANG
 40
0.785398163397
  9
$DIMTFILL
 70
0
  9
$DIMTFILLCLR
 70
0
  9
$DIMARCSYM
 70
0
  9
$DIMLTYPE
  6

  9
$DIMLTEX1
  6

  9
$DIMLTEX2
  6

  9
$DIMTXTDIRECTION
 70
0
  9
$LUNITS
 70
2
  9
$LUPREC
 70
4
  9
$SKETCHINC
 40
1.0
  9
$FILLETRAD
 40
10.0
  9
$AUNITS
 70
0
  9
$AUPREC
 70
2
  9
$MENU
  1
.
  9
$ELEVATION
 40
0.0
  9
$PELEVATION
 40
0.0
  9
$THICKNESS
 40
0.0
  9
$LIMCHECK
 70
0
  9
$CHAMFERA
 40
0.0
  9
$CHAMFERB
 40
0.0
  9
$CHAMFERC
 40
0.0
  9
$CHAMFERD
 40
0.0
  9
$SKPOLY
 70
0
  9
$TDCREATE
 40
2461092.775891204
  9
$TDUCREATE
 40
2458532.153996898
  9
$TDUPDATE
 40
2461092.775891204
  9
$TDUUPDATE
 40
2458532.1544311
  9
$TDINDWG
 40
0.0
  9
$TDUSRTIMER
 40
0.0
  9
$USRTIMER
 70
1
  9
$ANGBASE
 50
0.0
  9
$ANGDIR
 70
0
  9
$PDMODE
 70
0
  9
$PDSIZE
 40
0.0
  9
$PLINEWID
 40
0.0
  9
$SPLFRAME
 70
0
  9
$SPLINETYPE
 70
6
  9
$SPLINESEGS
 70
8
  9
$HANDSEED
  5
229
  9
$SURFTAB1
 70
6
  9
$SURFTAB2
 70
6
  9
$SURFTYPE
 70
6
  9
$SURFU
 70
6
  9
$SURFV
 70
6
  9
$UCSBASE
  2

  9
$UCSNAME
  2

  9
$UCSORG
 10
0.0
 20
0.0
 30
0.0
  9
$UCSXDIR
 10
1.0
 20
0.0
 30
0.0
  9
$UCSYDIR
 10
0.0
 20
1.0
 30
0.0
  9
$UCSORTHOREF
  2

  9
$UCSORTHOVIEW
 70
0
  9
$UCSORGTOP
 10
0.0
 20
0.0
 30
0.0
  9
$UCSORGBOTTOM
 10
0.0
 20
0.0
 30
0.0
  9
$UCSORGLEFT
 10
0.0
 20
0.0
 30
0.0
  9
$UCSORGRIGHT
 10
0.0
 20
0.0
 30
0.0
  9
$UCSORGFRONT
 10
0.0
 20
0.0
 30
0.0
  9
$UCSORGBACK
 10
0.0
 20
0.0
 30
0.0
  9
$PUCSBASE
  2

  9
$PUCSNAME
  2

  9
$PUCSORG
 10
0.0
 20
0.0
 30
0.0
  9
$PUCSXDIR
 10
1.0
 20
0.0
 30
0.0
  9
$PUCSYDIR
 10
0.0
 20
1.0
 30
0.0
  9
$PUCSORTHOREF
  2

  9
$PUCSORTHOVIEW
 70
0
  9
$PUCSORGTOP
 10
0.0
 20
0.0
 30
0.0
  9
$PUCSORGBOTTOM
 10
0.0
 20
0.0
 30
0.0
  9
$PUCSORGLEFT
 10
0.0
 20
0.0
 30
0.0
  9
$PUCSORGRIGHT
 10
0.0
 20
0.0
 30
0.0
  9
$PUCSORGFRONT
 10
0.0
 20
0.0
 30
0.0
  9
$PUCSORGBACK
 10
0.0
 20
0.0
 30
0.0
  9
$USERI1
 70
0
  9
$USERI2
 70
0
  9
$USERI3
 70
0
  9
$USERI4
 70
0
  9
$USERI5
 70
0
  9
$USERR1
 40
0.0
  9
$USERR2
 40
0.0
  9
$USERR3
 40
0.0
  9
$USERR4
 40
0.0
  9
$USERR5
 40
0.0
  9
$WORLDVIEW
 70
1
  9
$SHADEDGE
 70
3
  9
$SHADEDIF
 70
70
  9
$TILEMODE
 70
1
  9
$MAXACTVP
 70
64
  9
$PINSBASE
 10
0.0
 20
0.0
 30
0.0
  9
$PLIMCHECK
 70
0
  9
$PEXTMIN
 10
1e+20
 20
1e+20
 30
1e+20
  9
$PEXTMAX
 10
-1e+20
 20
-1e+20
 30
-1e+20
  9
$PLIMMIN
 10
0.0
 20
0.0
  9
$PLIMMAX
 10
420.0
 20
297.0
  9
$UNITMODE
 70
0
  9
$VISRETAIN
 70
1
  9
$PLINEGEN
 70
0
  9
$PSLTSCALE
 70
1
  9
$TREEDEPTH
 70
3020
  9
$CMLSTYLE
  2
Standard
  9
$CMLJUST
 70
0
  9
$CMLSCALE
 40
20.0
  9
$PROXYGRAPHICS
 70
1
  9
$MEASUREMENT
 70
1
  9
$CELWEIGHT
370
-1
  9
$ENDCAPS
280
0
  9
$JOINSTYLE
280
0
  9
$LWDISPLAY
290
0
  9
$INSUNITS
 70
6
  9
$HYPERLINKBASE
  1

  9
$STYLESHEET
  1

  9
$XEDIT
290
1
  9
$CEPSNTYPE
380
0
  9
$PSTYLEMODE
290
1
  9
$FINGERPRINTGUID
  2
{A67A62B7-B684-44D7-A6D1-B39DEFD8E9D3}
  9
$VERSIONGUID
  2
{617A099B-A714-4D35-A37F-6EF35C85AB07}
  9
$EXTNAMES
290
1
  9
$PSVPSCALE
 40
0.0
  9
$OLESTARTUP
290
0
  9
$SORTENTS
280
127
  9
$INDEXCTL
280
0
  9
$HIDETEXT
280
1
  9
$XCLIPFRAME
280
1
  9
$HALOGAP
280
0
  9
$OBSCOLOR
 70
257
  9
$OBSLTYPE
280
0
  9
$INTERSECTIONDISPLAY
280
0
  9
$INTERSECTIONCOLOR
 70
257
  9
$DIMASSOC
280
2
  9
$PROJECTNAME
  1

  9
$CAMERADISPLAY
290
0
  9
$LENSLENGTH
 40
50.0
  9
$CAMERAHEIGHT
 40
0.0
  9
$STEPSPERSEC
 40
24.0
  9
$STEPSIZE
 40
100.0
  9
$3DDWFPREC
 40
2.0
  9
$PSOLWIDTH
 40
0.005
  9
$PSOLHEIGHT
 40
0.08
  9
$LOFTANG1
 40
1.570796326795
  9
$LOFTANG2
 40
1.570796326795
  9
$LOFTMAG1
 40
0.0
  9
$LOFTMAG2
 40
0.0
  9
$LOFTPARAM
 70
7
  9
$LOFTNORMALS
280
1
  9
$LATITUDE
 40
37.795
  9
$LONGITUDE
 40
-122.394
  9
$NORTHDIRECTION
 40
0.0
  9
$TIMEZONE
 70
-8000
  9
$LIGHTGLYPHDISPLAY
280
1
  9
$TILEMODELIGHTSYNCH
280
1
  9
$CMATERIAL
347
20
  9
$SOLIDHIST
280
0
  9
$SHOWHIST
280
1
  9
$DWFFRAME
280
2
  9
$DGNFRAME
280
2
  9
$REALWORLDSCALE
290
1
  9
$INTERFERECOLOR
 62
256
  9
$CSHADOW
280
0
  9
$SHADOWPLANELOCATION
 40
0.0
  0
ENDSEC
  0
SECTION
  2
CLASSES
  0
CLASS
  1
ACDBDICTIONARYWDFLT
  2
AcDbDictionaryWithDefault
  3
ObjectDBX Classes
 90
0
 91
0
280
0
281
0
  0
CLASS
  1
SUN
  2
AcDbSun
  3
SCENEOE
 90
1153
 91
0
280
0
281
0
  0
CLASS
  1
VISUALSTYLE
  2
AcDbVisualStyle
  3
ObjectDBX Classes
 90
4095
 91
0
280
0
281
0
  0
CLASS
  1
MATERIAL
  2
AcDbMaterial
  3
ObjectDBX Classes
 90
1153
 91
0
280
0
281
0
  0
CLASS
  1
SCALE
  2
AcDbScale
  3
ObjectDBX Classes
 90
1153
 91
0
280
0
281
0
  0
CLASS
  1
TABLESTYLE
  2
AcDbTableStyle
  3
ObjectDBX Classes
 90
4095
 91
0
280
0
281
0
  0
CLASS
  1
MLEADERSTYLE
  2
AcDbMLeaderStyle
  3
ACDB_MLEADERSTYLE_CLASS
 90
4095
 91
0
280
0
281
0
  0
CLASS
  1
DICTIONARYVAR
  2
AcDbDictionaryVar
  3
ObjectDBX Classes
 90
0
 91
0
280
0
281
0
  0
CLASS
  1
CELLSTYLEMAP
  2
AcDbCellStyleMap
  3
ObjectDBX Classes
 90
1152
 91
0
280
0
281
0
  0
CLASS
  1
MENTALRAYRENDERSETTINGS
  2
AcDbMentalRayRenderSettings
  3
SCENEOE
 90
1024
 91
0
280
0
281
0
  0
CLASS
  1
ACDBDETAILVIEWSTYLE
  2
AcDbDetailViewStyle
  3
ObjectDBX Classes
 90
1025
 91
0
280
0
281
0
  0
CLASS
  1
ACDBSECTIONVIEWSTYLE
  2
AcDbSectionViewStyle
  3
ObjectDBX Classes
 90
1025
 91
0
280
0
281
0
  0
CLASS
  1
RASTERVARIABLES
  2
AcDbRasterVariables
  3
ISM
 90
0
 91
0
280
0
281
0
  0
CLASS
  1
ACDBPLACEHOLDER
  2
AcDbPlaceHolder
  3
ObjectDBX Classes
 90
0
 91
0
280
0
281
0
  0
CLASS
  1
LAYOUT
  2
AcDbLayout
  3
ObjectDBX Classes
 90
0
 91
0
280
0
281
0
  0
ENDSEC
  0
SECTION
  2
TABLES
  0
TABLE
  2
VPORT
  5
8
330
0
100
AcDbSymbolTable
 70
1
  0
VPORT
  5
23
330
8
100
AcDbSymbolTableRecord
100
AcDbViewportTableRecord
  2
*Active
 70
0
 10
0.0
 20
0.0
 11
1.0
 21
1.0
 12
0.0
 22
0.0
 13
0.0
 23
0.0
 14
0.5
 24
0.5
 15
0.5
 25
0.5
 16
0.0
 26
0.0
 36
1.0
 17
0.0
 27
0.0
 37
0.0
 40
1000.0
 41
1.34
 42
50.0
 43
0.0
 44
0.0
 50
0.0
 51
0.0
 71
0
 72
1000
 73
1
 74
3
 75
0
 76
0
 77
0
 78
0
281
0
 65
0
146
0.0
  0
ENDTAB
  0
TABLE
  2
LTYPE
  5
2
330
0
100
AcDbSymbolTable
 70
3
  0
LTYPE
  5
24
330
2
100
AcDbSymbolTableRecord
100
AcDbLinetypeTableRecord
  2
ByBlock
 70
0
  3

 72
65
 73
0
 40
0.0
  0
LTYPE
  5
25
330
2
100
AcDbSymbolTableRecord
100
AcDbLinetypeTableRecord
  2
ByLayer
 70
0
  3

 72
65
 73
0
 40
0.0
  0
LTYPE
  5
26
330
2
100
AcDbSymbolTableRecord
100
AcDbLinetypeTableRecord
  2
Continuous
 70
0
  3

 72
65
 73
0
 40
0.0
  0
ENDTAB
  0
TABLE
  2
LAYER
  5
1
330
0
100
AcDbSymbolTable
 70
2
  0
LAYER
  5
27
330
1
100
AcDbSymbolTableRecord
100
AcDbLayerTableRecord
  2
0
 70
0
 62
7
  6
Continuous
370
-3
390
13
347
21
  0
LAYER
  5
28
330
1
100
AcDbSymbolTableRecord
100
AcDbLayerTableRecord
  2
Defpoints
 70
0
 62
7
  6
Continuous
290
0
370
-3
390
13
347
21
  0
ENDTAB
  0
TABLE
  2
STYLE
  5
5
330
0
100
AcDbSymbolTable
 70
1
  0
STYLE
  5
29
330
5
100
AcDbSymbolTableRecord
100
AcDbTextStyleTableRecord
  2
Standard
 70
0
 40
0.0
 41
1.0
 50
0.0
 71
0
 42
2.5
  3
txt
  4

  0
ENDTAB
  0
TABLE
  2
VIEW
  5
7
330
0
100
AcDbSymbolTable
 70
0
  0
ENDTAB
  0
TABLE
  2
UCS
  5
6
330
0
100
AcDbSymbolTable
 70
0
  0
ENDTAB
  0
TABLE
  2
APPID
  5
3
330
0
100
AcDbSymbolTable
 70
3
  0
APPID
  5
2A
330
3
100
AcDbSymbolTableRecord
100
AcDbRegAppTableRecord
  2
ACAD
 70
0
  0
APPID
  5
226
330
3
100
AcDbSymbolTableRecord
100
AcDbRegAppTableRecord
  2
HATCHBACKGROUNDCOLOR
 70
0
  0
APPID
  5
227
330
3
100
AcDbSymbolTableRecord
100
AcDbRegAppTableRecord
  2
EZDXF
 70
0
  0
ENDTAB
  0
TABLE
  2
DIMSTYLE
  5
4
330
0
100
AcDbSymbolTable
 70
1
100
AcDbDimStyleTable
  0
DIMSTYLE
105
2B
330
4
100
AcDbSymbolTableRecord
100
AcDbDimStyleTableRecord
  2
Standard
 70
0
 40
1.0
 41
2.5
 42
0.625
 43
3.75
 44
1.25
 45
0.0
 46
0.0
 47
0.0
 48
0.0
 49
2.5
140
2.5
141
2.5
142
0.0
143
0.03937007874
144
1.0
145
0.0
146
1.0
147
0.625
148
0.0
 69
0
 70
0
 71
0
 72
0
 73
0
 74
0
 75
0
 76
0
 77
1
 78
8
 79
3
170
0
171
3
172
1
173
0
174
0
175
0
176
0
177
0
178
0
179
2
271
2
272
2
273
2
274
3
275
0
276
0
277
2
278
44
279
0
280
0
281
0
282
0
283
0
284
8
285
0
286
0
288
0
289
3
290
0
371
-2
372
-2
  0
ENDTAB
  0
TABLE
  2
BLOCK_RECORD
  5
9
330
0
100
AcDbSymbolTable
 70
2
  0
BLOCK_RECORD
  5
17
330
9
100
AcDbSymbolTableRecord
100
AcDbBlockTableRecord
  2
*Model_Space
340
1A
 70
0
280
1
281
0
  0
BLOCK_RECORD
  5
1B
330
9
100
AcDbSymbolTableRecord
100
AcDbBlockTableRecord
  2
*Paper_Space
340
1E
 70
0
280
1
281
0
  0
ENDTAB
  0
ENDSEC
  0
SECTION
  2
BLOCKS
  0
BLOCK
  5
18
330
17
100
AcDbEntity
  8
0
100
AcDbBlockBegin
  2
*Model_Space
 70
0
 10
0.0
 20
0.0
 30
0.0
  3
*Model_Space
  1

  0
ENDBLK
  5
19
330
17
100
AcDbEntity
  8
0
100
AcDbBlockEnd
  0
BLOCK
  5
1C
330
1B
100
AcDbEntity
  8
0
100
AcDbBlockBegin
  2
*Paper_Space
 70
0
 10
0.0
 20
0.0
 30
0.0
  3
*Paper_Space
  1

  0
ENDBLK
  5
1D
330
1B
100
AcDbEntity
  8
0
100
AcDbBlockEnd
  0
ENDSEC
  0
SECTION
  2
ENTITIES
  0
LWPOLYLINE
  5
2F
330
17
100
AcDbEntity
  8
0
100
AcDbPolyline
 90
5
 70
1
 10
0.0
 20
0.0
 10
650.0
 20
0.0
 10
650.0
 20
1250.0
 10
0.0
 20
1250.0
 10
0.0
 20
0.0
  0
LWPOLYLINE
  5
30
330
17
100
AcDbEntity
  8
0
100
AcDbPolyline
 90
5
 70
1
 10
0.0
 20
0.0
 10
104.0
 20
0.0
 10
104.0
 20
207.0
 10
0.0
 20
207.0
 10
0.0
 20
0.0
  0
MTEXT
  5
31
330
17
100
AcDbEntity
  8
0
100
AcDbMText
 10
52.0
 20
103.5
 30
0.0
 40
5.0
 71
5
  1
Plastic Sheet\P8.0kg\PPlastic\P(Stack: 2x)
  0
LWPOLYLINE
  5
32
330
17
100
AcDbEntity
  8
0
100
AcDbPolyline
 90
5
 70
1
 10
119.0
 20
0.0
 10
184.0
 20
0.0
 10
184.0
 20
131.0
 10
119.0
 20
131.0
 10
119.0
 20
0.0
  0
MTEXT
  5
33
330
17
100
AcDbEntity
  8
0
100
AcDbMText
 10
151.5
 20
65.5
 30
0.0
 40
5.0
 71
5
  1
Concrete Slab\P80.0kg\PConcrete
  0
LWPOLYLINE
  5
34
330
17
100
AcDbEntity
  8
0
100
AcDbPolyline
 90
5
 70
1
 10
0.0
 20
222.0
 10
65.0
 20
222.0
 10
65.0
 20
353.0
 10
0.0
 20
353.0
 10
0.0
 20
222.0
  0
MTEXT
  5
35
330
17
100
AcDbEntity
  8
0
100
AcDbMText
 10
32.5
 20
287.5
 30
0.0
 40
5.0
 71
5
  1
Wood Frame\P8.0kg\PWood
  0
LWPOLYLINE
  5
36
330
17
100
AcDbEntity
  8
0
100
AcDbPolyline
 90
5
 70
1
 10
199.0
 20
0.0
 10
253.0
 20
0.0
 10
253.0
 20
108.0
 10
199.0
 20
108.0
 10
199.0
 20
0.0
  0
MTEXT
  5
37
330
17
100
AcDbEntity
  8
0
100
AcDbMText
 10
226.0
 20
54.0
 30
0.0
 40
5.0
 71
5
  1
Concrete Slab\P80.0kg\PConcrete
  0
LWPOLYLINE
  5
38
330
17
100
AcDbEntity
  8
0
100
AcDbPolyline
 90
5
 70
1
 10
119.0
 20
146.0
 10
160.0
 20
146.0
 10
160.0
 20
227.0
 10
119.0
 20
227.0
 10
119.0
 20
146.0
  0
MTEXT
  5
39
330
17
100
AcDbEntity
  8
0
100
AcDbMText
 10
139.5
 20
186.5
 30
0.0
 40
5.0
 71
5
  1
Concrete Block\P30.0kg\PConcrete\P(Stack: 8x)
  0
LWPOLYLINE
  5
3A
330
17
100
AcDbEntity
  8
0
100
AcDbPolyline
 90
5
 70
1
 10
0.0
 20
368.0
 10
47.0
 20
368.0
 10
47.0
 20
415.0
 10
0.0
 20
415.0
 10
0.0
 20
368.0
  0
MTEXT
  5
3B
330
17
100
AcDbEntity
  8
0
100
AcDbMText
 10
23.5
 20
391.5
 30
0.0
 40
5.0
 71
5
  1
Plastic Bin\P4.0kg\PPlastic\P(Stack: 4x)
  0
LWPOLYLINE
  5
3C
330
17
100
AcDbEntity
  8
0
100
AcDbPolyline
 90
5
 70
1
 10
268.0
 20
0.0
 10
298.0
 20
0.0
 10
298.0
 20
403.0
 10
268.0
 20
403.0
 10
268.0
 20
0.0
  0
MTEXT
  5
3D
330
17
100
AcDbEntity
  8
0
100
AcDbMText
 10
283.0
 20
201.5
 30
0.0
 40
5.0
 71
5
  1
Steel Beam\P45.0kg\PSteel
  0
LWPOLYLINE
  5
3E
330
17
100
AcDbEntity
  8
0
100
AcDbPolyline
 90
5
 70
1
 10
199.0
 20
123.0
 10
236.0
 20
123.0
 10
236.0
 20
197.0
 10
199.0
 20
197.0
 10
199.0
 20
123.0
  0
MTEXT
  5
3F
330
17
100
AcDbEntity
  8
0
100
AcDbMText
 10
217.5
 20
160.0
 30
0.0
 40
5.0
 71
5
  1
Concrete Block\P30.0kg\PConcrete\P(Stack: 8x)
  0
LWPOLYLINE
  5
40
330
17
100
AcDbEntity
  8
0
100
AcDbPolyline
 90
5
 70
1
 10
119.0
 20
242.0
 10
162.0
 20
242.0
 10
162.0
 20
329.0
 10
119.0
 20
329.0
 10
119.0
 20
242.0
  0
MTEXT
  5
41
330
17
100
AcDbEntity
  8
0
100
AcDbMText
 10
140.5
 20
285.5
 30
0.0
 40
5.0
 71
5
  1
Steel Rebar Bundle\P35.0kg\PSteel\P(Stack: 6x)
  0
LWPOLYLINE
  5
42
330
17
100
AcDbEntity
  8
0
100
AcDbPolyline
 90
5
 70
1
 10
62.0
 20
368.0
 10
117.0
 20
368.0
 10
117.0
 20
479.0
 10
62.0
 20
479.0
 10
62.0
 20
368.0
  0
MTEXT
  5
43
330
17
100
AcDbEntity
  8
0
100
AcDbMText
 10
89.5
 20
423.5
 30
0.0
 40
5.0
 71
5
  1
Concrete Slab\P80.0kg\PConcrete
  0
LWPOLYLINE
  5
44
330
17
100
AcDbEntity
  8
0
100
AcDbPolyline
 90
5
 70
1
 10
313.0
 20
0.0
 10
367.0
 20
0.0
 10
367.0
 20
54.0
 10
313.0
 20
54.0
 10
313.0
 20
0.0
  0
MTEXT
  5
45
330
17
100
AcDbEntity
  8
0
100
AcDbMText
 10
340.0
 20
27.0
 30
0.0
 40
5.0
 71
5
  1
Concrete Tile\P15.0kg\PConcrete\P(Stack: 12x)
  0
LWPOLYLINE
  5
46
330
17
100
AcDbEntity
  8
0
100
AcDbPolyline
 90
5
 70
1
 10
0.0
 20
430.0
 10
25.0
 20
430.0
 10
25.0
 20
728.0
 10
0.0
 20
728.0
 10
0.0
 20
430.0
  0
MTEXT
  5
47
330
17
100
AcDbEntity
  8
0
100
AcDbMText
 10
12.5
 20
579.0
 30
0.0
 40
5.0
 71
5
  1
Wood Plank\P12.0kg\PWood
  0
LWPOLYLINE
  5
48
330
17
100
AcDbEntity
  8
0
100
AcDbPolyline
 90
5
 70
1
 10
268.0
 20
418.0
 10
315.0
 20
418.0
 10
315.0
 20
513.0
 10
268.0
 20
513.0
 10
268.0
 20
418.0
  0
MTEXT
  5
49
330
17
100
AcDbEntity
  8
0
100
AcDbMText
 10
291.5
 20
465.5
 30
0.0
 40
5.0
 71
5
  1
Steel Plate\P25.0kg\PSteel\P(Stack: 10x)
  0
LWPOLYLINE
  5
4A
330
17
100
AcDbEntity
  8
0
100
AcDbPolyline
 90
5
 70
1
 10
199.0
 20
212.0
 10
242.0
 20
212.0
 10
242.0
 20
299.0
 10
199.0
 20
299.0
 10
199.0
 20
212.0
  0
MTEXT
  5
4B
330
17
100
AcDbEntity
  8
0
100
AcDbMText
 10
220.5
 20
255.5
 30
0.0
 40
5.0
 71
5
  1
Concrete Block\P30.0kg\PConcrete\P(Stack: 2x)
  0
LWPOLYLINE
  5
4C
330
17
100
AcDbEntity
  8
0
100
AcDbPolyline
 90
5
 70
1
 10
132.0
 20
368.0
 10
161.0
 20
368.0
 10
161.0
 20
756.0
 10
132.0
 20
756.0
 10
132.0
 20
368.0
  0
MTEXT
  5
4D
330
17
100
AcDbEntity
  8
0
100
AcDbMText
 10
146.5
 20
562.0
 30
0.0
 40
5.0
 71
5
  1
Steel Beam\P45.0kg\PSteel\P(Stack: 4x)
  0
LWPOLYLINE
  5
4E
330
17
100
AcDbEntity
  8
0
100
AcDbPolyline
 90
5
 70
1
 10
62.0
 20
494.0
 10
117.0
 20
494.0
 10
117.0
 20
603.0
 10
62.0
 20
603.0
 10
62.0
 20
494.0
  0
MTEXT
  5
4F
330
17
100
AcDbEntity
  8
0
100
AcDbMText
 10
89.5
 20
548.5
 30
0.0
 40
5.0
 71
5
  1
Wood Frame\P8.0kg\PWood\P(Stack: 2x)
  0
LWPOLYLINE
  5
50
330
17
100
AcDbEntity
  8
0
100
AcDbPolyline
 90
5
 70
1
 10
382.0
 20
0.0
 10
446.0
 20
0.0
 10
446.0
 20
127.0
 10
382.0
 20
127.0
 10
382.0
 20
0.0
  0
MTEXT
  5
51
330
17
100
AcDbEntity
  8
0
100
AcDbMText
 10
414.0
 20
63.5
 30
0.0
 40
5.0
 71
5
  1
Wood Frame\P8.0kg\PWood\P(Stack: 20x)
  0
LWPOLYLINE
  5
52
330
17
100
AcDbEntity
  8
0
100
AcDbPolyline
 90
5
 70
1
 10
0.0
 20
743.0
 10
63.0
 20
743.0
 10
63.0
 20
869.0
 10
0.0
 20
869.0
 10
0.0
 20
743.0
  0
MTEXT
  5
53
330
17
100
AcDbEntity
  8
0
100
AcDbMText
 10
31.5
 20
806.0
 30
0.0
 40
5.0
 71
5
  1
Concrete Slab\P80.0kg\PConcrete\P(Stack: 3x)
  0
LWPOLYLINE
  5
54
330
17
100
AcDbEntity
  8
0
100
AcDbPolyline
 90
5
 70
1
 10
313.0
 20
69.0
 10
334.0
 20
69.0
 10
334.0
 20
388.0
 10
313.0
 20
388.0
 10
313.0
 20
69.0
  0
MTEXT
  5
55
330
17
100
AcDbEntity
  8
0
100
AcDbMText
 10
323.5
 20
228.5
 30
0.0
 40
5.0
 71
5
  1
Steel Pipe\P15.0kg\PSteel
  0
LWPOLYLINE
  5
56
330
17
100
AcDbEntity
  8
0
100
AcDbPolyline
 90
5
 70
1
 10
330.0
 20
418.0
 10
373.0
 20
418.0
 10
373.0
 20
505.0
 10
330.0
 20
505.0
 10
330.0
 20
418.0
  0
MTEXT
  5
57
330
17
100
AcDbEntity
  8
0
100
AcDbMText
 10
351.5
 20
461.5
 30
0.0
 40
5.0
 71
5
  1
Steel Rebar Bundle\P35.0kg\PSteel\P(Stack: 6x)
  0
LWPOLYLINE
  5
58
330
17
100
AcDbEntity
  8
0
100
AcDbPolyline
 90
5
 70
1
 10
268.0
 20
528.0
 10
319.0
 20
528.0
 10
319.0
 20
579.0
 10
268.0
 20
579.0
 10
268.0
 20
528.0
  0
MTEXT
  5
59
330
17
100
AcDbEntity
  8
0
100
AcDbMText
 10
293.5
 20
553.5
 30
0.0
 40
5.0
 71
5
  1
Concrete Tile\P15.0kg\PConcrete\P(Stack: 12x)
  0
LWPOLYLINE
  5
5A
330
17
100
AcDbEntity
  8
0
100
AcDbPolyline
 90
5
 70
1
 10
199.0
 20
314.0
 10
228.0
 20
314.0
 10
228.0
 20
411.0
 10
199.0
 20
411.0
 10
199.0
 20
314.0
  0
MTEXT
  5
5B
330
17
100
AcDbEntity
  8
0
100
AcDbMText
 10
213.5
 20
362.5
 30
0.0
 40
5.0
 71
5
  1
Concrete Pipe\P45.0kg\PConcrete\P(Stack: 5x)
  0
LWPOLYLINE
  5
5C
330
17
100
AcDbEntity
  8
0
100
AcDbPolyline
 90
5
 70
1
 10
132.0
 20
771.0
 10
184.0
 20
771.0
 10
184.0
 20
823.0
 10
132.0
 20
823.0
 10
132.0
 20
771.0
  0
MTEXT
  5
5D
330
17
100
AcDbEntity
  8
0
100
AcDbMText
 10
158.0
 20
797.0
 30
0.0
 40
5.0
 71
5
  1
Concrete Tile\P15.0kg\PConcrete\P(Stack: 12x)
  0
LWPOLYLINE
  5
5E
330
17
100
AcDbEntity
  8
0
100
AcDbPolyline
 90
5
 70
1
 10
62.0
 20
618.0
 10
91.0
 20
618.0
 10
91.0
 20
716.0
 10
62.0
 20
716.0
 10
62.0
 20
618.0
  0
MTEXT
  5
5F
330
17
100
AcDbEntity
  8
0
100
AcDbMText
 10
76.5
 20
667.0
 30
0.0
 40
5.0
 71
5
  1
Concrete Pipe\P45.0kg\PConcrete\P(Stack: 5x)
  0
LWPOLYLINE
  5
60
330
17
100
AcDbEntity
  8
0
100
AcDbPolyline
 90
5
 70
1
 10
461.0
 20
0.0
 10
483.0
 20
0.0
 10
483.0
 20
329.0
 10
461.0
 20
329.0
 10
461.0
 20
0.0
  0
MTEXT
  5
61
330
17
100
AcDbEntity
  8
0
100
AcDbMText
 10
472.0
 20
164.5
 30
0.0
 40
5.0
 71
5
  1
Steel Pipe\P15.0kg\PSteel\P(Stack: 8x)
  0
LWPOLYLINE
  5
62
330
17
100
AcDbEntity
  8
0
100
AcDbPolyline
 90
5
 70
1
 10
0.0
 20
884.0
 10
65.0
 20
884.0
 10
65.0
 20
1014.0
 10
0.0
 20
1014.0
 10
0.0
 20
884.0
  0
MTEXT
  5
63
330
17
100
AcDbEntity
  8
0
100
AcDbMText
 10
32.5
 20
949.0
 30
0.0
 40
5.0
 71
5
  1
Concrete Slab\P80.0kg\PConcrete
  0
LWPOLYLINE
  5
64
330
17
100
AcDbEntity
  8
0
100
AcDbPolyline
 90
5
 70
1
 10
382.0
 20
142.0
 10
420.0
 20
142.0
 10
420.0
 20
199.0
 10
382.0
 20
199.0
 10
382.0
 20
142.0
  0
MTEXT
  5
65
330
17
100
AcDbEntity
  8
0
100
AcDbMText
 10
401.0
 20
170.5
 30
0.0
 40
5.0
 71
5
  1
Plastic Container\P5.0kg\PPlastic\P(Stack: 20x)
  0
LWPOLYLINE
  5
66
330
17
100
AcDbEntity
  8
0
100
AcDbPolyline
 90
5
 70
1
 10
388.0
 20
418.0
 10
439.0
 20
418.0
 10
439.0
 20
469.0
 10
388.0
 20
469.0
 10
388.0
 20
418.0
  0
MTEXT
  5
67
330
17
100
AcDbEntity
  8
0
100
AcDbMText
 10
413.5
 20
443.5
 30
0.0
 40
5.0
 71
5
  1
Concrete Tile\P15.0kg\PConcrete\P(Stack: 12x)
  0
LWPOLYLINE
  5
68
330
17
100
AcDbEntity
  8
0
100
AcDbPolyline
 90
5
 70
1
 10
334.0
 20
528.0
 10
399.0
 20
528.0
 10
399.0
 20
657.0
 10
334.0
 20
657.0
 10
334.0
 20
528.0
  0
MTEXT
  5
69
330
17
100
AcDbEntity
  8
0
100
AcDbMText
 10
366.5
 20
592.5
 30
0.0
 40
5.0
 71
5
  1
Wood Frame\P8.0kg\PWood
  0
LWPOLYLINE
  5
6A
330
17
100
AcDbEntity
  8
0
100
AcDbPolyline
 90
5
 70
1
 10
268.0
 20
594.0
 10
316.0
 20
594.0
 10
316.0
 20
690.0
 10
268.0
 20
690.0
 10
268.0
 20
594.0
  0
MTEXT
  5
6B
330
17
100
AcDbEntity
  8
0
100
AcDbMText
 10
292.0
 20
642.0
 30
0.0
 40
5.0
 71
5
  1
Steel Plate\P25.0kg\PSteel
  0
LWPOLYLINE
  5
6C
330
17
100
AcDbEntity
  8
0
100
AcDbPolyline
 90
5
 70
1
 10
199.0
 20
426.0
 10
239.0
 20
426.0
 10
239.0
 20
506.0
 10
199.0
 20
506.0
 10
199.0
 20
426.0
  0
MTEXT
  5
6D
330
17
100
AcDbEntity
  8
0
100
AcDbMText
 10
219.0
 20
466.0
 30
0.0
 40
5.0
 71
5
  1
Steel Rebar Bundle\P35.0kg\PSteel\P(Stack: 6x)
  0
LWPOLYLINE
  5
6E
330
17
100
AcDbEntity
  8
0
100
AcDbPolyline
 90
5
 70
1
 10
199.0
 20
771.0
 10
248.0
 20
771.0
 10
248.0
 20
820.0
 10
199.0
 20
820.0
 10
199.0
 20
771.0
  0
MTEXT
  5
6F
330
17
100
AcDbEntity
  8
0
100
AcDbMText
 10
223.5
 20
795.5
 30
0.0
 40
5.0
 71
5
  1
Plastic Bin\P4.0kg\PPlastic\P(Stack: 30x)
  0
LWPOLYLINE
  5
70
330
17
100
AcDbEntity
  8
0
100
AcDbPolyline
 90
5
 70
1
 10
78.0
 20
743.0
 10
115.0
 20
743.0
 10
115.0
 20
816.0
 10
78.0
 20
816.0
 10
78.0
 20
743.0
  0
MTEXT
  5
71
330
17
100
AcDbEntity
  8
0
100
AcDbMText
 10
96.5
 20
779.5
 30
0.0
 40
5.0
 71
5
  1
Concrete Block\P30.0kg\PConcrete\P(Stack: 8x)
  0
LWPOLYLINE
  5
72
330
17
100
AcDbEntity
  8
0
100
AcDbPolyline
 90
5
 70
1
 10
132.0
 20
838.0
 10
184.0
 20
838.0
 10
184.0
 20
890.0
 10
132.0
 20
890.0
 10
132.0
 20
838.0
  0
MTEXT
  5
73
330
17
100
AcDbEntity
  8
0
100
AcDbMText
 10
158.0
 20
864.0
 30
0.0
 40
5.0
 71
5
  1
Concrete Tile\P15.0kg\PConcrete\P(Stack: 12x)
  0
LWPOLYLINE
  5
74
330
17
100
AcDbEntity
  8
0
100
AcDbPolyline
 90
5
 70
1
 10
498.0
 20
0.0
 10
551.0
 20
0.0
 10
551.0
 20
53.0
 10
498.0
 20
53.0
 10
498.0
 20
0.0
  0
MTEXT
  5
75
330
17
100
AcDbEntity
  8
0
100
AcDbMText
 10
524.5
 20
26.5
 30
0.0
 40
5.0
 71
5
  1
Concrete Tile\P15.0kg\PConcrete\P(Stack: 12x)
  0
LWPOLYLINE
  5
76
330
17
100
AcDbEntity
  8
0
100
AcDbPolyline
 90
5
 70
1
 10
461.0
 20
344.0
 10
518.0
 20
344.0
 10
518.0
 20
458.0
 10
461.0
 20
458.0
 10
461.0
 20
344.0
  0
MTEXT
  5
77
330
17
100
AcDbEntity
  8
0
100
AcDbMText
 10
489.5
 20
401.0
 30
0.0
 40
5.0
 71
5
  1
Concrete Slab\P80.0kg\PConcrete\P(Stack: 3x)
  0
LWPOLYLINE
  5
78
330
17
100
AcDbEntity
  8
0
100
AcDbPolyline
 90
5
 70
1
 10
0.0
 20
1029.0
 10
49.0
 20
1029.0
 10
49.0
 20
1078.0
 10
0.0
 20
1078.0
 10
0.0
 20
1029.0
  0
MTEXT
  5
79
330
17
100
AcDbEntity
  8
0
100
AcDbMText
 10
24.5
 20
1053.5
 30
0.0
 40
5.0
 71
5
  1
Concrete Tile\P15.0kg\PConcrete\P(Stack: 12x)
  0
LWPOLYLINE
  5
7A
330
17
100
AcDbEntity
  8
0
100
AcDbPolyline
 90
5
 70
1
 10
80.0
 20
884.0
 10
117.0
 20
884.0
 10
117.0
 20
957.0
 10
80.0
 20
957.0
 10
80.0
 20
884.0
  0
MTEXT
  5
7B
330
17
100
AcDbEntity
  8
0
100
AcDbMText
 10
98.5
 20
920.5
 30
0.0
 40
5.0
 71
5
  1
Concrete Block\P30.0kg\PConcrete\P(Stack: 8x)
  0
LWPOLYLINE
  5
7C
330
17
100
AcDbEntity
  8
0
100
AcDbPolyline
 90
5
 70
1
 10
414.0
 20
528.0
 10
443.0
 20
528.0
 10
443.0
 20
913.0
 10
414.0
 20
913.0
 10
414.0
 20
528.0
  0
MTEXT
  5
7D
330
17
100
AcDbEntity
  8
0
100
AcDbMText
 10
428.5
 20
720.5
 30
0.0
 40
5.0
 71
5
  1
Steel Beam\P45.0kg\PSteel\P(Stack: 3x)
  0
LWPOLYLINE
  5
7E
330
17
100
AcDbEntity
  8
0
100
AcDbPolyline
 90
5
 70
1
 10
382.0
 20
214.0
 10
433.0
 20
214.0
 10
433.0
 20
265.0
 10
382.0
 20
265.0
 10
382.0
 20
214.0
  0
MTEXT
  5
7F
330
17
100
AcDbEntity
  8
0
100
AcDbMText
 10
407.5
 20
239.5
 30
0.0
 40
5.0
 71
5
  1
Concrete Tile\P15.0kg\PConcrete\P(Stack: 12x)
  0
LWPOLYLINE
  5
80
330
17
100
AcDbEntity
  8
0
100
AcDbPolyline
 90
5
 70
1
 10
334.0
 20
672.0
 10
386.0
 20
672.0
 10
386.0
 20
776.0
 10
334.0
 20
776.0
 10
334.0
 20
672.0
  0
MTEXT
  5
81
330
17
100
AcDbEntity
  8
0
100
AcDbMText
 10
360.0
 20
724.0
 30
0.0
 40
5.0
 71
5
  1
Steel Plate\P25.0kg\PSteel\P(Stack: 10x)
  0
LWPOLYLINE
  5
82
330
17
100
AcDbEntity
  8
0
100
AcDbPolyline
 90
5
 70
1
 10
199.0
 20
835.0
 10
305.0
 20
835.0
 10
305.0
 20
1048.0
 10
199.0
 20
1048.0
 10
199.0
 20
835.0
  0
MTEXT
  5
83
330
17
100
AcDbEntity
  8
0
100
AcDbMText
 10
252.0
 20
941.5
 30
0.0
 40
5.0
 71
5
  1
Plastic Sheet\P8.0kg\PPlastic
  0
LWPOLYLINE
  5
84
330
17
100
AcDbEntity
  8
0
100
AcDbPolyline
 90
5
 70
1
 10
566.0
 20
0.0
 10
598.0
 20
0.0
 10
598.0
 20
420.0
 10
566.0
 20
420.0
 10
566.0
 20
0.0
  0
MTEXT
  5
85
330
17
100
AcDbEntity
  8
0
100
AcDbMText
 10
582.0
 20
210.0
 30
0.0
 40
5.0
 71
5
  1
Steel Beam\P45.0kg\PSteel\P(Stack: 3x)
  0
LWPOLYLINE
  5
86
330
17
100
AcDbEntity
  8
0
100
AcDbPolyline
 90
5
 70
1
 10
388.0
 20
484.0
 10
486.0
 20
484.0
 10
486.0
 20
513.0
 10
388.0
 20
513.0
 10
388.0
 20
484.0
  0
MTEXT
  5
87
330
17
100
AcDbEntity
  8
0
100
AcDbMText
 10
437.0
 20
498.5
 30
0.0
 40
5.0
 71
5
  1
Concrete Pipe\P45.0kg\PConcrete\P(Stack: 5x)
  0
LWPOLYLINE
  5
88
330
17
100
AcDbEntity
  8
0
100
AcDbPolyline
 90
5
 70
1
 10
132.0
 20
905.0
 10
157.0
 20
905.0
 10
157.0
 20
1207.0
 10
132.0
 20
1207.0
 10
132.0
 20
905.0
  0
MTEXT
  5
89
330
17
100
AcDbEntity
  8
0
100
AcDbMText
 10
144.5
 20
1056.0
 30
0.0
 40
5.0
 71
5
  1
Wood Plank\P12.0kg\PWood\P(Stack: 2x)
  0
LWPOLYLINE
  5
8A
330
17
100
AcDbEntity
  8
0
100
AcDbPolyline
 90
5
 70
1
 10
0.0
 20
1093.0
 10
58.0
 20
1093.0
 10
58.0
 20
1210.0
 10
0.0
 20
1210.0
 10
0.0
 20
1093.0
  0
MTEXT
  5
8B
330
17
100
AcDbEntity
  8
0
100
AcDbMText
 10
29.0
 20
1151.5
 30
0.0
 40
5.0
 71
5
  1
Wood Frame\P8.0kg\PWood\P(Stack: 20x)
  0
LWPOLYLINE
  5
8C
330
17
100
AcDbEntity
  8
0
100
AcDbPolyline
 90
5
 70
1
 10
132.5
 20
368.5
 10
161.5
 20
368.5
 10
161.5
 20
756.5
 10
132.5
 20
756.5
 10
132.5
 20
368.5
  0
MTEXT
  5
8D
330
17
100
AcDbEntity
  8
0
100
AcDbMText
 10
147.0
 20
562.5
 30
0.0
 40
5.0
 71
5
  1
Steel Beam\P45.0kg\PSteel\P(Stack: 2x)
  0
LWPOLYLINE
  5
8E
330
17
100
AcDbEntity
  8
0
100
AcDbPolyline
 90
5
 70
1
 10
0.5
 20
1093.5
 10
58.5
 20
1093.5
 10
58.5
 20
1210.5
 10
0.5
 20
1210.5
 10
0.5
 20
1093.5
  0
MTEXT
  5
8F
330
17
100
AcDbEntity
  8
0
100
AcDbMText
 10
29.5
 20
1152.0
 30
0.0
 40
5.0
 71
5
  1
Wood Frame\P8.0kg\PWood\P(Stack: 20x)
  0
LWPOLYLINE
  5
90
330
17
100
AcDbEntity
  8
0
100
AcDbPolyline
 90
5
 70
1
 10
268.0
 20
705.0
 10
305.0
 20
705.0
 10
305.0
 20
779.0
 10
268.0
 20
779.0
 10
268.0
 20
705.0
  0
MTEXT
  5
91
330
17
100
AcDbEntity
  8
0
100
AcDbMText
 10
286.5
 20
742.0
 30
0.0
 40
5.0
 71
5
  1
Steel Rebar Bundle\P35.0kg\PSteel\P(Stack: 2x)
  0
LWPOLYLINE
  5
92
330
17
100
AcDbEntity
  8
0
100
AcDbPolyline
 90
5
 70
1
 10
199.0
 20
521.0
 10
253.0
 20
521.0
 10
253.0
 20
575.0
 10
199.0
 20
575.0
 10
199.0
 20
521.0
  0
MTEXT
  5
93
330
17
100
AcDbEntity
  8
0
100
AcDbMText
 10
226.0
 20
548.0
 30
0.0
 40
5.0
 71
5
  1
Concrete Tile\P15.0kg\PConcrete\P(Stack: 12x)
  0
LWPOLYLINE
  5
94
330
17
100
AcDbEntity
  8
0
100
AcDbPolyline
 90
5
 70
1
 10
498.0
 20
68.0
 10
541.0
 20
68.0
 10
541.0
 20
153.0
 10
498.0
 20
153.0
 10
498.0
 20
68.0
  0
MTEXT
  5
95
330
17
100
AcDbEntity
  8
0
100
AcDbMText
 10
519.5
 20
110.5
 30
0.0
 40
5.0
 71
5
  1
Steel Rebar Bundle\P35.0kg\PSteel\P(Stack: 6x)
  0
LWPOLYLINE
  5
96
330
17
100
AcDbEntity
  8
0
100
AcDbPolyline
 90
5
 70
1
 10
64.0
 20
1029.0
 10
111.0
 20
1029.0
 10
111.0
 20
1076.0
 10
64.0
 20
1076.0
 10
64.0
 20
1029.0
  0
MTEXT
  5
97
330
17
100
AcDbEntity
  8
0
100
AcDbMText
 10
87.5
 20
1052.5
 30
0.0
 40
5.0
 71
5
  1
Concrete Tile\P15.0kg\PConcrete\P(Stack: 12x)
  0
LWPOLYLINE
  5
98
330
17
100
AcDbEntity
  8
0
100
AcDbPolyline
 90
5
 70
1
 10
458.0
 20
528.0
 10
559.0
 20
528.0
 10
559.0
 20
730.0
 10
458.0
 20
730.0
 10
458.0
 20
528.0
  0
MTEXT
  5
99
330
17
100
AcDbEntity
  8
0
100
AcDbMText
 10
508.5
 20
629.0
 30
0.0
 40
5.0
 71
5
  1
Plastic Sheet\P8.0kg\PPlastic\P(Stack: 2x)
  0
LWPOLYLINE
  5
9A
330
17
100
AcDbEntity
  8
0
100
AcDbPolyline
 90
5
 70
1
 10
414.0
 20
928.0
 10
455.0
 20
928.0
 10
455.0
 20
1011.0
 10
414.0
 20
1011.0
 10
414.0
 20
928.0
  0
MTEXT
  5
9B
330
17
100
AcDbEntity
  8
0
100
AcDbMText
 10
434.5
 20
969.5
 30
0.0
 40
5.0
 71
5
  1
Concrete Block\P30.0kg\PConcrete\P(Stack: 2x)
  0
LWPOLYLINE
  5
9C
330
17
100
AcDbEntity
  8
0
100
AcDbPolyline
 90
5
 70
1
 10
62.5
 20
494.5
 10
117.5
 20
494.5
 10
117.5
 20
603.5
 10
62.5
 20
603.5
 10
62.5
 20
494.5
  0
MTEXT
  5
9D
330
17
100
AcDbEntity
  8
0
100
AcDbMText
 10
90.0
 20
549.0
 30
0.0
 40
5.0
 71
5
  1
Wood Frame\P8.0kg\PWood\P(Stack: 2x)
  0
LWPOLYLINE
  5
9E
330
17
100
AcDbEntity
  8
0
100
AcDbPolyline
 90
5
 70
1
 10
461.5
 20
344.5
 10
518.5
 20
344.5
 10
518.5
 20
458.5
 10
461.5
 20
458.5
 10
461.5
 20
344.5
  0
MTEXT
  5
9F
330
17
100
AcDbEntity
  8
0
100
AcDbMText
 10
490.0
 20
401.5
 30
0.0
 40
5.0
 71
5
  1
Concrete Slab\P80.0kg\PConcrete\P(Stack: 2x)
  0
LWPOLYLINE
  5
A0
330
17
100
AcDbEntity
  8
0
100
AcDbPolyline
 90
5
 70
1
 10
334.0
 20
791.0
 10
365.0
 20
791.0
 10
365.0
 20
1209.0
 10
334.0
 20
1209.0
 10
334.0
 20
791.0
  0
MTEXT
  5
A1
330
17
100
AcDbEntity
  8
0
100
AcDbMText
 10
349.5
 20
1000.0
 30
0.0
 40
5.0
 71
5
  1
Steel Beam\P45.0kg\PSteel\P(Stack: 2x)
  0
LWPOLYLINE
  5
A2
330
17
100
AcDbEntity
  8
0
100
AcDbPolyline
 90
5
 70
1
 10
382.0
 20
280.0
 10
437.0
 20
280.0
 10
437.0
 20
390.0
 10
382.0
 20
390.0
 10
382.0
 20
280.0
  0
MTEXT
  5
A3
330
17
100
AcDbEntity
  8
0
100
AcDbMText
 10
409.5
 20
335.0
 30
0.0
 40
5.0
 71
5
  1
Wood Frame\P8.0kg\PWood
  0
LWPOLYLINE
  5
A4
330
17
100
AcDbEntity
  8
0
100
AcDbPolyline
 90
5
 70
1
 10
349.0
 20
69.0
 10
363.0
 20
69.0
 10
363.0
 20
250.0
 10
349.0
 20
250.0
 10
349.0
 20
69.0
  0
MTEXT
  5
A5
330
17
100
AcDbEntity
  8
0
100
AcDbMText
 10
356.0
 20
159.5
 30
0.0
 40
5.0
 71
5
  1
Plastic Pipe\P3.0kg\PPlastic\P(Stack: 2x)
  0
LWPOLYLINE
  5
A6
330
17
100
AcDbEntity
  8
0
100
AcDbPolyline
 90
5
 70
1
 10
199.0
 20
1063.0
 10
247.0
 20
1063.0
 10
247.0
 20
1160.0
 10
199.0
 20
1160.0
 10
199.0
 20
1063.0
  0
MTEXT
  5
A7
330
17
100
AcDbEntity
  8
0
100
AcDbMText
 10
223.0
 20
1111.5
 30
0.0
 40
5.0
 71
5
  1
Steel Plate\P25.0kg\PSteel
  0
LWPOLYLINE
  5
A8
330
17
100
AcDbEntity
  8
0
100
AcDbPolyline
 90
5
 70
1
 10
566.0
 20
435.0
 10
602.0
 20
435.0
 10
602.0
 20
507.0
 10
566.0
 20
507.0
 10
566.0
 20
435.0
  0
MTEXT
  5
A9
330
17
100
AcDbEntity
  8
0
100
AcDbMText
 10
584.0
 20
471.0
 30
0.0
 40
5.0
 71
5
  1
Steel Rebar Bundle\P35.0kg\PSteel\P(Stack: 4x)
  0
LWPOLYLINE
  5
AA
330
17
100
AcDbEntity
  8
0
100
AcDbPolyline
 90
5
 70
1
 10
458.0
 20
745.0
 10
524.0
 20
745.0
 10
524.0
 20
876.0
 10
458.0
 20
876.0
 10
458.0
 20
745.0
  0
MTEXT
  5
AB
330
17
100
AcDbEntity
  8
0
100
AcDbMText
 10
491.0
 20
810.5
 30
0.0
 40
5.0
 71
5
  1
Wood Frame\P8.0kg\PWood\P(Stack: 20x)
  0
LWPOLYLINE
  5
AC
330
17
100
AcDbEntity
  8
0
100
AcDbPolyline
 90
5
 70
1
 10
73.0
 20
1093.0
 10
112.0
 20
1093.0
 10
112.0
 20
1152.0
 10
73.0
 20
1152.0
 10
73.0
 20
1093.0
  0
MTEXT
  5
AD
330
17
100
AcDbEntity
  8
0
100
AcDbMText
 10
92.5
 20
1122.5
 30
0.0
 40
5.0
 71
5
  1
Plastic Container\P5.0kg\PPlastic\P(Stack: 20x)
  0
LWPOLYLINE
  5
AE
330
17
100
AcDbEntity
  8
0
100
AcDbPolyline
 90
5
 70
1
 10
199.0
 20
590.0
 10
248.0
 20
590.0
 10
248.0
 20
639.0
 10
199.0
 20
639.0
 10
199.0
 20
590.0
  0
MTEXT
  5
AF
330
17
100
AcDbEntity
  8
0
100
AcDbMText
 10
223.5
 20
614.5
 30
0.0
 40
5.0
 71
5
  1
Concrete Tile\P15.0kg\PConcrete\P(Stack: 12x)
  0
LWPOLYLINE
  5
B0
330
17
100
AcDbEntity
  8
0
100
AcDbPolyline
 90
5
 70
1
 10
498.0
 20
168.0
 10
541.0
 20
168.0
 10
541.0
 20
253.0
 10
498.0
 20
253.0
 10
498.0
 20
168.0
  0
MTEXT
  5
B1
330
17
100
AcDbEntity
  8
0
100
AcDbMText
 10
519.5
 20
210.5
 30
0.0
 40
5.0
 71
5
  1
Concrete Block\P30.0kg\PConcrete\P(Stack: 2x)
  0
LWPOLYLINE
  5
B2
330
17
100
AcDbEntity
  8
0
100
AcDbPolyline
 90
5
 70
1
 10
414.5
 20
528.5
 10
443.5
 20
528.5
 10
443.5
 20
913.5
 10
414.5
 20
913.5
 10
414.5
 20
528.5
  0
MTEXT
  5
B3
330
17
100
AcDbEntity
  8
0
100
AcDbMText
 10
429.0
 20
721.0
 30
0.0
 40
5.0
 71
5
  1
Steel Beam\P45.0kg\PSteel\P(Stack: 2x)
  0
LWPOLYLINE
  5
B4
330
17
100
AcDbEntity
  8
0
100
AcDbPolyline
 90
5
 70
1
 10
613.0
 20
0.0
 10
632.0
 20
0.0
 10
632.0
 20
291.0
 10
613.0
 20
291.0
 10
613.0
 20
0.0
  0
MTEXT
  5
B5
330
17
100
AcDbEntity
  8
0
100
AcDbMText
 10
622.5
 20
145.5
 30
0.0
 40
5.0
 71
5
  1
Steel Pipe\P15.0kg\PSteel\P(Stack: 3x)
  0
LWPOLYLINE
  5
B6
330
17
100
AcDbEntity
  8
0
100
AcDbPolyline
 90
5
 70
1
 10
574.0
 20
528.0
 10
623.0
 20
528.0
 10
623.0
 20
577.0
 10
574.0
 20
577.0
 10
574.0
 20
528.0
  0
MTEXT
  5
B7
330
17
100
AcDbEntity
  8
0
100
AcDbMText
 10
598.5
 20
552.5
 30
0.0
 40
5.0
 71
5
  1
Plastic Bin\P4.0kg\PPlastic\P(Stack: 30x)
  0
LWPOLYLINE
  5
B8
330
17
100
AcDbEntity
  8
0
100
AcDbPolyline
 90
5
 70
1
 10
566.5
 20
0.5
 10
598.5
 20
0.5
 10
598.5
 20
420.5
 10
566.5
 20
420.5
 10
566.5
 20
0.5
  0
MTEXT
  5
B9
330
17
100
AcDbEntity
  8
0
100
AcDbMText
 10
582.5
 20
210.5
 30
0.0
 40
5.0
 71
5
  1
Steel Beam\P45.0kg\PSteel\P(Stack: 2x)
  0
LWPOLYLINE
  5
BA
330
17
100
AcDbEntity
  8
0
100
AcDbPolyline
 90
5
 70
1
 10
539.0
 20
745.0
 10
569.0
 20
745.0
 10
569.0
 20
1150.0
 10
539.0
 20
1150.0
 10
539.0
 20
745.0
  0
MTEXT
  5
BB
330
17
100
AcDbEntity
  8
0
100
AcDbMText
 10
554.0
 20
947.5
 30
0.0
 40
5.0
 71
5
  1
Steel Beam\P45.0kg\PSteel
  0
LWPOLYLINE
  5
BC
330
17
100
AcDbEntity
  8
0
100
AcDbPolyline
 90
5
 70
1
 10
584.0
 20
745.0
 10
616.0
 20
745.0
 10
616.0
 20
1175.0
 10
584.0
 20
1175.0
 10
584.0
 20
745.0
  0
MTEXT
  5
BD
330
17
100
AcDbEntity
  8
0
100
AcDbMText
 10
600.0
 20
960.0
 30
0.0
 40
5.0
 71
5
  1
Steel Beam\P45.0kg\PSteel\P(Stack: 5x)
  0
LWPOLYLINE
  5
BE
330
17
100
AcDbEntity
  8
0
100
AcDbPolyline
 90
5
 70
1
 10
470.0
 20
928.0
 10
516.0
 20
928.0
 10
516.0
 20
1020.0
 10
470.0
 20
1020.0
 10
470.0
 20
928.0
  0
MTEXT
  5
BF
330
17
100
AcDbEntity
  8
0
100
AcDbMText
 10
493.0
 20
974.0
 30
0.0
 40
5.0
 71
5
  1
Steel Plate\P25.0kg\PSteel\P(Stack: 10x)
  0
LWPOLYLINE
  5
C0
330
17
100
AcDbEntity
  8
0
100
AcDbPolyline
 90
5
 70
1
 10
262.0
 20
1063.0
 10
318.0
 20
1063.0
 10
318.0
 20
1174.0
 10
262.0
 20
1174.0
 10
262.0
 20
1063.0
  0
MTEXT
  5
C1
330
17
100
AcDbEntity
  8
0
100
AcDbMText
 10
290.0
 20
1118.5
 30
0.0
 40
5.0
 71
5
  1
Concrete Slab\P80.0kg\PConcrete\P(Stack: 3x)
  0
LWPOLYLINE
  5
C2
330
17
100
AcDbEntity
  8
0
100
AcDbPolyline
 90
5
 70
1
 10
414.0
 20
1026.0
 10
454.0
 20
1026.0
 10
454.0
 20
1106.0
 10
414.0
 20
1106.0
 10
414.0
 20
1026.0
  0
MTEXT
  5
C3
330
17
100
AcDbEntity
  8
0
100
AcDbMText
 10
434.0
 20
1066.0
 30
0.0
 40
5.0
 71
5
  1
Concrete Block\P30.0kg\PConcrete\P(Stack: 2x)
  0
LWPOLYLINE
  5
C4
330
17
100
AcDbEntity
  8
0
100
AcDbPolyline
 90
5
 70
1
 10
199.0
 20
1175.0
 10
247.0
 20
1175.0
 10
247.0
 20
1223.0
 10
199.0
 20
1223.0
 10
199.0
 20
1175.0
  0
MTEXT
  5
C5
330
17
100
AcDbEntity
  8
0
100
AcDbMText
 10
223.0
 20
1199.0
 30
0.0
 40
5.0
 71
5
  1
Plastic Bin\P4.0kg\PPlastic\P(Stack: 30x)
  0
LWPOLYLINE
  5
C6
330
17
100
AcDbEntity
  8
0
100
AcDbPolyline
 90
5
 70
1
 10
199.5
 20
123.5
 10
236.5
 20
123.5
 10
236.5
 20
197.5
 10
199.5
 20
197.5
 10
199.5
 20
123.5
  0
MTEXT
  5
C7
330
17
100
AcDbEntity
  8
0
100
AcDbMText
 10
218.0
 20
160.5
 30
0.0
 40
5.0
 71
5
  1
Concrete Block\P30.0kg\PConcrete\P(Stack: 8x)
  0
LWPOLYLINE
  5
C8
330
17
100
AcDbEntity
  8
0
100
AcDbPolyline
 90
5
 70
1
 10
458.5
 20
745.5
 10
524.5
 20
745.5
 10
524.5
 20
876.5
 10
458.5
 20
876.5
 10
458.5
 20
745.5
  0
MTEXT
  5
C9
330
17
100
AcDbEntity
  8
0
100
AcDbMText
 10
491.5
 20
811.0
 30
0.0
 40
5.0
 71
5
  1
Wood Frame\P8.0kg\PWood\P(Stack: 20x)
  0
LWPOLYLINE
  5
CA
330
17
100
AcDbEntity
  8
0
100
AcDbPolyline
 90
5
 70
1
 10
199.0
 20
654.0
 10
228.0
 20
654.0
 10
228.0
 20
751.0
 10
199.0
 20
751.0
 10
199.0
 20
654.0
  0
MTEXT
  5
CB
330
17
100
AcDbEntity
  8
0
100
AcDbMText
 10
213.5
 20
702.5
 30
0.0
 40
5.0
 71
5
  1
Concrete Pipe\P45.0kg\PConcrete\P(Stack: 5x)
  0
LWPOLYLINE
  5
CC
330
17
100
AcDbEntity
  8
0
100
AcDbPolyline
 90
5
 70
1
 10
0.5
 20
368.5
 10
47.5
 20
368.5
 10
47.5
 20
415.5
 10
0.5
 20
415.5
 10
0.5
 20
368.5
  0
MTEXT
  5
CD
330
17
100
AcDbEntity
  8
0
100
AcDbMText
 10
24.0
 20
392.0
 30
0.0
 40
5.0
 71
5
  1
Plastic Bin\P4.0kg\PPlastic\P(Stack: 2x)
  0
LWPOLYLINE
  5
CE
330
17
100
AcDbEntity
  8
0
100
AcDbPolyline
 90
5
 70
1
 10
380.0
 20
791.0
 10
394.0
 20
791.0
 10
394.0
 20
983.0
 10
380.0
 20
983.0
 10
380.0
 20
791.0
  0
MTEXT
  5
CF
330
17
100
AcDbEntity
  8
0
100
AcDbMText
 10
387.0
 20
887.0
 30
0.0
 40
5.0
 71
5
  1
Plastic Pipe\P3.0kg\PPlastic
  0
LWPOLYLINE
  5
D0
330
17
100
AcDbEntity
  8
0
100
AcDbPolyline
 90
5
 70
1
 10
574.0
 20
592.0
 10
628.0
 20
592.0
 10
628.0
 20
646.0
 10
574.0
 20
646.0
 10
574.0
 20
592.0
  0
MTEXT
  5
D1
330
17
100
AcDbEntity
  8
0
100
AcDbMText
 10
601.0
 20
619.0
 30
0.0
 40
5.0
 71
5
  1
Concrete Tile\P15.0kg\PConcrete\P(Stack: 12x)
  0
LWPOLYLINE
  5
D2
330
17
100
AcDbEntity
  8
0
100
AcDbPolyline
 90
5
 70
1
 10
470.0
 20
1035.0
 10
503.0
 20
1035.0
 10
503.0
 20
1144.0
 10
470.0
 20
1144.0
 10
470.0
 20
1035.0
  0
MTEXT
  5
D3
330
17
100
AcDbEntity
  8
0
100
AcDbMText
 10
486.5
 20
1089.5
 30
0.0
 40
5.0
 71
5
  1
Concrete Pipe\P45.0kg\PConcrete\P(Stack: 5x)
  0
LWPOLYLINE
  5
D4
330
17
100
AcDbEntity
  8
0
100
AcDbPolyline
 90
5
 70
1
 10
498.0
 20
268.0
 10
547.0
 20
268.0
 10
547.0
 20
317.0
 10
498.0
 20
317.0
 10
498.0
 20
268.0
  0
MTEXT
  5
D5
330
17
100
AcDbEntity
  8
0
100
AcDbMText
 10
522.5
 20
292.5
 30
0.0
 40
5.0
 71
5
  1
Plastic Bin\P4.0kg\PPlastic\P(Stack: 30x)
  0
LWPOLYLINE
  5
D6
330
17
100
AcDbEntity
  8
0
100
AcDbPolyline
 90
5
 70
1
 10
1.0
 20
369.0
 10
48.0
 20
369.0
 10
48.0
 20
416.0
 10
1.0
 20
416.0
 10
1.0
 20
369.0
  0
MTEXT
  5
D7
330
17
100
AcDbEntity
  8
0
100
AcDbMText
 10
24.5
 20
392.5
 30
0.0
 40
5.0
 71
5
  1
Plastic Bin\P4.0kg\PPlastic\P(Stack: 3x)
  0
LWPOLYLINE
  5
D8
330
17
100
AcDbEntity
  8
0
100
AcDbPolyline
 90
5
 70
1
 10
461.5
 20
0.5
 10
483.5
 20
0.5
 10
483.5
 20
329.5
 10
461.5
 20
329.5
 10
461.5
 20
0.5
  0
MTEXT
  5
D9
330
17
100
AcDbEntity
  8
0
100
AcDbMText
 10
472.5
 20
165.0
 30
0.0
 40
5.0
 71
5
  1
Steel Pipe\P15.0kg\PSteel\P(Stack: 8x)
  0
LWPOLYLINE
  5
DA
330
17
100
AcDbEntity
  8
0
100
AcDbPolyline
 90
5
 70
1
 10
133.0
 20
369.0
 10
162.0
 20
369.0
 10
162.0
 20
757.0
 10
133.0
 20
757.0
 10
133.0
 20
369.0
  0
MTEXT
  5
DB
330
17
100
AcDbEntity
  8
0
100
AcDbMText
 10
147.5
 20
563.0
 30
0.0
 40
5.0
 71
5
  1
Steel Beam\P45.0kg\PSteel\P(Stack: 3x)
  0
LWPOLYLINE
  5
DC
330
17
100
AcDbEntity
  8
0
100
AcDbPolyline
 90
5
 70
1
 10
73.0
 20
1167.0
 10
112.0
 20
1167.0
 10
112.0
 20
1225.0
 10
73.0
 20
1225.0
 10
73.0
 20
1167.0
  0
MTEXT
  5
DD
330
17
100
AcDbEntity
  8
0
100
AcDbMText
 10
92.5
 20
1196.0
 30
0.0
 40
5.0
 71
5
  1
Plastic Container\P5.0kg\PPlastic\P(Stack: 20x)
  0
LWPOLYLINE
  5
DE
330
17
100
AcDbEntity
  8
0
100
AcDbPolyline
 90
5
 70
1
 10
414.0
 20
1121.0
 10
451.0
 20
1121.0
 10
451.0
 20
1195.0
 10
414.0
 20
1195.0
 10
414.0
 20
1121.0
  0
MTEXT
  5
DF
330
17
100
AcDbEntity
  8
0
100
AcDbMText
 10
432.5
 20
1158.0
 30
0.0
 40
5.0
 71
5
  1
Concrete Block\P30.0kg\PConcrete\P(Stack: 8x)
  0
LWPOLYLINE
  5
E0
330
17
100
AcDbEntity
  8
0
100
AcDbPolyline
 90
5
 70
1
 10
80.5
 20
884.5
 10
117.5
 20
884.5
 10
117.5
 20
957.5
 10
80.5
 20
957.5
 10
80.5
 20
884.5
  0
MTEXT
  5
E1
330
17
100
AcDbEntity
  8
0
100
AcDbMText
 10
99.0
 20
921.0
 30
0.0
 40
5.0
 71
5
  1
Concrete Block\P30.0kg\PConcrete\P(Stack: 8x)
  0
LWPOLYLINE
  5
E2
330
17
100
AcDbEntity
  8
0
100
AcDbPolyline
 90
5
 70
1
 10
498.5
 20
68.5
 10
541.5
 20
68.5
 10
541.5
 20
153.5
 10
498.5
 20
153.5
 10
498.5
 20
68.5
  0
MTEXT
  5
E3
330
17
100
AcDbEntity
  8
0
100
AcDbMText
 10
520.0
 20
111.0
 30
0.0
 40
5.0
 71
5
  1
Steel Rebar Bundle\P35.0kg\PSteel\P(Stack: 6x)
  0
LWPOLYLINE
  5
E4
330
17
100
AcDbEntity
  8
0
100
AcDbPolyline
 90
5
 70
1
 10
380.0
 20
998.0
 10
395.0
 20
998.0
 10
395.0
 20
1197.0
 10
380.0
 20
1197.0
 10
380.0
 20
998.0
  0
MTEXT
  5
E5
330
17
100
AcDbEntity
  8
0
100
AcDbMText
 10
387.5
 20
1097.5
 30
0.0
 40
5.0
 71
5
  1
Plastic Pipe\P3.0kg\PPlastic\P(Stack: 2x)
  0
LWPOLYLINE
  5
E6
330
17
100
AcDbEntity
  8
0
100
AcDbPolyline
 90
5
 70
1
 10
498.5
 20
0.5
 10
551.5
 20
0.5
 10
551.5
 20
53.5
 10
498.5
 20
53.5
 10
498.5
 20
0.5
  0
MTEXT
  5
E7
330
17
100
AcDbEntity
  8
0
100
AcDbMText
 10
525.0
 20
27.0
 30
0.0
 40
5.0
 71
5
  1
Concrete Tile\P15.0kg\PConcrete\P(Stack: 12x)
  0
LWPOLYLINE
  5
E8
330
17
100
AcDbEntity
  8
0
100
AcDbPolyline
 90
5
 70
1
 10
574.0
 20
661.0
 10
628.0
 20
661.0
 10
628.0
 20
715.0
 10
574.0
 20
715.0
 10
574.0
 20
661.0
  0
MTEXT
  5
E9
330
17
100
AcDbEntity
  8
0
100
AcDbMText
 10
601.0
 20
688.0
 30
0.0
 40
5.0
 71
5
  1
Concrete Tile\P15.0kg\PConcrete\P(Stack: 12x)
  0
LWPOLYLINE
  5
EA
330
17
100
AcDbEntity
  8
0
100
AcDbPolyline
 90
5
 70
1
 10
470.0
 20
1159.0
 10
518.0
 20
1159.0
 10
518.0
 20
1207.0
 10
470.0
 20
1207.0
 10
470.0
 20
1159.0
  0
MTEXT
  5
EB
330
17
100
AcDbEntity
  8
0
100
AcDbMText
 10
494.0
 20
1183.0
 30
0.0
 40
5.0
 71
5
  1
Concrete Tile\P15.0kg\PConcrete\P(Stack: 12x)
  0
LWPOLYLINE
  5
EC
330
17
100
AcDbEntity
  8
0
100
AcDbPolyline
 90
5
 70
1
 10
268.5
 20
418.5
 10
315.5
 20
418.5
 10
315.5
 20
513.5
 10
268.5
 20
513.5
 10
268.5
 20
418.5
  0
MTEXT
  5
ED
330
17
100
AcDbEntity
  8
0
100
AcDbMText
 10
292.0
 20
466.0
 30
0.0
 40
5.0
 71
5
  1
Steel Plate\P25.0kg\PSteel\P(Stack: 10x)
  0
LWPOLYLINE
  5
EE
330
17
100
AcDbEntity
  8
0
100
AcDbPolyline
 90
5
 70
1
 10
566.5
 20
435.5
 10
602.5
 20
435.5
 10
602.5
 20
507.5
 10
566.5
 20
507.5
 10
566.5
 20
435.5
  0
MTEXT
  5
EF
330
17
100
AcDbEntity
  8
0
100
AcDbMText
 10
584.5
 20
471.5
 30
0.0
 40
5.0
 71
5
  1
Steel Rebar Bundle\P35.0kg\PSteel\P(Stack: 3x)
  0
LWPOLYLINE
  5
F0
330
17
100
AcDbEntity
  8
0
100
AcDbPolyline
 90
5
 70
1
 10
388.5
 20
484.5
 10
486.5
 20
484.5
 10
486.5
 20
513.5
 10
388.5
 20
513.5
 10
388.5
 20
484.5
  0
MTEXT
  5
F1
330
17
100
AcDbEntity
  8
0
100
AcDbMText
 10
437.5
 20
499.0
 30
0.0
 40
5.0
 71
5
  1
Concrete Pipe\P45.0kg\PConcrete\P(Stack: 5x)
  0
LWPOLYLINE
  5
F2
330
17
100
AcDbEntity
  8
0
100
AcDbPolyline
 90
5
 70
1
 10
415.0
 20
529.0
 10
444.0
 20
529.0
 10
444.0
 20
914.0
 10
415.0
 20
914.0
 10
415.0
 20
529.0
  0
MTEXT
  5
F3
330
17
100
AcDbEntity
  8
0
100
AcDbMText
 10
429.5
 20
721.5
 30
0.0
 40
5.0
 71
5
  1
Steel Beam\P45.0kg\PSteel\P(Stack: 3x)
  0
LWPOLYLINE
  5
F4
330
17
100
AcDbEntity
  8
0
100
AcDbPolyline
 90
5
 70
1
 10
64.5
 20
1029.5
 10
111.5
 20
1029.5
 10
111.5
 20
1076.5
 10
64.5
 20
1076.5
 10
64.5
 20
1029.5
  0
MTEXT
  5
F5
330
17
100
AcDbEntity
  8
0
100
AcDbMText
 10
88.0
 20
1053.0
 30
0.0
 40
5.0
 71
5
  1
Concrete Tile\P15.0kg\PConcrete\P(Stack: 12x)
  0
LWPOLYLINE
  5
F6
330
17
100
AcDbEntity
  8
0
100
AcDbPolyline
 90
5
 70
1
 10
133.5
 20
369.5
 10
162.5
 20
369.5
 10
162.5
 20
757.5
 10
133.5
 20
757.5
 10
133.5
 20
369.5
  0
MTEXT
  5
F7
330
17
100
AcDbEntity
  8
0
100
AcDbMText
 10
148.0
 20
563.5
 30
0.0
 40
5.0
 71
5
  1
Steel Beam\P45.0kg\PSteel\P(Stack: 4x)
  0
LWPOLYLINE
  5
F8
330
17
100
AcDbEntity
  8
0
100
AcDbPolyline
 90
5
 70
1
 10
0.5
 20
0.5
 10
104.5
 20
0.5
 10
104.5
 20
207.5
 10
0.5
 20
207.5
 10
0.5
 20
0.5
  0
MTEXT
  5
F9
330
17
100
AcDbEntity
  8
0
100
AcDbMText
 10
52.5
 20
104.0
 30
0.0
 40
5.0
 71
5
  1
Plastic Sheet\P8.0kg\PPlastic\P(Stack: 2x)
  0
LWPOLYLINE
  5
FA
330
17
100
AcDbEntity
  8
0
100
AcDbPolyline
 90
5
 70
1
 10
613.5
 20
0.5
 10
632.5
 20
0.5
 10
632.5
 20
291.5
 10
613.5
 20
291.5
 10
613.5
 20
0.5
  0
MTEXT
  5
FB
330
17
100
AcDbEntity
  8
0
100
AcDbMText
 10
623.0
 20
146.0
 30
0.0
 40
5.0
 71
5
  1
Steel Pipe\P15.0kg\PSteel\P(Stack: 2x)
  0
LWPOLYLINE
  5
FC
330
17
100
AcDbEntity
  8
0
100
AcDbPolyline
 90
5
 70
1
 10
498.5
 20
268.5
 10
547.5
 20
268.5
 10
547.5
 20
317.5
 10
498.5
 20
317.5
 10
498.5
 20
268.5
  0
MTEXT
  5
FD
330
17
100
AcDbEntity
  8
0
100
AcDbMText
 10
523.0
 20
293.0
 30
0.0
 40
5.0
 71
5
  1
Plastic Bin\P4.0kg\PPlastic\P(Stack: 30x)
  0
LWPOLYLINE
  5
FE
330
17
100
AcDbEntity
  8
0
100
AcDbPolyline
 90
5
 70
1
 10
470.5
 20
1035.5
 10
503.5
 20
1035.5
 10
503.5
 20
1144.5
 10
470.5
 20
1144.5
 10
470.5
 20
1035.5
  0
MTEXT
  5
FF
330
17
100
AcDbEntity
  8
0
100
AcDbMText
 10
487.0
 20
1090.0
 30
0.0
 40
5.0
 71
5
  1
Concrete Pipe\P45.0kg\PConcrete\P(Stack: 5x)
  0
LWPOLYLINE
  5
100
330
17
100
AcDbEntity
  8
0
100
AcDbPolyline
 90
5
 70
1
 10
262.0
 20
1189.0
 10
319.0
 20
1189.0
 10
319.0
 20
1227.0
 10
262.0
 20
1227.0
 10
262.0
 20
1189.0
  0
MTEXT
  5
101
330
17
100
AcDbEntity
  8
0
100
AcDbMText
 10
290.5
 20
1208.0
 30
0.0
 40
5.0
 71
5
  1
Plastic Container\P5.0kg\PPlastic\P(Stack: 20x)
  0
LWPOLYLINE
  5
102
330
17
100
AcDbEntity
  8
0
100
AcDbPolyline
 90
5
 70
1
 10
584.0
 20
1190.0
 10
629.0
 20
1190.0
 10
629.0
 20
1235.0
 10
584.0
 20
1235.0
 10
584.0
 20
1190.0
  0
MTEXT
  5
103
330
17
100
AcDbEntity
  8
0
100
AcDbMText
 10
606.5
 20
1212.5
 30
0.0
 40
5.0
 71
5
  1
Concrete Tile\P15.0kg\PConcrete\P(Stack: 2x)
  0
LWPOLYLINE
  5
104
330
17
100
AcDbEntity
  8
0
100
AcDbPolyline
 90
5
 70
1
 10
199.5
 20
1175.5
 10
247.5
 20
1175.5
 10
247.5
 20
1223.5
 10
199.5
 20
1223.5
 10
199.5
 20
1175.5
  0
MTEXT
  5
105
330
17
100
AcDbEntity
  8
0
100
AcDbMText
 10
223.5
 20
1199.5
 30
0.0
 40
5.0
 71
5
  1
Plastic Bin\P4.0kg\PPlastic\P(Stack: 30x)
  0
LWPOLYLINE
  5
106
330
17
100
AcDbEntity
  8
0
100
AcDbPolyline
 90
5
 70
1
 10
1.5
 20
369.5
 10
48.5
 20
369.5
 10
48.5
 20
416.5
 10
1.5
 20
416.5
 10
1.5
 20
369.5
  0
MTEXT
  5
107
330
17
100
AcDbEntity
  8
0
100
AcDbMText
 10
25.0
 20
393.0
 30
0.0
 40
5.0
 71
5
  1
Plastic Bin\P4.0kg\PPlastic\P(Stack: 4x)
  0
LWPOLYLINE
  5
108
330
17
100
AcDbEntity
  8
0
100
AcDbPolyline
 90
5
 70
1
 10
262.5
 20
1063.5
 10
318.5
 20
1063.5
 10
318.5
 20
1174.5
 10
262.5
 20
1174.5
 10
262.5
 20
1063.5
  0
MTEXT
  5
109
330
17
100
AcDbEntity
  8
0
100
AcDbMText
 10
290.5
 20
1119.0
 30
0.0
 40
5.0
 71
5
  1
Concrete Slab\P80.0kg\PConcrete\P(Stack: 3x)
  0
LWPOLYLINE
  5
10A
330
17
100
AcDbEntity
  8
0
100
AcDbPolyline
 90
5
 70
1
 10
458.5
 20
528.5
 10
559.5
 20
528.5
 10
559.5
 20
730.5
 10
458.5
 20
730.5
 10
458.5
 20
528.5
  0
MTEXT
  5
10B
330
17
100
AcDbEntity
  8
0
100
AcDbMText
 10
509.0
 20
629.5
 30
0.0
 40
5.0
 71
5
  1
Plastic Sheet\P8.0kg\PPlastic\P(Stack: 2x)
  0
LWPOLYLINE
  5
10C
330
17
100
AcDbEntity
  8
0
100
AcDbPolyline
 90
5
 70
1
 10
349.5
 20
69.5
 10
363.5
 20
69.5
 10
363.5
 20
250.5
 10
349.5
 20
250.5
 10
349.5
 20
69.5
  0
MTEXT
  5
10D
330
17
100
AcDbEntity
  8
0
100
AcDbMText
 10
356.5
 20
160.0
 30
0.0
 40
5.0
 71
5
  1
Plastic Pipe\P3.0kg\PPlastic\P(Stack: 2x)
  0
LWPOLYLINE
  5
10E
330
17
100
AcDbEntity
  8
0
100
AcDbPolyline
 90
5
 70
1
 10
199.5
 20
212.5
 10
242.5
 20
212.5
 10
242.5
 20
299.5
 10
199.5
 20
299.5
 10
199.5
 20
212.5
  0
MTEXT
  5
10F
330
17
100
AcDbEntity
  8
0
100
AcDbMText
 10
221.0
 20
256.0
 30
0.0
 40
5.0
 71
5
  1
Concrete Block\P30.0kg\PConcrete\P(Stack: 2x)
  0
LWPOLYLINE
  5
110
330
17
100
AcDbEntity
  8
0
100
AcDbPolyline
 90
5
 70
1
 10
414.5
 20
928.5
 10
455.5
 20
928.5
 10
455.5
 20
1011.5
 10
414.5
 20
1011.5
 10
414.5
 20
928.5
  0
MTEXT
  5
111
330
17
100
AcDbEntity
  8
0
100
AcDbMText
 10
435.0
 20
970.0
 30
0.0
 40
5.0
 71
5
  1
Concrete Block\P30.0kg\PConcrete\P(Stack: 2x)
  0
LWPOLYLINE
  5
112
330
17
100
AcDbEntity
  8
0
100
AcDbPolyline
 90
5
 70
1
 10
567.0
 20
436.0
 10
603.0
 20
436.0
 10
603.0
 20
508.0
 10
567.0
 20
508.0
 10
567.0
 20
436.0
  0
MTEXT
  5
113
330
17
100
AcDbEntity
  8
0
100
AcDbMText
 10
585.0
 20
472.0
 30
0.0
 40
5.0
 71
5
  1
Steel Rebar Bundle\P35.0kg\PSteel\P(Stack: 4x)
  0
LWPOLYLINE
  5
114
330
17
100
AcDbEntity
  8
0
100
AcDbPolyline
 90
5
 70
1
 10
268.5
 20
705.5
 10
305.5
 20
705.5
 10
305.5
 20
779.5
 10
268.5
 20
779.5
 10
268.5
 20
705.5
  0
MTEXT
  5
115
330
17
100
AcDbEntity
  8
0
100
AcDbMText
 10
287.0
 20
742.5
 30
0.0
 40
5.0
 71
5
  1
Steel Rebar Bundle\P35.0kg\PSteel\P(Stack: 2x)
  0
LWPOLYLINE
  5
116
330
17
100
AcDbEntity
  8
0
100
AcDbPolyline
 90
5
 70
1
 10
330.5
 20
418.5
 10
373.5
 20
418.5
 10
373.5
 20
505.5
 10
330.5
 20
505.5
 10
330.5
 20
418.5
  0
MTEXT
  5
117
330
17
100
AcDbEntity
  8
0
100
AcDbMText
 10
352.0
 20
462.0
 30
0.0
 40
5.0
 71
5
  1
Steel Rebar Bundle\P35.0kg\PSteel\P(Stack: 6x)
  0
LWPOLYLINE
  5
118
330
17
100
AcDbEntity
  8
0
100
AcDbPolyline
 90
5
 70
1
 10
584.5
 20
745.5
 10
616.5
 20
745.5
 10
616.5
 20
1175.5
 10
584.5
 20
1175.5
 10
584.5
 20
745.5
  0
MTEXT
  5
119
330
17
100
AcDbEntity
  8
0
100
AcDbMText
 10
600.5
 20
960.5
 30
0.0
 40
5.0
 71
5
  1
Steel Beam\P45.0kg\PSteel\P(Stack: 5x)
  0
LWPOLYLINE
  5
11A
330
17
100
AcDbEntity
  8
0
100
AcDbPolyline
 90
5
 70
1
 10
614.0
 20
1.0
 10
633.0
 20
1.0
 10
633.0
 20
292.0
 10
614.0
 20
292.0
 10
614.0
 20
1.0
  0
MTEXT
  5
11B
330
17
100
AcDbEntity
  8
0
100
AcDbMText
 10
623.5
 20
146.5
 30
0.0
 40
5.0
 71
5
  1
Steel Pipe\P15.0kg\PSteel\P(Stack: 3x)
  0
LWPOLYLINE
  5
11C
330
17
100
AcDbEntity
  8
0
100
AcDbPolyline
 90
5
 70
1
 10
567.0
 20
1.0
 10
599.0
 20
1.0
 10
599.0
 20
421.0
 10
567.0
 20
421.0
 10
567.0
 20
1.0
  0
MTEXT
  5
11D
330
17
100
AcDbEntity
  8
0
100
AcDbMText
 10
583.0
 20
211.0
 30
0.0
 40
5.0
 71
5
  1
Steel Beam\P45.0kg\PSteel\P(Stack: 3x)
  0
LWPOLYLINE
  5
11E
330
17
100
AcDbEntity
  8
0
100
AcDbPolyline
 90
5
 70
1
 10
462.0
 20
345.0
 10
519.0
 20
345.0
 10
519.0
 20
459.0
 10
462.0
 20
459.0
 10
462.0
 20
345.0
  0
MTEXT
  5
11F
330
17
100
AcDbEntity
  8
0
100
AcDbMText
 10
490.5
 20
402.0
 30
0.0
 40
5.0
 71
5
  1
Concrete Slab\P80.0kg\PConcrete\P(Stack: 3x)
  0
LWPOLYLINE
  5
120
330
17
100
AcDbEntity
  8
0
100
AcDbPolyline
 90
5
 70
1
 10
132.5
 20
905.5
 10
157.5
 20
905.5
 10
157.5
 20
1207.5
 10
132.5
 20
1207.5
 10
132.5
 20
905.5
  0
MTEXT
  5
121
330
17
100
AcDbEntity
  8
0
100
AcDbMText
 10
145.0
 20
1056.5
 30
0.0
 40
5.0
 71
5
  1
Wood Plank\P12.0kg\PWood\P(Stack: 2x)
  0
LWPOLYLINE
  5
122
330
17
100
AcDbEntity
  8
0
100
AcDbPolyline
 90
5
 70
1
 10
470.5
 20
928.5
 10
516.5
 20
928.5
 10
516.5
 20
1020.5
 10
470.5
 20
1020.5
 10
470.5
 20
928.5
  0
MTEXT
  5
123
330
17
100
AcDbEntity
  8
0
100
AcDbMText
 10
493.5
 20
974.5
 30
0.0
 40
5.0
 71
5
  1
Steel Plate\P25.0kg\PSteel\P(Stack: 10x)
  0
LWPOLYLINE
  5
124
330
17
100
AcDbEntity
  8
0
100
AcDbPolyline
 90
5
 70
1
 10
334.5
 20
791.5
 10
365.5
 20
791.5
 10
365.5
 20
1209.5
 10
334.5
 20
1209.5
 10
334.5
 20
791.5
  0
MTEXT
  5
125
330
17
100
AcDbEntity
  8
0
100
AcDbMText
 10
350.0
 20
1000.5
 30
0.0
 40
5.0
 71
5
  1
Steel Beam\P45.0kg\PSteel\P(Stack: 2x)
  0
LWPOLYLINE
  5
126
330
17
100
AcDbEntity
  8
0
100
AcDbPolyline
 90
5
 70
1
 10
0.0
 20
1400.0
 10
650.0
 20
1400.0
 10
650.0
 20
2650.0
 10
0.0
 20
2650.0
 10
0.0
 20
1400.0
  0
LWPOLYLINE
  5
127
330
17
100
AcDbEntity
  8
0
100
AcDbPolyline
 90
5
 70
1
 10
0.0
 20
1400.0
 10
78.0
 20
1400.0
 10
78.0
 20
1517.0
 10
0.0
 20
1517.0
 10
0.0
 20
1400.0
  0
MTEXT
  5
128
330
17
100
AcDbEntity
  8
0
100
AcDbMText
 10
39.0
 20
1458.5
 30
0.0
 40
5.0
 71
5
  1
Glass Sheet\P18.0kg\PGlass
  0
LWPOLYLINE
  5
129
330
17
100
AcDbEntity
  8
0
100
AcDbPolyline
 90
5
 70
1
 10
93.0
 20
1400.0
 10
154.0
 20
1400.0
 10
154.0
 20
1502.0
 10
93.0
 20
1502.0
 10
93.0
 20
1400.0
  0
MTEXT
  5
12A
330
17
100
AcDbEntity
  8
0
100
AcDbMText
 10
123.5
 20
1451.0
 30
0.0
 40
5.0
 71
5
  1
Glass Pane\P12.0kg\PGlass
  0
LWPOLYLINE
  5
12B
330
17
100
AcDbEntity
  8
0
100
AcDbPolyline
 90
5
 70
1
 10
0.0
 20
1532.0
 10
65.0
 20
1532.0
 10
65.0
 20
1640.0
 10
0.0
 20
1640.0
 10
0.0
 20
1532.0
  0
MTEXT
  5
12C
330
17
100
AcDbEntity
  8
0
100
AcDbMText
 10
32.5
 20
1586.0
 30
0.0
 40
5.0
 71
5
  1
Glass Pane\P12.0kg\PGlass
  0
LWPOLYLINE
  5
12D
330
17
100
AcDbEntity
  8
0
100
AcDbPolyline
 90
5
 70
1
 10
169.0
 20
1400.0
 10
243.0
 20
1400.0
 10
243.0
 20
1511.0
 10
169.0
 20
1511.0
 10
169.0
 20
1400.0
  0
MTEXT
  5
12E
330
17
100
AcDbEntity
  8
0
100
AcDbMText
 10
206.0
 20
1455.5
 30
0.0
 40
5.0
 71
5
  1
Glass Sheet\P18.0kg\PGlass
  0
LWPOLYLINE
  5
12F
330
17
100
AcDbEntity
  8
0
100
AcDbPolyline
 90
5
 70
1
 10
93.0
 20
1517.0
 10
154.0
 20
1517.0
 10
154.0
 20
1619.0
 10
93.0
 20
1619.0
 10
93.0
 20
1517.0
  0
MTEXT
  5
130
330
17
100
AcDbEntity
  8
0
100
AcDbMText
 10
123.5
 20
1568.0
 30
0.0
 40
5.0
 71
5
  1
Glass Pane\P12.0kg\PGlass
  0
LWPOLYLINE
  5
131
330
17
100
AcDbEntity
  8
0
100
AcDbPolyline
 90
5
 70
1
 10
0.0
 20
1655.0
 10
51.0
 20
1655.0
 10
51.0
 20
1807.0
 10
0.0
 20
1807.0
 10
0.0
 20
1655.0
  0
MTEXT
  5
132
330
17
100
AcDbEntity
  8
0
100
AcDbMText
 10
25.5
 20
1731.0
 30
0.0
 40
5.0
 71
5
  1
Glass Panel\P15.0kg\PGlass
  0
LWPOLYLINE
  5
133
330
17
100
AcDbEntity
  8
0
100
AcDbPolyline
 90
5
 70
1
 10
258.0
 20
1400.0
 10
318.0
 20
1400.0
 10
318.0
 20
1500.0
 10
258.0
 20
1500.0
 10
258.0
 20
1400.0
  0
MTEXT
  5
134
330
17
100
AcDbEntity
  8
0
100
AcDbMText
 10
288.0
 20
1450.0
 30
0.0
 40
5.0
 71
5
  1
Glass Pane\P12.0kg\PGlass
  0
LWPOLYLINE
  5
135
330
17
100
AcDbEntity
  8
0
100
AcDbPolyline
 90
5
 70
1
 10
169.0
 20
1526.0
 10
189.0
 20
1526.0
 10
189.0
 20
1931.0
 10
169.0
 20
1931.0
 10
169.0
 20
1526.0
  0
MTEXT
  5
136
330
17
100
AcDbEntity
  8
0
100
AcDbMText
 10
179.0
 20
1728.5
 30
0.0
 40
5.0
 71
5
  1
Wood Beam\P18.0kg\PWood\P(Stack: 3x)
  0
LWPOLYLINE
  5
137
330
17
100
AcDbEntity
  8
0
100
AcDbPolyline
 90
5
 70
1
 10
66.0
 20
1655.0
 10
130.0
 20
1655.0
 10
130.0
 20
1782.0
 10
66.0
 20
1782.0
 10
66.0
 20
1655.0
  0
MTEXT
  5
138
330
17
100
AcDbEntity
  8
0
100
AcDbMText
 10
98.0
 20
1718.5
 30
0.0
 40
5.0
 71
5
  1
Wood Frame\P8.0kg\PWood\P(Stack: 20x)
  0
LWPOLYLINE
  5
139
330
17
100
AcDbEntity
  8
0
100
AcDbPolyline
 90
5
 70
1
 10
0.0
 20
1822.0
 10
132.0
 20
1822.0
 10
132.0
 20
2085.0
 10
0.0
 20
2085.0
 10
0.0
 20
1822.0
  0
MTEXT
  5
13A
330
17
100
AcDbEntity
  8
0
100
AcDbMText
 10
66.0
 20
1953.5
 30
0.0
 40
5.0
 71
5
  1
Wood Sheet\P20.0kg\PWood\P(Stack: 2x)
  0
LWPOLYLINE
  5
13B
330
17
100
AcDbEntity
  8
0
100
AcDbPolyline
 90
5
 70
1
 10
333.0
 20
1400.0
 10
357.0
 20
1400.0
 10
357.0
 20
1693.0
 10
333.0
 20
1693.0
 10
333.0
 20
1400.0
  0
MTEXT
  5
13C
330
17
100
AcDbEntity
  8
0
100
AcDbMText
 10
345.0
 20
1546.5
 30
0.0
 40
5.0
 71
5
  1
Wood Plank\P12.0kg\PWood
  0
LWPOLYLINE
  5
13D
330
17
100
AcDbEntity
  8
0
100
AcDbPolyline
 90
5
 70
1
 10
169.5
 20
1526.5
 10
189.5
 20
1526.5
 10
189.5
 20
1931.5
 10
169.5
 20
1931.5
 10
169.5
 20
1526.5
  0
MTEXT
  5
13E
330
17
100
AcDbEntity
  8
0
100
AcDbMText
 10
179.5
 20
1729.0
 30
0.0
 40
5.0
 71
5
  1
Wood Beam\P18.0kg\PWood\P(Stack: 2x)
  0
LWPOLYLINE
  5
13F
330
17
100
AcDbEntity
  8
0
100
AcDbPolyline
 90
5
 70
1
 10
204.0
 20
1526.0
 10
266.0
 20
1526.0
 10
266.0
 20
1629.0
 10
204.0
 20
1629.0
 10
204.0
 20
1526.0
  0
MTEXT
  5
140
330
17
100
AcDbEntity
  8
0
100
AcDbMText
 10
235.0
 20
1577.5
 30
0.0
 40
5.0
 71
5
  1
Glass Pane\P12.0kg\PGlass
  0
LWPOLYLINE
  5
141
330
17
100
AcDbEntity
  8
0
100
AcDbPolyline
 90
5
 70
1
 10
169.0
 20
1946.0
 10
226.0
 20
1946.0
 10
226.0
 20
2041.0
 10
169.0
 20
2041.0
 10
169.0
 20
1946.0
  0
MTEXT
  5
142
330
17
100
AcDbEntity
  8
0
100
AcDbMText
 10
197.5
 20
1993.5
 30
0.0
 40
5.0
 71
5
  1
Glass Pane\P12.0kg\PGlass
  0
LWPOLYLINE
  5
143
330
17
100
AcDbEntity
  8
0
100
AcDbPolyline
 90
5
 70
1
 10
0.0
 20
2100.0
 10
74.0
 20
2100.0
 10
74.0
 20
2211.0
 10
0.0
 20
2211.0
 10
0.0
 20
2100.0
  0
MTEXT
  5
144
330
17
100
AcDbEntity
  8
0
100
AcDbMText
 10
37.0
 20
2155.5
 30
0.0
 40
5.0
 71
5
  1
Glass Sheet\P18.0kg\PGlass
  0
LWPOLYLINE
  5
145
330
17
100
AcDbEntity
  8
0
100
AcDbPolyline
 90
5
 70
1
 10
372.0
 20
1400.0
 10
391.0
 20
1400.0
 10
391.0
 20
1773.0
 10
372.0
 20
1773.0
 10
372.0
 20
1400.0
  0
MTEXT
  5
146
330
17
100
AcDbEntity
  8
0
100
AcDbMText
 10
381.5
 20
1586.5
 30
0.0
 40
5.0
 71
5
  1
Wood Beam\P18.0kg\PWood
  0
LWPOLYLINE
  5
147
330
17
100
AcDbEntity
  8
0
100
AcDbPolyline
 90
5
 70
1
 10
204.0
 20
1644.0
 10
263.0
 20
1644.0
 10
263.0
 20
1742.0
 10
204.0
 20
1742.0
 10
204.0
 20
1644.0
  0
MTEXT
  5
148
330
17
100
AcDbEntity
  8
0
100
AcDbMText
 10
233.5
 20
1693.0
 30
0.0
 40
5.0
 71
5
  1
Glass Pane\P12.0kg\PGlass
  0
LWPOLYLINE
  5
149
330
17
100
AcDbEntity
  8
0
100
AcDbPolyline
 90
5
 70
1
 10
333.0
 20
1708.0
 10
352.0
 20
1708.0
 10
352.0
 20
2097.0
 10
333.0
 20
2097.0
 10
333.0
 20
1708.0
  0
MTEXT
  5
14A
330
17
100
AcDbEntity
  8
0
100
AcDbMText
 10
342.5
 20
1902.5
 30
0.0
 40
5.0
 71
5
  1
Wood Beam\P18.0kg\PWood\P(Stack: 8x)
  0
LWPOLYLINE
  5
14B
330
17
100
AcDbEntity
  8
0
100
AcDbPolyline
 90
5
 70
1
 10
241.0
 20
1946.0
 10
288.0
 20
1946.0
 10
288.0
 20
2087.0
 10
241.0
 20
2087.0
 10
241.0
 20
1946.0
  0
MTEXT
  5
14C
330
17
100
AcDbEntity
  8
0
100
AcDbMText
 10
264.5
 20
2016.5
 30
0.0
 40
5.0
 71
5
  1
Glass Panel\P15.0kg\PGlass
  0
LWPOLYLINE
  5
14D
330
17
100
AcDbEntity
  8
0
100
AcDbPolyline
 90
5
 70
1
 10
281.0
 20
1526.0
 10
295.0
 20
1526.0
 10
295.0
 20
1706.0
 10
281.0
 20
1706.0
 10
281.0
 20
1526.0
  0
MTEXT
  5
14E
330
17
100
AcDbEntity
  8
0
100
AcDbMText
 10
288.0
 20
1616.0
 30
0.0
 40
5.0
 71
5
  1
Plastic Pipe\P3.0kg\PPlastic\P(Stack: 3x)
  0
LWPOLYLINE
  5
14F
330
17
100
AcDbEntity
  8
0
100
AcDbPolyline
 90
5
 70
1
 10
169.0
 20
2056.0
 10
184.0
 20
2056.0
 10
184.0
 20
2257.0
 10
169.0
 20
2257.0
 10
169.0
 20
2056.0
  0
MTEXT
  5
150
330
17
100
AcDbEntity
  8
0
100
AcDbMText
 10
176.5
 20
2156.5
 30
0.0
 40
5.0
 71
5
  1
Plastic Pipe\P3.0kg\PPlastic\P(Stack: 3x)
  0
LWPOLYLINE
  5
151
330
17
100
AcDbEntity
  8
0
100
AcDbPolyline
 90
5
 70
1
 10
89.0
 20
2100.0
 10
136.0
 20
2100.0
 10
136.0
 20
2241.0
 10
89.0
 20
2241.0
 10
89.0
 20
2100.0
  0
MTEXT
  5
152
330
17
100
AcDbEntity
  8
0
100
AcDbMText
 10
112.5
 20
2170.5
 30
0.0
 40
5.0
 71
5
  1
Glass Panel\P15.0kg\PGlass
  0
LWPOLYLINE
  5
153
330
17
100
AcDbEntity
  8
0
100
AcDbPolyline
 90
5
 70
1
 10
406.0
 20
1400.0
 10
508.0
 20
1400.0
 10
508.0
 20
1603.0
 10
406.0
 20
1603.0
 10
406.0
 20
1400.0
  0
MTEXT
  5
154
330
17
100
AcDbEntity
  8
0
100
AcDbMText
 10
457.0
 20
1501.5
 30
0.0
 40
5.0
 71
5
  1
Plastic Sheet\P8.0kg\PPlastic\P(Stack: 2x)
  0
LWPOLYLINE
  5
155
330
17
100
AcDbEntity
  8
0
100
AcDbPolyline
 90
5
 70
1
 10
0.0
 20
2226.0
 10
46.0
 20
2226.0
 10
46.0
 20
2363.0
 10
0.0
 20
2363.0
 10
0.0
 20
2226.0
  0
MTEXT
  5
156
330
17
100
AcDbEntity
  8
0
100
AcDbMText
 10
23.0
 20
2294.5
 30
0.0
 40
5.0
 71
5
  1
Glass Panel\P15.0kg\PGlass
  0
LWPOLYLINE
  5
157
330
17
100
AcDbEntity
  8
0
100
AcDbPolyline
 90
5
 70
1
 10
372.0
 20
1788.0
 10
481.0
 20
1788.0
 10
481.0
 20
2005.0
 10
372.0
 20
2005.0
 10
372.0
 20
1788.0
  0
MTEXT
  5
158
330
17
100
AcDbEntity
  8
0
100
AcDbMText
 10
426.5
 20
1896.5
 30
0.0
 40
5.0
 71
5
  1
Plastic Sheet\P8.0kg\PPlastic\P(Stack: 4x)
  0
LWPOLYLINE
  5
159
330
17
100
AcDbEntity
  8
0
100
AcDbPolyline
 90
5
 70
1
 10
333.0
 20
2112.0
 10
441.0
 20
2112.0
 10
441.0
 20
2328.0
 10
333.0
 20
2328.0
 10
333.0
 20
2112.0
  0
MTEXT
  5
15A
330
17
100
AcDbEntity
  8
0
100
AcDbMText
 10
387.0
 20
2220.0
 30
0.0
 40
5.0
 71
5
  1
Plastic Sheet\P8.0kg\PPlastic
  0
LWPOLYLINE
  5
15B
330
17
100
AcDbEntity
  8
0
100
AcDbPolyline
 90
5
 70
1
 10
204.0
 20
1757.0
 10
262.0
 20
1757.0
 10
262.0
 20
1853.0
 10
204.0
 20
1853.0
 10
204.0
 20
1757.0
  0
MTEXT
  5
15C
330
17
100
AcDbEntity
  8
0
100
AcDbMText
 10
233.0
 20
1805.0
 30
0.0
 40
5.0
 71
5
  1
Glass Pane\P12.0kg\PGlass
  0
LWPOLYLINE
  5
15D
330
17
100
AcDbEntity
  8
0
100
AcDbPolyline
 90
5
 70
1
 10
241.0
 20
2102.0
 10
264.0
 20
2102.0
 10
264.0
 20
2374.0
 10
241.0
 20
2374.0
 10
241.0
 20
2102.0
  0
MTEXT
  5
15E
330
17
100
AcDbEntity
  8
0
100
AcDbMText
 10
252.5
 20
2238.0
 30
0.0
 40
5.0
 71
5
  1
Wood Plank\P12.0kg\PWood
  0
LWPOLYLINE
  5
15F
330
17
100
AcDbEntity
  8
0
100
AcDbPolyline
 90
5
 70
1
 10
169.0
 20
2272.0
 10
226.0
 20
2272.0
 10
226.0
 20
2367.0
 10
169.0
 20
2367.0
 10
169.0
 20
2272.0
  0
MTEXT
  5
160
330
17
100
AcDbEntity
  8
0
100
AcDbMText
 10
197.5
 20
2319.5
 30
0.0
 40
5.0
 71
5
  1
Glass Pane\P12.0kg\PGlass
  0
LWPOLYLINE
  5
161
330
17
100
AcDbEntity
  8
0
100
AcDbPolyline
 90
5
 70
1
 10
89.0
 20
2256.0
 10
133.0
 20
2256.0
 10
133.0
 20
2322.0
 10
89.0
 20
2322.0
 10
89.0
 20
2256.0
  0
MTEXT
  5
162
330
17
100
AcDbEntity
  8
0
100
AcDbMText
 10
111.0
 20
2289.0
 30
0.0
 40
5.0
 71
5
  1
Plastic Container\P5.0kg\PPlastic
  0
LWPOLYLINE
  5
163
330
17
100
AcDbEntity
  8
0
100
AcDbPolyline
 90
5
 70
1
 10
0.0
 20
2378.0
 10
123.0
 20
2378.0
 10
123.0
 20
2623.0
 10
0.0
 20
2623.0
 10
0.0
 20
2378.0
  0
MTEXT
  5
164
330
17
100
AcDbEntity
  8
0
100
AcDbMText
 10
61.5
 20
2500.5
 30
0.0
 40
5.0
 71
5
  1
Wood Sheet\P20.0kg\PWood
  0
LWPOLYLINE
  5
165
330
17
100
AcDbEntity
  8
0
100
AcDbPolyline
 90
5
 70
1
 10
523.0
 20
1400.0
 10
574.0
 20
1400.0
 10
574.0
 20
1451.0
 10
523.0
 20
1451.0
 10
523.0
 20
1400.0
  0
MTEXT
  5
166
330
17
100
AcDbEntity
  8
0
100
AcDbMText
 10
548.5
 20
1425.5
 30
0.0
 40
5.0
 71
5
  1
Plastic Bin\P4.0kg\PPlastic\P(Stack: 3x)
  0
LWPOLYLINE
  5
167
330
17
100
AcDbEntity
  8
0
100
AcDbPolyline
 90
5
 70
1
 10
406.0
 20
1618.0
 10
586.0
 20
1618.0
 10
586.0
 20
1708.0
 10
406.0
 20
1708.0
 10
406.0
 20
1618.0
  0
MTEXT
  5
168
330
17
100
AcDbEntity
  8
0
100
AcDbMText
 10
496.0
 20
1663.0
 30
0.0
 40
5.0
 71
5
  1
Plastic Sheet\P8.0kg\PPlastic
  0
LWPOLYLINE
  5
169
330
17
100
AcDbEntity
  8
0
100
AcDbPolyline
 90
5
 70
1
 10
496.0
 20
1788.0
 10
519.0
 20
1788.0
 10
519.0
 20
2059.0
 10
496.0
 20
2059.0
 10
496.0
 20
1788.0
  0
MTEXT
  5
16A
330
17
100
AcDbEntity
  8
0
100
AcDbMText
 10
507.5
 20
1923.5
 30
0.0
 40
5.0
 71
5
  1
Wood Plank\P12.0kg\PWood
  0
LWPOLYLINE
  5
16B
330
17
100
AcDbEntity
  8
0
100
AcDbPolyline
 90
5
 70
1
 10
169.5
 20
2056.5
 10
184.5
 20
2056.5
 10
184.5
 20
2257.5
 10
169.5
 20
2257.5
 10
169.5
 20
2056.5
  0
MTEXT
  5
16C
330
17
100
AcDbEntity
  8
0
100
AcDbMText
 10
177.0
 20
2157.0
 30
0.0
 40
5.0
 71
5
  1
Plastic Pipe\P3.0kg\PPlastic\P(Stack: 3x)
  0
LWPOLYLINE
  5
16D
330
17
100
AcDbEntity
  8
0
100
AcDbPolyline
 90
5
 70
1
 10
456.0
 20
2112.0
 10
477.0
 20
2112.0
 10
477.0
 20
2540.0
 10
456.0
 20
2540.0
 10
456.0
 20
2112.0
  0
MTEXT
  5
16E
330
17
100
AcDbEntity
  8
0
100
AcDbMText
 10
466.5
 20
2326.0
 30
0.0
 40
5.0
 71
5
  1
Wood Beam\P18.0kg\PWood
  0
LWPOLYLINE
  5
16F
330
17
100
AcDbEntity
  8
0
100
AcDbPolyline
 90
5
 70
1
 10
406.5
 20
1400.5
 10
508.5
 20
1400.5
 10
508.5
 20
1603.5
 10
406.5
 20
1603.5
 10
406.5
 20
1400.5
  0
MTEXT
  5
170
330
17
100
AcDbEntity
  8
0
100
AcDbMText
 10
457.5
 20
1502.0
 30
0.0
 40
5.0
 71
5
  1
Plastic Sheet\P8.0kg\PPlastic\P(Stack: 2x)
  0
LWPOLYLINE
  5
171
330
17
100
AcDbEntity
  8
0
100
AcDbPolyline
 90
5
 70
1
 10
333.0
 20
2343.0
 10
397.0
 20
2343.0
 10
397.0
 20
2471.0
 10
333.0
 20
2471.0
 10
333.0
 20
2343.0
  0
MTEXT
  5
172
330
17
100
AcDbEntity
  8
0
100
AcDbMText
 10
365.0
 20
2407.0
 30
0.0
 40
5.0
 71
5
  1
Wood Frame\P8.0kg\PWood\P(Stack: 2x)
  0
LWPOLYLINE
  5
173
330
17
100
AcDbEntity
  8
0
100
AcDbPolyline
 90
5
 70
1
 10
241.0
 20
2389.0
 10
307.0
 20
2389.0
 10
307.0
 20
2520.0
 10
241.0
 20
2520.0
 10
241.0
 20
2389.0
  0
MTEXT
  5
174
330
17
100
AcDbEntity
  8
0
100
AcDbMText
 10
274.0
 20
2454.5
 30
0.0
 40
5.0
 71
5
  1
Wood Frame\P8.0kg\PWood\P(Stack: 20x)
  0
LWPOLYLINE
  5
175
330
17
100
AcDbEntity
  8
0
100
AcDbPolyline
 90
5
 70
1
 10
170.0
 20
1527.0
 10
190.0
 20
1527.0
 10
190.0
 20
1932.0
 10
170.0
 20
1932.0
 10
170.0
 20
1527.0
  0
MTEXT
  5
176
330
17
100
AcDbEntity
  8
0
100
AcDbMText
 10
180.0
 20
1729.5
 30
0.0
 40
5.0
 71
5
  1
Wood Beam\P18.0kg\PWood\P(Stack: 3x)
  0
LWPOLYLINE
  5
177
330
17
100
AcDbEntity
  8
0
100
AcDbPolyline
 90
5
 70
1
 10
372.5
 20
1788.5
 10
481.5
 20
1788.5
 10
481.5
 20
2005.5
 10
372.5
 20
2005.5
 10
372.5
 20
1788.5
  0
MTEXT
  5
178
330
17
100
AcDbEntity
  8
0
100
AcDbMText
 10
427.0
 20
1897.0
 30
0.0
 40
5.0
 71
5
  1
Plastic Sheet\P8.0kg\PPlastic\P(Stack: 4x)
  0
LWPOLYLINE
  5
179
330
17
100
AcDbEntity
  8
0
100
AcDbPolyline
 90
5
 70
1
 10
372.0
 20
2020.0
 10
414.0
 20
2020.0
 10
414.0
 20
2083.0
 10
372.0
 20
2083.0
 10
372.0
 20
2020.0
  0
MTEXT
  5
17A
330
17
100
AcDbEntity
  8
0
100
AcDbMText
 10
393.0
 20
2051.5
 30
0.0
 40
5.0
 71
5
  1
Plastic Container\P5.0kg\PPlastic\P(Stack: 2x)
  0
LWPOLYLINE
  5
17B
330
17
100
AcDbEntity
  8
0
100
AcDbPolyline
 90
5
 70
1
 10
204.0
 20
1868.0
 10
306.0
 20
1868.0
 10
306.0
 20
1929.0
 10
204.0
 20
1929.0
 10
204.0
 20
1868.0
  0
MTEXT
  5
17C
330
17
100
AcDbEntity
  8
0
100
AcDbMText
 10
255.0
 20
1898.5
 30
0.0
 40
5.0
 71
5
  1
Glass Pane\P12.0kg\PGlass
  0
LWPOLYLINE
  5
17D
330
17
100
AcDbEntity
  8
0
100
AcDbPolyline
 90
5
 70
1
 10
281.5
 20
1526.5
 10
295.5
 20
1526.5
 10
295.5
 20
1706.5
 10
281.5
 20
1706.5
 10
281.5
 20
1526.5
  0
MTEXT
  5
17E
330
17
100
AcDbEntity
  8
0
100
AcDbMText
 10
288.5
 20
1616.5
 30
0.0
 40
5.0
 71
5
  1
Plastic Pipe\P3.0kg\PPlastic\P(Stack: 3x)
  0
LWPOLYLINE
  5
17F
330
17
100
AcDbEntity
  8
0
100
AcDbPolyline
 90
5
 70
1
 10
523.0
 20
1466.0
 10
581.0
 20
1466.0
 10
581.0
 20
1562.0
 10
523.0
 20
1562.0
 10
523.0
 20
1466.0
  0
MTEXT
  5
180
330
17
100
AcDbEntity
  8
0
100
AcDbMText
 10
552.0
 20
1514.0
 30
0.0
 40
5.0
 71
5
  1
Glass Pane\P12.0kg\PGlass
  0
LWPOLYLINE
  5
181
330
17
100
AcDbEntity
  8
0
100
AcDbPolyline
 90
5
 70
1
 10
169.0
 20
2382.0
 10
226.0
 20
2382.0
 10
226.0
 20
2477.0
 10
169.0
 20
2477.0
 10
169.0
 20
2382.0
  0
MTEXT
  5
182
330
17
100
AcDbEntity
  8
0
100
AcDbMText
 10
197.5
 20
2429.5
 30
0.0
 40
5.0
 71
5
  1
Glass Pane\P12.0kg\PGlass
  0
LWPOLYLINE
  5
183
330
17
100
AcDbEntity
  8
0
100
AcDbPolyline
 90
5
 70
1
 10
534.0
 20
1788.0
 10
600.0
 20
1788.0
 10
600.0
 20
1919.0
 10
534.0
 20
1919.0
 10
534.0
 20
1788.0
  0
MTEXT
  5
184
330
17
100
AcDbEntity
  8
0
100
AcDbMText
 10
567.0
 20
1853.5
 30
0.0
 40
5.0
 71
5
  1
Wood Frame\P8.0kg\PWood\P(Stack: 20x)
  0
LWPOLYLINE
  5
185
330
17
100
AcDbEntity
  8
0
100
AcDbPolyline
 90
5
 70
1
 10
496.0
 20
2074.0
 10
589.0
 20
2074.0
 10
589.0
 20
2260.0
 10
496.0
 20
2260.0
 10
496.0
 20
2074.0
  0
MTEXT
  5
186
330
17
100
AcDbEntity
  8
0
100
AcDbMText
 10
542.5
 20
2167.0
 30
0.0
 40
5.0
 71
5
  1
Plastic Sheet\P8.0kg\PPlastic\P(Stack: 2x)
  0
LWPOLYLINE
  5
187
330
17
100
AcDbEntity
  8
0
100
AcDbPolyline
 90
5
 70
1
 10
496.0
 20
2275.0
 10
616.0
 20
2275.0
 10
616.0
 20
2516.0
 10
496.0
 20
2516.0
 10
496.0
 20
2275.0
  0
MTEXT
  5
188
330
17
100
AcDbEntity
  8
0
100
AcDbMText
 10
556.0
 20
2395.5
 30
0.0
 40
5.0
 71
5
  1
Wood Sheet\P20.0kg\PWood\P(Stack: 2x)
  0
LWPOLYLINE
  5
189
330
17
100
AcDbEntity
  8
0
100
AcDbPolyline
 90
5
 70
1
 10
406.0
 20
1723.0
 10
547.0
 20
1723.0
 10
547.0
 20
1770.0
 10
406.0
 20
1770.0
 10
406.0
 20
1723.0
  0
MTEXT
  5
18A
330
17
100
AcDbEntity
  8
0
100
AcDbMText
 10
476.5
 20
1746.5
 30
0.0
 40
5.0
 71
5
  1
Glass Panel\P15.0kg\PGlass
  0
LWPOLYLINE
  5
18B
330
17
100
AcDbEntity
  8
0
100
AcDbPolyline
 90
5
 70
1
 10
456.0
 20
2555.0
 10
566.0
 20
2555.0
 10
566.0
 20
2628.0
 10
456.0
 20
2628.0
 10
456.0
 20
2555.0
  0
MTEXT
  5
18C
330
17
100
AcDbEntity
  8
0
100
AcDbMText
 10
511.0
 20
2591.5
 30
0.0
 40
5.0
 71
5
  1
Glass Sheet\P18.0kg\PGlass
  0
LWPOLYLINE
  5
18D
330
17
100
AcDbEntity
  8
0
100
AcDbPolyline
 90
5
 70
1
 10
523.5
 20
1400.5
 10
574.5
 20
1400.5
 10
574.5
 20
1451.5
 10
523.5
 20
1451.5
 10
523.5
 20
1400.5
  0
MTEXT
  5
18E
330
17
100
AcDbEntity
  8
0
100
AcDbMText
 10
549.0
 20
1426.0
 30
0.0
 40
5.0
 71
5
  1
Plastic Bin\P4.0kg\PPlastic\P(Stack: 3x)
  0
LWPOLYLINE
  5
18F
330
17
100
AcDbEntity
  8
0
100
AcDbPolyline
 90
5
 70
1
 10
333.0
 20
2486.0
 10
385.0
 20
2486.0
 10
385.0
 20
2538.0
 10
333.0
 20
2538.0
 10
333.0
 20
2486.0
  0
MTEXT
  5
190
330
17
100
AcDbEntity
  8
0
100
AcDbMText
 10
359.0
 20
2512.0
 30
0.0
 40
5.0
 71
5
  1
Plastic Bin\P4.0kg\PPlastic\P(Stack: 2x)
  0
LWPOLYLINE
  5
191
330
17
100
AcDbEntity
  8
0
100
AcDbPolyline
 90
5
 70
1
 10
303.0
 20
1946.0
 10
317.0
 20
1946.0
 10
317.0
 20
2128.0
 10
303.0
 20
2128.0
 10
303.0
 20
1946.0
  0
MTEXT
  5
192
330
17
100
AcDbEntity
  8
0
100
AcDbMText
 10
310.0
 20
2037.0
 30
0.0
 40
5.0
 71
5
  1
Plastic Pipe\P3.0kg\PPlastic\P(Stack: 3x)
  0
LWPOLYLINE
  5
193
330
17
100
AcDbEntity
  8
0
100
AcDbPolyline
 90
5
 70
1
 10
534.0
 20
1934.0
 10
599.0
 20
1934.0
 10
599.0
 20
2042.0
 10
534.0
 20
2042.0
 10
534.0
 20
1934.0
  0
MTEXT
  5
194
330
17
100
AcDbEntity
  8
0
100
AcDbMText
 10
566.5
 20
1988.0
 30
0.0
 40
5.0
 71
5
  1
Glass Pane\P12.0kg\PGlass
  0
LWPOLYLINE
  5
195
330
17
100
AcDbEntity
  8
0
100
AcDbPolyline
 90
5
 70
1
 10
241.0
 20
2535.0
 10
298.0
 20
2535.0
 10
298.0
 20
2630.0
 10
241.0
 20
2630.0
 10
241.0
 20
2535.0
  0
MTEXT
  5
196
330
17
100
AcDbEntity
  8
0
100
AcDbMText
 10
269.5
 20
2582.5
 30
0.0
 40
5.0
 71
5
  1
Glass Pane\P12.0kg\PGlass
  0
LWPOLYLINE
  5
197
330
17
100
AcDbEntity
  8
0
100
AcDbPolyline
 90
5
 70
1
 10
169.0
 20
2492.0
 10
215.0
 20
2492.0
 10
215.0
 20
2629.0
 10
169.0
 20
2629.0
 10
169.0
 20
2492.0
  0
MTEXT
  5
198
330
17
100
AcDbEntity
  8
0
100
AcDbMText
 10
192.0
 20
2560.5
 30
0.0
 40
5.0
 71
5
  1
Glass Panel\P15.0kg\PGlass
  0
LWPOLYLINE
  5
199
330
17
100
AcDbEntity
  8
0
100
AcDbPolyline
 90
5
 70
1
 10
333.5
 20
2486.5
 10
385.5
 20
2486.5
 10
385.5
 20
2538.5
 10
333.5
 20
2538.5
 10
333.5
 20
2486.5
  0
MTEXT
  5
19A
330
17
100
AcDbEntity
  8
0
100
AcDbMText
 10
359.5
 20
2512.5
 30
0.0
 40
5.0
 71
5
  1
Plastic Bin\P4.0kg\PPlastic\P(Stack: 2x)
  0
LWPOLYLINE
  5
19B
330
17
100
AcDbEntity
  8
0
100
AcDbPolyline
 90
5
 70
1
 10
615.0
 20
1788.0
 10
635.0
 20
1788.0
 10
635.0
 20
2192.0
 10
615.0
 20
2192.0
 10
615.0
 20
1788.0
  0
MTEXT
  5
19C
330
17
100
AcDbEntity
  8
0
100
AcDbMText
 10
625.0
 20
1990.0
 30
0.0
 40
5.0
 71
5
  1
Wood Beam\P18.0kg\PWood
  0
LWPOLYLINE
  5
19D
330
17
100
AcDbEntity
  8
0
100
AcDbPolyline
 90
5
 70
1
 10
0.0
 20
2800.0
 10
650.0
 20
2800.0
 10
650.0
 20
4050.0
 10
0.0
 20
4050.0
 10
0.0
 20
2800.0
  0
LWPOLYLINE
  5
19E
330
17
100
AcDbEntity
  8
0
100
AcDbPolyline
 90
5
 70
1
 10
0.0
 20
2800.0
 10
63.0
 20
2800.0
 10
63.0
 20
2925.0
 10
0.0
 20
2925.0
 10
0.0
 20
2800.0
  0
MTEXT
  5
19F
330
17
100
AcDbEntity
  8
0
100
AcDbMText
 10
31.5
 20
2862.5
 30
0.0
 40
5.0
 71
5
  1
Concrete Slab\P80.0kg\PConcrete
  0
LWPOLYLINE
  5
1A0
330
17
100
AcDbEntity
  8
0
100
AcDbPolyline
 90
5
 70
1
 10
78.0
 20
2800.0
 10
98.0
 20
2800.0
 10
98.0
 20
3103.0
 10
78.0
 20
3103.0
 10
78.0
 20
2800.0
  0
MTEXT
  5
1A1
330
17
100
AcDbEntity
  8
0
100
AcDbMText
 10
88.0
 20
2951.5
 30
0.0
 40
5.0
 71
5
  1
Steel Pipe\P15.0kg\PSteel
  0
LWPOLYLINE
  5
1A2
330
17
100
AcDbEntity
  8
0
100
AcDbPolyline
 90
5
 70
1
 10
0.0
 20
2940.0
 10
53.0
 20
2940.0
 10
53.0
 20
3046.0
 10
0.0
 20
3046.0
 10
0.0
 20
2940.0
  0
MTEXT
  5
1A3
330
17
100
AcDbEntity
  8
0
100
AcDbMText
 10
26.5
 20
2993.0
 30
0.0
 40
5.0
 71
5
  1
Steel Plate\P25.0kg\PSteel
  0
LWPOLYLINE
  5
1A4
330
17
100
AcDbEntity
  8
0
100
AcDbPolyline
 90
5
 70
1
 10
113.0
 20
2800.0
 10
167.0
 20
2800.0
 10
167.0
 20
2907.0
 10
113.0
 20
2907.0
 10
113.0
 20
2800.0
  0
MTEXT
  5
1A5
330
17
100
AcDbEntity
  8
0
100
AcDbMText
 10
140.0
 20
2853.5
 30
0.0
 40
5.0
 71
5
  1
Steel Plate\P25.0kg\PSteel\P(Stack: 2x)
  0
LWPOLYLINE
  5
1A6
330
17
100
AcDbEntity
  8
0
100
AcDbPolyline
 90
5
 70
1
 10
78.0
 20
3118.0
 10
98.0
 20
3118.0
 10
98.0
 20
3418.0
 10
78.0
 20
3418.0
 10
78.0
 20
3118.0
  0
MTEXT
  5
1A7
330
17
100
AcDbEntity
  8
0
100
AcDbMText
 10
88.0
 20
3268.0
 30
0.0
 40
5.0
 71
5
  1
Steel Pipe\P15.0kg\PSteel
  0
LWPOLYLINE
  5
1A8
330
17
100
AcDbEntity
  8
0
100
AcDbPolyline
 90
5
 70
1
 10
0.0
 20
3061.0
 10
63.0
 20
3061.0
 10
63.0
 20
3187.0
 10
0.0
 20
3187.0
 10
0.0
 20
3061.0
  0
MTEXT
  5
1A9
330
17
100
AcDbEntity
  8
0
100
AcDbMText
 10
31.5
 20
3124.0
 30
0.0
 40
5.0
 71
5
  1
Concrete Slab\P80.0kg\PConcrete\P(Stack: 3x)
  0
LWPOLYLINE
  5
1AA
330
17
100
AcDbEntity
  8
0
100
AcDbPolyline
 90
5
 70
1
 10
182.0
 20
2800.0
 10
244.0
 20
2800.0
 10
244.0
 20
2925.0
 10
182.0
 20
2925.0
 10
182.0
 20
2800.0
  0
MTEXT
  5
1AB
330
17
100
AcDbEntity
  8
0
100
AcDbMText
 10
213.0
 20
2862.5
 30
0.0
 40
5.0
 71
5
  1
Concrete Slab\P80.0kg\PConcrete
  0
LWPOLYLINE
  5
1AC
330
17
100
AcDbEntity
  8
0
100
AcDbPolyline
 90
5
 70
1
 10
113.0
 20
2922.0
 10
157.0
 20
2922.0
 10
157.0
 20
3009.0
 10
113.0
 20
3009.0
 10
113.0
 20
2922.0
  0
MTEXT
  5
1AD
330
17
100
AcDbEntity
  8
0
100
AcDbMText
 10
135.0
 20
2965.5
 30
0.0
 40
5.0
 71
5
  1
Concrete Block\P30.0kg\PConcrete
  0
LWPOLYLINE
  5
1AE
330
17
100
AcDbEntity
  8
0
100
AcDbPolyline
 90
5
 70
1
 10
113.0
 20
3118.0
 10
162.0
 20
3118.0
 10
162.0
 20
3216.0
 10
113.0
 20
3216.0
 10
113.0
 20
3118.0
  0
MTEXT
  5
1AF
330
17
100
AcDbEntity
  8
0
100
AcDbMText
 10
137.5
 20
3167.0
 30
0.0
 40
5.0
 71
5
  1
Steel Plate\P25.0kg\PSteel\P(Stack: 2x)
  0
LWPOLYLINE
  5
1B0
330
17
100
AcDbEntity
  8
0
100
AcDbPolyline
 90
5
 70
1
 10
78.0
 20
3433.0
 10
129.0
 20
3433.0
 10
129.0
 20
3535.0
 10
78.0
 20
3535.0
 10
78.0
 20
3433.0
  0
MTEXT
  5
1B1
330
17
100
AcDbEntity
  8
0
100
AcDbMText
 10
103.5
 20
3484.0
 30
0.0
 40
5.0
 71
5
  1
Steel Plate\P25.0kg\PSteel
  0
LWPOLYLINE
  5
1B2
330
17
100
AcDbEntity
  8
0
100
AcDbPolyline
 90
5
 70
1
 10
0.0
 20
3202.0
 10
46.0
 20
3202.0
 10
46.0
 20
3293.0
 10
0.0
 20
3293.0
 10
0.0
 20
3202.0
  0
MTEXT
  5
1B3
330
17
100
AcDbEntity
  8
0
100
AcDbMText
 10
23.0
 20
3247.5
 30
0.0
 40
5.0
 71
5
  1
Steel Plate\P25.0kg\PSteel
  0
LWPOLYLINE
  5
1B4
330
17
100
AcDbEntity
  8
0
100
AcDbPolyline
 90
5
 70
1
 10
259.0
 20
2800.0
 10
313.0
 20
2800.0
 10
313.0
 20
2908.0
 10
259.0
 20
2908.0
 10
259.0
 20
2800.0
  0
MTEXT
  5
1B5
330
17
100
AcDbEntity
  8
0
100
AcDbMText
 10
286.0
 20
2854.0
 30
0.0
 40
5.0
 71
5
  1
Steel Plate\P25.0kg\PSteel\P(Stack: 10x)
  0
LWPOLYLINE
  5
1B6
330
17
100
AcDbEntity
  8
0
100
AcDbPolyline
 90
5
 70
1
 10
182.0
 20
2940.0
 10
204.0
 20
2940.0
 10
204.0
 20
3269.0
 10
182.0
 20
3269.0
 10
182.0
 20
2940.0
  0
MTEXT
  5
1B7
330
17
100
AcDbEntity
  8
0
100
AcDbMText
 10
193.0
 20
3104.5
 30
0.0
 40
5.0
 71
5
  1
Steel Pipe\P15.0kg\PSteel\P(Stack: 8x)
  0
LWPOLYLINE
  5
1B8
330
17
100
AcDbEntity
  8
0
100
AcDbPolyline
 90
5
 70
1
 10
113.0
 20
3024.0
 10
152.0
 20
3024.0
 10
152.0
 20
3101.0
 10
113.0
 20
3101.0
 10
113.0
 20
3024.0
  0
MTEXT
  5
1B9
330
17
100
AcDbEntity
  8
0
100
AcDbMText
 10
132.5
 20
3062.5
 30
0.0
 40
5.0
 71
5
  1
Concrete Block\P30.0kg\PConcrete
  0
LWPOLYLINE
  5
1BA
330
17
100
AcDbEntity
  8
0
100
AcDbPolyline
 90
5
 70
1
 10
113.0
 20
3231.0
 10
142.0
 20
3231.0
 10
142.0
 20
3328.0
 10
113.0
 20
3328.0
 10
113.0
 20
3231.0
  0
MTEXT
  5
1BB
330
17
100
AcDbEntity
  8
0
100
AcDbMText
 10
127.5
 20
3279.5
 30
0.0
 40
5.0
 71
5
  1
Concrete Pipe\P45.0kg\PConcrete\P(Stack: 5x)
  0
LWPOLYLINE
  5
1BC
330
17
100
AcDbEntity
  8
0
100
AcDbPolyline
 90
5
 70
1
 10
144.0
 20
3433.0
 10
181.0
 20
3433.0
 10
181.0
 20
3507.0
 10
144.0
 20
3507.0
 10
144.0
 20
3433.0
  0
MTEXT
  5
1BD
330
17
100
AcDbEntity
  8
0
100
AcDbMText
 10
162.5
 20
3470.0
 30
0.0
 40
5.0
 71
5
  1
Concrete Block\P30.0kg\PConcrete\P(Stack: 8x)
  0
LWPOLYLINE
  5
1BE
330
17
100
AcDbEntity
  8
0
100
AcDbPolyline
 90
5
 70
1
 10
113.5
 20
3231.5
 10
142.5
 20
3231.5
 10
142.5
 20
3328.5
 10
113.5
 20
3328.5
 10
113.5
 20
3231.5
  0
MTEXT
  5
1BF
330
17
100
AcDbEntity
  8
0
100
AcDbMText
 10
128.0
 20
3280.0
 30
0.0
 40
5.0
 71
5
  1
Concrete Pipe\P45.0kg\PConcrete\P(Stack: 5x)
  0
LWPOLYLINE
  5
1C0
330
17
100
AcDbEntity
  8
0
100
AcDbPolyline
 90
5
 70
1
 10
78.0
 20
3550.0
 10
106.0
 20
3550.0
 10
106.0
 20
3642.0
 10
78.0
 20
3642.0
 10
78.0
 20
3550.0
  0
MTEXT
  5
1C1
330
17
100
AcDbEntity
  8
0
100
AcDbMText
 10
92.0
 20
3596.0
 30
0.0
 40
5.0
 71
5
  1
Concrete Pipe\P45.0kg\PConcrete\P(Stack: 2x)
  0
LWPOLYLINE
  5
1C2
330
17
100
AcDbEntity
  8
0
100
AcDbPolyline
 90
5
 70
1
 10
0.0
 20
3308.0
 10
54.0
 20
3308.0
 10
54.0
 20
3362.0
 10
0.0
 20
3362.0
 10
0.0
 20
3308.0
  0
MTEXT
  5
1C3
330
17
100
AcDbEntity
  8
0
100
AcDbMText
 10
27.0
 20
3335.0
 30
0.0
 40
5.0
 71
5
  1
Concrete Tile\P15.0kg\PConcrete\P(Stack: 12x)
  0
LWPOLYLINE
  5
1C4
330
17
100
AcDbEntity
  8
0
100
AcDbPolyline
 90
5
 70
1
 10
328.0
 20
2800.0
 10
367.0
 20
2800.0
 10
367.0
 20
2879.0
 10
328.0
 20
2879.0
 10
328.0
 20
2800.0
  0
MTEXT
  5
1C5
330
17
100
AcDbEntity
  8
0
100
AcDbMText
 10
347.5
 20
2839.5
 30
0.0
 40
5.0
 71
5
  1
Concrete Block\P30.0kg\PConcrete\P(Stack: 8x)
  0
LWPOLYLINE
  5
1C6
330
17
100
AcDbEntity
  8
0
100
AcDbPolyline
 90
5
 70
1
 10
259.0
 20
2923.0
 10
291.0
 20
2923.0
 10
291.0
 20
3354.0
 10
259.0
 20
3354.0
 10
259.0
 20
2923.0
  0
MTEXT
  5
1C7
330
17
100
AcDbEntity
  8
0
100
AcDbMText
 10
275.0
 20
3138.5
 30
0.0
 40
5.0
 71
5
  1
Steel Beam\P45.0kg\PSteel\P(Stack: 2x)
  0
LWPOLYLINE
  5
1C8
330
17
100
AcDbEntity
  8
0
100
AcDbPolyline
 90
5
 70
1
 10
259.5
 20
2800.5
 10
313.5
 20
2800.5
 10
313.5
 20
2908.5
 10
259.5
 20
2908.5
 10
259.5
 20
2800.5
  0
MTEXT
  5
1C9
330
17
100
AcDbEntity
  8
0
100
AcDbMText
 10
286.5
 20
2854.5
 30
0.0
 40
5.0
 71
5
  1
Steel Plate\P25.0kg\PSteel\P(Stack: 10x)
  0
LWPOLYLINE
  5
1CA
330
17
100
AcDbEntity
  8
0
100
AcDbPolyline
 90
5
 70
1
 10
182.0
 20
3284.0
 10
224.0
 20
3284.0
 10
224.0
 20
3369.0
 10
182.0
 20
3369.0
 10
182.0
 20
3284.0
  0
MTEXT
  5
1CB
330
17
100
AcDbEntity
  8
0
100
AcDbMText
 10
203.0
 20
3326.5
 30
0.0
 40
5.0
 71
5
  1
Steel Rebar Bundle\P35.0kg\PSteel\P(Stack: 6x)
  0
LWPOLYLINE
  5
1CC
330
17
100
AcDbEntity
  8
0
100
AcDbPolyline
 90
5
 70
1
 10
196.0
 20
3433.0
 10
227.0
 20
3433.0
 10
227.0
 20
3537.0
 10
196.0
 20
3537.0
 10
196.0
 20
3433.0
  0
MTEXT
  5
1CD
330
17
100
AcDbEntity
  8
0
100
AcDbMText
 10
211.5
 20
3485.0
 30
0.0
 40
5.0
 71
5
  1
Concrete Pipe\P45.0kg\PConcrete\P(Stack: 5x)
  0
LWPOLYLINE
  5
1CE
330
17
100
AcDbEntity
  8
0
100
AcDbPolyline
 90
5
 70
1
 10
121.0
 20
3550.0
 10
163.0
 20
3550.0
 10
163.0
 20
3635.0
 10
121.0
 20
3635.0
 10
121.0
 20
3550.0
  0
MTEXT
  5
1CF
330
17
100
AcDbEntity
  8
0
100
AcDbMText
 10
142.0
 20
3592.5
 30
0.0
 40
5.0
 71
5
  1
Steel Rebar Bundle\P35.0kg\PSteel\P(Stack: 6x)
  0
LWPOLYLINE
  5
1D0
330
17
100
AcDbEntity
  8
0
100
AcDbPolyline
 90
5
 70
1
 10
78.0
 20
3657.0
 10
120.0
 20
3657.0
 10
120.0
 20
3742.0
 10
78.0
 20
3742.0
 10
78.0
 20
3657.0
  0
MTEXT
  5
1D1
330
17
100
AcDbEntity
  8
0
100
AcDbMText
 10
99.0
 20
3699.5
 30
0.0
 40
5.0
 71
5
  1
Steel Rebar Bundle\P35.0kg\PSteel\P(Stack: 5x)
  0
LWPOLYLINE
  5
1D2
330
17
100
AcDbEntity
  8
0
100
AcDbPolyline
 90
5
 70
1
 10
0.0
 20
3377.0
 10
63.0
 20
3377.0
 10
63.0
 20
3503.0
 10
0.0
 20
3503.0
 10
0.0
 20
3377.0
  0
MTEXT
  5
1D3
330
17
100
AcDbEntity
  8
0
100
AcDbMText
 10
31.5
 20
3440.0
 30
0.0
 40
5.0
 71
5
  1
Concrete Slab\P80.0kg\PConcrete\P(Stack: 3x)
  0
LWPOLYLINE
  5
1D4
330
17
100
AcDbEntity
  8
0
100
AcDbPolyline
 90
5
 70
1
 10
382.0
 20
2800.0
 10
420.0
 20
2800.0
 10
420.0
 20
2876.0
 10
382.0
 20
2876.0
 10
382.0
 20
2800.0
  0
MTEXT
  5
1D5
330
17
100
AcDbEntity
  8
0
100
AcDbMText
 10
401.0
 20
2838.0
 30
0.0
 40
5.0
 71
5
  1
Concrete Block\P30.0kg\PConcrete\P(Stack: 8x)
  0
LWPOLYLINE
  5
1D6
330
17
100
AcDbEntity
  8
0
100
AcDbPolyline
 90
5
 70
1
 10
113.0
 20
3343.0
 10
151.0
 20
3343.0
 10
151.0
 20
3418.0
 10
113.0
 20
3418.0
 10
113.0
 20
3343.0
  0
MTEXT
  5
1D7
330
17
100
AcDbEntity
  8
0
100
AcDbMText
 10
132.0
 20
3380.5
 30
0.0
 40
5.0
 71
5
  1
Steel Rebar Bundle\P35.0kg\PSteel\P(Stack: 2x)
  0
LWPOLYLINE
  5
1D8
330
17
100
AcDbEntity
  8
0
100
AcDbPolyline
 90
5
 70
1
 10
219.0
 20
2940.0
 10
240.0
 20
2940.0
 10
240.0
 20
3262.0
 10
219.0
 20
3262.0
 10
219.0
 20
2940.0
  0
MTEXT
  5
1D9
330
17
100
AcDbEntity
  8
0
100
AcDbMText
 10
229.5
 20
3101.0
 30
0.0
 40
5.0
 71
5
  1
Steel Pipe\P15.0kg\PSteel\P(Stack: 2x)
  0
LWPOLYLINE
  5
1DA
330
17
100
AcDbEntity
  8
0
100
AcDbPolyline
 90
5
 70
1
 10
328.0
 20
2894.0
 10
368.0
 20
2894.0
 10
368.0
 20
2974.0
 10
328.0
 20
2974.0
 10
328.0
 20
2894.0
  0
MTEXT
  5
1DB
330
17
100
AcDbEntity
  8
0
100
AcDbMText
 10
348.0
 20
2934.0
 30
0.0
 40
5.0
 71
5
  1
Steel Rebar Bundle\P35.0kg\PSteel\P(Stack: 6x)
  0
LWPOLYLINE
  5
1DC
330
17
100
AcDbEntity
  8
0
100
AcDbPolyline
 90
5
 70
1
 10
259.0
 20
3369.0
 10
288.0
 20
3369.0
 10
288.0
 20
3466.0
 10
259.0
 20
3466.0
 10
259.0
 20
3369.0
  0
MTEXT
  5
1DD
330
17
100
AcDbEntity
  8
0
100
AcDbMText
 10
273.5
 20
3417.5
 30
0.0
 40
5.0
 71
5
  1
Concrete Pipe\P45.0kg\PConcrete\P(Stack: 5x)
  0
LWPOLYLINE
  5
1DE
330
17
100
AcDbEntity
  8
0
100
AcDbPolyline
 90
5
 70
1
 10
196.0
 20
3552.0
 10
216.0
 20
3552.0
 10
216.0
 20
3851.0
 10
196.0
 20
3851.0
 10
196.0
 20
3552.0
  0
MTEXT
  5
1DF
330
17
100
AcDbEntity
  8
0
100
AcDbMText
 10
206.0
 20
3701.5
 30
0.0
 40
5.0
 71
5
  1
Steel Pipe\P15.0kg\PSteel\P(Stack: 2x)
  0
LWPOLYLINE
  5
1E0
330
17
100
AcDbEntity
  8
0
100
AcDbPolyline
 90
5
 70
1
 10
259.5
 20
3369.5
 10
288.5
 20
3369.5
 10
288.5
 20
3466.5
 10
259.5
 20
3466.5
 10
259.5
 20
3369.5
  0
MTEXT
  5
1E1
330
17
100
AcDbEntity
  8
0
100
AcDbMText
 10
274.0
 20
3418.0
 30
0.0
 40
5.0
 71
5
  1
Concrete Pipe\P45.0kg\PConcrete\P(Stack: 5x)
  0
LWPOLYLINE
  5
1E2
330
17
100
AcDbEntity
  8
0
100
AcDbPolyline
 90
5
 70
1
 10
78.0
 20
3757.0
 10
132.0
 20
3757.0
 10
132.0
 20
3811.0
 10
78.0
 20
3811.0
 10
78.0
 20
3757.0
  0
MTEXT
  5
1E3
330
17
100
AcDbEntity
  8
0
100
AcDbMText
 10
105.0
 20
3784.0
 30
0.0
 40
5.0
 71
5
  1
Concrete Tile\P15.0kg\PConcrete\P(Stack: 12x)
  0
LWPOLYLINE
  5
1E4
330
17
100
AcDbEntity
  8
0
100
AcDbPolyline
 90
5
 70
1
 10
0.0
 20
3518.0
 10
52.0
 20
3518.0
 10
52.0
 20
3622.0
 10
0.0
 20
3622.0
 10
0.0
 20
3518.0
  0
MTEXT
  5
1E5
330
17
100
AcDbEntity
  8
0
100
AcDbMText
 10
26.0
 20
3570.0
 30
0.0
 40
5.0
 71
5
  1
Steel Plate\P25.0kg\PSteel\P(Stack: 10x)
  0
LWPOLYLINE
  5
1E6
330
17
100
AcDbEntity
  8
0
100
AcDbPolyline
 90
5
 70
1
 10
135.0
 20
3657.0
 10
174.0
 20
3657.0
 10
174.0
 20
3735.0
 10
135.0
 20
3735.0
 10
135.0
 20
3657.0
  0
MTEXT
  5
1E7
330
17
100
AcDbEntity
  8
0
100
AcDbMText
 10
154.5
 20
3696.0
 30
0.0
 40
5.0
 71
5
  1
Concrete Block\P30.0kg\PConcrete\P(Stack: 2x)
  0
LWPOLYLINE
  5
1E8
330
17
100
AcDbEntity
  8
0
100
AcDbPolyline
 90
5
 70
1
 10
435.0
 20
2800.0
 10
472.0
 20
2800.0
 10
472.0
 20
2873.0
 10
435.0
 20
2873.0
 10
435.0
 20
2800.0
  0
MTEXT
  5
1E9
330
17
100
AcDbEntity
  8
0
100
AcDbMText
 10
453.5
 20
2836.5
 30
0.0
 40
5.0
 71
5
  1
Concrete Block\P30.0kg\PConcrete\P(Stack: 8x)
  0
LWPOLYLINE
  5
1EA
330
17
100
AcDbEntity
  8
0
100
AcDbPolyline
 90
5
 70
1
 10
383.0
 20
2894.0
 10
439.0
 20
2894.0
 10
439.0
 20
3005.0
 10
383.0
 20
3005.0
 10
383.0
 20
2894.0
  0
MTEXT
  5
1EB
330
17
100
AcDbEntity
  8
0
100
AcDbMText
 10
411.0
 20
2949.5
 30
0.0
 40
5.0
 71
5
  1
Concrete Slab\P80.0kg\PConcrete\P(Stack: 3x)
  0
LWPOLYLINE
  5
1EC
330
17
100
AcDbEntity
  8
0
100
AcDbPolyline
 90
5
 70
1
 10
303.0
 20
3369.0
 10
366.0
 20
3369.0
 10
366.0
 20
3495.0
 10
303.0
 20
3495.0
 10
303.0
 20
3369.0
  0
MTEXT
  5
1ED
330
17
100
AcDbEntity
  8
0
100
AcDbMText
 10
334.5
 20
3432.0
 30
0.0
 40
5.0
 71
5
  1
Concrete Slab\P80.0kg\PConcrete\P(Stack: 3x)
  0
LWPOLYLINE
  5
1EE
330
17
100
AcDbEntity
  8
0
100
AcDbPolyline
 90
5
 70
1
 10
328.0
 20
2989.0
 10
361.0
 20
2989.0
 10
361.0
 20
3098.0
 10
328.0
 20
3098.0
 10
328.0
 20
2989.0
  0
MTEXT
  5
1EF
330
17
100
AcDbEntity
  8
0
100
AcDbMText
 10
344.5
 20
3043.5
 30
0.0
 40
5.0
 71
5
  1
Concrete Pipe\P45.0kg\PConcrete\P(Stack: 5x)
  0
LWPOLYLINE
  5
1F0
330
17
100
AcDbEntity
  8
0
100
AcDbPolyline
 90
5
 70
1
 10
231.0
 20
3552.0
 10
272.0
 20
3552.0
 10
272.0
 20
3634.0
 10
231.0
 20
3634.0
 10
231.0
 20
3552.0
  0
MTEXT
  5
1F1
330
17
100
AcDbEntity
  8
0
100
AcDbMText
 10
251.5
 20
3593.0
 30
0.0
 40
5.0
 71
5
  1
Steel Rebar Bundle\P35.0kg\PSteel\P(Stack: 6x)
  0
LWPOLYLINE
  5
1F2
330
17
100
AcDbEntity
  8
0
100
AcDbPolyline
 90
5
 70
1
 10
196.0
 20
3866.0
 10
225.0
 20
3866.0
 10
225.0
 20
3963.0
 10
196.0
 20
3963.0
 10
196.0
 20
3866.0
  0
MTEXT
  5
1F3
330
17
100
AcDbEntity
  8
0
100
AcDbMText
 10
210.5
 20
3914.5
 30
0.0
 40
5.0
 71
5
  1
Concrete Pipe\P45.0kg\PConcrete\P(Stack: 5x)
  0
LWPOLYLINE
  5
1F4
330
17
100
AcDbEntity
  8
0
100
AcDbPolyline
 90
5
 70
1
 10
78.0
 20
3826.0
 10
118.0
 20
3826.0
 10
118.0
 20
3906.0
 10
78.0
 20
3906.0
 10
78.0
 20
3826.0
  0
MTEXT
  5
1F5
330
17
100
AcDbEntity
  8
0
100
AcDbMText
 10
98.0
 20
3866.0
 30
0.0
 40
5.0
 71
5
  1
Steel Rebar Bundle\P35.0kg\PSteel\P(Stack: 6x)
  0
LWPOLYLINE
  5
1F6
330
17
100
AcDbEntity
  8
0
100
AcDbPolyline
 90
5
 70
1
 10
0.0
 20
3637.0
 10
48.0
 20
3637.0
 10
48.0
 20
3732.0
 10
0.0
 20
3732.0
 10
0.0
 20
3637.0
  0
MTEXT
  5
1F7
330
17
100
AcDbEntity
  8
0
100
AcDbMText
 10
24.0
 20
3684.5
 30
0.0
 40
5.0
 71
5
  1
Steel Plate\P25.0kg\PSteel\P(Stack: 2x)
  0
LWPOLYLINE
  5
1F8
330
17
100
AcDbEntity
  8
0
100
AcDbPolyline
 90
5
 70
1
 10
147.0
 20
3757.0
 10
178.0
 20
3757.0
 10
178.0
 20
3861.0
 10
147.0
 20
3861.0
 10
147.0
 20
3757.0
  0
MTEXT
  5
1F9
330
17
100
AcDbEntity
  8
0
100
AcDbMText
 10
162.5
 20
3809.0
 30
0.0
 40
5.0
 71
5
  1
Concrete Pipe\P45.0kg\PConcrete\P(Stack: 5x)
  0
LWPOLYLINE
  5
1FA
330
17
100
AcDbEntity
  8
0
100
AcDbPolyline
 90
5
 70
1
 10
487.0
 20
2800.0
 10
532.0
 20
2800.0
 10
532.0
 20
2890.0
 10
487.0
 20
2890.0
 10
487.0
 20
2800.0
  0
MTEXT
  5
1FB
330
17
100
AcDbEntity
  8
0
100
AcDbMText
 10
509.5
 20
2845.0
 30
0.0
 40
5.0
 71
5
  1
Steel Plate\P25.0kg\PSteel\P(Stack: 2x)
  0
LWPOLYLINE
  5
1FC
330
17
100
AcDbEntity
  8
0
100
AcDbPolyline
 90
5
 70
1
 10
383.0
 20
3020.0
 10
424.0
 20
3020.0
 10
424.0
 20
3102.0
 10
383.0
 20
3102.0
 10
383.0
 20
3020.0
  0
MTEXT
  5
1FD
330
17
100
AcDbEntity
  8
0
100
AcDbMText
 10
403.5
 20
3061.0
 30
0.0
 40
5.0
 71
5
  1
Steel Rebar Bundle\P35.0kg\PSteel\P(Stack: 6x)
  0
LWPOLYLINE
  5
1FE
330
17
100
AcDbEntity
  8
0
100
AcDbPolyline
 90
5
 70
1
 10
381.0
 20
3369.0
 10
437.0
 20
3369.0
 10
437.0
 20
3480.0
 10
381.0
 20
3480.0
 10
381.0
 20
3369.0
  0
MTEXT
  5
1FF
330
17
100
AcDbEntity
  8
0
100
AcDbMText
 10
409.0
 20
3424.5
 30
0.0
 40
5.0
 71
5
  1
Concrete Slab\P80.0kg\PConcrete\P(Stack: 3x)
  0
LWPOLYLINE
  5
200
330
17
100
AcDbEntity
  8
0
100
AcDbPolyline
 90
5
 70
1
 10
303.0
 20
3510.0
 10
357.0
 20
3510.0
 10
357.0
 20
3564.0
 10
303.0
 20
3564.0
 10
303.0
 20
3510.0
  0
MTEXT
  5
201
330
17
100
AcDbEntity
  8
0
100
AcDbMText
 10
330.0
 20
3537.0
 30
0.0
 40
5.0
 71
5
  1
Concrete Tile\P15.0kg\PConcrete\P(Stack: 12x)
  0
LWPOLYLINE
  5
202
330
17
100
AcDbEntity
  8
0
100
AcDbPolyline
 90
5
 70
1
 10
303.5
 20
3369.5
 10
366.5
 20
3369.5
 10
366.5
 20
3495.5
 10
303.5
 20
3495.5
 10
303.5
 20
3369.5
  0
MTEXT
  5
203
330
17
100
AcDbEntity
  8
0
100
AcDbMText
 10
335.0
 20
3432.5
 30
0.0
 40
5.0
 71
5
  1
Concrete Slab\P80.0kg\PConcrete\P(Stack: 3x)
  0
LWPOLYLINE
  5
204
330
17
100
AcDbEntity
  8
0
100
AcDbPolyline
 90
5
 70
1
 10
328.0
 20
3113.0
 10
357.0
 20
3113.0
 10
357.0
 20
3210.0
 10
328.0
 20
3210.0
 10
328.0
 20
3113.0
  0
MTEXT
  5
205
330
17
100
AcDbEntity
  8
0
100
AcDbMText
 10
342.5
 20
3161.5
 30
0.0
 40
5.0
 71
5
  1
Concrete Pipe\P45.0kg\PConcrete\P(Stack: 5x)
  0
LWPOLYLINE
  5
206
330
17
100
AcDbEntity
  8
0
100
AcDbPolyline
 90
5
 70
1
 10
231.0
 20
3649.0
 10
271.0
 20
3649.0
 10
271.0
 20
3729.0
 10
231.0
 20
3729.0
 10
231.0
 20
3649.0
  0
MTEXT
  5
207
330
17
100
AcDbEntity
  8
0
100
AcDbMText
 10
251.0
 20
3689.0
 30
0.0
 40
5.0
 71
5
  1
Steel Rebar Bundle\P35.0kg\PSteel\P(Stack: 6x)
  0
LWPOLYLINE
  5
208
330
17
100
AcDbEntity
  8
0
100
AcDbPolyline
 90
5
 70
1
 10
240.0
 20
3866.0
 10
279.0
 20
3866.0
 10
279.0
 20
3945.0
 10
240.0
 20
3945.0
 10
240.0
 20
3866.0
  0
MTEXT
  5
209
330
17
100
AcDbEntity
  8
0
100
AcDbMText
 10
259.5
 20
3905.5
 30
0.0
 40
5.0
 71
5
  1
Concrete Block\P30.0kg\PConcrete\P(Stack: 8x)
  0
LWPOLYLINE
  5
20A
330
17
100
AcDbEntity
  8
0
100
AcDbPolyline
 90
5
 70
1
 10
196.0
 20
3978.0
 10
247.0
 20
3978.0
 10
247.0
 20
4029.0
 10
196.0
 20
4029.0
 10
196.0
 20
3978.0
  0
MTEXT
  5
20B
330
17
100
AcDbEntity
  8
0
100
AcDbMText
 10
221.5
 20
4003.5
 30
0.0
 40
5.0
 71
5
  1
Concrete Tile\P15.0kg\PConcrete\P(Stack: 12x)
  0
LWPOLYLINE
  5
20C
330
17
100
AcDbEntity
  8
0
100
AcDbPolyline
 90
5
 70
1
 10
144.5
 20
3433.5
 10
181.5
 20
3433.5
 10
181.5
 20
3507.5
 10
144.5
 20
3507.5
 10
144.5
 20
3433.5
  0
MTEXT
  5
20D
330
17
100
AcDbEntity
  8
0
100
AcDbMText
 10
163.0
 20
3470.5
 30
0.0
 40
5.0
 71
5
  1
Concrete Block\P30.0kg\PConcrete\P(Stack: 8x)
  0
LWPOLYLINE
  5
20E
330
17
100
AcDbEntity
  8
0
100
AcDbPolyline
 90
5
 70
1
 10
78.0
 20
3921.0
 10
132.0
 20
3921.0
 10
132.0
 20
3975.0
 10
78.0
 20
3975.0
 10
78.0
 20
3921.0
  0
MTEXT
  5
20F
330
17
100
AcDbEntity
  8
0
100
AcDbMText
 10
105.0
 20
3948.0
 30
0.0
 40
5.0
 71
5
  1
Concrete Tile\P15.0kg\PConcrete\P(Stack: 12x)
  0
LWPOLYLINE
  5
210
330
17
100
AcDbEntity
  8
0
100
AcDbPolyline
 90
5
 70
1
 10
0.0
 20
3747.0
 10
54.0
 20
3747.0
 10
54.0
 20
3855.0
 10
0.0
 20
3855.0
 10
0.0
 20
3747.0
  0
MTEXT
  5
211
330
17
100
AcDbEntity
  8
0
100
AcDbMText
 10
27.0
 20
3801.0
 30
0.0
 40
5.0
 71
5
  1
Steel Plate\P25.0kg\PSteel\P(Stack: 10x)
  0
LWPOLYLINE
  5
212
330
17
100
AcDbEntity
  8
0
100
AcDbPolyline
 90
5
 70
1
 10
547.0
 20
2800.0
 10
588.0
 20
2800.0
 10
588.0
 20
2882.0
 10
547.0
 20
2882.0
 10
547.0
 20
2800.0
  0
MTEXT
  5
213
330
17
100
AcDbEntity
  8
0
100
AcDbMText
 10
567.5
 20
2841.0
 30
0.0
 40
5.0
 71
5
  1
Steel Rebar Bundle\P35.0kg\PSteel\P(Stack: 6x)
  0
LWPOLYLINE
  5
214
330
17
100
AcDbEntity
  8
0
100
AcDbPolyline
 90
5
 70
1
 10
147.0
 20
3876.0
 10
176.0
 20
3876.0
 10
176.0
 20
3974.0
 10
147.0
 20
3974.0
 10
147.0
 20
3876.0
  0
MTEXT
  5
215
330
17
100
AcDbEntity
  8
0
100
AcDbMText
 10
161.5
 20
3925.0
 30
0.0
 40
5.0
 71
5
  1
Concrete Pipe\P45.0kg\PConcrete\P(Stack: 5x)
  0
LWPOLYLINE
  5
216
330
17
100
AcDbEntity
  8
0
100
AcDbPolyline
 90
5
 70
1
 10
487.0
 20
2905.0
 10
508.0
 20
2905.0
 10
508.0
 20
3220.0
 10
487.0
 20
3220.0
 10
487.0
 20
2905.0
  0
MTEXT
  5
217
330
17
100
AcDbEntity
  8
0
100
AcDbMText
 10
497.5
 20
3062.5
 30
0.0
 40
5.0
 71
5
  1
Steel Pipe\P15.0kg\PSteel
  0
LWPOLYLINE
  5
218
330
17
100
AcDbEntity
  8
0
100
AcDbPolyline
 90
5
 70
1
 10
383.0
 20
3117.0
 10
433.0
 20
3117.0
 10
433.0
 20
3217.0
 10
383.0
 20
3217.0
 10
383.0
 20
3117.0
  0
MTEXT
  5
219
330
17
100
AcDbEntity
  8
0
100
AcDbMText
 10
408.0
 20
3167.0
 30
0.0
 40
5.0
 71
5
  1
Steel Plate\P25.0kg\PSteel\P(Stack: 2x)
  0
LWPOLYLINE
  5
21A
330
17
100
AcDbEntity
  8
0
100
AcDbPolyline
 90
5
 70
1
 10
113.5
 20
3118.5
 10
162.5
 20
3118.5
 10
162.5
 20
3216.5
 10
113.5
 20
3216.5
 10
113.5
 20
3118.5
  0
MTEXT
  5
21B
330
17
100
AcDbEntity
  8
0
100
AcDbMText
 10
138.0
 20
3167.5
 30
0.0
 40
5.0
 71
5
  1
Steel Plate\P25.0kg\PSteel\P(Stack: 2x)
  0
LWPOLYLINE
  5
21C
330
17
100
AcDbEntity
  8
0
100
AcDbPolyline
 90
5
 70
1
 10
452.0
 20
3369.0
 10
501.0
 20
3369.0
 10
501.0
 20
3418.0
 10
452.0
 20
3418.0
 10
452.0
 20
3369.0
  0
MTEXT
  5
21D
330
17
100
AcDbEntity
  8
0
100
AcDbMText
 10
476.5
 20
3393.5
 30
0.0
 40
5.0
 71
5
  1
Concrete Tile\P15.0kg\PConcrete\P(Stack: 12x)
  0
LWPOLYLINE
  5
21E
330
17
100
AcDbEntity
  8
0
100
AcDbPolyline
 90
5
 70
1
 10
381.0
 20
3495.0
 10
427.0
 20
3495.0
 10
427.0
 20
3541.0
 10
381.0
 20
3541.0
 10
381.0
 20
3495.0
  0
MTEXT
  5
21F
330
17
100
AcDbEntity
  8
0
100
AcDbMText
 10
404.0
 20
3518.0
 30
0.0
 40
5.0
 71
5
  1
Concrete Tile\P15.0kg\PConcrete\P(Stack: 2x)
  0
LWPOLYLINE
  5
220
330
17
100
AcDbEntity
  8
0
100
AcDbPolyline
 90
5
 70
1
 10
303.0
 20
3579.0
 10
350.0
 20
3579.0
 10
350.0
 20
3674.0
 10
303.0
 20
3674.0
 10
303.0
 20
3579.0
  0
MTEXT
  5
221
330
17
100
AcDbEntity
  8
0
100
AcDbMText
 10
326.5
 20
3626.5
 30
0.0
 40
5.0
 71
5
  1
Steel Plate\P25.0kg\PSteel\P(Stack: 10x)
  0
LWPOLYLINE
  5
222
330
17
100
AcDbEntity
  8
0
100
AcDbPolyline
 90
5
 70
1
 10
182.5
 20
2940.5
 10
204.5
 20
2940.5
 10
204.5
 20
3269.5
 10
182.5
 20
3269.5
 10
182.5
 20
2940.5
  0
MTEXT
  5
223
330
17
100
AcDbEntity
  8
0
100
AcDbMText
 10
193.5
 20
3105.0
 30
0.0
 40
5.0
 71
5
  1
Steel Pipe\P15.0kg\PSteel\P(Stack: 8x)
  0
LWPOLYLINE
  5
224
330
17
100
AcDbEntity
  8
0
100
AcDbPolyline
 90
5
 70
1
 10
231.0
 20
3744.0
 10
278.0
 20
3744.0
 10
278.0
 20
3839.0
 10
231.0
 20
3839.0
 10
231.0
 20
3744.0
  0
MTEXT
  5
225
330
17
100
AcDbEntity
  8
0
100
AcDbMText
 10
254.5
 20
3791.5
 30
0.0
 40
5.0
 71
5
  1
Steel Plate\P25.0kg\PSteel\P(Stack: 10x)
  0
ENDSEC
  0
SECTION
  2
OBJECTS
  0
DICTIONARY
  5
A
330
0
100
AcDbDictionary
281
1
  3
ACAD_COLOR
350
B
  3
ACAD_GROUP
350
C
  3
ACAD_LAYOUT
350
D
  3
ACAD_MATERIAL
350
E
  3
ACAD_MLEADERSTYLE
350
F
  3
ACAD_MLINESTYLE
350
10
  3
ACAD_PLOTSETTINGS
350
11
  3
ACAD_PLOTSTYLENAME
350
12
  3
ACAD_SCALELIST
350
14
  3
ACAD_TABLESTYLE
350
15
  3
ACAD_VISUALSTYLE
350
16
  3
EZDXF_META
350
2D
  0
DICTIONARY
  5
B
330
A
100
AcDbDictionary
281
1
  0
DICTIONARY
  5
C
330
A
100
AcDbDictionary
281
1
  0
DICTIONARY
  5
D
330
A
100
AcDbDictionary
281
1
  3
Model
350
1A
  3
Layout1
350
1E
  0
DICTIONARY
  5
E
330
A
100
AcDbDictionary
281
1
  3
ByBlock
350
1F
  3
ByLayer
350
20
  3
Global
350
21
  0
DICTIONARY
  5
F
330
A
100
AcDbDictionary
281
1
  3
Standard
350
2C
  0
DICTIONARY
  5
10
330
A
100
AcDbDictionary
281
1
  3
Standard
350
22
  0
DICTIONARY
  5
11
330
A
100
AcDbDictionary
281
1
  0
ACDBDICTIONARYWDFLT
  5
12
330
A
100
AcDbDictionary
281
1
  3
Normal
350
13
100
AcDbDictionaryWithDefault
340
13
  0
ACDBPLACEHOLDER
  5
13
330
12
  0
DICTIONARY
  5
14
330
A
100
AcDbDictionary
281
1
  0
DICTIONARY
  5
15
330
A
100
AcDbDictionary
281
1
  0
DICTIONARY
  5
16
330
A
100
AcDbDictionary
281
1
  0
LAYOUT
  5
1A
330
D
100
AcDbPlotSettings
  1

  4
A3
  6

 40
7.5
 41
20.0
 42
7.5
 43
20.0
 44
420.0
 45
297.0
 46
0.0
 47
0.0
 48
0.0
 49
0.0
140
0.0
141
0.0
142
1.0
143
1.0
 70
1024
 72
1
 73
0
 74
5
  7

 75
16
 76
0
 77
2
 78
300
147
1.0
148
0.0
149
0.0
100
AcDbLayout
  1
Model
 70
1
 71
0
 10
0.0
 20
0.0
 11
420.0
 21
297.0
 12
0.0
 22
0.0
 32
0.0
 14
1e+20
 24
1e+20
 34
1e+20
 15
-1e+20
 25
-1e+20
 35
-1e+20
146
0.0
 13
0.0
 23
0.0
 33
0.0
 16
1.0
 26
0.0
 36
0.0
 17
0.0
 27
1.0
 37
0.0
 76
1
330
17
  0
LAYOUT
  5
1E
330
D
100
AcDbPlotSettings
  1

  4
A3
  6

 40
7.5
 41
20.0
 42
7.5
 43
20.0
 44
420.0
 45
297.0
 46
0.0
 47
0.0
 48
0.0
 49
0.0
140
0.0
141
0.0
142
1.0
143
1.0
 70
0
 72
1
 73
0
 74
5
  7

 75
16
 76
0
 77
2
 78
300
147
1.0
148
0.0
149
0.0
100
AcDbLayout
  1
Layout1
 70
1
 71
1
 10
0.0
 20
0.0
 11
420.0
 21
297.0
 12
0.0
 22
0.0
 32
0.0
 14
1e+20
 24
1e+20
 34
1e+20
 15
-1e+20
 25
-1e+20
 35
-1e+20
146
0.0
 13
0.0
 23
0.0
 33
0.0
 16
1.0
 26
0.0
 36
0.0
 17
0.0
 27
1.0
 37
0.0
 76
1
330
1B
  0
MATERIAL
  5
1F
102
{ACAD_REACTORS
330
E
102
}
330
E
100
AcDbMaterial
  1
ByBlock
  2

 70
0
 40
1.0
 71
1
 41
1.0
 91
-1023410177
 42
1.0
 72
1
  3

 73
1
 74
1
 75
1
 44
0.5
 73
0
 45
1.0
 46
1.0
 77
1
  4

 78
1
 79
1
170
1
 48
1.0
171
1
  6

172
1
173
1
174
1
140
1.0
141
1.0
175
1
  7

176
1
177
1
178
1
143
1.0
179
1
  8

270
1
271
1
272
1
145
1.0
146
1.0
273
1
  9

274
1
275
1
276
1
 42
1.0
 72
1
  3

 73
1
 74
1
 75
1
 94
63
  0
MATERIAL
  5
20
102
{ACAD_REACTORS
330
E
102
}
330
E
100
AcDbMaterial
  1
ByLayer
  2

 70
0
 40
1.0
 71
1
 41
1.0
 91
-1023410177
 42
1.0
 72
1
  3

 73
1
 74
1
 75
1
 44
0.5
 73
0
 45
1.0
 46
1.0
 77
1
  4

 78
1
 79
1
170
1
 48
1.0
171
1
  6

172
1
173
1
174
1
140
1.0
141
1.0
175
1
  7

176
1
177
1
178
1
143
1.0
179
1
  8

270
1
271
1
272
1
145
1.0
146
1.0
273
1
  9

274
1
275
1
276
1
 42
1.0
 72
1
  3

 73
1
 74
1
 75
1
 94
63
  0
MATERIAL
  5
21
102
{ACAD_REACTORS
330
E
102
}
330
E
100
AcDbMaterial
  1
Global
  2

 70
0
 40
1.0
 71
1
 41
1.0
 91
-1023410177
 42
1.0
 72
1
  3

 73
1
 74
1
 75
1
 44
0.5
 73
0
 45
1.0
 46
1.0
 77
1
  4

 78
1
 79
1
170
1
 48
1.0
171
1
  6

172
1
173
1
174
1
140
1.0
141
1.0
175
1
  7

176
1
177
1
178
1
143
1.0
179
1
  8

270
1
271
1
272
1
145
1.0
146
1.0
273
1
  9

274
1
275
1
276
1
 42
1.0
 72
1
  3

 73
1
 74
1
 75
1
 94
63
  0
MLINESTYLE
  5
22
102
{ACAD_REACTORS
330
10
102
}
330
10
100
AcDbMlineStyle
  2
Standard
 70
0
  3

 62
256
 51
90.0
 52
90.0
 71
2
 49
0.5
 62
256
  6
BYLAYER
 49
-0.5
 62
256
  6
BYLAYER
  0
MLEADERSTYLE
  5
2C
102
{ACAD_REACTORS
330
F
102
}
330
F
100
AcDbMLeaderStyle
179
2
170
2
171
1
172
0
 90
2
 40
0.0
 41
0.0
173
1
 91
-1056964608
 92
-2
290
1
 42
2.0
291
1
 43
8.0
  3
Standard
 44
4.0
300

342
29
174
1
175
1
176
0
178
1
 93
-1056964608
 45
4.0
292
0
297
0
 46
4.0
 94
-1056964608
 47
1.0
 49
1.0
140
1.0
294
1
141
0.0
177
0
142
1.0
295
0
296
0
143
3.75
271
0
272
9
273
9
  0
DICTIONARY
  5
2D
330
A
100
AcDbDictionary
280
1
281
1
  3
CREATED_BY_EZDXF
350
2E
  3
WRITTEN_BY_EZDXF
350
228
  0
DICTIONARYVAR
  5
2E
330
2D
100
DictionaryVariables
280
0
  1
1.4.3 @ 2026-02-20T22:37:17.111189+00:00
  0
DICTIONARYVAR
  5
228
330
2D
100
DictionaryVariables
280
0
  1
1.4.3 @ 2026-02-20T22:37:17.123380+00:00
  0
ENDSEC
  0
EOF
