  0
SECTION
  2
HEADER
  9
$ACADVER
  1
AC1027
  9
$ACADMAINTVER
 70
105
  9
$DWGCODEPAGE
  3
ANSI_1252
  9
$LASTSAVEDBY
  1
ezdxf
  9
$REQUIREDVERSIONS
160
0
  9
$INSBASE
 10
0.0
 20
0.0
 30
0.0
  9
$EXTMIN
 10
1e+20
 20
1e+20
 30
1e+20
  9
$EXTMAX
 10
-1e+20
 20
-1e+20
 30
-1e+20
  9
$LIMMIN
 10
0.0
 20
0.0
  9
$LIMMAX
 10
420.0
 20
297.0
  9
$ORTHOMODE
 70
0
  9
$REGENMODE
 70
1
  9
$FILLMODE
 70
1
  9
$QTEXTMODE
 70
0
  9
$MIRRTEXT
 70
1
  9
$LTSCALE
 40
1.0
  9
$ATTMODE
 70
1
  9
$TEXTSIZE
 40
2.5
  9
$TRACEWID
 40
1.0
  9
$TEXTSTYLE
  7
Standard
  9
$CLAYER
  8
0
  9
$CELTYPE
  6
ByLayer
  9
$CECOLOR
 62
256
  9
$CELTSCALE
 40
1.0
  9
$DISPSILH
 70
0
  9
$DIMSCALE
 40
1.0
  9
$DIMASZ
 40
2.5
  9
$DIMEXO
 40
0.625
  9
$DIMDLI
 40
3.75
  9
$DIMRND
 40
0.0
  9
$DIMDLE
 40
0.0
  9
$DIMEXE
 40
1.25
  9
$DIMTP
 40
0.0
  9
$DIMTM
 40
0.0
  9
$DIMTXT
 40
2.5
  9
$DIMCEN
 40
2.5
  9
$DIMTSZ
 40
0.0
  9
$DIMTOL
 70
0
  9
$DIMLIM
 70
0
  9
$DIMTIH
 70
0
  9
$DIMTOH
 70
0
  9
$DIMSE1
 70
0
  9
$DIMSE2
 70
0
  9
$DIMTAD
 70
1
  9
$DIMZIN
 70
8
  9
$DIMBLK
  1

  9
$DIMASO
 70
1
  9
$DIMSHO
 70
1
  9
$DIMPOST
  1

  9
$DIMAPOST
  1

  9
$DIMALT
 70
0
  9
$DIMALTD
 70
3
  9
$DIMALTF
 40
0.03937007874
  9
$DIMLFAC
 40
1.0
  9
$DIMTOFL
 70
1
  9
$DIMTVP
 40
0.0
  9
$DIMTIX
 70
0
  9
$DIMSOXD
 70
0
  9
$DIMSAH
 70
0
  9
$DIMBLK1
  1

  9
$DIMBLK2
  1

  9
$DIMSTYLE
  2
ISO-25
  9
$DIMCLRD
 70
0
  9
$DIMCLRE
 70
0
  9
$DIMCLRT
 70
0
  9
$DIMTFAC
 40
1.0
  9
$DIMGAP
 40
0.625
  9
$DIMJUST
 70
0
  9
$DIMSD1
 70
0
  9
$DIMSD2
 70
0
  9
$DIMTOLJ
 70
0
  9
$DIMTZIN
 70
8
  9
$DIMALTZ
 70
0
  9
$DIMALTTZ
 70
0
  9
$DIMUPT
 70
0
  9
$DIMDEC
 70
2
  9
$DIMTDEC
 70
2
  9
$DIMALTU
 70
2
  9
$DIMALTTD
 70
3
  9
$DIMTXSTY
  7
Standard
  9
$DIMAUNIT
 70
0
  9
$DIMADEC
 70
0
  9
$DIMALTRND
 40
0.0
  9
$DIMAZIN
 70
0
  9
$DIMDSEP
 70
44
  9
$DIMATFIT
 70
3
  9
$DIMFRAC
 70
0
  9
$DIMLDRBLK
  1

  9
$DIMLUNIT
 70
2
  9
$DIMLWD
 70
-2
  9
$DIMLWE
 70
-2
  9
$DIMTMOVE
 70
0
  9
$DIMFXL
 40
1.0
  9
$DIMFXLON
 70
0
  9
$DIMJOGANG
 40
0.785398163397
  9
$DIMTFILL
 70
0
  9
$DIMTFILLCLR
 70
0
  9
$DIMARCSYM
 70
0
  9
$DIMLTYPE
  6

  9
$DIMLTEX1
  6

  9
$DIMLTEX2
  6

  9
$DIMTXTDIRECTION
 70
0
  9
$LUNITS
 70
2
  9
$LUPREC
 70
4
  9
$SKETCHINC
 40
1.0
  9
$FILLETRAD
 40
10.0
  9
$AUNITS
 70
0
  9
$AUPREC
 70
2
  9
$MENU
  1
.
  9
$ELEVATION
 40
0.0
  9
$PELEVATION
 40
0.0
  9
$THICKNESS
 40
0.0
  9
$LIMCHECK
 70
0
  9
$CHAMFERA
 40
0.0
  9
$CHAMFERB
 40
0.0
  9
$CHAMFERC
 40
0.0
  9
$CHAMFERD
 40
0.0
  9
$SKPOLY
 70
0
  9
$TDCREATE
 40
2461090.510462963
  9
$TDUCREATE
 40
2458532.153996898
  9
$TDUPDATE
 40
2461090.510462963
  9
$TDUUPDATE
 40
2458532.1544311
  9
$TDINDWG
 40
0.0
  9
$TDUSRTIMER
 40
0.0
  9
$USRTIMER
 70
1
  9
$ANGBASE
 50
0.0
  9
$ANGDIR
 70
0
  9
$PDMODE
 70
0
  9
$PDSIZE
 40
0.0
  9
$PLINEWID
 40
0.0
  9
$SPLFRAME
 70
0
  9
$SPLINETYPE
 70
6
  9
$SPLINESEGS
 70
8
  9
$HANDSEED
  5
22A
  9
$SURFTAB1
 70
6
  9
$SURFTAB2
 70
6
  9
$SURFTYPE
 70
6
  9
$SURFU
 70
6
  9
$SURFV
 70
6
  9
$UCSBASE
  2

  9
$UCSNAME
  2

  9
$UCSORG
 10
0.0
 20
0.0
 30
0.0
  9
$UCSXDIR
 10
1.0
 20
0.0
 30
0.0
  9
$UCSYDIR
 10
0.0
 20
1.0
 30
0.0
  9
$UCSORTHOREF
  2

  9
$UCSORTHOVIEW
 70
0
  9
$UCSORGTOP
 10
0.0
 20
0.0
 30
0.0
  9
$UCSORGBOTTOM
 10
0.0
 20
0.0
 30
0.0
  9
$UCSORGLEFT
 10
0.0
 20
0.0
 30
0.0
  9
$UCSORGRIGHT
 10
0.0
 20
0.0
 30
0.0
  9
$UCSORGFRONT
 10
0.0
 20
0.0
 30
0.0
  9
$UCSORGBACK
 10
0.0
 20
0.0
 30
0.0
  9
$PUCSBASE
  2

  9
$PUCSNAME
  2

  9
$PUCSORG
 10
0.0
 20
0.0
 30
0.0
  9
$PUCSXDIR
 10
1.0
 20
0.0
 30
0.0
  9
$PUCSYDIR
 10
0.0
 20
1.0
 30
0.0
  9
$PUCSORTHOREF
  2

  9
$PUCSORTHOVIEW
 70
0
  9
$PUCSORGTOP
 10
0.0
 20
0.0
 30
0.0
  9
$PUCSORGBOTTOM
 10
0.0
 20
0.0
 30
0.0
  9
$PUCSORGLEFT
 10
0.0
 20
0.0
 30
0.0
  9
$PUCSORGRIGHT
 10
0.0
 20
0.0
 30
0.0
  9
$PUCSORGFRONT
 10
0.0
 20
0.0
 30
0.0
  9
$PUCSORGBACK
 10
0.0
 20
0.0
 30
0.0
  9
$USERI1
 70
0
  9
$USERI2
 70
0
  9
$USERI3
 70
0
  9
$USERI4
 70
0
  9
$USERI5
 70
0
  9
$USERR1
 40
0.0
  9
$USERR2
 40
0.0
  9
$USERR3
 40
0.0
  9
$USERR4
 40
0.0
  9
$USERR5
 40
0.0
  9
$WORLDVIEW
 70
1
  9
$SHADEDGE
 70
3
  9
$SHADEDIF
 70
70
  9
$TILEMODE
 70
1
  9
$MAXACTVP
 70
64
  9
$PINSBASE
 10
0.0
 20
0.0
 30
0.0
  9
$PLIMCHECK
 70
0
  9
$PEXTMIN
 10
1e+20
 20
1e+20
 30
1e+20
  9
$PEXTMAX
 10
-1e+20
 20
-1e+20
 30
-1e+20
  9
$PLIMMIN
 10
0.0
 20
0.0
  9
$PLIMMAX
 10
420.0
 20
297.0
  9
$UNITMODE
 70
0
  9
$VISRETAIN
 70
1
  9
$PLINEGEN
 70
0
  9
$PSLTSCALE
 70
1
  9
$TREEDEPTH
 70
3020
  9
$CMLSTYLE
  2
Standard
  9
$CMLJUST
 70
0
  9
$CMLSCALE
 40
20.0
  9
$PROXYGRAPHICS
 70
1
  9
$MEASUREMENT
 70
1
  9
$CELWEIGHT
370
-1
  9
$ENDCAPS
280
0
  9
$JOINSTYLE
280
0
  9
$LWDISPLAY
290
0
  9
$INSUNITS
 70
6
  9
$HYPERLINKBASE
  1

  9
$STYLESHEET
  1

  9
$XEDIT
290
1
  9
$CEPSNTYPE
380
0
  9
$PSTYLEMODE
290
1
  9
$FINGERPRINTGUID
  2
{2D0AE343-55E8-406C-809A-52F71FC0CFF6}
  9
$VERSIONGUID
  2
{38530936-D700-4AC2-99FE-12B94D410276}
  9
$EXTNAMES
290
1
  9
$PSVPSCALE
 40
0.0
  9
$OLESTARTUP
290
0
  9
$SORTENTS
280
127
  9
$INDEXCTL
280
0
  9
$HIDETEXT
280
1
  9
$XCLIPFRAME
280
1
  9
$HALOGAP
280
0
  9
$OBSCOLOR
 70
257
  9
$OBSLTYPE
280
0
  9
$INTERSECTIONDISPLAY
280
0
  9
$INTERSECTIONCOLOR
 70
257
  9
$DIMASSOC
280
2
  9
$PROJECTNAME
  1

  9
$CAMERADISPLAY
290
0
  9
$LENSLENGTH
 40
50.0
  9
$CAMERAHEIGHT
 40
0.0
  9
$STEPSPERSEC
 40
24.0
  9
$STEPSIZE
 40
100.0
  9
$3DDWFPREC
 40
2.0
  9
$PSOLWIDTH
 40
0.005
  9
$PSOLHEIGHT
 40
0.08
  9
$LOFTANG1
 40
1.570796326795
  9
$LOFTANG2
 40
1.570796326795
  9
$LOFTMAG1
 40
0.0
  9
$LOFTMAG2
 40
0.0
  9
$LOFTPARAM
 70
7
  9
$LOFTNORMALS
280
1
  9
$LATITUDE
 40
37.795
  9
$LONGITUDE
 40
-122.394
  9
$NORTHDIRECTION
 40
0.0
  9
$TIMEZONE
 70
-8000
  9
$LIGHTGLYPHDISPLAY
280
1
  9
$TILEMODELIGHTSYNCH
280
1
  9
$CMATERIAL
347
20
  9
$SOLIDHIST
280
0
  9
$SHOWHIST
280
1
  9
$DWFFRAME
280
2
  9
$DGNFRAME
280
2
  9
$REALWORLDSCALE
290
1
  9
$INTERFERECOLOR
 62
256
  9
$CSHADOW
280
0
  9
$SHADOWPLANELOCATION
 40
0.0
  0
ENDSEC
  0
SECTION
  2
CLASSES
  0
CLASS
  1
ACDBDICTIONARYWDFLT
  2
AcDbDictionaryWithDefault
  3
ObjectDBX Classes
 90
0
 91
0
280
0
281
0
  0
CLASS
  1
SUN
  2
AcDbSun
  3
SCENEOE
 90
1153
 91
0
280
0
281
0
  0
CLASS
  1
VISUALSTYLE
  2
AcDbVisualStyle
  3
ObjectDBX Classes
 90
4095
 91
0
280
0
281
0
  0
CLASS
  1
MATERIAL
  2
AcDbMaterial
  3
ObjectDBX Classes
 90
1153
 91
0
280
0
281
0
  0
CLASS
  1
SCALE
  2
AcDbScale
  3
ObjectDBX Classes
 90
1153
 91
0
280
0
281
0
  0
CLASS
  1
TABLESTYLE
  2
AcDbTableStyle
  3
ObjectDBX Classes
 90
4095
 91
0
280
0
281
0
  0
CLASS
  1
MLEADERSTYLE
  2
AcDbMLeaderStyle
  3
ACDB_MLEADERSTYLE_CLASS
 90
4095
 91
0
280
0
281
0
  0
CLASS
  1
DICTIONARYVAR
  2
AcDbDictionaryVar
  3
ObjectDBX Classes
 90
0
 91
0
280
0
281
0
  0
CLASS
  1
CELLSTYLEMAP
  2
AcDbCellStyleMap
  3
ObjectDBX Classes
 90
1152
 91
0
280
0
281
0
  0
CLASS
  1
MENTALRAYRENDERSETTINGS
  2
AcDbMentalRayRenderSettings
  3
SCENEOE
 90
1024
 91
0
280
0
281
0
  0
CLASS
  1
ACDBDETAILVIEWSTYLE
  2
AcDbDetailViewStyle
  3
ObjectDBX Classes
 90
1025
 91
0
280
0
281
0
  0
CLASS
  1
ACDBSECTIONVIEWSTYLE
  2
AcDbSectionViewStyle
  3
ObjectDBX Classes
 90
1025
 91
0
280
0
281
0
  0
CLASS
  1
RASTERVARIABLES
  2
AcDbRasterVariables
  3
ISM
 90
0
 91
0
280
0
281
0
  0
CLASS
  1
ACDBPLACEHOLDER
  2
AcDbPlaceHolder
  3
ObjectDBX Classes
 90
0
 91
0
280
0
281
0
  0
CLASS
  1
LAYOUT
  2
AcDbLayout
  3
ObjectDBX Classes
 90
0
 91
0
280
0
281
0
  0
ENDSEC
  0
SECTION
  2
TABLES
  0
TABLE
  2
VPORT
  5
8
330
0
100
AcDbSymbolTable
 70
1
  0
VPORT
  5
23
330
8
100
AcDbSymbolTableRecord
100
AcDbViewportTableRecord
  2
*Active
 70
0
 10
0.0
 20
0.0
 11
1.0
 21
1.0
 12
0.0
 22
0.0
 13
0.0
 23
0.0
 14
0.5
 24
0.5
 15
0.5
 25
0.5
 16
0.0
 26
0.0
 36
1.0
 17
0.0
 27
0.0
 37
0.0
 40
1000.0
 41
1.34
 42
50.0
 43
0.0
 44
0.0
 50
0.0
 51
0.0
 71
0
 72
1000
 73
1
 74
3
 75
0
 76
0
 77
0
 78
0
281
0
 65
0
146
0.0
  0
ENDTAB
  0
TABLE
  2
LTYPE
  5
2
330
0
100
AcDbSymbolTable
 70
3
  0
LTYPE
  5
24
330
2
100
AcDbSymbolTableRecord
100
AcDbLinetypeTableRecord
  2
ByBlock
 70
0
  3

 72
65
 73
0
 40
0.0
  0
LTYPE
  5
25
330
2
100
AcDbSymbolTableRecord
100
AcDbLinetypeTableRecord
  2
ByLayer
 70
0
  3

 72
65
 73
0
 40
0.0
  0
LTYPE
  5
26
330
2
100
AcDbSymbolTableRecord
100
AcDbLinetypeTableRecord
  2
Continuous
 70
0
  3

 72
65
 73
0
 40
0.0
  0
ENDTAB
  0
TABLE
  2
LAYER
  5
1
330
0
100
AcDbSymbolTable
 70
2
  0
LAYER
  5
27
330
1
100
AcDbSymbolTableRecord
100
AcDbLayerTableRecord
  2
0
 70
0
 62
7
  6
Continuous
370
-3
390
13
347
21
  0
LAYER
  5
28
330
1
100
AcDbSymbolTableRecord
100
AcDbLayerTableRecord
  2
Defpoints
 70
0
 62
7
  6
Continuous
290
0
370
-3
390
13
347
21
  0
ENDTAB
  0
TABLE
  2
STYLE
  5
5
330
0
100
AcDbSymbolTable
 70
1
  0
STYLE
  5
29
330
5
100
AcDbSymbolTableRecord
100
AcDbTextStyleTableRecord
  2
Standard
 70
0
 40
0.0
 41
1.0
 50
0.0
 71
0
 42
2.5
  3
txt
  4

  0
ENDTAB
  0
TABLE
  2
VIEW
  5
7
330
0
100
AcDbSymbolTable
 70
0
  0
ENDTAB
  0
TABLE
  2
UCS
  5
6
330
0
100
AcDbSymbolTable
 70
0
  0
ENDTAB
  0
TABLE
  2
APPID
  5
3
330
0
100
AcDbSymbolTable
 70
3
  0
APPID
  5
2A
330
3
100
AcDbSymbolTableRecord
100
AcDbRegAppTableRecord
  2
ACAD
 70
0
  0
APPID
  5
227
330
3
100
AcDbSymbolTableRecord
100
AcDbRegAppTableRecord
  2
HATCHBACKGROUNDCOLOR
 70
0
  0
APPID
  5
228
330
3
100
AcDbSymbolTableRecord
100
AcDbRegAppTableRecord
  2
EZDXF
 70
0
  0
ENDTAB
  0
TABLE
  2
DIMSTYLE
  5
4
330
0
100
AcDbSymbolTable
 70
1
100
AcDbDimStyleTable
  0
DIMSTYLE
105
2B
330
4
100
AcDbSymbolTableRecord
100
AcDbDimStyleTableRecord
  2
Standard
 70
0
 40
1.0
 41
2.5
 42
0.625
 43
3.75
 44
1.25
 45
0.0
 46
0.0
 47
0.0
 48
0.0
 49
2.5
140
2.5
141
2.5
142
0.0
143
0.03937007874
144
1.0
145
0.0
146
1.0
147
0.625
148
0.0
 69
0
 70
0
 71
0
 72
0
 73
0
 74
0
 75
0
 76
0
 77
1
 78
8
 79
3
170
0
171
3
172
1
173
0
174
0
175
0
176
0
177
0
178
0
179
2
271
2
272
2
273
2
274
3
275
0
276
0
277
2
278
44
279
0
280
0
281
0
282
0
283
0
284
8
285
0
286
0
288
0
289
3
290
0
371
-2
372
-2
  0
ENDTAB
  0
TABLE
  2
BLOCK_RECORD
  5
9
330
0
100
AcDbSymbolTable
 70
2
  0
BLOCK_RECORD
  5
17
330
9
100
AcDbSymbolTableRecord
100
AcDbBlockTableRecord
  2
*Model_Space
340
1A
 70
0
280
1
281
0
  0
BLOCK_RECORD
  5
1B
330
9
100
AcDbSymbolTableRecord
100
AcDbBlockTableRecord
  2
*Paper_Space
340
1E
 70
0
280
1
281
0
  0
ENDTAB
  0
ENDSEC
  0
SECTION
  2
BLOCKS
  0
BLOCK
  5
18
330
17
100
AcDbEntity
  8
0
100
AcDbBlockBegin
  2
*Model_Space
 70
0
 10
0.0
 20
0.0
 30
0.0
  3
*Model_Space
  1

  0
ENDBLK
  5
19
330
17
100
AcDbEntity
  8
0
100
AcDbBlockEnd
  0
BLOCK
  5
1C
330
1B
100
AcDbEntity
  8
0
100
AcDbBlockBegin
  2
*Paper_Space
 70
0
 10
0.0
 20
0.0
 30
0.0
  3
*Paper_Space
  1

  0
ENDBLK
  5
1D
330
1B
100
AcDbEntity
  8
0
100
AcDbBlockEnd
  0
ENDSEC
  0
SECTION
  2
ENTITIES
  0
LWPOLYLINE
  5
2F
330
17
100
AcDbEntity
  8
0
100
AcDbPolyline
 90
5
 70
1
 10
0.0
 20
0.0
 10
725.0
 20
0.0
 10
725.0
 20
1450.0
 10
0.0
 20
1450.0
 10
0.0
 20
0.0
  0
LWPOLYLINE
  5
30
330
17
100
AcDbEntity
  8
0
100
AcDbPolyline
 90
5
 70
1
 10
0.0
 20
0.0
 10
134.0
 20
0.0
 10
134.0
 20
267.0
 10
0.0
 20
267.0
 10
0.0
 20
0.0
  0
MTEXT
  5
31
330
17
100
AcDbEntity
  8
0
100
AcDbMText
 10
67.0
 20
133.5
 30
0.0
 40
2.0
 71
5
  1
Wood Sheet\P20.0kg\PWood
  0
LWPOLYLINE
  5
32
330
17
100
AcDbEntity
  8
0
100
AcDbPolyline
 90
5
 70
1
 10
159.0
 20
0.0
 10
291.0
 20
0.0
 10
291.0
 20
263.0
 10
159.0
 20
263.0
 10
159.0
 20
0.0
  0
MTEXT
  5
33
330
17
100
AcDbEntity
  8
0
100
AcDbMText
 10
225.0
 20
131.5
 30
0.0
 40
2.0
 71
5
  1
Wood Sheet\P20.0kg\PWood
  0
LWPOLYLINE
  5
34
330
17
100
AcDbEntity
  8
0
100
AcDbPolyline
 90
5
 70
1
 10
0.0
 20
292.0
 10
130.0
 20
292.0
 10
130.0
 20
552.0
 10
0.0
 20
552.0
 10
0.0
 20
292.0
  0
MTEXT
  5
35
330
17
100
AcDbEntity
  8
0
100
AcDbMText
 10
65.0
 20
422.0
 30
0.0
 40
2.0
 71
5
  1
Wood Sheet\P20.0kg\PWood
  0
LWPOLYLINE
  5
36
330
17
100
AcDbEntity
  8
0
100
AcDbPolyline
 90
5
 70
1
 10
316.0
 20
0.0
 10
444.0
 20
0.0
 10
444.0
 20
255.0
 10
316.0
 20
255.0
 10
316.0
 20
0.0
  0
MTEXT
  5
37
330
17
100
AcDbEntity
  8
0
100
AcDbMText
 10
380.0
 20
127.5
 30
0.0
 40
2.0
 71
5
  1
Wood Sheet\P20.0kg\PWood
  0
LWPOLYLINE
  5
38
330
17
100
AcDbEntity
  8
0
100
AcDbPolyline
 90
5
 70
1
 10
159.0
 20
288.0
 10
286.0
 20
288.0
 10
286.0
 20
541.0
 10
159.0
 20
541.0
 10
159.0
 20
288.0
  0
MTEXT
  5
39
330
17
100
AcDbEntity
  8
0
100
AcDbMText
 10
222.5
 20
414.5
 30
0.0
 40
2.0
 71
5
  1
Wood Sheet\P20.0kg\PWood
  0
LWPOLYLINE
  5
3A
330
17
100
AcDbEntity
  8
0
100
AcDbPolyline
 90
5
 70
1
 10
0.0
 20
577.0
 10
126.0
 20
577.0
 10
126.0
 20
829.0
 10
0.0
 20
829.0
 10
0.0
 20
577.0
  0
MTEXT
  5
3B
330
17
100
AcDbEntity
  8
0
100
AcDbMText
 10
63.0
 20
703.0
 30
0.0
 40
2.0
 71
5
  1
Wood Sheet\P20.0kg\PWood
  0
LWPOLYLINE
  5
3C
330
17
100
AcDbEntity
  8
0
100
AcDbPolyline
 90
5
 70
1
 10
469.0
 20
0.0
 10
593.0
 20
0.0
 10
593.0
 20
248.0
 10
469.0
 20
248.0
 10
469.0
 20
0.0
  0
MTEXT
  5
3D
330
17
100
AcDbEntity
  8
0
100
AcDbMText
 10
531.0
 20
124.0
 30
0.0
 40
2.0
 71
5
  1
Wood Sheet\P20.0kg\PWood
  0
LWPOLYLINE
  5
3E
330
17
100
AcDbEntity
  8
0
100
AcDbPolyline
 90
5
 70
1
 10
316.0
 20
280.0
 10
439.0
 20
280.0
 10
439.0
 20
526.0
 10
316.0
 20
526.0
 10
316.0
 20
280.0
  0
MTEXT
  5
3F
330
17
100
AcDbEntity
  8
0
100
AcDbMText
 10
377.5
 20
403.0
 30
0.0
 40
2.0
 71
5
  1
Wood Sheet\P20.0kg\PWood
  0
LWPOLYLINE
  5
40
330
17
100
AcDbEntity
  8
0
100
AcDbPolyline
 90
5
 70
1
 10
159.0
 20
566.0
 10
282.0
 20
566.0
 10
282.0
 20
811.0
 10
159.0
 20
811.0
 10
159.0
 20
566.0
  0
MTEXT
  5
41
330
17
100
AcDbEntity
  8
0
100
AcDbMText
 10
220.5
 20
688.5
 30
0.0
 40
2.0
 71
5
  1
Wood Sheet\P20.0kg\PWood
  0
LWPOLYLINE
  5
42
330
17
100
AcDbEntity
  8
0
100
AcDbPolyline
 90
5
 70
1
 10
0.0
 20
854.0
 10
120.0
 20
854.0
 10
120.0
 20
1095.0
 10
0.0
 20
1095.0
 10
0.0
 20
854.0
  0
MTEXT
  5
43
330
17
100
AcDbEntity
  8
0
100
AcDbMText
 10
60.0
 20
974.5
 30
0.0
 40
2.0
 71
5
  1
Wood Sheet\P20.0kg\PWood
  0
LWPOLYLINE
  5
44
330
17
100
AcDbEntity
  8
0
100
AcDbPolyline
 90
5
 70
1
 10
469.0
 20
273.0
 10
587.0
 20
273.0
 10
587.0
 20
509.0
 10
469.0
 20
509.0
 10
469.0
 20
273.0
  0
MTEXT
  5
45
330
17
100
AcDbEntity
  8
0
100
AcDbMText
 10
528.0
 20
391.0
 30
0.0
 40
2.0
 71
5
  1
Wood Sheet\P20.0kg\PWood
  0
LWPOLYLINE
  5
46
330
17
100
AcDbEntity
  8
0
100
AcDbPolyline
 90
5
 70
1
 10
316.0
 20
551.0
 10
433.0
 20
551.0
 10
433.0
 20
784.0
 10
316.0
 20
784.0
 10
316.0
 20
551.0
  0
MTEXT
  5
47
330
17
100
AcDbEntity
  8
0
100
AcDbMText
 10
374.5
 20
667.5
 30
0.0
 40
2.0
 71
5
  1
Wood Sheet\P20.0kg\PWood
  0
LWPOLYLINE
  5
48
330
17
100
AcDbEntity
  8
0
100
AcDbPolyline
 90
5
 70
1
 10
159.0
 20
836.0
 10
273.0
 20
836.0
 10
273.0
 20
1064.0
 10
159.0
 20
1064.0
 10
159.0
 20
836.0
  0
MTEXT
  5
49
330
17
100
AcDbEntity
  8
0
100
AcDbMText
 10
216.0
 20
950.0
 30
0.0
 40
2.0
 71
5
  1
Wood Sheet\P20.0kg\PWood
  0
LWPOLYLINE
  5
4A
330
17
100
AcDbEntity
  8
0
100
AcDbPolyline
 90
5
 70
1
 10
0.0
 20
1120.0
 10
111.0
 20
1120.0
 10
111.0
 20
1342.0
 10
0.0
 20
1342.0
 10
0.0
 20
1120.0
  0
MTEXT
  5
4B
330
17
100
AcDbEntity
  8
0
100
AcDbMText
 10
55.5
 20
1231.0
 30
0.0
 40
2.0
 71
5
  1
Wood Sheet\P20.0kg\PWood
  0
LWPOLYLINE
  5
4C
330
17
100
AcDbEntity
  8
0
100
AcDbPolyline
 90
5
 70
1
 10
469.0
 20
534.0
 10
579.0
 20
534.0
 10
579.0
 20
754.0
 10
469.0
 20
754.0
 10
469.0
 20
534.0
  0
MTEXT
  5
4D
330
17
100
AcDbEntity
  8
0
100
AcDbMText
 10
524.0
 20
644.0
 30
0.0
 40
2.0
 71
5
  1
Plastic Sheet\P8.0kg\PPlastic
  0
LWPOLYLINE
  5
4E
330
17
100
AcDbEntity
  8
0
100
AcDbPolyline
 90
5
 70
1
 10
316.0
 20
809.0
 10
425.0
 20
809.0
 10
425.0
 20
1026.0
 10
316.0
 20
1026.0
 10
316.0
 20
809.0
  0
MTEXT
  5
4F
330
17
100
AcDbEntity
  8
0
100
AcDbMText
 10
370.5
 20
917.5
 30
0.0
 40
2.0
 71
5
  1
Plastic Sheet\P8.0kg\PPlastic
  0
LWPOLYLINE
  5
50
330
17
100
AcDbEntity
  8
0
100
AcDbPolyline
 90
5
 70
1
 10
159.0
 20
1089.0
 10
267.0
 20
1089.0
 10
267.0
 20
1305.0
 10
159.0
 20
1305.0
 10
159.0
 20
1089.0
  0
MTEXT
  5
51
330
17
100
AcDbEntity
  8
0
100
AcDbMText
 10
213.0
 20
1197.0
 30
0.0
 40
2.0
 71
5
  1
Plastic Sheet\P8.0kg\PPlastic
  0
LWPOLYLINE
  5
52
330
17
100
AcDbEntity
  8
0
100
AcDbPolyline
 90
5
 70
1
 10
469.0
 20
779.0
 10
575.0
 20
779.0
 10
575.0
 20
992.0
 10
469.0
 20
992.0
 10
469.0
 20
779.0
  0
MTEXT
  5
53
330
17
100
AcDbEntity
  8
0
100
AcDbMText
 10
522.0
 20
885.5
 30
0.0
 40
2.0
 71
5
  1
Plastic Sheet\P8.0kg\PPlastic
  0
LWPOLYLINE
  5
54
330
17
100
AcDbEntity
  8
0
100
AcDbPolyline
 90
5
 70
1
 10
316.0
 20
1051.0
 10
420.0
 20
1051.0
 10
420.0
 20
1260.0
 10
316.0
 20
1260.0
 10
316.0
 20
1051.0
  0
MTEXT
  5
55
330
17
100
AcDbEntity
  8
0
100
AcDbMText
 10
368.0
 20
1155.5
 30
0.0
 40
2.0
 71
5
  1
Plastic Sheet\P8.0kg\PPlastic
  0
LWPOLYLINE
  5
56
330
17
100
AcDbEntity
  8
0
100
AcDbPolyline
 90
5
 70
1
 10
469.0
 20
1017.0
 10
573.0
 20
1017.0
 10
573.0
 20
1224.0
 10
469.0
 20
1224.0
 10
469.0
 20
1017.0
  0
MTEXT
  5
57
330
17
100
AcDbEntity
  8
0
100
AcDbMText
 10
521.0
 20
1120.5
 30
0.0
 40
2.0
 71
5
  1
Plastic Sheet\P8.0kg\PPlastic
  0
LWPOLYLINE
  5
58
330
17
100
AcDbEntity
  8
0
100
AcDbPolyline
 90
5
 70
1
 10
316.0
 20
1285.0
 10
519.0
 20
1285.0
 10
519.0
 20
1387.0
 10
316.0
 20
1387.0
 10
316.0
 20
1285.0
  0
MTEXT
  5
59
330
17
100
AcDbEntity
  8
0
100
AcDbMText
 10
417.5
 20
1336.0
 30
0.0
 40
2.0
 71
5
  1
Plastic Sheet\P8.0kg\PPlastic
  0
LWPOLYLINE
  5
5A
330
17
100
AcDbEntity
  8
0
100
AcDbPolyline
 90
5
 70
1
 10
598.0
 20
1017.0
 10
699.0
 20
1017.0
 10
699.0
 20
1219.0
 10
598.0
 20
1219.0
 10
598.0
 20
1017.0
  0
MTEXT
  5
5B
330
17
100
AcDbEntity
  8
0
100
AcDbMText
 10
648.5
 20
1118.0
 30
0.0
 40
2.0
 71
5
  1
Plastic Sheet\P8.0kg\PPlastic
  0
LWPOLYLINE
  5
5C
330
17
100
AcDbEntity
  8
0
100
AcDbPolyline
 90
5
 70
1
 10
604.0
 20
534.0
 10
700.0
 20
534.0
 10
700.0
 20
726.0
 10
604.0
 20
726.0
 10
604.0
 20
534.0
  0
MTEXT
  5
5D
330
17
100
AcDbEntity
  8
0
100
AcDbMText
 10
652.0
 20
630.0
 30
0.0
 40
2.0
 71
5
  1
Plastic Sheet\P8.0kg\PPlastic
  0
LWPOLYLINE
  5
5E
330
17
100
AcDbEntity
  8
0
100
AcDbPolyline
 90
5
 70
1
 10
600.0
 20
779.0
 10
695.0
 20
779.0
 10
695.0
 20
968.0
 10
600.0
 20
968.0
 10
600.0
 20
779.0
  0
MTEXT
  5
5F
330
17
100
AcDbEntity
  8
0
100
AcDbMText
 10
647.5
 20
873.5
 30
0.0
 40
2.0
 71
5
  1
Plastic Sheet\P8.0kg\PPlastic
  0
LWPOLYLINE
  5
60
330
17
100
AcDbEntity
  8
0
100
AcDbPolyline
 90
5
 70
1
 10
598.0
 20
1244.0
 10
688.0
 20
1244.0
 10
688.0
 20
1424.0
 10
598.0
 20
1424.0
 10
598.0
 20
1244.0
  0
MTEXT
  5
61
330
17
100
AcDbEntity
  8
0
100
AcDbMText
 10
643.0
 20
1334.0
 30
0.0
 40
2.0
 71
5
  1
Plastic Sheet\P8.0kg\PPlastic
  0
LWPOLYLINE
  5
62
330
17
100
AcDbEntity
  8
0
100
AcDbPolyline
 90
5
 70
1
 10
618.0
 20
0.0
 10
651.0
 20
0.0
 10
651.0
 20
440.0
 10
618.0
 20
440.0
 10
618.0
 20
0.0
  0
MTEXT
  5
63
330
17
100
AcDbEntity
  8
0
100
AcDbMText
 10
634.5
 20
220.0
 30
0.0
 40
2.0
 71
5
  1
Steel Beam\P45.0kg\PSteel
  0
LWPOLYLINE
  5
64
330
17
100
AcDbEntity
  8
0
100
AcDbPolyline
 90
5
 70
1
 10
676.0
 20
0.0
 10
697.0
 20
0.0
 10
697.0
 20
428.0
 10
676.0
 20
428.0
 10
676.0
 20
0.0
  0
MTEXT
  5
65
330
17
100
AcDbEntity
  8
0
100
AcDbMText
 10
686.5
 20
214.0
 30
0.0
 40
2.0
 71
5
  1
Wood Beam\P18.0kg\PWood
  0
LWPOLYLINE
  5
66
330
17
100
AcDbEntity
  8
0
100
AcDbPolyline
 90
5
 70
1
 10
159.0
 20
1330.0
 10
290.0
 20
1330.0
 10
290.0
 20
1396.0
 10
159.0
 20
1396.0
 10
159.0
 20
1330.0
  0
MTEXT
  5
67
330
17
100
AcDbEntity
  8
0
100
AcDbMText
 10
224.5
 20
1363.0
 30
0.0
 40
2.0
 71
5
  1
Wood Frame\P8.0kg\PWood
  0
LWPOLYLINE
  5
68
330
17
100
AcDbEntity
  8
0
100
AcDbPolyline
 90
5
 70
1
 10
0.0
 20
1367.0
 10
117.0
 20
1367.0
 10
117.0
 20
1425.0
 10
0.0
 20
1425.0
 10
0.0
 20
1367.0
  0
MTEXT
  5
69
330
17
100
AcDbEntity
  8
0
100
AcDbMText
 10
58.5
 20
1396.0
 30
0.0
 40
2.0
 71
5
  1
Wood Frame\P8.0kg\PWood
  0
LWPOLYLINE
  5
6A
330
17
100
AcDbEntity
  8
0
100
AcDbPolyline
 90
5
 70
1
 10
618.0
 20
465.0
 10
700.0
 20
465.0
 10
700.0
 20
506.0
 10
618.0
 20
506.0
 10
618.0
 20
465.0
  0
MTEXT
  5
6B
330
17
100
AcDbEntity
  8
0
100
AcDbMText
 10
659.0
 20
485.5
 30
0.0
 40
2.0
 71
5
  1
Steel Rebar Bundle\P35.0kg\PSteel
  0
LWPOLYLINE
  5
6C
330
17
100
AcDbEntity
  8
0
100
AcDbPolyline
 90
5
 70
1
 10
544.0
 20
1285.0
 10
573.0
 20
1285.0
 10
573.0
 20
1383.0
 10
544.0
 20
1383.0
 10
544.0
 20
1285.0
  0
MTEXT
  5
6D
330
17
100
AcDbEntity
  8
0
100
AcDbMText
 10
558.5
 20
1334.0
 30
0.0
 40
2.0
 71
5
  1
Concrete Pipe\P45.0kg\PConcrete
  0
LWPOLYLINE
  5
6E
330
17
100
AcDbEntity
  8
0
100
AcDbPolyline
 90
5
 70
1
 10
0.0
 20
1500.0
 10
725.0
 20
1500.0
 10
725.0
 20
2950.0
 10
0.0
 20
2950.0
 10
0.0
 20
1500.0
  0
LWPOLYLINE
  5
6F
330
17
100
AcDbEntity
  8
0
100
AcDbPolyline
 90
5
 70
1
 10
0.0
 20
1500.0
 10
94.0
 20
1500.0
 10
94.0
 20
1689.0
 10
0.0
 20
1689.0
 10
0.0
 20
1500.0
  0
MTEXT
  5
70
330
17
100
AcDbEntity
  8
0
100
AcDbMText
 10
47.0
 20
1594.5
 30
0.0
 40
2.0
 71
5
  1
Plastic Sheet\P8.0kg\PPlastic
  0
LWPOLYLINE
  5
71
330
17
100
AcDbEntity
  8
0
100
AcDbPolyline
 90
5
 70
1
 10
119.0
 20
1500.0
 10
212.0
 20
1500.0
 10
212.0
 20
1686.0
 10
119.0
 20
1686.0
 10
119.0
 20
1500.0
  0
MTEXT
  5
72
330
17
100
AcDbEntity
  8
0
100
AcDbMText
 10
165.5
 20
1593.0
 30
0.0
 40
2.0
 71
5
  1
Plastic Sheet\P8.0kg\PPlastic
  0
LWPOLYLINE
  5
73
330
17
100
AcDbEntity
  8
0
100
AcDbPolyline
 90
5
 70
1
 10
0.0
 20
1714.0
 10
32.0
 20
1714.0
 10
32.0
 20
2145.0
 10
0.0
 20
2145.0
 10
0.0
 20
1714.0
  0
MTEXT
  5
74
330
17
100
AcDbEntity
  8
0
100
AcDbMText
 10
16.0
 20
1929.5
 30
0.0
 40
2.0
 71
5
  1
Steel Beam\P45.0kg\PSteel
  0
LWPOLYLINE
  5
75
330
17
100
AcDbEntity
  8
0
100
AcDbPolyline
 90
5
 70
1
 10
237.0
 20
1500.0
 10
269.0
 20
1500.0
 10
269.0
 20
1930.0
 10
237.0
 20
1930.0
 10
237.0
 20
1500.0
  0
MTEXT
  5
76
330
17
100
AcDbEntity
  8
0
100
AcDbMText
 10
253.0
 20
1715.0
 30
0.0
 40
2.0
 71
5
  1
Steel Beam\P45.0kg\PSteel
  0
LWPOLYLINE
  5
77
330
17
100
AcDbEntity
  8
0
100
AcDbPolyline
 90
5
 70
1
 10
119.0
 20
1711.0
 10
151.0
 20
1711.0
 10
151.0
 20
2141.0
 10
119.0
 20
2141.0
 10
119.0
 20
1711.0
  0
MTEXT
  5
78
330
17
100
AcDbEntity
  8
0
100
AcDbMText
 10
135.0
 20
1926.0
 30
0.0
 40
2.0
 71
5
  1
Steel Beam\P45.0kg\PSteel
  0
LWPOLYLINE
  5
79
330
17
100
AcDbEntity
  8
0
100
AcDbPolyline
 90
5
 70
1
 10
57.0
 20
1714.0
 10
89.0
 20
1714.0
 10
89.0
 20
2140.0
 10
57.0
 20
2140.0
 10
57.0
 20
1714.0
  0
MTEXT
  5
7A
330
17
100
AcDbEntity
  8
0
100
AcDbMText
 10
73.0
 20
1927.0
 30
0.0
 40
2.0
 71
5
  1
Steel Beam\P45.0kg\PSteel
  0
LWPOLYLINE
  5
7B
330
17
100
AcDbEntity
  8
0
100
AcDbPolyline
 90
5
 70
1
 10
0.0
 20
2170.0
 10
32.0
 20
2170.0
 10
32.0
 20
2590.0
 10
0.0
 20
2590.0
 10
0.0
 20
2170.0
  0
MTEXT
  5
7C
330
17
100
AcDbEntity
  8
0
100
AcDbMText
 10
16.0
 20
2380.0
 30
0.0
 40
2.0
 71
5
  1
Steel Beam\P45.0kg\PSteel
  0
LWPOLYLINE
  5
7D
330
17
100
AcDbEntity
  8
0
100
AcDbPolyline
 90
5
 70
1
 10
294.0
 20
1500.0
 10
325.0
 20
1500.0
 10
325.0
 20
1918.0
 10
294.0
 20
1918.0
 10
294.0
 20
1500.0
  0
MTEXT
  5
7E
330
17
100
AcDbEntity
  8
0
100
AcDbMText
 10
309.5
 20
1709.0
 30
0.0
 40
2.0
 71
5
  1
Steel Beam\P45.0kg\PSteel
  0
LWPOLYLINE
  5
7F
330
17
100
AcDbEntity
  8
0
100
AcDbPolyline
 90
5
 70
1
 10
237.0
 20
1955.0
 10
267.0
 20
1955.0
 10
267.0
 20
2360.0
 10
237.0
 20
2360.0
 10
237.0
 20
1955.0
  0
MTEXT
  5
80
330
17
100
AcDbEntity
  8
0
100
AcDbMText
 10
252.0
 20
2157.5
 30
0.0
 40
2.0
 71
5
  1
Steel Beam\P45.0kg\PSteel
  0
LWPOLYLINE
  5
81
330
17
100
AcDbEntity
  8
0
100
AcDbPolyline
 90
5
 70
1
 10
176.0
 20
1711.0
 10
206.0
 20
1711.0
 10
206.0
 20
2114.0
 10
176.0
 20
2114.0
 10
176.0
 20
1711.0
  0
MTEXT
  5
82
330
17
100
AcDbEntity
  8
0
100
AcDbMText
 10
191.0
 20
1912.5
 30
0.0
 40
2.0
 71
5
  1
Steel Beam\P45.0kg\PSteel
  0
LWPOLYLINE
  5
83
330
17
100
AcDbEntity
  8
0
100
AcDbPolyline
 90
5
 70
1
 10
119.0
 20
2166.0
 10
149.0
 20
2166.0
 10
149.0
 20
2561.0
 10
119.0
 20
2561.0
 10
119.0
 20
2166.0
  0
MTEXT
  5
84
330
17
100
AcDbEntity
  8
0
100
AcDbMText
 10
134.0
 20
2363.5
 30
0.0
 40
2.0
 71
5
  1
Steel Beam\P45.0kg\PSteel
  0
LWPOLYLINE
  5
85
330
17
100
AcDbEntity
  8
0
100
AcDbPolyline
 90
5
 70
1
 10
57.0
 20
2165.0
 10
86.0
 20
2165.0
 10
86.0
 20
2553.0
 10
57.0
 20
2553.0
 10
57.0
 20
2165.0
  0
MTEXT
  5
86
330
17
100
AcDbEntity
  8
0
100
AcDbMText
 10
71.5
 20
2359.0
 30
0.0
 40
2.0
 71
5
  1
Steel Beam\P45.0kg\PSteel
  0
LWPOLYLINE
  5
87
330
17
100
AcDbEntity
  8
0
100
AcDbPolyline
 90
5
 70
1
 10
0.0
 20
2615.0
 10
385.0
 20
2615.0
 10
385.0
 20
2644.0
 10
0.0
 20
2644.0
 10
0.0
 20
2615.0
  0
MTEXT
  5
88
330
17
100
AcDbEntity
  8
0
100
AcDbMText
 10
192.5
 20
2629.5
 30
0.0
 40
2.0
 71
5
  1
Steel Beam\P45.0kg\PSteel
  0
LWPOLYLINE
  5
89
330
17
100
AcDbEntity
  8
0
100
AcDbPolyline
 90
5
 70
1
 10
350.0
 20
1500.0
 10
378.0
 20
1500.0
 10
378.0
 20
1870.0
 10
350.0
 20
1870.0
 10
350.0
 20
1500.0
  0
MTEXT
  5
8A
330
17
100
AcDbEntity
  8
0
100
AcDbMText
 10
364.0
 20
1685.0
 30
0.0
 40
2.0
 71
5
  1
Steel Beam\P45.0kg\PSteel
  0
LWPOLYLINE
  5
8B
330
17
100
AcDbEntity
  8
0
100
AcDbPolyline
 90
5
 70
1
 10
294.0
 20
1943.0
 10
321.0
 20
1943.0
 10
321.0
 20
2306.0
 10
294.0
 20
2306.0
 10
294.0
 20
1943.0
  0
MTEXT
  5
8C
330
17
100
AcDbEntity
  8
0
100
AcDbMText
 10
307.5
 20
2124.5
 30
0.0
 40
2.0
 71
5
  1
Steel Beam\P45.0kg\PSteel
  0
LWPOLYLINE
  5
8D
330
17
100
AcDbEntity
  8
0
100
AcDbPolyline
 90
5
 70
1
 10
237.0
 20
2385.0
 10
566.0
 20
2385.0
 10
566.0
 20
2412.0
 10
237.0
 20
2412.0
 10
237.0
 20
2385.0
  0
MTEXT
  5
8E
330
17
100
AcDbEntity
  8
0
100
AcDbMText
 10
401.5
 20
2398.5
 30
0.0
 40
2.0
 71
5
  1
Wood Plank\P12.0kg\PWood
  0
LWPOLYLINE
  5
8F
330
17
100
AcDbEntity
  8
0
100
AcDbPolyline
 90
5
 70
1
 10
176.0
 20
2139.0
 10
203.0
 20
2139.0
 10
203.0
 20
2463.0
 10
176.0
 20
2463.0
 10
176.0
 20
2139.0
  0
MTEXT
  5
90
330
17
100
AcDbEntity
  8
0
100
AcDbMText
 10
189.5
 20
2301.0
 30
0.0
 40
2.0
 71
5
  1
Wood Plank\P12.0kg\PWood
  0
LWPOLYLINE
  5
91
330
17
100
AcDbEntity
  8
0
100
AcDbPolyline
 90
5
 70
1
 10
410.0
 20
2615.0
 10
476.0
 20
2615.0
 10
476.0
 20
2746.0
 10
410.0
 20
2746.0
 10
410.0
 20
2615.0
  0
MTEXT
  5
92
330
17
100
AcDbEntity
  8
0
100
AcDbMText
 10
443.0
 20
2680.5
 30
0.0
 40
2.0
 71
5
  1
Wood Frame\P8.0kg\PWood
  0
LWPOLYLINE
  5
93
330
17
100
AcDbEntity
  8
0
100
AcDbPolyline
 90
5
 70
1
 10
0.0
 20
2669.0
 10
66.0
 20
2669.0
 10
66.0
 20
2800.0
 10
0.0
 20
2800.0
 10
0.0
 20
2669.0
  0
MTEXT
  5
94
330
17
100
AcDbEntity
  8
0
100
AcDbMText
 10
33.0
 20
2734.5
 30
0.0
 40
2.0
 71
5
  1
Wood Frame\P8.0kg\PWood
  0
LWPOLYLINE
  5
95
330
17
100
AcDbEntity
  8
0
100
AcDbPolyline
 90
5
 70
1
 10
403.0
 20
1500.0
 10
468.0
 20
1500.0
 10
468.0
 20
1631.0
 10
403.0
 20
1631.0
 10
403.0
 20
1500.0
  0
MTEXT
  5
96
330
17
100
AcDbEntity
  8
0
100
AcDbMText
 10
435.5
 20
1565.5
 30
0.0
 40
2.0
 71
5
  1
Wood Frame\P8.0kg\PWood
  0
LWPOLYLINE
  5
97
330
17
100
AcDbEntity
  8
0
100
AcDbPolyline
 90
5
 70
1
 10
350.0
 20
1895.0
 10
415.0
 20
1895.0
 10
415.0
 20
2026.0
 10
350.0
 20
2026.0
 10
350.0
 20
1895.0
  0
MTEXT
  5
98
330
17
100
AcDbEntity
  8
0
100
AcDbMText
 10
382.5
 20
1960.5
 30
0.0
 40
2.0
 71
5
  1
Concrete Slab\P80.0kg\PConcrete
  0
LWPOLYLINE
  5
99
330
17
100
AcDbEntity
  8
0
100
AcDbPolyline
 90
5
 70
1
 10
591.0
 20
2385.0
 10
656.0
 20
2385.0
 10
656.0
 20
2515.0
 10
591.0
 20
2515.0
 10
591.0
 20
2385.0
  0
MTEXT
  5
9A
330
17
100
AcDbEntity
  8
0
100
AcDbMText
 10
623.5
 20
2450.0
 30
0.0
 40
2.0
 71
5
  1
Concrete Slab\P80.0kg\PConcrete
  0
LWPOLYLINE
  5
9B
330
17
100
AcDbEntity
  8
0
100
AcDbPolyline
 90
5
 70
1
 10
237.0
 20
2437.0
 10
302.0
 20
2437.0
 10
302.0
 20
2566.0
 10
237.0
 20
2566.0
 10
237.0
 20
2437.0
  0
MTEXT
  5
9C
330
17
100
AcDbEntity
  8
0
100
AcDbMText
 10
269.5
 20
2501.5
 30
0.0
 40
2.0
 71
5
  1
Wood Frame\P8.0kg\PWood
  0
LWPOLYLINE
  5
9D
330
17
100
AcDbEntity
  8
0
100
AcDbPolyline
 90
5
 70
1
 10
501.0
 20
2615.0
 10
565.0
 20
2615.0
 10
565.0
 20
2743.0
 10
501.0
 20
2743.0
 10
501.0
 20
2615.0
  0
MTEXT
  5
9E
330
17
100
AcDbEntity
  8
0
100
AcDbMText
 10
533.0
 20
2679.0
 30
0.0
 40
2.0
 71
5
  1
Wood Frame\P8.0kg\PWood
  0
LWPOLYLINE
  5
9F
330
17
100
AcDbEntity
  8
0
100
AcDbPolyline
 90
5
 70
1
 10
0.0
 20
2825.0
 10
407.0
 20
2825.0
 10
407.0
 20
2845.0
 10
0.0
 20
2845.0
 10
0.0
 20
2825.0
  0
MTEXT
  5
A0
330
17
100
AcDbEntity
  8
0
100
AcDbMText
 10
203.5
 20
2835.0
 30
0.0
 40
2.0
 71
5
  1
Wood Beam\P18.0kg\PWood
  0
LWPOLYLINE
  5
A1
330
17
100
AcDbEntity
  8
0
100
AcDbPolyline
 90
5
 70
1
 10
91.0
 20
2669.0
 10
155.0
 20
2669.0
 10
155.0
 20
2796.0
 10
91.0
 20
2796.0
 10
91.0
 20
2669.0
  0
MTEXT
  5
A2
330
17
100
AcDbEntity
  8
0
100
AcDbMText
 10
123.0
 20
2732.5
 30
0.0
 40
2.0
 71
5
  1
Wood Frame\P8.0kg\PWood
  0
LWPOLYLINE
  5
A3
330
17
100
AcDbEntity
  8
0
100
AcDbPolyline
 90
5
 70
1
 10
493.0
 20
1500.0
 10
557.0
 20
1500.0
 10
557.0
 20
1627.0
 10
493.0
 20
1627.0
 10
493.0
 20
1500.0
  0
MTEXT
  5
A4
330
17
100
AcDbEntity
  8
0
100
AcDbMText
 10
525.0
 20
1563.5
 30
0.0
 40
2.0
 71
5
  1
Wood Frame\P8.0kg\PWood
  0
LWPOLYLINE
  5
A5
330
17
100
AcDbEntity
  8
0
100
AcDbPolyline
 90
5
 70
1
 10
294.0
 20
2331.0
 10
606.0
 20
2331.0
 10
606.0
 20
2357.0
 10
294.0
 20
2357.0
 10
294.0
 20
2331.0
  0
MTEXT
  5
A6
330
17
100
AcDbEntity
  8
0
100
AcDbMText
 10
450.0
 20
2344.0
 30
0.0
 40
2.0
 71
5
  1
Wood Plank\P12.0kg\PWood
  0
LWPOLYLINE
  5
A7
330
17
100
AcDbEntity
  8
0
100
AcDbPolyline
 90
5
 70
1
 10
440.0
 20
1895.0
 10
466.0
 20
1895.0
 10
466.0
 20
2207.0
 10
440.0
 20
2207.0
 10
440.0
 20
1895.0
  0
MTEXT
  5
A8
330
17
100
AcDbEntity
  8
0
100
AcDbMText
 10
453.0
 20
2051.0
 30
0.0
 40
2.0
 71
5
  1
Wood Plank\P12.0kg\PWood
  0
LWPOLYLINE
  5
A9
330
17
100
AcDbEntity
  8
0
100
AcDbPolyline
 90
5
 70
1
 10
0.0
 20
2870.0
 10
405.0
 20
2870.0
 10
405.0
 20
2890.0
 10
0.0
 20
2890.0
 10
0.0
 20
2870.0
  0
MTEXT
  5
AA
330
17
100
AcDbEntity
  8
0
100
AcDbMText
 10
202.5
 20
2880.0
 30
0.0
 40
2.0
 71
5
  1
Wood Beam\P18.0kg\PWood
  0
LWPOLYLINE
  5
AB
330
17
100
AcDbEntity
  8
0
100
AcDbPolyline
 90
5
 70
1
 10
582.0
 20
1500.0
 10
602.0
 20
1500.0
 10
602.0
 20
1904.0
 10
582.0
 20
1904.0
 10
582.0
 20
1500.0
  0
MTEXT
  5
AC
330
17
100
AcDbEntity
  8
0
100
AcDbMText
 10
592.0
 20
1702.0
 30
0.0
 40
2.0
 71
5
  1
Wood Beam\P18.0kg\PWood
  0
LWPOLYLINE
  5
AD
330
17
100
AcDbEntity
  8
0
100
AcDbPolyline
 90
5
 70
1
 10
403.0
 20
1656.0
 10
466.0
 20
1656.0
 10
466.0
 20
1783.0
 10
403.0
 20
1783.0
 10
403.0
 20
1656.0
  0
MTEXT
  5
AE
330
17
100
AcDbEntity
  8
0
100
AcDbMText
 10
434.5
 20
1719.5
 30
0.0
 40
2.0
 71
5
  1
Concrete Slab\P80.0kg\PConcrete
  0
LWPOLYLINE
  5
AF
330
17
100
AcDbEntity
  8
0
100
AcDbPolyline
 90
5
 70
1
 10
350.0
 20
2051.0
 10
413.0
 20
2051.0
 10
413.0
 20
2177.0
 10
350.0
 20
2177.0
 10
350.0
 20
2051.0
  0
MTEXT
  5
B0
330
17
100
AcDbEntity
  8
0
100
AcDbMText
 10
381.5
 20
2114.0
 30
0.0
 40
2.0
 71
5
  1
Concrete Slab\P80.0kg\PConcrete
  0
LWPOLYLINE
  5
B1
330
17
100
AcDbEntity
  8
0
100
AcDbPolyline
 90
5
 70
1
 10
591.0
 20
2540.0
 10
654.0
 20
2540.0
 10
654.0
 20
2666.0
 10
591.0
 20
2666.0
 10
591.0
 20
2540.0
  0
MTEXT
  5
B2
330
17
100
AcDbEntity
  8
0
100
AcDbMText
 10
622.5
 20
2603.0
 30
0.0
 40
2.0
 71
5
  1
Concrete Slab\P80.0kg\PConcrete
  0
LWPOLYLINE
  5
B3
330
17
100
AcDbEntity
  8
0
100
AcDbPolyline
 90
5
 70
1
 10
327.0
 20
2437.0
 10
390.0
 20
2437.0
 10
390.0
 20
2563.0
 10
327.0
 20
2563.0
 10
327.0
 20
2437.0
  0
MTEXT
  5
B4
330
17
100
AcDbEntity
  8
0
100
AcDbMText
 10
358.5
 20
2500.0
 30
0.0
 40
2.0
 71
5
  1
Concrete Slab\P80.0kg\PConcrete
  0
LWPOLYLINE
  5
B5
330
17
100
AcDbEntity
  8
0
100
AcDbPolyline
 90
5
 70
1
 10
501.0
 20
2768.0
 10
564.0
 20
2768.0
 10
564.0
 20
2893.0
 10
501.0
 20
2893.0
 10
501.0
 20
2768.0
  0
MTEXT
  5
B6
330
17
100
AcDbEntity
  8
0
100
AcDbMText
 10
532.5
 20
2830.5
 30
0.0
 40
2.0
 71
5
  1
Concrete Slab\P80.0kg\PConcrete
  0
LWPOLYLINE
  5
B7
330
17
100
AcDbEntity
  8
0
100
AcDbPolyline
 90
5
 70
1
 10
493.0
 20
1652.0
 10
513.0
 20
1652.0
 10
513.0
 20
2044.0
 10
493.0
 20
2044.0
 10
493.0
 20
1652.0
  0
MTEXT
  5
B8
330
17
100
AcDbEntity
  8
0
100
AcDbMText
 10
503.0
 20
1848.0
 30
0.0
 40
2.0
 71
5
  1
Wood Beam\P18.0kg\PWood
  0
LWPOLYLINE
  5
B9
330
17
100
AcDbEntity
  8
0
100
AcDbPolyline
 90
5
 70
1
 10
180.0
 20
2669.0
 10
242.0
 20
2669.0
 10
242.0
 20
2794.0
 10
180.0
 20
2794.0
 10
180.0
 20
2669.0
  0
MTEXT
  5
BA
330
17
100
AcDbEntity
  8
0
100
AcDbMText
 10
211.0
 20
2731.5
 30
0.0
 40
2.0
 71
5
  1
Concrete Slab\P80.0kg\PConcrete
  0
LWPOLYLINE
  5
BB
330
17
100
AcDbEntity
  8
0
100
AcDbPolyline
 90
5
 70
1
 10
627.0
 20
1500.0
 10
652.0
 20
1500.0
 10
652.0
 20
1802.0
 10
627.0
 20
1802.0
 10
627.0
 20
1500.0
  0
MTEXT
  5
BC
330
17
100
AcDbEntity
  8
0
100
AcDbMText
 10
639.5
 20
1651.0
 30
0.0
 40
2.0
 71
5
  1
Wood Plank\P12.0kg\PWood
  0
LWPOLYLINE
  5
BD
330
17
100
AcDbEntity
  8
0
100
AcDbPolyline
 90
5
 70
1
 10
582.0
 20
1929.0
 10
607.0
 20
1929.0
 10
607.0
 20
2227.0
 10
582.0
 20
2227.0
 10
582.0
 20
1929.0
  0
MTEXT
  5
BE
330
17
100
AcDbEntity
  8
0
100
AcDbMText
 10
594.5
 20
2078.0
 30
0.0
 40
2.0
 71
5
  1
Wood Plank\P12.0kg\PWood
  0
LWPOLYLINE
  5
BF
330
17
100
AcDbEntity
  8
0
100
AcDbPolyline
 90
5
 70
1
 10
681.0
 20
2385.0
 10
700.0
 20
2385.0
 10
700.0
 20
2774.0
 10
681.0
 20
2774.0
 10
681.0
 20
2385.0
  0
MTEXT
  5
C0
330
17
100
AcDbEntity
  8
0
100
AcDbMText
 10
690.5
 20
2579.5
 30
0.0
 40
2.0
 71
5
  1
Wood Beam\P18.0kg\PWood
  0
LWPOLYLINE
  5
C1
330
17
100
AcDbEntity
  8
0
100
AcDbPolyline
 90
5
 70
1
 10
538.0
 20
1652.0
 10
557.0
 20
1652.0
 10
557.0
 20
2041.0
 10
538.0
 20
2041.0
 10
538.0
 20
1652.0
  0
MTEXT
  5
C2
330
17
100
AcDbEntity
  8
0
100
AcDbMText
 10
547.5
 20
1846.5
 30
0.0
 40
2.0
 71
5
  1
Wood Beam\P18.0kg\PWood
  0
LWPOLYLINE
  5
C3
330
17
100
AcDbEntity
  8
0
100
AcDbPolyline
 90
5
 70
1
 10
677.0
 20
1500.0
 10
696.0
 20
1500.0
 10
696.0
 20
1884.0
 10
677.0
 20
1884.0
 10
677.0
 20
1500.0
  0
MTEXT
  5
C4
330
17
100
AcDbEntity
  8
0
100
AcDbMText
 10
686.5
 20
1692.0
 30
0.0
 40
2.0
 71
5
  1
Wood Beam\P18.0kg\PWood
  0
LWPOLYLINE
  5
C5
330
17
100
AcDbEntity
  8
0
100
AcDbPolyline
 90
5
 70
1
 10
632.0
 20
1929.0
 10
654.0
 20
1929.0
 10
654.0
 20
2258.0
 10
632.0
 20
2258.0
 10
632.0
 20
1929.0
  0
MTEXT
  5
C6
330
17
100
AcDbEntity
  8
0
100
AcDbMText
 10
643.0
 20
2093.5
 30
0.0
 40
2.0
 71
5
  1
Steel Pipe\P15.0kg\PSteel
  0
LWPOLYLINE
  5
C7
330
17
100
AcDbEntity
  8
0
100
AcDbPolyline
 90
5
 70
1
 10
679.0
 20
1929.0
 10
698.0
 20
1929.0
 10
698.0
 20
2303.0
 10
679.0
 20
2303.0
 10
679.0
 20
1929.0
  0
MTEXT
  5
C8
330
17
100
AcDbEntity
  8
0
100
AcDbMText
 10
688.5
 20
2116.0
 30
0.0
 40
2.0
 71
5
  1
Wood Beam\P18.0kg\PWood
  0
LWPOLYLINE
  5
C9
330
17
100
AcDbEntity
  8
0
100
AcDbPolyline
 90
5
 70
1
 10
591.0
 20
2691.0
 10
650.0
 20
2691.0
 10
650.0
 20
2810.0
 10
591.0
 20
2810.0
 10
591.0
 20
2691.0
  0
MTEXT
  5
CA
330
17
100
AcDbEntity
  8
0
100
AcDbMText
 10
620.5
 20
2750.5
 30
0.0
 40
2.0
 71
5
  1
Wood Frame\P8.0kg\PWood
  0
LWPOLYLINE
  5
CB
330
17
100
AcDbEntity
  8
0
100
AcDbPolyline
 90
5
 70
1
 10
440.0
 20
2232.0
 10
557.0
 20
2232.0
 10
557.0
 20
2290.0
 10
440.0
 20
2290.0
 10
440.0
 20
2232.0
  0
MTEXT
  5
CC
330
17
100
AcDbEntity
  8
0
100
AcDbMText
 10
498.5
 20
2261.0
 30
0.0
 40
2.0
 71
5
  1
Wood Frame\P8.0kg\PWood
  0
LWPOLYLINE
  5
CD
330
17
100
AcDbEntity
  8
0
100
AcDbPolyline
 90
5
 70
1
 10
415.0
 20
2437.0
 10
472.0
 20
2437.0
 10
472.0
 20
2551.0
 10
415.0
 20
2551.0
 10
415.0
 20
2437.0
  0
MTEXT
  5
CE
330
17
100
AcDbEntity
  8
0
100
AcDbMText
 10
443.5
 20
2494.0
 30
0.0
 40
2.0
 71
5
  1
Concrete Slab\P80.0kg\PConcrete
  0
LWPOLYLINE
  5
CF
330
17
100
AcDbEntity
  8
0
100
AcDbPolyline
 90
5
 70
1
 10
493.0
 20
2069.0
 10
549.0
 20
2069.0
 10
549.0
 20
2180.0
 10
493.0
 20
2180.0
 10
493.0
 20
2069.0
  0
MTEXT
  5
D0
330
17
100
AcDbEntity
  8
0
100
AcDbMText
 10
521.0
 20
2124.5
 30
0.0
 40
2.0
 71
5
  1
Concrete Slab\P80.0kg\PConcrete
  0
LWPOLYLINE
  5
D1
330
17
100
AcDbEntity
  8
0
100
AcDbPolyline
 90
5
 70
1
 10
267.0
 20
2669.0
 10
323.0
 20
2669.0
 10
323.0
 20
2780.0
 10
267.0
 20
2780.0
 10
267.0
 20
2669.0
  0
MTEXT
  5
D2
330
17
100
AcDbEntity
  8
0
100
AcDbMText
 10
295.0
 20
2724.5
 30
0.0
 40
2.0
 71
5
  1
Concrete Slab\P80.0kg\PConcrete
  0
LWPOLYLINE
  5
D3
330
17
100
AcDbEntity
  8
0
100
AcDbPolyline
 90
5
 70
1
 10
497.0
 20
2437.0
 10
552.0
 20
2437.0
 10
552.0
 20
2548.0
 10
497.0
 20
2548.0
 10
497.0
 20
2437.0
  0
MTEXT
  5
D4
330
17
100
AcDbEntity
  8
0
100
AcDbMText
 10
524.5
 20
2492.5
 30
0.0
 40
2.0
 71
5
  1
Concrete Slab\P80.0kg\PConcrete
  0
LWPOLYLINE
  5
D5
330
17
100
AcDbEntity
  8
0
100
AcDbPolyline
 90
5
 70
1
 10
591.0
 20
2835.0
 10
700.0
 20
2835.0
 10
700.0
 20
2890.0
 10
591.0
 20
2890.0
 10
591.0
 20
2835.0
  0
MTEXT
  5
D6
330
17
100
AcDbEntity
  8
0
100
AcDbMText
 10
645.5
 20
2862.5
 30
0.0
 40
2.0
 71
5
  1
Wood Frame\P8.0kg\PWood
  0
LWPOLYLINE
  5
D7
330
17
100
AcDbEntity
  8
0
100
AcDbPolyline
 90
5
 70
1
 10
350.0
 20
2202.0
 10
402.0
 20
2202.0
 10
402.0
 20
2306.0
 10
350.0
 20
2306.0
 10
350.0
 20
2202.0
  0
MTEXT
  5
D8
330
17
100
AcDbEntity
  8
0
100
AcDbMText
 10
376.0
 20
2254.0
 30
0.0
 40
2.0
 71
5
  1
Steel Plate\P25.0kg\PSteel
  0
LWPOLYLINE
  5
D9
330
17
100
AcDbEntity
  8
0
100
AcDbPolyline
 90
5
 70
1
 10
432.0
 20
2825.0
 10
476.0
 20
2825.0
 10
476.0
 20
2912.0
 10
432.0
 20
2912.0
 10
432.0
 20
2825.0
  0
MTEXT
  5
DA
330
17
100
AcDbEntity
  8
0
100
AcDbMText
 10
454.0
 20
2868.5
 30
0.0
 40
2.0
 71
5
  1
Concrete Block\P30.0kg\PConcrete
  0
LWPOLYLINE
  5
DB
330
17
100
AcDbEntity
  8
0
100
AcDbPolyline
 90
5
 70
1
 10
348.0
 20
2669.0
 10
381.0
 20
2669.0
 10
381.0
 20
2778.0
 10
348.0
 20
2778.0
 10
348.0
 20
2669.0
  0
MTEXT
  5
DC
330
17
100
AcDbEntity
  8
0
100
AcDbMText
 10
364.5
 20
2723.5
 30
0.0
 40
2.0
 71
5
  1
Concrete Pipe\P45.0kg\PConcrete
  0
LWPOLYLINE
  5
DD
330
17
100
AcDbEntity
  8
0
100
AcDbPolyline
 90
5
 70
1
 10
176.0
 20
2488.0
 10
206.0
 20
2488.0
 10
206.0
 20
2588.0
 10
176.0
 20
2588.0
 10
176.0
 20
2488.0
  0
MTEXT
  5
DE
330
17
100
AcDbEntity
  8
0
100
AcDbMText
 10
191.0
 20
2538.0
 30
0.0
 40
2.0
 71
5
  1
Concrete Pipe\P45.0kg\PConcrete
  0
LWPOLYLINE
  5
DF
330
17
100
AcDbEntity
  8
0
100
AcDbPolyline
 90
5
 70
1
 10
403.0
 20
1808.0
 10
457.0
 20
1808.0
 10
457.0
 20
1862.0
 10
403.0
 20
1862.0
 10
403.0
 20
1808.0
  0
MTEXT
  5
E0
330
17
100
AcDbEntity
  8
0
100
AcDbMText
 10
430.0
 20
1835.0
 30
0.0
 40
2.0
 71
5
  1
Concrete Tile\P15.0kg\PConcrete
  0
LWPOLYLINE
  5
E1
330
17
100
AcDbEntity
  8
0
100
AcDbPolyline
 90
5
 70
1
 10
0.0
 20
3000.0
 10
725.0
 20
3000.0
 10
725.0
 20
4450.0
 10
0.0
 20
4450.0
 10
0.0
 20
3000.0
  0
LWPOLYLINE
  5
E2
330
17
100
AcDbEntity
  8
0
100
AcDbPolyline
 90
5
 70
1
 10
0.0
 20
3000.0
 10
87.0
 20
3000.0
 10
87.0
 20
3131.0
 10
0.0
 20
3131.0
 10
0.0
 20
3000.0
  0
MTEXT
  5
E3
330
17
100
AcDbEntity
  8
0
100
AcDbMText
 10
43.5
 20
3065.5
 30
0.0
 40
2.0
 71
5
  1
Glass Sheet\P18.0kg\PGlass
  0
LWPOLYLINE
  5
E4
330
17
100
AcDbEntity
  8
0
100
AcDbPolyline
 90
5
 70
1
 10
112.0
 20
3000.0
 10
190.0
 20
3000.0
 10
190.0
 20
3117.0
 10
112.0
 20
3117.0
 10
112.0
 20
3000.0
  0
MTEXT
  5
E5
330
17
100
AcDbEntity
  8
0
100
AcDbMText
 10
151.0
 20
3058.5
 30
0.0
 40
2.0
 71
5
  1
Glass Sheet\P18.0kg\PGlass
  0
LWPOLYLINE
  5
E6
330
17
100
AcDbEntity
  8
0
100
AcDbPolyline
 90
5
 70
1
 10
0.0
 20
3156.0
 10
76.0
 20
3156.0
 10
76.0
 20
3270.0
 10
0.0
 20
3270.0
 10
0.0
 20
3156.0
  0
MTEXT
  5
E7
330
17
100
AcDbEntity
  8
0
100
AcDbMText
 10
38.0
 20
3213.0
 30
0.0
 40
2.0
 71
5
  1
Glass Sheet\P18.0kg\PGlass
  0
LWPOLYLINE
  5
E8
330
17
100
AcDbEntity
  8
0
100
AcDbPolyline
 90
5
 70
1
 10
215.0
 20
3000.0
 10
289.0
 20
3000.0
 10
289.0
 20
3111.0
 10
215.0
 20
3111.0
 10
215.0
 20
3000.0
  0
MTEXT
  5
E9
330
17
100
AcDbEntity
  8
0
100
AcDbMText
 10
252.0
 20
3055.5
 30
0.0
 40
2.0
 71
5
  1
Glass Sheet\P18.0kg\PGlass
  0
LWPOLYLINE
  5
EA
330
17
100
AcDbEntity
  8
0
100
AcDbPolyline
 90
5
 70
1
 10
112.0
 20
3142.0
 10
186.0
 20
3142.0
 10
186.0
 20
3253.0
 10
112.0
 20
3253.0
 10
112.0
 20
3142.0
  0
MTEXT
  5
EB
330
17
100
AcDbEntity
  8
0
100
AcDbMText
 10
149.0
 20
3197.5
 30
0.0
 40
2.0
 71
5
  1
Glass Sheet\P18.0kg\PGlass
  0
LWPOLYLINE
  5
EC
330
17
100
AcDbEntity
  8
0
100
AcDbPolyline
 90
5
 70
1
 10
0.0
 20
3295.0
 10
73.0
 20
3295.0
 10
73.0
 20
3405.0
 10
0.0
 20
3405.0
 10
0.0
 20
3295.0
  0
MTEXT
  5
ED
330
17
100
AcDbEntity
  8
0
100
AcDbMText
 10
36.5
 20
3350.0
 30
0.0
 40
2.0
 71
5
  1
Glass Sheet\P18.0kg\PGlass
  0
LWPOLYLINE
  5
EE
330
17
100
AcDbEntity
  8
0
100
AcDbPolyline
 90
5
 70
1
 10
314.0
 20
3000.0
 10
365.0
 20
3000.0
 10
365.0
 20
3154.0
 10
314.0
 20
3154.0
 10
314.0
 20
3000.0
  0
MTEXT
  5
EF
330
17
100
AcDbEntity
  8
0
100
AcDbMText
 10
339.5
 20
3077.0
 30
0.0
 40
2.0
 71
5
  1
Glass Panel\P15.0kg\PGlass
  0
LWPOLYLINE
  5
F0
330
17
100
AcDbEntity
  8
0
100
AcDbPolyline
 90
5
 70
1
 10
215.0
 20
3136.0
 10
266.0
 20
3136.0
 10
266.0
 20
3288.0
 10
215.0
 20
3288.0
 10
215.0
 20
3136.0
  0
MTEXT
  5
F1
330
17
100
AcDbEntity
  8
0
100
AcDbMText
 10
240.5
 20
3212.0
 30
0.0
 40
2.0
 71
5
  1
Glass Panel\P15.0kg\PGlass
  0
LWPOLYLINE
  5
F2
330
17
100
AcDbEntity
  8
0
100
AcDbPolyline
 90
5
 70
1
 10
112.0
 20
3278.0
 10
162.0
 20
3278.0
 10
162.0
 20
3428.0
 10
112.0
 20
3428.0
 10
112.0
 20
3278.0
  0
MTEXT
  5
F3
330
17
100
AcDbEntity
  8
0
100
AcDbMText
 10
137.0
 20
3353.0
 30
0.0
 40
2.0
 71
5
  1
Glass Panel\P15.0kg\PGlass
  0
LWPOLYLINE
  5
F4
330
17
100
AcDbEntity
  8
0
100
AcDbPolyline
 90
5
 70
1
 10
0.0
 20
3430.0
 10
19.0
 20
3430.0
 10
19.0
 20
3803.0
 10
0.0
 20
3803.0
 10
0.0
 20
3430.0
  0
MTEXT
  5
F5
330
17
100
AcDbEntity
  8
0
100
AcDbMText
 10
9.5
 20
3616.5
 30
0.0
 40
2.0
 71
5
  1
Wood Beam\P18.0kg\PWood
  0
LWPOLYLINE
  5
F6
330
17
100
AcDbEntity
  8
0
100
AcDbPolyline
 90
5
 70
1
 10
390.0
 20
3000.0
 10
414.0
 20
3000.0
 10
414.0
 20
3293.0
 10
390.0
 20
3293.0
 10
390.0
 20
3000.0
  0
MTEXT
  5
F7
330
17
100
AcDbEntity
  8
0
100
AcDbMText
 10
402.0
 20
3146.5
 30
0.0
 40
2.0
 71
5
  1
Wood Plank\P12.0kg\PWood
  0
LWPOLYLINE
  5
F8
330
17
100
AcDbEntity
  8
0
100
AcDbPolyline
 90
5
 70
1
 10
215.0
 20
3313.0
 10
280.0
 20
3313.0
 10
280.0
 20
3421.0
 10
215.0
 20
3421.0
 10
215.0
 20
3313.0
  0
MTEXT
  5
F9
330
17
100
AcDbEntity
  8
0
100
AcDbMText
 10
247.5
 20
3367.0
 30
0.0
 40
2.0
 71
5
  1
Glass Pane\P12.0kg\PGlass
  0
LWPOLYLINE
  5
FA
330
17
100
AcDbEntity
  8
0
100
AcDbPolyline
 90
5
 70
1
 10
314.0
 20
3179.0
 10
338.0
 20
3179.0
 10
338.0
 20
3469.0
 10
314.0
 20
3469.0
 10
314.0
 20
3179.0
  0
MTEXT
  5
FB
330
17
100
AcDbEntity
  8
0
100
AcDbMText
 10
326.0
 20
3324.0
 30
0.0
 40
2.0
 71
5
  1
Wood Plank\P12.0kg\PWood
  0
LWPOLYLINE
  5
FC
330
17
100
AcDbEntity
  8
0
100
AcDbPolyline
 90
5
 70
1
 10
112.0
 20
3453.0
 10
160.0
 20
3453.0
 10
160.0
 20
3597.0
 10
112.0
 20
3597.0
 10
112.0
 20
3453.0
  0
MTEXT
  5
FD
330
17
100
AcDbEntity
  8
0
100
AcDbMText
 10
136.0
 20
3525.0
 30
0.0
 40
2.0
 71
5
  1
Glass Panel\P15.0kg\PGlass
  0
LWPOLYLINE
  5
FE
330
17
100
AcDbEntity
  8
0
100
AcDbPolyline
 90
5
 70
1
 10
0.0
 20
3828.0
 10
47.0
 20
3828.0
 10
47.0
 20
3970.0
 10
0.0
 20
3970.0
 10
0.0
 20
3828.0
  0
MTEXT
  5
FF
330
17
100
AcDbEntity
  8
0
100
AcDbMText
 10
23.5
 20
3899.0
 30
0.0
 40
2.0
 71
5
  1
Glass Panel\P15.0kg\PGlass
  0
LWPOLYLINE
  5
100
330
17
100
AcDbEntity
  8
0
100
AcDbPolyline
 90
5
 70
1
 10
439.0
 20
3000.0
 10
486.0
 20
3000.0
 10
486.0
 20
3141.0
 10
439.0
 20
3141.0
 10
439.0
 20
3000.0
  0
MTEXT
  5
101
330
17
100
AcDbEntity
  8
0
100
AcDbMText
 10
462.5
 20
3070.5
 30
0.0
 40
2.0
 71
5
  1
Glass Panel\P15.0kg\PGlass
  0
LWPOLYLINE
  5
102
330
17
100
AcDbEntity
  8
0
100
AcDbPolyline
 90
5
 70
1
 10
44.0
 20
3430.0
 10
62.0
 20
3430.0
 10
62.0
 20
3798.0
 10
44.0
 20
3798.0
 10
44.0
 20
3430.0
  0
MTEXT
  5
103
330
17
100
AcDbEntity
  8
0
100
AcDbMText
 10
53.0
 20
3614.0
 30
0.0
 40
2.0
 71
5
  1
Wood Beam\P18.0kg\PWood
  0
LWPOLYLINE
  5
104
330
17
100
AcDbEntity
  8
0
100
AcDbPolyline
 90
5
 70
1
 10
390.0
 20
3318.0
 10
408.0
 20
3318.0
 10
408.0
 20
3684.0
 10
390.0
 20
3684.0
 10
390.0
 20
3318.0
  0
MTEXT
  5
105
330
17
100
AcDbEntity
  8
0
100
AcDbMText
 10
399.0
 20
3501.0
 30
0.0
 40
2.0
 71
5
  1
Wood Beam\P18.0kg\PWood
  0
LWPOLYLINE
  5
106
330
17
100
AcDbEntity
  8
0
100
AcDbPolyline
 90
5
 70
1
 10
215.0
 20
3446.0
 10
238.0
 20
3446.0
 10
238.0
 20
3728.0
 10
215.0
 20
3728.0
 10
215.0
 20
3446.0
  0
MTEXT
  5
107
330
17
100
AcDbEntity
  8
0
100
AcDbMText
 10
226.5
 20
3587.0
 30
0.0
 40
2.0
 71
5
  1
Wood Plank\P12.0kg\PWood
  0
LWPOLYLINE
  5
108
330
17
100
AcDbEntity
  8
0
100
AcDbPolyline
 90
5
 70
1
 10
112.0
 20
3622.0
 10
174.0
 20
3622.0
 10
174.0
 20
3725.0
 10
112.0
 20
3725.0
 10
112.0
 20
3622.0
  0
MTEXT
  5
109
330
17
100
AcDbEntity
  8
0
100
AcDbMText
 10
143.0
 20
3673.5
 30
0.0
 40
2.0
 71
5
  1
Glass Pane\P12.0kg\PGlass
  0
LWPOLYLINE
  5
10A
330
17
100
AcDbEntity
  8
0
100
AcDbPolyline
 90
5
 70
1
 10
314.0
 20
3494.0
 10
360.0
 20
3494.0
 10
360.0
 20
3631.0
 10
314.0
 20
3631.0
 10
314.0
 20
3494.0
  0
MTEXT
  5
10B
330
17
100
AcDbEntity
  8
0
100
AcDbMText
 10
337.0
 20
3562.5
 30
0.0
 40
2.0
 71
5
  1
Glass Panel\P15.0kg\PGlass
  0
LWPOLYLINE
  5
10C
330
17
100
AcDbEntity
  8
0
100
AcDbPolyline
 90
5
 70
1
 10
72.0
 20
3828.0
 10
95.0
 20
3828.0
 10
95.0
 20
4100.0
 10
72.0
 20
4100.0
 10
72.0
 20
3828.0
  0
MTEXT
  5
10D
330
17
100
AcDbEntity
  8
0
100
AcDbMText
 10
83.5
 20
3964.0
 30
0.0
 40
2.0
 71
5
  1
Wood Plank\P12.0kg\PWood
  0
LWPOLYLINE
  5
10E
330
17
100
AcDbEntity
  8
0
100
AcDbPolyline
 90
5
 70
1
 10
0.0
 20
3995.0
 10
23.0
 20
3995.0
 10
23.0
 20
4266.0
 10
0.0
 20
4266.0
 10
0.0
 20
3995.0
  0
MTEXT
  5
10F
330
17
100
AcDbEntity
  8
0
100
AcDbMText
 10
11.5
 20
4130.5
 30
0.0
 40
2.0
 71
5
  1
Wood Plank\P12.0kg\PWood
  0
LWPOLYLINE
  5
110
330
17
100
AcDbEntity
  8
0
100
AcDbPolyline
 90
5
 70
1
 10
511.0
 20
3000.0
 10
572.0
 20
3000.0
 10
572.0
 20
3102.0
 10
511.0
 20
3102.0
 10
511.0
 20
3000.0
  0
MTEXT
  5
111
330
17
100
AcDbEntity
  8
0
100
AcDbMText
 10
541.5
 20
3051.0
 30
0.0
 40
2.0
 71
5
  1
Glass Pane\P12.0kg\PGlass
  0
LWPOLYLINE
  5
112
330
17
100
AcDbEntity
  8
0
100
AcDbPolyline
 90
5
 70
1
 10
439.0
 20
3166.0
 10
494.0
 20
3166.0
 10
494.0
 20
3276.0
 10
439.0
 20
3276.0
 10
439.0
 20
3166.0
  0
MTEXT
  5
113
330
17
100
AcDbEntity
  8
0
100
AcDbMText
 10
466.5
 20
3221.0
 30
0.0
 40
2.0
 71
5
  1
Wood Frame\P8.0kg\PWood
  0
LWPOLYLINE
  5
114
330
17
100
AcDbEntity
  8
0
100
AcDbPolyline
 90
5
 70
1
 10
433.0
 20
3318.0
 10
488.0
 20
3318.0
 10
488.0
 20
3428.0
 10
433.0
 20
3428.0
 10
433.0
 20
3318.0
  0
MTEXT
  5
115
330
17
100
AcDbEntity
  8
0
100
AcDbMText
 10
460.5
 20
3373.0
 30
0.0
 40
2.0
 71
5
  1
Concrete Slab\P80.0kg\PConcrete
  0
LWPOLYLINE
  5
116
330
17
100
AcDbEntity
  8
0
100
AcDbPolyline
 90
5
 70
1
 10
390.0
 20
3709.0
 10
450.0
 20
3709.0
 10
450.0
 20
3809.0
 10
390.0
 20
3809.0
 10
390.0
 20
3709.0
  0
MTEXT
  5
117
330
17
100
AcDbEntity
  8
0
100
AcDbMText
 10
420.0
 20
3759.0
 30
0.0
 40
2.0
 71
5
  1
Glass Pane\P12.0kg\PGlass
  0
LWPOLYLINE
  5
118
330
17
100
AcDbEntity
  8
0
100
AcDbPolyline
 90
5
 70
1
 10
215.0
 20
3753.0
 10
270.0
 20
3753.0
 10
270.0
 20
3862.0
 10
215.0
 20
3862.0
 10
215.0
 20
3753.0
  0
MTEXT
  5
119
330
17
100
AcDbEntity
  8
0
100
AcDbMText
 10
242.5
 20
3807.5
 30
0.0
 40
2.0
 71
5
  1
Concrete Slab\P80.0kg\PConcrete
  0
LWPOLYLINE
  5
11A
330
17
100
AcDbEntity
  8
0
100
AcDbPolyline
 90
5
 70
1
 10
120.0
 20
3828.0
 10
174.0
 20
3828.0
 10
174.0
 20
3936.0
 10
120.0
 20
3936.0
 10
120.0
 20
3828.0
  0
MTEXT
  5
11B
330
17
100
AcDbEntity
  8
0
100
AcDbMText
 10
147.0
 20
3882.0
 30
0.0
 40
2.0
 71
5
  1
Concrete Slab\P80.0kg\PConcrete
  0
LWPOLYLINE
  5
11C
330
17
100
AcDbEntity
  8
0
100
AcDbPolyline
 90
5
 70
1
 10
72.0
 20
4125.0
 10
131.0
 20
4125.0
 10
131.0
 20
4223.0
 10
72.0
 20
4223.0
 10
72.0
 20
4125.0
  0
MTEXT
  5
11D
330
17
100
AcDbEntity
  8
0
100
AcDbMText
 10
101.5
 20
4174.0
 30
0.0
 40
2.0
 71
5
  1
Glass Pane\P12.0kg\PGlass
  0
LWPOLYLINE
  5
11E
330
17
100
AcDbEntity
  8
0
100
AcDbPolyline
 90
5
 70
1
 10
0.0
 20
4291.0
 10
58.0
 20
4291.0
 10
58.0
 20
4387.0
 10
0.0
 20
4387.0
 10
0.0
 20
4291.0
  0
MTEXT
  5
11F
330
17
100
AcDbEntity
  8
0
100
AcDbMText
 10
29.0
 20
4339.0
 30
0.0
 40
2.0
 71
5
  1
Glass Pane\P12.0kg\PGlass
  0
LWPOLYLINE
  5
120
330
17
100
AcDbEntity
  8
0
100
AcDbPolyline
 90
5
 70
1
 10
597.0
 20
3000.0
 10
654.0
 20
3000.0
 10
654.0
 20
3095.0
 10
597.0
 20
3095.0
 10
597.0
 20
3000.0
  0
MTEXT
  5
121
330
17
100
AcDbEntity
  8
0
100
AcDbMText
 10
625.5
 20
3047.5
 30
0.0
 40
2.0
 71
5
  1
Glass Pane\P12.0kg\PGlass
  0
LWPOLYLINE
  5
122
330
17
100
AcDbEntity
  8
0
100
AcDbPolyline
 90
5
 70
1
 10
314.0
 20
3656.0
 10
357.0
 20
3656.0
 10
357.0
 20
3743.0
 10
314.0
 20
3743.0
 10
314.0
 20
3656.0
  0
MTEXT
  5
123
330
17
100
AcDbEntity
  8
0
100
AcDbMText
 10
335.5
 20
3699.5
 30
0.0
 40
2.0
 71
5
  1
Concrete Block\P30.0kg\PConcrete
  0
LWPOLYLINE
  5
124
330
17
100
AcDbEntity
  8
0
100
AcDbPolyline
 90
5
 70
1
 10
519.0
 20
3166.0
 10
562.0
 20
3166.0
 10
562.0
 20
3251.0
 10
519.0
 20
3251.0
 10
519.0
 20
3166.0
  0
MTEXT
  5
125
330
17
100
AcDbEntity
  8
0
100
AcDbMText
 10
540.5
 20
3208.5
 30
0.0
 40
2.0
 71
5
  1
Concrete Block\P30.0kg\PConcrete
  0
LWPOLYLINE
  5
126
330
17
100
AcDbEntity
  8
0
100
AcDbPolyline
 90
5
 70
1
 10
513.0
 20
3318.0
 10
546.0
 20
3318.0
 10
546.0
 20
3427.0
 10
513.0
 20
3427.0
 10
513.0
 20
3318.0
  0
MTEXT
  5
127
330
17
100
AcDbEntity
  8
0
100
AcDbMText
 10
529.5
 20
3372.5
 30
0.0
 40
2.0
 71
5
  1
Concrete Pipe\P45.0kg\PConcrete
  0
LWPOLYLINE
  5
128
330
17
100
AcDbEntity
  8
0
100
AcDbPolyline
 90
5
 70
1
 10
263.0
 20
3446.0
 10
279.0
 20
3446.0
 10
279.0
 20
3665.0
 10
263.0
 20
3665.0
 10
263.0
 20
3446.0
  0
MTEXT
  5
129
330
17
100
AcDbEntity
  8
0
100
AcDbMText
 10
271.0
 20
3555.5
 30
0.0
 40
2.0
 71
5
  1
Plastic Pipe\P3.0kg\PPlastic
  0
LWPOLYLINE
  5
12A
330
17
100
AcDbEntity
  8
0
100
AcDbPolyline
 90
5
 70
1
 10
433.0
 20
3453.0
 10
465.0
 20
3453.0
 10
465.0
 20
3561.0
 10
433.0
 20
3561.0
 10
433.0
 20
3453.0
  0
MTEXT
  5
12B
330
17
100
AcDbEntity
  8
0
100
AcDbMText
 10
449.0
 20
3507.0
 30
0.0
 40
2.0
 71
5
  1
Concrete Pipe\P45.0kg\PConcrete
  0
LWPOLYLINE
  5
12C
330
17
100
AcDbEntity
  8
0
100
AcDbPolyline
 90
5
 70
1
 10
475.0
 20
3709.0
 10
507.0
 20
3709.0
 10
507.0
 20
3816.0
 10
475.0
 20
3816.0
 10
475.0
 20
3709.0
  0
MTEXT
  5
12D
330
17
100
AcDbEntity
  8
0
100
AcDbMText
 10
491.0
 20
3762.5
 30
0.0
 40
2.0
 71
5
  1
Concrete Pipe\P45.0kg\PConcrete
  0
LWPOLYLINE
  5
12E
330
17
100
AcDbEntity
  8
0
100
AcDbPolyline
 90
5
 70
1
 10
390.0
 20
3834.0
 10
431.0
 20
3834.0
 10
431.0
 20
3917.0
 10
390.0
 20
3917.0
 10
390.0
 20
3834.0
  0
MTEXT
  5
12F
330
17
100
AcDbEntity
  8
0
100
AcDbMText
 10
410.5
 20
3875.5
 30
0.0
 40
2.0
 71
5
  1
Concrete Block\P30.0kg\PConcrete
  0
LWPOLYLINE
  5
130
330
17
100
AcDbEntity
  8
0
100
AcDbPolyline
 90
5
 70
1
 10
215.0
 20
3887.0
 10
247.0
 20
3887.0
 10
247.0
 20
3993.0
 10
215.0
 20
3993.0
 10
215.0
 20
3887.0
  0
MTEXT
  5
131
330
17
100
AcDbEntity
  8
0
100
AcDbMText
 10
231.0
 20
3940.0
 30
0.0
 40
2.0
 71
5
  1
Concrete Pipe\P45.0kg\PConcrete
  0
LWPOLYLINE
  5
132
330
17
100
AcDbEntity
  8
0
100
AcDbPolyline
 90
5
 70
1
 10
120.0
 20
3961.0
 10
161.0
 20
3961.0
 10
161.0
 20
4042.0
 10
120.0
 20
4042.0
 10
120.0
 20
3961.0
  0
MTEXT
  5
133
330
17
100
AcDbEntity
  8
0
100
AcDbMText
 10
140.5
 20
4001.5
 30
0.0
 40
2.0
 71
5
  1
Concrete Block\P30.0kg\PConcrete
  0
LWPOLYLINE
  5
134
330
17
100
AcDbEntity
  8
0
100
AcDbPolyline
 90
5
 70
1
 10
156.0
 20
4125.0
 10
197.0
 20
4125.0
 10
197.0
 20
4206.0
 10
156.0
 20
4206.0
 10
156.0
 20
4125.0
  0
MTEXT
  5
135
330
17
100
AcDbEntity
  8
0
100
AcDbMText
 10
176.5
 20
4165.5
 30
0.0
 40
2.0
 71
5
  1
Concrete Block\P30.0kg\PConcrete
  0
LWPOLYLINE
  5
136
330
17
100
AcDbEntity
  8
0
100
AcDbPolyline
 90
5
 70
1
 10
83.0
 20
4291.0
 10
114.0
 20
4291.0
 10
114.0
 20
4395.0
 10
83.0
 20
4395.0
 10
83.0
 20
4291.0
  0
MTEXT
  5
137
330
17
100
AcDbEntity
  8
0
100
AcDbMText
 10
98.5
 20
4343.0
 30
0.0
 40
2.0
 71
5
  1
Concrete Pipe\P45.0kg\PConcrete
  0
LWPOLYLINE
  5
138
330
17
100
AcDbEntity
  8
0
100
AcDbPolyline
 90
5
 70
1
 10
597.0
 20
3120.0
 10
628.0
 20
3120.0
 10
628.0
 20
3224.0
 10
597.0
 20
3224.0
 10
597.0
 20
3120.0
  0
MTEXT
  5
139
330
17
100
AcDbEntity
  8
0
100
AcDbMText
 10
612.5
 20
3172.0
 30
0.0
 40
2.0
 71
5
  1
Concrete Pipe\P45.0kg\PConcrete
  0
LWPOLYLINE
  5
13A
330
17
100
AcDbEntity
  8
0
100
AcDbPolyline
 90
5
 70
1
 10
314.0
 20
3768.0
 10
354.0
 20
3768.0
 10
354.0
 20
3848.0
 10
314.0
 20
3848.0
 10
314.0
 20
3768.0
  0
MTEXT
  5
13B
330
17
100
AcDbEntity
  8
0
100
AcDbMText
 10
334.0
 20
3808.0
 30
0.0
 40
2.0
 71
5
  1
Concrete Block\P30.0kg\PConcrete
  0
LWPOLYLINE
  5
13C
330
17
100
AcDbEntity
  8
0
100
AcDbPolyline
 90
5
 70
1
 10
571.0
 20
3318.0
 10
602.0
 20
3318.0
 10
602.0
 20
3421.0
 10
571.0
 20
3421.0
 10
571.0
 20
3318.0
  0
MTEXT
  5
13D
330
17
100
AcDbEntity
  8
0
100
AcDbMText
 10
586.5
 20
3369.5
 30
0.0
 40
2.0
 71
5
  1
Concrete Pipe\P45.0kg\PConcrete
  0
LWPOLYLINE
  5
13E
330
17
100
AcDbEntity
  8
0
100
AcDbPolyline
 90
5
 70
1
 10
513.0
 20
3452.0
 10
553.0
 20
3452.0
 10
553.0
 20
3531.0
 10
513.0
 20
3531.0
 10
513.0
 20
3452.0
  0
MTEXT
  5
13F
330
17
100
AcDbEntity
  8
0
100
AcDbMText
 10
533.0
 20
3491.5
 30
0.0
 40
2.0
 71
5
  1
Concrete Block\P30.0kg\PConcrete
  0
LWPOLYLINE
  5
140
330
17
100
AcDbEntity
  8
0
100
AcDbPolyline
 90
5
 70
1
 10
433.0
 20
3586.0
 10
472.0
 20
3586.0
 10
472.0
 20
3665.0
 10
433.0
 20
3665.0
 10
433.0
 20
3586.0
  0
MTEXT
  5
141
330
17
100
AcDbEntity
  8
0
100
AcDbMText
 10
452.5
 20
3625.5
 30
0.0
 40
2.0
 71
5
  1
Concrete Block\P30.0kg\PConcrete
  0
LWPOLYLINE
  5
142
330
17
100
AcDbEntity
  8
0
100
AcDbPolyline
 90
5
 70
1
 10
532.0
 20
3709.0
 10
571.0
 20
3709.0
 10
571.0
 20
3788.0
 10
532.0
 20
3788.0
 10
532.0
 20
3709.0
  0
MTEXT
  5
143
330
17
100
AcDbEntity
  8
0
100
AcDbMText
 10
551.5
 20
3748.5
 30
0.0
 40
2.0
 71
5
  1
Concrete Block\P30.0kg\PConcrete
  0
LWPOLYLINE
  5
144
330
17
100
AcDbEntity
  8
0
100
AcDbPolyline
 90
5
 70
1
 10
112.0
 20
3750.0
 10
190.0
 20
3750.0
 10
190.0
 20
3789.0
 10
112.0
 20
3789.0
 10
112.0
 20
3750.0
  0
MTEXT
  5
145
330
17
100
AcDbEntity
  8
0
100
AcDbMText
 10
151.0
 20
3769.5
 30
0.0
 40
2.0
 71
5
  1
Concrete Block\P30.0kg\PConcrete
  0
LWPOLYLINE
  5
146
330
17
100
AcDbEntity
  8
0
100
AcDbPolyline
 90
5
 70
1
 10
72.0
 20
4248.0
 10
273.0
 20
4248.0
 10
273.0
 20
4263.0
 10
72.0
 20
4263.0
 10
72.0
 20
4248.0
  0
MTEXT
  5
147
330
17
100
AcDbEntity
  8
0
100
AcDbMText
 10
172.5
 20
4255.5
 30
0.0
 40
2.0
 71
5
  1
Plastic Pipe\P3.0kg\PPlastic
  0
LWPOLYLINE
  5
148
330
17
100
AcDbEntity
  8
0
100
AcDbPolyline
 90
5
 70
1
 10
475.0
 20
3841.0
 10
514.0
 20
3841.0
 10
514.0
 20
3918.0
 10
475.0
 20
3918.0
 10
475.0
 20
3841.0
  0
MTEXT
  5
149
330
17
100
AcDbEntity
  8
0
100
AcDbMText
 10
494.5
 20
3879.5
 30
0.0
 40
2.0
 71
5
  1
Concrete Block\P30.0kg\PConcrete
  0
LWPOLYLINE
  5
14A
330
17
100
AcDbEntity
  8
0
100
AcDbPolyline
 90
5
 70
1
 10
679.0
 20
3000.0
 10
694.0
 20
3000.0
 10
694.0
 20
3199.0
 10
679.0
 20
3199.0
 10
679.0
 20
3000.0
  0
MTEXT
  5
14B
330
17
100
AcDbEntity
  8
0
100
AcDbMText
 10
686.5
 20
3099.5
 30
0.0
 40
2.0
 71
5
  1
Plastic Pipe\P3.0kg\PPlastic
  0
LWPOLYLINE
  5
14C
330
17
100
AcDbEntity
  8
0
100
AcDbPolyline
 90
5
 70
1
 10
390.0
 20
3942.0
 10
444.0
 20
3942.0
 10
444.0
 20
3996.0
 10
390.0
 20
3996.0
 10
390.0
 20
3942.0
  0
MTEXT
  5
14D
330
17
100
AcDbEntity
  8
0
100
AcDbMText
 10
417.0
 20
3969.0
 30
0.0
 40
2.0
 71
5
  1
Concrete Tile\P15.0kg\PConcrete
  0
LWPOLYLINE
  5
14E
330
17
100
AcDbEntity
  8
0
100
AcDbPolyline
 90
5
 70
1
 10
272.0
 20
3887.0
 10
326.0
 20
3887.0
 10
326.0
 20
3941.0
 10
272.0
 20
3941.0
 10
272.0
 20
3887.0
  0
MTEXT
  5
14F
330
17
100
AcDbEntity
  8
0
100
AcDbMText
 10
299.0
 20
3914.0
 30
0.0
 40
2.0
 71
5
  1
Concrete Tile\P15.0kg\PConcrete
  0
LWPOLYLINE
  5
150
330
17
100
AcDbEntity
  8
0
100
AcDbPolyline
 90
5
 70
1
 10
215.0
 20
4018.0
 10
269.0
 20
4018.0
 10
269.0
 20
4072.0
 10
215.0
 20
4072.0
 10
215.0
 20
4018.0
  0
MTEXT
  5
151
330
17
100
AcDbEntity
  8
0
100
AcDbMText
 10
242.0
 20
4045.0
 30
0.0
 40
2.0
 71
5
  1
Concrete Tile\P15.0kg\PConcrete
  0
LWPOLYLINE
  5
152
330
17
100
AcDbEntity
  8
0
100
AcDbPolyline
 90
5
 70
1
 10
222.0
 20
4125.0
 10
276.0
 20
4125.0
 10
276.0
 20
4179.0
 10
222.0
 20
4179.0
 10
222.0
 20
4125.0
  0
MTEXT
  5
153
330
17
100
AcDbEntity
  8
0
100
AcDbMText
 10
249.0
 20
4152.0
 30
0.0
 40
2.0
 71
5
  1
Concrete Tile\P15.0kg\PConcrete
  0
LWPOLYLINE
  5
154
330
17
100
AcDbEntity
  8
0
100
AcDbPolyline
 90
5
 70
1
 10
139.0
 20
4291.0
 10
193.0
 20
4291.0
 10
193.0
 20
4345.0
 10
139.0
 20
4345.0
 10
139.0
 20
4291.0
  0
MTEXT
  5
155
330
17
100
AcDbEntity
  8
0
100
AcDbMText
 10
166.0
 20
4318.0
 30
0.0
 40
2.0
 71
5
  1
Concrete Tile\P15.0kg\PConcrete
  0
LWPOLYLINE
  5
156
330
17
100
AcDbEntity
  8
0
100
AcDbPolyline
 90
5
 70
1
 10
597.0
 20
3249.0
 10
663.0
 20
3249.0
 10
663.0
 20
3293.0
 10
597.0
 20
3293.0
 10
597.0
 20
3249.0
  0
MTEXT
  5
157
330
17
100
AcDbEntity
  8
0
100
AcDbMText
 10
630.0
 20
3271.0
 30
0.0
 40
2.0
 71
5
  1
Plastic Container\P5.0kg\PPlastic
  0
LWPOLYLINE
  5
158
330
17
100
AcDbEntity
  8
0
100
AcDbPolyline
 90
5
 70
1
 10
627.0
 20
3318.0
 10
665.0
 20
3318.0
 10
665.0
 20
3394.0
 10
627.0
 20
3394.0
 10
627.0
 20
3318.0
  0
MTEXT
  5
159
330
17
100
AcDbEntity
  8
0
100
AcDbMText
 10
646.0
 20
3356.0
 30
0.0
 40
2.0
 71
5
  1
Concrete Block\P30.0kg\PConcrete
  0
LWPOLYLINE
  5
15A
330
17
100
AcDbEntity
  8
0
100
AcDbPolyline
 90
5
 70
1
 10
578.0
 20
3452.0
 10
616.0
 20
3452.0
 10
616.0
 20
3528.0
 10
578.0
 20
3528.0
 10
578.0
 20
3452.0
  0
MTEXT
  5
15B
330
17
100
AcDbEntity
  8
0
100
AcDbMText
 10
597.0
 20
3490.0
 30
0.0
 40
2.0
 71
5
  1
Concrete Block\P30.0kg\PConcrete
  0
LWPOLYLINE
  5
15C
330
17
100
AcDbEntity
  8
0
100
AcDbPolyline
 90
5
 70
1
 10
513.0
 20
3556.0
 10
542.0
 20
3556.0
 10
542.0
 20
3654.0
 10
513.0
 20
3654.0
 10
513.0
 20
3556.0
  0
MTEXT
  5
15D
330
17
100
AcDbEntity
  8
0
100
AcDbMText
 10
527.5
 20
3605.0
 30
0.0
 40
2.0
 71
5
  1
Concrete Pipe\P45.0kg\PConcrete
  0
LWPOLYLINE
  5
15E
330
17
100
AcDbEntity
  8
0
100
AcDbPolyline
 90
5
 70
1
 10
596.0
 20
3709.0
 10
625.0
 20
3709.0
 10
625.0
 20
3806.0
 10
596.0
 20
3806.0
 10
596.0
 20
3709.0
  0
MTEXT
  5
15F
330
17
100
AcDbEntity
  8
0
100
AcDbMText
 10
610.5
 20
3757.5
 30
0.0
 40
2.0
 71
5
  1
Concrete Pipe\P45.0kg\PConcrete
  0
LWPOLYLINE
  5
160
330
17
100
AcDbEntity
  8
0
100
AcDbPolyline
 90
5
 70
1
 10
298.0
 20
4248.0
 10
327.0
 20
4248.0
 10
327.0
 20
4345.0
 10
298.0
 20
4345.0
 10
298.0
 20
4248.0
  0
MTEXT
  5
161
330
17
100
AcDbEntity
  8
0
100
AcDbMText
 10
312.5
 20
4296.5
 30
0.0
 40
2.0
 71
5
  1
Concrete Pipe\P45.0kg\PConcrete
  0
LWPOLYLINE
  5
162
330
17
100
AcDbEntity
  8
0
100
AcDbPolyline
 90
5
 70
1
 10
539.0
 20
3841.0
 10
568.0
 20
3841.0
 10
568.0
 20
3938.0
 10
539.0
 20
3938.0
 10
539.0
 20
3841.0
  0
MTEXT
  5
163
330
17
100
AcDbEntity
  8
0
100
AcDbMText
 10
553.5
 20
3889.5
 30
0.0
 40
2.0
 71
5
  1
Concrete Pipe\P45.0kg\PConcrete
  0
LWPOLYLINE
  5
164
330
17
100
AcDbEntity
  8
0
100
AcDbPolyline
 90
5
 70
1
 10
475.0
 20
3943.0
 10
504.0
 20
3943.0
 10
504.0
 20
4040.0
 10
475.0
 20
4040.0
 10
475.0
 20
3943.0
  0
MTEXT
  5
165
330
17
100
AcDbEntity
  8
0
100
AcDbMText
 10
489.5
 20
3991.5
 30
0.0
 40
2.0
 71
5
  1
Concrete Pipe\P45.0kg\PConcrete
  0
LWPOLYLINE
  5
166
330
17
100
AcDbEntity
  8
0
100
AcDbPolyline
 90
5
 70
1
 10
390.0
 20
4021.0
 10
443.0
 20
4021.0
 10
443.0
 20
4074.0
 10
390.0
 20
4074.0
 10
390.0
 20
4021.0
  0
MTEXT
  5
167
330
17
100
AcDbEntity
  8
0
100
AcDbMText
 10
416.5
 20
4047.5
 30
0.0
 40
2.0
 71
5
  1
Concrete Tile\P15.0kg\PConcrete
  0
LWPOLYLINE
  5
168
330
17
100
AcDbEntity
  8
0
100
AcDbPolyline
 90
5
 70
1
 10
294.0
 20
4018.0
 10
347.0
 20
4018.0
 10
347.0
 20
4071.0
 10
294.0
 20
4071.0
 10
294.0
 20
4018.0
  0
MTEXT
  5
169
330
17
100
AcDbEntity
  8
0
100
AcDbMText
 10
320.5
 20
4044.5
 30
0.0
 40
2.0
 71
5
  1
Concrete Tile\P15.0kg\PConcrete
  0
LWPOLYLINE
  5
16A
330
17
100
AcDbEntity
  8
0
100
AcDbPolyline
 90
5
 70
1
 10
301.0
 20
4125.0
 10
354.0
 20
4125.0
 10
354.0
 20
4178.0
 10
301.0
 20
4178.0
 10
301.0
 20
4125.0
  0
MTEXT
  5
16B
330
17
100
AcDbEntity
  8
0
100
AcDbMText
 10
327.5
 20
4151.5
 30
0.0
 40
2.0
 71
5
  1
Plastic Bin\P4.0kg\PPlastic
  0
LWPOLYLINE
  5
16C
330
17
100
AcDbEntity
  8
0
100
AcDbPolyline
 90
5
 70
1
 10
218.0
 20
4291.0
 10
261.0
 20
4291.0
 10
261.0
 20
4356.0
 10
218.0
 20
4356.0
 10
218.0
 20
4291.0
  0
MTEXT
  5
16D
330
17
100
AcDbEntity
  8
0
100
AcDbMText
 10
239.5
 20
4323.5
 30
0.0
 40
2.0
 71
5
  1
Plastic Container\P5.0kg\PPlastic
  0
LWPOLYLINE
  5
16E
330
17
100
AcDbEntity
  8
0
100
AcDbPolyline
 90
5
 70
1
 10
641.0
 20
3452.0
 10
678.0
 20
3452.0
 10
678.0
 20
3527.0
 10
641.0
 20
3527.0
 10
641.0
 20
3452.0
  0
MTEXT
  5
16F
330
17
100
AcDbEntity
  8
0
100
AcDbMText
 10
659.5
 20
3489.5
 30
0.0
 40
2.0
 71
5
  1
Concrete Block\P30.0kg\PConcrete
  0
LWPOLYLINE
  5
170
330
17
100
AcDbEntity
  8
0
100
AcDbPolyline
 90
5
 70
1
 10
578.0
 20
3553.0
 10
615.0
 20
3553.0
 10
615.0
 20
3627.0
 10
578.0
 20
3627.0
 10
578.0
 20
3553.0
  0
MTEXT
  5
171
330
17
100
AcDbEntity
  8
0
100
AcDbMText
 10
596.5
 20
3590.0
 30
0.0
 40
2.0
 71
5
  1
Concrete Block\P30.0kg\PConcrete
  0
LWPOLYLINE
  5
172
330
17
100
AcDbEntity
  8
0
100
AcDbPolyline
 90
5
 70
1
 10
650.0
 20
3709.0
 10
687.0
 20
3709.0
 10
687.0
 20
3783.0
 10
650.0
 20
3783.0
 10
650.0
 20
3709.0
  0
MTEXT
  5
173
330
17
100
AcDbEntity
  8
0
100
AcDbMText
 10
668.5
 20
3746.0
 30
0.0
 40
2.0
 71
5
  1
Concrete Block\P30.0kg\PConcrete
  0
LWPOLYLINE
  5
174
330
17
100
AcDbEntity
  8
0
100
AcDbPolyline
 90
5
 70
1
 10
139.0
 20
4370.0
 10
191.0
 20
4370.0
 10
191.0
 20
4422.0
 10
139.0
 20
4422.0
 10
139.0
 20
4370.0
  0
MTEXT
  5
175
330
17
100
AcDbEntity
  8
0
100
AcDbMText
 10
165.0
 20
4396.0
 30
0.0
 40
2.0
 71
5
  1
Concrete Tile\P15.0kg\PConcrete
  0
LWPOLYLINE
  5
176
330
17
100
AcDbEntity
  8
0
100
AcDbPolyline
 90
5
 70
1
 10
596.0
 20
3831.0
 10
648.0
 20
3831.0
 10
648.0
 20
3883.0
 10
596.0
 20
3883.0
 10
596.0
 20
3831.0
  0
MTEXT
  5
177
330
17
100
AcDbEntity
  8
0
100
AcDbMText
 10
622.0
 20
3857.0
 30
0.0
 40
2.0
 71
5
  1
Concrete Tile\P15.0kg\PConcrete
  0
LWPOLYLINE
  5
178
330
17
100
AcDbEntity
  8
0
100
AcDbPolyline
 90
5
 70
1
 10
352.0
 20
4248.0
 10
404.0
 20
4248.0
 10
404.0
 20
4300.0
 10
352.0
 20
4300.0
 10
352.0
 20
4248.0
  0
MTEXT
  5
179
330
17
100
AcDbEntity
  8
0
100
AcDbMText
 10
378.0
 20
4274.0
 30
0.0
 40
2.0
 71
5
  1
Concrete Tile\P15.0kg\PConcrete
  0
LWPOLYLINE
  5
17A
330
17
100
AcDbEntity
  8
0
100
AcDbPolyline
 90
5
 70
1
 10
298.0
 20
4370.0
 10
350.0
 20
4370.0
 10
350.0
 20
4422.0
 10
298.0
 20
4422.0
 10
298.0
 20
4370.0
  0
MTEXT
  5
17B
330
17
100
AcDbEntity
  8
0
100
AcDbMText
 10
324.0
 20
4396.0
 30
0.0
 40
2.0
 71
5
  1
Plastic Bin\P4.0kg\PPlastic
  0
LWPOLYLINE
  5
17C
330
17
100
AcDbEntity
  8
0
100
AcDbPolyline
 90
5
 70
1
 10
539.0
 20
3963.0
 10
576.0
 20
3963.0
 10
576.0
 20
4036.0
 10
539.0
 20
4036.0
 10
539.0
 20
3963.0
  0
MTEXT
  5
17D
330
17
100
AcDbEntity
  8
0
100
AcDbMText
 10
557.5
 20
3999.5
 30
0.0
 40
2.0
 71
5
  1
Concrete Block\P30.0kg\PConcrete
  0
LWPOLYLINE
  5
17E
330
17
100
AcDbEntity
  8
0
100
AcDbPolyline
 90
5
 70
1
 10
475.0
 20
4065.0
 10
512.0
 20
4065.0
 10
512.0
 20
4138.0
 10
475.0
 20
4138.0
 10
475.0
 20
4065.0
  0
MTEXT
  5
17F
330
17
100
AcDbEntity
  8
0
100
AcDbMText
 10
493.5
 20
4101.5
 30
0.0
 40
2.0
 71
5
  1
Concrete Block\P30.0kg\PConcrete
  0
LWPOLYLINE
  5
180
330
17
100
AcDbEntity
  8
0
100
AcDbPolyline
 90
5
 70
1
 10
390.0
 20
4099.0
 10
427.0
 20
4099.0
 10
427.0
 20
4172.0
 10
390.0
 20
4172.0
 10
390.0
 20
4099.0
  0
MTEXT
  5
181
330
17
100
AcDbEntity
  8
0
100
AcDbMText
 10
408.5
 20
4135.5
 30
0.0
 40
2.0
 71
5
  1
Concrete Block\P30.0kg\PConcrete
  0
LWPOLYLINE
  5
182
330
17
100
AcDbEntity
  8
0
100
AcDbPolyline
 90
5
 70
1
 10
222.0
 20
4204.0
 10
414.0
 20
4204.0
 10
414.0
 20
4218.0
 10
222.0
 20
4218.0
 10
222.0
 20
4204.0
  0
MTEXT
  5
183
330
17
100
AcDbEntity
  8
0
100
AcDbMText
 10
318.0
 20
4211.0
 30
0.0
 40
2.0
 71
5
  1
Plastic Pipe\P3.0kg\PPlastic
  0
LWPOLYLINE
  5
184
330
17
100
AcDbEntity
  8
0
100
AcDbPolyline
 90
5
 70
1
 10
641.0
 20
3552.0
 10
683.0
 20
3552.0
 10
683.0
 20
3615.0
 10
641.0
 20
3615.0
 10
641.0
 20
3552.0
  0
MTEXT
  5
185
330
17
100
AcDbEntity
  8
0
100
AcDbMText
 10
662.0
 20
3583.5
 30
0.0
 40
2.0
 71
5
  1
Plastic Container\P5.0kg\PPlastic
  0
LWPOLYLINE
  5
186
330
17
100
AcDbEntity
  8
0
100
AcDbPolyline
 90
5
 70
1
 10
429.0
 20
4248.0
 10
465.0
 20
4248.0
 10
465.0
 20
4321.0
 10
429.0
 20
4321.0
 10
429.0
 20
4248.0
  0
MTEXT
  5
187
330
17
100
AcDbEntity
  8
0
100
AcDbMText
 10
447.0
 20
4284.5
 30
0.0
 40
2.0
 71
5
  1
Concrete Block\P30.0kg\PConcrete
  0
LWPOLYLINE
  5
188
330
17
100
AcDbEntity
  8
0
100
AcDbPolyline
 90
5
 70
1
 10
375.0
 20
4370.0
 10
426.0
 20
4370.0
 10
426.0
 20
4421.0
 10
375.0
 20
4421.0
 10
375.0
 20
4370.0
  0
MTEXT
  5
189
330
17
100
AcDbEntity
  8
0
100
AcDbMText
 10
400.5
 20
4395.5
 30
0.0
 40
2.0
 71
5
  1
Concrete Tile\P15.0kg\PConcrete
  0
LWPOLYLINE
  5
18A
330
17
100
AcDbEntity
  8
0
100
AcDbPolyline
 90
5
 70
1
 10
601.0
 20
3963.0
 10
652.0
 20
3963.0
 10
652.0
 20
4014.0
 10
601.0
 20
4014.0
 10
601.0
 20
3963.0
  0
MTEXT
  5
18B
330
17
100
AcDbEntity
  8
0
100
AcDbMText
 10
626.5
 20
3988.5
 30
0.0
 40
2.0
 71
5
  1
Concrete Tile\P15.0kg\PConcrete
  0
LWPOLYLINE
  5
18C
330
17
100
AcDbEntity
  8
0
100
AcDbPolyline
 90
5
 70
1
 10
539.0
 20
4061.0
 10
590.0
 20
4061.0
 10
590.0
 20
4112.0
 10
539.0
 20
4112.0
 10
539.0
 20
4061.0
  0
MTEXT
  5
18D
330
17
100
AcDbEntity
  8
0
100
AcDbMText
 10
564.5
 20
4086.5
 30
0.0
 40
2.0
 71
5
  1
Concrete Tile\P15.0kg\PConcrete
  0
LWPOLYLINE
  5
18E
330
17
100
AcDbEntity
  8
0
100
AcDbPolyline
 90
5
 70
1
 10
475.0
 20
4163.0
 10
526.0
 20
4163.0
 10
526.0
 20
4214.0
 10
475.0
 20
4214.0
 10
475.0
 20
4163.0
  0
MTEXT
  5
18F
330
17
100
AcDbEntity
  8
0
100
AcDbMText
 10
500.5
 20
4188.5
 30
0.0
 40
2.0
 71
5
  1
Concrete Tile\P15.0kg\PConcrete
  0
LWPOLYLINE
  5
190
330
17
100
AcDbEntity
  8
0
100
AcDbPolyline
 90
5
 70
1
 10
490.0
 20
4248.0
 10
541.0
 20
4248.0
 10
541.0
 20
4299.0
 10
490.0
 20
4299.0
 10
490.0
 20
4248.0
  0
MTEXT
  5
191
330
17
100
AcDbEntity
  8
0
100
AcDbMText
 10
515.5
 20
4273.5
 30
0.0
 40
2.0
 71
5
  1
Concrete Tile\P15.0kg\PConcrete
  0
LWPOLYLINE
  5
192
330
17
100
AcDbEntity
  8
0
100
AcDbPolyline
 90
5
 70
1
 10
451.0
 20
4370.0
 10
502.0
 20
4370.0
 10
502.0
 20
4421.0
 10
451.0
 20
4421.0
 10
451.0
 20
4370.0
  0
MTEXT
  5
193
330
17
100
AcDbEntity
  8
0
100
AcDbMText
 10
476.5
 20
4395.5
 30
0.0
 40
2.0
 71
5
  1
Concrete Tile\P15.0kg\PConcrete
  0
LWPOLYLINE
  5
194
330
17
100
AcDbEntity
  8
0
100
AcDbPolyline
 90
5
 70
1
 10
615.0
 20
4061.0
 10
666.0
 20
4061.0
 10
666.0
 20
4112.0
 10
615.0
 20
4112.0
 10
615.0
 20
4061.0
  0
MTEXT
  5
195
330
17
100
AcDbEntity
  8
0
100
AcDbMText
 10
640.5
 20
4086.5
 30
0.0
 40
2.0
 71
5
  1
Plastic Bin\P4.0kg\PPlastic
  0
LWPOLYLINE
  5
196
330
17
100
AcDbEntity
  8
0
100
AcDbPolyline
 90
5
 70
1
 10
578.0
 20
3652.0
 10
670.0
 20
3652.0
 10
670.0
 20
3680.0
 10
578.0
 20
3680.0
 10
578.0
 20
3652.0
  0
MTEXT
  5
197
330
17
100
AcDbEntity
  8
0
100
AcDbMText
 10
624.0
 20
3666.0
 30
0.0
 40
2.0
 71
5
  1
Concrete Pipe\P45.0kg\PConcrete
  0
LWPOLYLINE
  5
198
330
17
100
AcDbEntity
  8
0
100
AcDbPolyline
 90
5
 70
1
 10
490.0
 20
4324.0
 10
673.0
 20
4324.0
 10
673.0
 20
4338.0
 10
490.0
 20
4338.0
 10
490.0
 20
4324.0
  0
MTEXT
  5
199
330
17
100
AcDbEntity
  8
0
100
AcDbMText
 10
581.5
 20
4331.0
 30
0.0
 40
2.0
 71
5
  1
Plastic Pipe\P3.0kg\PPlastic
  0
LWPOLYLINE
  5
19A
330
17
100
AcDbEntity
  8
0
100
AcDbPolyline
 90
5
 70
1
 10
272.0
 20
3966.0
 10
363.0
 20
3966.0
 10
363.0
 20
3993.0
 10
272.0
 20
3993.0
 10
272.0
 20
3966.0
  0
MTEXT
  5
19B
330
17
100
AcDbEntity
  8
0
100
AcDbMText
 10
317.5
 20
3979.5
 30
0.0
 40
2.0
 71
5
  1
Concrete Pipe\P45.0kg\PConcrete
  0
LWPOLYLINE
  5
19C
330
17
100
AcDbEntity
  8
0
100
AcDbPolyline
 90
5
 70
1
 10
551.0
 20
4163.0
 10
600.0
 20
4163.0
 10
600.0
 20
4212.0
 10
551.0
 20
4212.0
 10
551.0
 20
4163.0
  0
MTEXT
  5
19D
330
17
100
AcDbEntity
  8
0
100
AcDbMText
 10
575.5
 20
4187.5
 30
0.0
 40
2.0
 71
5
  1
Concrete Tile\P15.0kg\PConcrete
  0
LWPOLYLINE
  5
19E
330
17
100
AcDbEntity
  8
0
100
AcDbPolyline
 90
5
 70
1
 10
566.0
 20
4248.0
 10
615.0
 20
4248.0
 10
615.0
 20
4297.0
 10
566.0
 20
4297.0
 10
566.0
 20
4248.0
  0
MTEXT
  5
19F
330
17
100
AcDbEntity
  8
0
100
AcDbMText
 10
590.5
 20
4272.5
 30
0.0
 40
2.0
 71
5
  1
Concrete Tile\P15.0kg\PConcrete
  0
LWPOLYLINE
  5
1A0
330
17
100
AcDbEntity
  8
0
100
AcDbPolyline
 90
5
 70
1
 10
527.0
 20
4370.0
 10
576.0
 20
4370.0
 10
576.0
 20
4419.0
 10
527.0
 20
4419.0
 10
527.0
 20
4370.0
  0
MTEXT
  5
1A1
330
17
100
AcDbEntity
  8
0
100
AcDbMText
 10
551.5
 20
4394.5
 30
0.0
 40
2.0
 71
5
  1
Plastic Bin\P4.0kg\PPlastic
  0
LWPOLYLINE
  5
1A2
330
17
100
AcDbEntity
  8
0
100
AcDbPolyline
 90
5
 70
1
 10
625.0
 20
4163.0
 10
674.0
 20
4163.0
 10
674.0
 20
4212.0
 10
625.0
 20
4212.0
 10
625.0
 20
4163.0
  0
MTEXT
  5
1A3
330
17
100
AcDbEntity
  8
0
100
AcDbMText
 10
649.5
 20
4187.5
 30
0.0
 40
2.0
 71
5
  1
Plastic Bin\P4.0kg\PPlastic
  0
LWPOLYLINE
  5
1A4
330
17
100
AcDbEntity
  8
0
100
AcDbPolyline
 90
5
 70
1
 10
640.0
 20
4248.0
 10
689.0
 20
4248.0
 10
689.0
 20
4297.0
 10
640.0
 20
4297.0
 10
640.0
 20
4248.0
  0
MTEXT
  5
1A5
330
17
100
AcDbEntity
  8
0
100
AcDbMText
 10
664.5
 20
4272.5
 30
0.0
 40
2.0
 71
5
  1
Plastic Bin\P4.0kg\PPlastic
  0
LWPOLYLINE
  5
1A6
330
17
100
AcDbEntity
  8
0
100
AcDbPolyline
 90
5
 70
1
 10
601.0
 20
4370.0
 10
649.0
 20
4370.0
 10
649.0
 20
4418.0
 10
601.0
 20
4418.0
 10
601.0
 20
4370.0
  0
MTEXT
  5
1A7
330
17
100
AcDbEntity
  8
0
100
AcDbMText
 10
625.0
 20
4394.0
 30
0.0
 40
2.0
 71
5
  1
Concrete Tile\P15.0kg\PConcrete
  0
LWPOLYLINE
  5
1A8
330
17
100
AcDbEntity
  8
0
100
AcDbPolyline
 90
5
 70
1
 10
0.0
 20
4500.0
 10
725.0
 20
4500.0
 10
725.0
 20
5950.0
 10
0.0
 20
5950.0
 10
0.0
 20
4500.0
  0
LWPOLYLINE
  5
1A9
330
17
100
AcDbEntity
  8
0
100
AcDbPolyline
 90
5
 70
1
 10
0.0
 20
4500.0
 10
22.0
 20
4500.0
 10
22.0
 20
4829.0
 10
0.0
 20
4829.0
 10
0.0
 20
4500.0
  0
MTEXT
  5
1AA
330
17
100
AcDbEntity
  8
0
100
AcDbMText
 10
11.0
 20
4664.5
 30
0.0
 40
2.0
 71
5
  1
Steel Pipe\P15.0kg\PSteel
  0
LWPOLYLINE
  5
1AB
330
17
100
AcDbEntity
  8
0
100
AcDbPolyline
 90
5
 70
1
 10
47.0
 20
4500.0
 10
69.0
 20
4500.0
 10
69.0
 20
4823.0
 10
47.0
 20
4823.0
 10
47.0
 20
4500.0
  0
MTEXT
  5
1AC
330
17
100
AcDbEntity
  8
0
100
AcDbMText
 10
58.0
 20
4661.5
 30
0.0
 40
2.0
 71
5
  1
Steel Pipe\P15.0kg\PSteel
  0
LWPOLYLINE
  5
1AD
330
17
100
AcDbEntity
  8
0
100
AcDbPolyline
 90
5
 70
1
 10
0.0
 20
4854.0
 10
21.0
 20
4854.0
 10
21.0
 20
5176.0
 10
0.0
 20
5176.0
 10
0.0
 20
4854.0
  0
MTEXT
  5
1AE
330
17
100
AcDbEntity
  8
0
100
AcDbMText
 10
10.5
 20
5015.0
 30
0.0
 40
2.0
 71
5
  1
Steel Pipe\P15.0kg\PSteel
  0
LWPOLYLINE
  5
1AF
330
17
100
AcDbEntity
  8
0
100
AcDbPolyline
 90
5
 70
1
 10
94.0
 20
4500.0
 10
115.0
 20
4500.0
 10
115.0
 20
4819.0
 10
94.0
 20
4819.0
 10
94.0
 20
4500.0
  0
MTEXT
  5
1B0
330
17
100
AcDbEntity
  8
0
100
AcDbMText
 10
104.5
 20
4659.5
 30
0.0
 40
2.0
 71
5
  1
Steel Pipe\P15.0kg\PSteel
  0
LWPOLYLINE
  5
1B1
330
17
100
AcDbEntity
  8
0
100
AcDbPolyline
 90
5
 70
1
 10
47.0
 20
4848.0
 10
68.0
 20
4848.0
 10
68.0
 20
5163.0
 10
47.0
 20
5163.0
 10
47.0
 20
4848.0
  0
MTEXT
  5
1B2
330
17
100
AcDbEntity
  8
0
100
AcDbMText
 10
57.5
 20
5005.5
 30
0.0
 40
2.0
 71
5
  1
Steel Pipe\P15.0kg\PSteel
  0
LWPOLYLINE
  5
1B3
330
17
100
AcDbEntity
  8
0
100
AcDbPolyline
 90
5
 70
1
 10
0.0
 20
5201.0
 10
20.0
 20
5201.0
 10
20.0
 20
5506.0
 10
0.0
 20
5506.0
 10
0.0
 20
5201.0
  0
MTEXT
  5
1B4
330
17
100
AcDbEntity
  8
0
100
AcDbMText
 10
10.0
 20
5353.5
 30
0.0
 40
2.0
 71
5
  1
Steel Pipe\P15.0kg\PSteel
  0
LWPOLYLINE
  5
1B5
330
17
100
AcDbEntity
  8
0
100
AcDbPolyline
 90
5
 70
1
 10
140.0
 20
4500.0
 10
160.0
 20
4500.0
 10
160.0
 20
4803.0
 10
140.0
 20
4803.0
 10
140.0
 20
4500.0
  0
MTEXT
  5
1B6
330
17
100
AcDbEntity
  8
0
100
AcDbMText
 10
150.0
 20
4651.5
 30
0.0
 40
2.0
 71
5
  1
Steel Pipe\P15.0kg\PSteel
  0
LWPOLYLINE
  5
1B7
330
17
100
AcDbEntity
  8
0
100
AcDbPolyline
 90
5
 70
1
 10
94.0
 20
4844.0
 10
114.0
 20
4844.0
 10
114.0
 20
5144.0
 10
94.0
 20
5144.0
 10
94.0
 20
4844.0
  0
MTEXT
  5
1B8
330
17
100
AcDbEntity
  8
0
100
AcDbMText
 10
104.0
 20
4994.0
 30
0.0
 40
2.0
 71
5
  1
Steel Pipe\P15.0kg\PSteel
  0
LWPOLYLINE
  5
1B9
330
17
100
AcDbEntity
  8
0
100
AcDbPolyline
 90
5
 70
1
 10
47.0
 20
5188.0
 10
67.0
 20
5188.0
 10
67.0
 20
5487.0
 10
47.0
 20
5487.0
 10
47.0
 20
5188.0
  0
MTEXT
  5
1BA
330
17
100
AcDbEntity
  8
0
100
AcDbMText
 10
57.0
 20
5337.5
 30
0.0
 40
2.0
 71
5
  1
Steel Pipe\P15.0kg\PSteel
  0
LWPOLYLINE
  5
1BB
330
17
100
AcDbEntity
  8
0
100
AcDbPolyline
 90
5
 70
1
 10
0.0
 20
5531.0
 10
54.0
 20
5531.0
 10
54.0
 20
5639.0
 10
0.0
 20
5639.0
 10
0.0
 20
5531.0
  0
MTEXT
  5
1BC
330
17
100
AcDbEntity
  8
0
100
AcDbMText
 10
27.0
 20
5585.0
 30
0.0
 40
2.0
 71
5
  1
Steel Plate\P25.0kg\PSteel
  0
LWPOLYLINE
  5
1BD
330
17
100
AcDbEntity
  8
0
100
AcDbPolyline
 90
5
 70
1
 10
185.0
 20
4500.0
 10
239.0
 20
4500.0
 10
239.0
 20
4608.0
 10
185.0
 20
4608.0
 10
185.0
 20
4500.0
  0
MTEXT
  5
1BE
330
17
100
AcDbEntity
  8
0
100
AcDbMText
 10
212.0
 20
4554.0
 30
0.0
 40
2.0
 71
5
  1
Steel Plate\P25.0kg\PSteel
  0
LWPOLYLINE
  5
1BF
330
17
100
AcDbEntity
  8
0
100
AcDbPolyline
 90
5
 70
1
 10
140.0
 20
4828.0
 10
194.0
 20
4828.0
 10
194.0
 20
4935.0
 10
140.0
 20
4935.0
 10
140.0
 20
4828.0
  0
MTEXT
  5
1C0
330
17
100
AcDbEntity
  8
0
100
AcDbMText
 10
167.0
 20
4881.5
 30
0.0
 40
2.0
 71
5
  1
Steel Plate\P25.0kg\PSteel
  0
LWPOLYLINE
  5
1C1
330
17
100
AcDbEntity
  8
0
100
AcDbPolyline
 90
5
 70
1
 10
94.0
 20
5169.0
 10
147.0
 20
5169.0
 10
147.0
 20
5275.0
 10
94.0
 20
5275.0
 10
94.0
 20
5169.0
  0
MTEXT
  5
1C2
330
17
100
AcDbEntity
  8
0
100
AcDbMText
 10
120.5
 20
5222.0
 30
0.0
 40
2.0
 71
5
  1
Steel Plate\P25.0kg\PSteel
  0
LWPOLYLINE
  5
1C3
330
17
100
AcDbEntity
  8
0
100
AcDbPolyline
 90
5
 70
1
 10
79.0
 20
5531.0
 10
98.0
 20
5531.0
 10
98.0
 20
5822.0
 10
79.0
 20
5822.0
 10
79.0
 20
5531.0
  0
MTEXT
  5
1C4
330
17
100
AcDbEntity
  8
0
100
AcDbMText
 10
88.5
 20
5676.5
 30
0.0
 40
2.0
 71
5
  1
Steel Pipe\P15.0kg\PSteel
  0
LWPOLYLINE
  5
1C5
330
17
100
AcDbEntity
  8
0
100
AcDbPolyline
 90
5
 70
1
 10
0.0
 20
5664.0
 10
52.0
 20
5664.0
 10
52.0
 20
5768.0
 10
0.0
 20
5768.0
 10
0.0
 20
5664.0
  0
MTEXT
  5
1C6
330
17
100
AcDbEntity
  8
0
100
AcDbMText
 10
26.0
 20
5716.0
 30
0.0
 40
2.0
 71
5
  1
Steel Plate\P25.0kg\PSteel
  0
LWPOLYLINE
  5
1C7
330
17
100
AcDbEntity
  8
0
100
AcDbPolyline
 90
5
 70
1
 10
264.0
 20
4500.0
 10
283.0
 20
4500.0
 10
283.0
 20
4778.0
 10
264.0
 20
4778.0
 10
264.0
 20
4500.0
  0
MTEXT
  5
1C8
330
17
100
AcDbEntity
  8
0
100
AcDbMText
 10
273.5
 20
4639.0
 30
0.0
 40
2.0
 71
5
  1
Steel Pipe\P15.0kg\PSteel
  0
LWPOLYLINE
  5
1C9
330
17
100
AcDbEntity
  8
0
100
AcDbPolyline
 90
5
 70
1
 10
185.0
 20
4633.0
 10
236.0
 20
4633.0
 10
236.0
 20
4735.0
 10
185.0
 20
4735.0
 10
185.0
 20
4633.0
  0
MTEXT
  5
1CA
330
17
100
AcDbEntity
  8
0
100
AcDbMText
 10
210.5
 20
4684.0
 30
0.0
 40
2.0
 71
5
  1
Steel Plate\P25.0kg\PSteel
  0
LWPOLYLINE
  5
1CB
330
17
100
AcDbEntity
  8
0
100
AcDbPolyline
 90
5
 70
1
 10
219.0
 20
4828.0
 10
269.0
 20
4828.0
 10
269.0
 20
4928.0
 10
219.0
 20
4928.0
 10
219.0
 20
4828.0
  0
MTEXT
  5
1CC
330
17
100
AcDbEntity
  8
0
100
AcDbMText
 10
244.0
 20
4878.0
 30
0.0
 40
2.0
 71
5
  1
Steel Plate\P25.0kg\PSteel
  0
LWPOLYLINE
  5
1CD
330
17
100
AcDbEntity
  8
0
100
AcDbPolyline
 90
5
 70
1
 10
140.0
 20
4960.0
 10
189.0
 20
4960.0
 10
189.0
 20
5058.0
 10
140.0
 20
5058.0
 10
140.0
 20
4960.0
  0
MTEXT
  5
1CE
330
17
100
AcDbEntity
  8
0
100
AcDbMText
 10
164.5
 20
5009.0
 30
0.0
 40
2.0
 71
5
  1
Steel Plate\P25.0kg\PSteel
  0
LWPOLYLINE
  5
1CF
330
17
100
AcDbEntity
  8
0
100
AcDbPolyline
 90
5
 70
1
 10
172.0
 20
5169.0
 10
220.0
 20
5169.0
 10
220.0
 20
5266.0
 10
172.0
 20
5266.0
 10
172.0
 20
5169.0
  0
MTEXT
  5
1D0
330
17
100
AcDbEntity
  8
0
100
AcDbMText
 10
196.0
 20
5217.5
 30
0.0
 40
2.0
 71
5
  1
Steel Plate\P25.0kg\PSteel
  0
LWPOLYLINE
  5
1D1
330
17
100
AcDbEntity
  8
0
100
AcDbPolyline
 90
5
 70
1
 10
94.0
 20
5300.0
 10
142.0
 20
5300.0
 10
142.0
 20
5396.0
 10
94.0
 20
5396.0
 10
94.0
 20
5300.0
  0
MTEXT
  5
1D2
330
17
100
AcDbEntity
  8
0
100
AcDbMText
 10
118.0
 20
5348.0
 30
0.0
 40
2.0
 71
5
  1
Steel Plate\P25.0kg\PSteel
  0
LWPOLYLINE
  5
1D3
330
17
100
AcDbEntity
  8
0
100
AcDbPolyline
 90
5
 70
1
 10
123.0
 20
5531.0
 10
171.0
 20
5531.0
 10
171.0
 20
5626.0
 10
123.0
 20
5626.0
 10
123.0
 20
5531.0
  0
MTEXT
  5
1D4
330
17
100
AcDbEntity
  8
0
100
AcDbMText
 10
147.0
 20
5578.5
 30
0.0
 40
2.0
 71
5
  1
Steel Plate\P25.0kg\PSteel
  0
LWPOLYLINE
  5
1D5
330
17
100
AcDbEntity
  8
0
100
AcDbPolyline
 90
5
 70
1
 10
79.0
 20
5847.0
 10
174.0
 20
5847.0
 10
174.0
 20
5894.0
 10
79.0
 20
5894.0
 10
79.0
 20
5847.0
  0
MTEXT
  5
1D6
330
17
100
AcDbEntity
  8
0
100
AcDbMText
 10
126.5
 20
5870.5
 30
0.0
 40
2.0
 71
5
  1
Steel Plate\P25.0kg\PSteel
  0
LWPOLYLINE
  5
1D7
330
17
100
AcDbEntity
  8
0
100
AcDbPolyline
 90
5
 70
1
 10
0.0
 20
5793.0
 10
47.0
 20
5793.0
 10
47.0
 20
5888.0
 10
0.0
 20
5888.0
 10
0.0
 20
5793.0
  0
MTEXT
  5
1D8
330
17
100
AcDbEntity
  8
0
100
AcDbMText
 10
23.5
 20
5840.5
 30
0.0
 40
2.0
 71
5
  1
Steel Plate\P25.0kg\PSteel
  0
LWPOLYLINE
  5
1D9
330
17
100
AcDbEntity
  8
0
100
AcDbPolyline
 90
5
 70
1
 10
308.0
 20
4500.0
 10
355.0
 20
4500.0
 10
355.0
 20
4595.0
 10
308.0
 20
4595.0
 10
308.0
 20
4500.0
  0
MTEXT
  5
1DA
330
17
100
AcDbEntity
  8
0
100
AcDbMText
 10
331.5
 20
4547.5
 30
0.0
 40
2.0
 71
5
  1
Steel Plate\P25.0kg\PSteel
  0
LWPOLYLINE
  5
1DB
330
17
100
AcDbEntity
  8
0
100
AcDbPolyline
 90
5
 70
1
 10
294.0
 20
4828.0
 10
340.0
 20
4828.0
 10
340.0
 20
4920.0
 10
294.0
 20
4920.0
 10
294.0
 20
4828.0
  0
MTEXT
  5
1DC
330
17
100
AcDbEntity
  8
0
100
AcDbMText
 10
317.0
 20
4874.0
 30
0.0
 40
2.0
 71
5
  1
Steel Plate\P25.0kg\PSteel
  0
LWPOLYLINE
  5
1DD
330
17
100
AcDbEntity
  8
0
100
AcDbPolyline
 90
5
 70
1
 10
219.0
 20
4953.0
 10
265.0
 20
4953.0
 10
265.0
 20
5045.0
 10
219.0
 20
5045.0
 10
219.0
 20
4953.0
  0
MTEXT
  5
1DE
330
17
100
AcDbEntity
  8
0
100
AcDbMText
 10
242.0
 20
4999.0
 30
0.0
 40
2.0
 71
5
  1
Steel Plate\P25.0kg\PSteel
  0
LWPOLYLINE
  5
1DF
330
17
100
AcDbEntity
  8
0
100
AcDbPolyline
 90
5
 70
1
 10
140.0
 20
5083.0
 10
231.0
 20
5083.0
 10
231.0
 20
5129.0
 10
140.0
 20
5129.0
 10
140.0
 20
5083.0
  0
MTEXT
  5
1E0
330
17
100
AcDbEntity
  8
0
100
AcDbMText
 10
185.5
 20
5106.0
 30
0.0
 40
2.0
 71
5
  1
Steel Plate\P25.0kg\PSteel
  0
LWPOLYLINE
  5
1E1
330
17
100
AcDbEntity
  8
0
100
AcDbPolyline
 90
5
 70
1
 10
245.0
 20
5169.0
 10
290.0
 20
5169.0
 10
290.0
 20
5259.0
 10
245.0
 20
5259.0
 10
245.0
 20
5169.0
  0
MTEXT
  5
1E2
330
17
100
AcDbEntity
  8
0
100
AcDbMText
 10
267.5
 20
5214.0
 30
0.0
 40
2.0
 71
5
  1
Steel Plate\P25.0kg\PSteel
  0
LWPOLYLINE
  5
1E3
330
17
100
AcDbEntity
  8
0
100
AcDbPolyline
 90
5
 70
1
 10
172.0
 20
5291.0
 10
215.0
 20
5291.0
 10
215.0
 20
5378.0
 10
172.0
 20
5378.0
 10
172.0
 20
5291.0
  0
MTEXT
  5
1E4
330
17
100
AcDbEntity
  8
0
100
AcDbMText
 10
193.5
 20
5334.5
 30
0.0
 40
2.0
 71
5
  1
Steel Rebar Bundle\P35.0kg\PSteel
  0
LWPOLYLINE
  5
1E5
330
17
100
AcDbEntity
  8
0
100
AcDbPolyline
 90
5
 70
1
 10
94.0
 20
5421.0
 10
181.0
 20
5421.0
 10
181.0
 20
5464.0
 10
94.0
 20
5464.0
 10
94.0
 20
5421.0
  0
MTEXT
  5
1E6
330
17
100
AcDbEntity
  8
0
100
AcDbMText
 10
137.5
 20
5442.5
 30
0.0
 40
2.0
 71
5
  1
Steel Rebar Bundle\P35.0kg\PSteel
  0
LWPOLYLINE
  5
1E7
330
17
100
AcDbEntity
  8
0
100
AcDbPolyline
 90
5
 70
1
 10
196.0
 20
5531.0
 10
239.0
 20
5531.0
 10
239.0
 20
5616.0
 10
196.0
 20
5616.0
 10
196.0
 20
5531.0
  0
MTEXT
  5
1E8
330
17
100
AcDbEntity
  8
0
100
AcDbMText
 10
217.5
 20
5573.5
 30
0.0
 40
2.0
 71
5
  1
Steel Rebar Bundle\P35.0kg\PSteel
  0
LWPOLYLINE
  5
1E9
330
17
100
AcDbEntity
  8
0
100
AcDbPolyline
 90
5
 70
1
 10
123.0
 20
5651.0
 10
166.0
 20
5651.0
 10
166.0
 20
5736.0
 10
123.0
 20
5736.0
 10
123.0
 20
5651.0
  0
MTEXT
  5
1EA
330
17
100
AcDbEntity
  8
0
100
AcDbMText
 10
144.5
 20
5693.5
 30
0.0
 40
2.0
 71
5
  1
Steel Rebar Bundle\P35.0kg\PSteel
  0
LWPOLYLINE
  5
1EB
330
17
100
AcDbEntity
  8
0
100
AcDbPolyline
 90
5
 70
1
 10
199.0
 20
5847.0
 10
284.0
 20
5847.0
 10
284.0
 20
5889.0
 10
199.0
 20
5889.0
 10
199.0
 20
5847.0
  0
MTEXT
  5
1EC
330
17
100
AcDbEntity
  8
0
100
AcDbMText
 10
241.5
 20
5868.0
 30
0.0
 40
2.0
 71
5
  1
Steel Rebar Bundle\P35.0kg\PSteel
  0
LWPOLYLINE
  5
1ED
330
17
100
AcDbEntity
  8
0
100
AcDbPolyline
 90
5
 70
1
 10
380.0
 20
4500.0
 10
422.0
 20
4500.0
 10
422.0
 20
4585.0
 10
380.0
 20
4585.0
 10
380.0
 20
4500.0
  0
MTEXT
  5
1EE
330
17
100
AcDbEntity
  8
0
100
AcDbMText
 10
401.0
 20
4542.5
 30
0.0
 40
2.0
 71
5
  1
Steel Rebar Bundle\P35.0kg\PSteel
  0
LWPOLYLINE
  5
1EF
330
17
100
AcDbEntity
  8
0
100
AcDbPolyline
 90
5
 70
1
 10
308.0
 20
4620.0
 10
349.0
 20
4620.0
 10
349.0
 20
4702.0
 10
308.0
 20
4702.0
 10
308.0
 20
4620.0
  0
MTEXT
  5
1F0
330
17
100
AcDbEntity
  8
0
100
AcDbMText
 10
328.5
 20
4661.0
 30
0.0
 40
2.0
 71
5
  1
Steel Rebar Bundle\P35.0kg\PSteel
  0
LWPOLYLINE
  5
1F1
330
17
100
AcDbEntity
  8
0
100
AcDbPolyline
 90
5
 70
1
 10
365.0
 20
4828.0
 10
405.0
 20
4828.0
 10
405.0
 20
4908.0
 10
365.0
 20
4908.0
 10
365.0
 20
4828.0
  0
MTEXT
  5
1F2
330
17
100
AcDbEntity
  8
0
100
AcDbMText
 10
385.0
 20
4868.0
 30
0.0
 40
2.0
 71
5
  1
Steel Rebar Bundle\P35.0kg\PSteel
  0
LWPOLYLINE
  5
1F3
330
17
100
AcDbEntity
  8
0
100
AcDbPolyline
 90
5
 70
1
 10
294.0
 20
4945.0
 10
334.0
 20
4945.0
 10
334.0
 20
5025.0
 10
294.0
 20
5025.0
 10
294.0
 20
4945.0
  0
MTEXT
  5
1F4
330
17
100
AcDbEntity
  8
0
100
AcDbMText
 10
314.0
 20
4985.0
 30
0.0
 40
2.0
 71
5
  1
Steel Rebar Bundle\P35.0kg\PSteel
  0
LWPOLYLINE
  5
1F5
330
17
100
AcDbEntity
  8
0
100
AcDbPolyline
 90
5
 70
1
 10
256.0
 20
5083.0
 10
336.0
 20
5083.0
 10
336.0
 20
5123.0
 10
256.0
 20
5123.0
 10
256.0
 20
5083.0
  0
MTEXT
  5
1F6
330
17
100
AcDbEntity
  8
0
100
AcDbMText
 10
296.0
 20
5103.0
 30
0.0
 40
2.0
 71
5
  1
Steel Rebar Bundle\P35.0kg\PSteel
  0
LWPOLYLINE
  5
1F7
330
17
100
AcDbEntity
  8
0
100
AcDbPolyline
 90
5
 70
1
 10
315.0
 20
5169.0
 10
355.0
 20
5169.0
 10
355.0
 20
5249.0
 10
315.0
 20
5249.0
 10
315.0
 20
5169.0
  0
MTEXT
  5
1F8
330
17
100
AcDbEntity
  8
0
100
AcDbMText
 10
335.0
 20
5209.0
 30
0.0
 40
2.0
 71
5
  1
Steel Rebar Bundle\P35.0kg\PSteel
  0
LWPOLYLINE
  5
1F9
330
17
100
AcDbEntity
  8
0
100
AcDbPolyline
 90
5
 70
1
 10
245.0
 20
5284.0
 10
283.0
 20
5284.0
 10
283.0
 20
5359.0
 10
245.0
 20
5359.0
 10
245.0
 20
5284.0
  0
MTEXT
  5
1FA
330
17
100
AcDbEntity
  8
0
100
AcDbMText
 10
264.0
 20
5321.5
 30
0.0
 40
2.0
 71
5
  1
Steel Rebar Bundle\P35.0kg\PSteel
  0
LWPOLYLINE
  5
1FB
330
17
100
AcDbEntity
  8
0
100
AcDbPolyline
 90
5
 70
1
 10
206.0
 20
5421.0
 10
243.0
 20
5421.0
 10
243.0
 20
5495.0
 10
206.0
 20
5495.0
 10
206.0
 20
5421.0
  0
MTEXT
  5
1FC
330
17
100
AcDbEntity
  8
0
100
AcDbMText
 10
224.5
 20
5458.0
 30
0.0
 40
2.0
 71
5
  1
Steel Rebar Bundle\P35.0kg\PSteel
  0
LWPOLYLINE
  5
1FD
330
17
100
AcDbEntity
  8
0
100
AcDbPolyline
 90
5
 70
1
 10
264.0
 20
5531.0
 10
300.0
 20
5531.0
 10
300.0
 20
5603.0
 10
264.0
 20
5603.0
 10
264.0
 20
5531.0
  0
MTEXT
  5
1FE
330
17
100
AcDbEntity
  8
0
100
AcDbMText
 10
282.0
 20
5567.0
 30
0.0
 40
2.0
 71
5
  1
Steel Rebar Bundle\P35.0kg\PSteel
  0
LWPOLYLINE
  5
1FF
330
17
100
AcDbEntity
  8
0
100
AcDbPolyline
 90
5
 70
1
 10
196.0
 20
5641.0
 10
378.0
 20
5641.0
 10
378.0
 20
5655.0
 10
196.0
 20
5655.0
 10
196.0
 20
5641.0
  0
MTEXT
  5
200
330
17
100
AcDbEntity
  8
0
100
AcDbMText
 10
287.0
 20
5648.0
 30
0.0
 40
2.0
 71
5
  1
Plastic Pipe\P3.0kg\PPlastic
  0
LWPOLYLINE
  5
201
330
17
100
AcDbEntity
  8
0
100
AcDbPolyline
 90
5
 70
1
 10
123.0
 20
5761.0
 10
304.0
 20
5761.0
 10
304.0
 20
5775.0
 10
123.0
 20
5775.0
 10
123.0
 20
5761.0
  0
MTEXT
  5
202
330
17
100
AcDbEntity
  8
0
100
AcDbMText
 10
213.5
 20
5768.0
 30
0.0
 40
2.0
 71
5
  1
Plastic Pipe\P3.0kg\PPlastic
  0
LWPOLYLINE
  5
203
330
17
100
AcDbEntity
  8
0
100
AcDbPolyline
 90
5
 70
1
 10
309.0
 20
5847.0
 10
489.0
 20
5847.0
 10
489.0
 20
5861.0
 10
309.0
 20
5861.0
 10
309.0
 20
5847.0
  0
MTEXT
  5
204
330
17
100
AcDbEntity
  8
0
100
AcDbMText
 10
399.0
 20
5854.0
 30
0.0
 40
2.0
 71
5
  1
Plastic Pipe\P3.0kg\PPlastic
  0
LWPOLYLINE
  5
205
330
17
100
AcDbEntity
  8
0
100
AcDbPolyline
 90
5
 70
1
 10
447.0
 20
4500.0
 10
495.0
 20
4500.0
 10
495.0
 20
4548.0
 10
447.0
 20
4548.0
 10
447.0
 20
4500.0
  0
MTEXT
  5
206
330
17
100
AcDbEntity
  8
0
100
AcDbMText
 10
471.0
 20
4524.0
 30
0.0
 40
2.0
 71
5
  1
Concrete Tile\P15.0kg\PConcrete
  0
LWPOLYLINE
  5
207
330
17
100
AcDbEntity
  8
0
100
AcDbPolyline
 90
5
 70
1
 10
380.0
 20
4610.0
 10
428.0
 20
4610.0
 10
428.0
 20
4658.0
 10
380.0
 20
4658.0
 10
380.0
 20
4610.0
  0
MTEXT
  5
208
330
17
100
AcDbEntity
  8
0
100
AcDbMText
 10
404.0
 20
4634.0
 30
0.0
 40
2.0
 71
5
  1
Plastic Bin\P4.0kg\PPlastic
  0
LWPOLYLINE
  5
209
330
17
100
AcDbEntity
  8
0
100
AcDbPolyline
 90
5
 70
1
 10
308.0
 20
4727.0
 10
356.0
 20
4727.0
 10
356.0
 20
4775.0
 10
308.0
 20
4775.0
 10
308.0
 20
4727.0
  0
MTEXT
  5
20A
330
17
100
AcDbEntity
  8
0
100
AcDbMText
 10
332.0
 20
4751.0
 30
0.0
 40
2.0
 71
5
  1
Plastic Bin\P4.0kg\PPlastic
  0
LWPOLYLINE
  5
20B
330
17
100
AcDbEntity
  8
0
100
AcDbPolyline
 90
5
 70
1
 10
430.0
 20
4828.0
 10
469.0
 20
4828.0
 10
469.0
 20
4887.0
 10
430.0
 20
4887.0
 10
430.0
 20
4828.0
  0
MTEXT
  5
20C
330
17
100
AcDbEntity
  8
0
100
AcDbMText
 10
449.5
 20
4857.5
 30
0.0
 40
2.0
 71
5
  1
Plastic Container\P5.0kg\PPlastic
  0
LWPOLYLINE
  5
20D
330
17
100
AcDbEntity
  8
0
100
AcDbPolyline
 90
5
 70
1
 10
365.0
 20
4933.0
 10
404.0
 20
4933.0
 10
404.0
 20
4992.0
 10
365.0
 20
4992.0
 10
365.0
 20
4933.0
  0
MTEXT
  5
20E
330
17
100
AcDbEntity
  8
0
100
AcDbMText
 10
384.5
 20
4962.5
 30
0.0
 40
2.0
 71
5
  1
Plastic Container\P5.0kg\PPlastic
  0
LWPOLYLINE
  5
20F
330
17
100
AcDbEntity
  8
0
100
AcDbPolyline
 90
5
 70
1
 10
361.0
 20
5083.0
 10
400.0
 20
5083.0
 10
400.0
 20
5141.0
 10
361.0
 20
5141.0
 10
361.0
 20
5083.0
  0
MTEXT
  5
210
330
17
100
AcDbEntity
  8
0
100
AcDbMText
 10
380.5
 20
5112.0
 30
0.0
 40
2.0
 71
5
  1
Plastic Container\P5.0kg\PPlastic
  0
LWPOLYLINE
  5
211
330
17
100
AcDbEntity
  8
0
100
AcDbPolyline
 90
5
 70
1
 10
380.0
 20
5169.0
 10
419.0
 20
5169.0
 10
419.0
 20
5227.0
 10
380.0
 20
5227.0
 10
380.0
 20
5169.0
  0
MTEXT
  5
212
330
17
100
AcDbEntity
  8
0
100
AcDbMText
 10
399.5
 20
5198.0
 30
0.0
 40
2.0
 71
5
  1
Plastic Container\P5.0kg\PPlastic
  0
LWPOLYLINE
  5
213
330
17
100
AcDbEntity
  8
0
100
AcDbPolyline
 90
5
 70
1
 10
315.0
 20
5274.0
 10
362.0
 20
5274.0
 10
362.0
 20
5321.0
 10
315.0
 20
5321.0
 10
315.0
 20
5274.0
  0
MTEXT
  5
214
330
17
100
AcDbEntity
  8
0
100
AcDbMText
 10
338.5
 20
5297.5
 30
0.0
 40
2.0
 71
5
  1
Concrete Tile\P15.0kg\PConcrete
  0
LWPOLYLINE
  5
215
330
17
100
AcDbEntity
  8
0
100
AcDbPolyline
 90
5
 70
1
 10
268.0
 20
5421.0
 10
315.0
 20
5421.0
 10
315.0
 20
5468.0
 10
268.0
 20
5468.0
 10
268.0
 20
5421.0
  0
MTEXT
  5
216
330
17
100
AcDbEntity
  8
0
100
AcDbMText
 10
291.5
 20
5444.5
 30
0.0
 40
2.0
 71
5
  1
Concrete Tile\P15.0kg\PConcrete
  0
LWPOLYLINE
  5
217
330
17
100
AcDbEntity
  8
0
100
AcDbPolyline
 90
5
 70
1
 10
325.0
 20
5531.0
 10
372.0
 20
5531.0
 10
372.0
 20
5578.0
 10
325.0
 20
5578.0
 10
325.0
 20
5531.0
  0
MTEXT
  5
218
330
17
100
AcDbEntity
  8
0
100
AcDbMText
 10
348.5
 20
5554.5
 30
0.0
 40
2.0
 71
5
  1
Concrete Tile\P15.0kg\PConcrete
  0
LWPOLYLINE
  5
219
330
17
100
AcDbEntity
  8
0
100
AcDbPolyline
 90
5
 70
1
 10
403.0
 20
5641.0
 10
450.0
 20
5641.0
 10
450.0
 20
5688.0
 10
403.0
 20
5688.0
 10
403.0
 20
5641.0
  0
MTEXT
  5
21A
330
17
100
AcDbEntity
  8
0
100
AcDbMText
 10
426.5
 20
5664.5
 30
0.0
 40
2.0
 71
5
  1
Concrete Tile\P15.0kg\PConcrete
  0
LWPOLYLINE
  5
21B
330
17
100
AcDbEntity
  8
0
100
AcDbPolyline
 90
5
 70
1
 10
196.0
 20
5680.0
 10
243.0
 20
5680.0
 10
243.0
 20
5727.0
 10
196.0
 20
5727.0
 10
196.0
 20
5680.0
  0
MTEXT
  5
21C
330
17
100
AcDbEntity
  8
0
100
AcDbMText
 10
219.5
 20
5703.5
 30
0.0
 40
2.0
 71
5
  1
Plastic Bin\P4.0kg\PPlastic
  0
LWPOLYLINE
  5
21D
330
17
100
AcDbEntity
  8
0
100
AcDbPolyline
 90
5
 70
1
 10
329.0
 20
5761.0
 10
367.0
 20
5761.0
 10
367.0
 20
5818.0
 10
329.0
 20
5818.0
 10
329.0
 20
5761.0
  0
MTEXT
  5
21E
330
17
100
AcDbEntity
  8
0
100
AcDbMText
 10
348.0
 20
5789.5
 30
0.0
 40
2.0
 71
5
  1
Plastic Container\P5.0kg\PPlastic
  0
LWPOLYLINE
  5
21F
330
17
100
AcDbEntity
  8
0
100
AcDbPolyline
 90
5
 70
1
 10
514.0
 20
5847.0
 10
552.0
 20
5847.0
 10
552.0
 20
5904.0
 10
514.0
 20
5904.0
 10
514.0
 20
5847.0
  0
MTEXT
  5
220
330
17
100
AcDbEntity
  8
0
100
AcDbMText
 10
533.0
 20
5875.5
 30
0.0
 40
2.0
 71
5
  1
Plastic Container\P5.0kg\PPlastic
  0
LWPOLYLINE
  5
221
330
17
100
AcDbEntity
  8
0
100
AcDbPolyline
 90
5
 70
1
 10
520.0
 20
4500.0
 10
566.0
 20
4500.0
 10
566.0
 20
4546.0
 10
520.0
 20
4546.0
 10
520.0
 20
4500.0
  0
MTEXT
  5
222
330
17
100
AcDbEntity
  8
0
100
AcDbMText
 10
543.0
 20
4523.0
 30
0.0
 40
2.0
 71
5
  1
Concrete Tile\P15.0kg\PConcrete
  0
LWPOLYLINE
  5
223
330
17
100
AcDbEntity
  8
0
100
AcDbPolyline
 90
5
 70
1
 10
453.0
 20
4610.0
 10
499.0
 20
4610.0
 10
499.0
 20
4656.0
 10
453.0
 20
4656.0
 10
453.0
 20
4610.0
  0
MTEXT
  5
224
330
17
100
AcDbEntity
  8
0
100
AcDbMText
 10
476.0
 20
4633.0
 30
0.0
 40
2.0
 71
5
  1
Plastic Bin\P4.0kg\PPlastic
  0
LWPOLYLINE
  5
225
330
17
100
AcDbEntity
  8
0
100
AcDbPolyline
 90
5
 70
1
 10
381.0
 20
4727.0
 10
426.0
 20
4727.0
 10
426.0
 20
4772.0
 10
381.0
 20
4772.0
 10
381.0
 20
4727.0
  0
MTEXT
  5
226
330
17
100
AcDbEntity
  8
0
100
AcDbMText
 10
403.5
 20
4749.5
 30
0.0
 40
2.0
 71
5
  1
Concrete Tile\P15.0kg\PConcrete
  0
ENDSEC
  0
SECTION
  2
OBJECTS
  0
DICTIONARY
  5
A
330
0
100
AcDbDictionary
281
1
  3
ACAD_COLOR
350
B
  3
ACAD_GROUP
350
C
  3
ACAD_LAYOUT
350
D
  3
ACAD_MATERIAL
350
E
  3
ACAD_MLEADERSTYLE
350
F
  3
ACAD_MLINESTYLE
350
10
  3
ACAD_PLOTSETTINGS
350
11
  3
ACAD_PLOTSTYLENAME
350
12
  3
ACAD_SCALELIST
350
14
  3
ACAD_TABLESTYLE
350
15
  3
ACAD_VISUALSTYLE
350
16
  3
EZDXF_META
350
2D
  0
DICTIONARY
  5
B
330
A
100
AcDbDictionary
281
1
  0
DICTIONARY
  5
C
330
A
100
AcDbDictionary
281
1
  0
DICTIONARY
  5
D
330
A
100
AcDbDictionary
281
1
  3
Model
350
1A
  3
Layout1
350
1E
  0
DICTIONARY
  5
E
330
A
100
AcDbDictionary
281
1
  3
ByBlock
350
1F
  3
ByLayer
350
20
  3
Global
350
21
  0
DICTIONARY
  5
F
330
A
100
AcDbDictionary
281
1
  3
Standard
350
2C
  0
DICTIONARY
  5
10
330
A
100
AcDbDictionary
281
1
  3
Standard
350
22
  0
DICTIONARY
  5
11
330
A
100
AcDbDictionary
281
1
  0
ACDBDICTIONARYWDFLT
  5
12
330
A
100
AcDbDictionary
281
1
  3
Normal
350
13
100
AcDbDictionaryWithDefault
340
13
  0
ACDBPLACEHOLDER
  5
13
330
12
  0
DICTIONARY
  5
14
330
A
100
AcDbDictionary
281
1
  0
DICTIONARY
  5
15
330
A
100
AcDbDictionary
281
1
  0
DICTIONARY
  5
16
330
A
100
AcDbDictionary
281
1
  0
LAYOUT
  5
1A
330
D
100
AcDbPlotSettings
  1

  4
A3
  6

 40
7.5
 41
20.0
 42
7.5
 43
20.0
 44
420.0
 45
297.0
 46
0.0
 47
0.0
 48
0.0
 49
0.0
140
0.0
141
0.0
142
1.0
143
1.0
 70
1024
 72
1
 73
0
 74
5
  7

 75
16
 76
0
 77
2
 78
300
147
1.0
148
0.0
149
0.0
100
AcDbLayout
  1
Model
 70
1
 71
0
 10
0.0
 20
0.0
 11
420.0
 21
297.0
 12
0.0
 22
0.0
 32
0.0
 14
1e+20
 24
1e+20
 34
1e+20
 15
-1e+20
 25
-1e+20
 35
-1e+20
146
0.0
 13
0.0
 23
0.0
 33
0.0
 16
1.0
 26
0.0
 36
0.0
 17
0.0
 27
1.0
 37
0.0
 76
1
330
17
  0
LAYOUT
  5
1E
330
D
100
AcDbPlotSettings
  1

  4
A3
  6

 40
7.5
 41
20.0
 42
7.5
 43
20.0
 44
420.0
 45
297.0
 46
0.0
 47
0.0
 48
0.0
 49
0.0
140
0.0
141
0.0
142
1.0
143
1.0
 70
0
 72
1
 73
0
 74
5
  7

 75
16
 76
0
 77
2
 78
300
147
1.0
148
0.0
149
0.0
100
AcDbLayout
  1
Layout1
 70
1
 71
1
 10
0.0
 20
0.0
 11
420.0
 21
297.0
 12
0.0
 22
0.0
 32
0.0
 14
1e+20
 24
1e+20
 34
1e+20
 15
-1e+20
 25
-1e+20
 35
-1e+20
146
0.0
 13
0.0
 23
0.0
 33
0.0
 16
1.0
 26
0.0
 36
0.0
 17
0.0
 27
1.0
 37
0.0
 76
1
330
1B
  0
MATERIAL
  5
1F
102
{ACAD_REACTORS
330
E
102
}
330
E
100
AcDbMaterial
  1
ByBlock
  2

 70
0
 40
1.0
 71
1
 41
1.0
 91
-1023410177
 42
1.0
 72
1
  3

 73
1
 74
1
 75
1
 44
0.5
 73
0
 45
1.0
 46
1.0
 77
1
  4

 78
1
 79
1
170
1
 48
1.0
171
1
  6

172
1
173
1
174
1
140
1.0
141
1.0
175
1
  7

176
1
177
1
178
1
143
1.0
179
1
  8

270
1
271
1
272
1
145
1.0
146
1.0
273
1
  9

274
1
275
1
276
1
 42
1.0
 72
1
  3

 73
1
 74
1
 75
1
 94
63
  0
MATERIAL
  5
20
102
{ACAD_REACTORS
330
E
102
}
330
E
100
AcDbMaterial
  1
ByLayer
  2

 70
0
 40
1.0
 71
1
 41
1.0
 91
-1023410177
 42
1.0
 72
1
  3

 73
1
 74
1
 75
1
 44
0.5
 73
0
 45
1.0
 46
1.0
 77
1
  4

 78
1
 79
1
170
1
 48
1.0
171
1
  6

172
1
173
1
174
1
140
1.0
141
1.0
175
1
  7

176
1
177
1
178
1
143
1.0
179
1
  8

270
1
271
1
272
1
145
1.0
146
1.0
273
1
  9

274
1
275
1
276
1
 42
1.0
 72
1
  3

 73
1
 74
1
 75
1
 94
63
  0
MATERIAL
  5
21
102
{ACAD_REACTORS
330
E
102
}
330
E
100
AcDbMaterial
  1
Global
  2

 70
0
 40
1.0
 71
1
 41
1.0
 91
-1023410177
 42
1.0
 72
1
  3

 73
1
 74
1
 75
1
 44
0.5
 73
0
 45
1.0
 46
1.0
 77
1
  4

 78
1
 79
1
170
1
 48
1.0
171
1
  6

172
1
173
1
174
1
140
1.0
141
1.0
175
1
  7

176
1
177
1
178
1
143
1.0
179
1
  8

270
1
271
1
272
1
145
1.0
146
1.0
273
1
  9

274
1
275
1
276
1
 42
1.0
 72
1
  3

 73
1
 74
1
 75
1
 94
63
  0
MLINESTYLE
  5
22
102
{ACAD_REACTORS
330
10
102
}
330
10
100
AcDbMlineStyle
  2
Standard
 70
0
  3

 62
256
 51
90.0
 52
90.0
 71
2
 49
0.5
 62
256
  6
BYLAYER
 49
-0.5
 62
256
  6
BYLAYER
  0
MLEADERSTYLE
  5
2C
102
{ACAD_REACTORS
330
F
102
}
330
F
100
AcDbMLeaderStyle
179
2
170
2
171
1
172
0
 90
2
 40
0.0
 41
0.0
173
1
 91
-1056964608
 92
-2
290
1
 42
2.0
291
1
 43
8.0
  3
Standard
 44
4.0
300

342
29
174
1
175
1
176
0
178
1
 93
-1056964608
 45
4.0
292
0
297
0
 46
4.0
 94
-1056964608
 47
1.0
 49
1.0
140
1.0
294
1
141
0.0
177
0
142
1.0
295
0
296
0
143
3.75
271
0
272
9
273
9
  0
DICTIONARY
  5
2D
330
A
100
AcDbDictionary
280
1
281
1
  3
CREATED_BY_EZDXF
350
2E
  3
WRITTEN_BY_EZDXF
350
229
  0
DICTIONARYVAR
  5
2E
330
2D
100
DictionaryVariables
280
0
  1
1.4.3 @ 2026-02-18T16:15:04.378840+00:00
  0
DICTIONARYVAR
  5
229
330
2D
100
DictionaryVariables
280
0
  1
1.4.3 @ 2026-02-18T16:15:04.388926+00:00
  0
ENDSEC
  0
EOF
